G04 #@! TF.GenerationSoftware,KiCad,Pcbnew,(5.0.2)-1*
G04 #@! TF.CreationDate,2018-12-23T15:21:20+09:00*
G04 #@! TF.ProjectId,Nixie_Module_IN-14,4e697869-655f-44d6-9f64-756c655f494e,rev?*
G04 #@! TF.SameCoordinates,Original*
G04 #@! TF.FileFunction,Copper,L1,Top*
G04 #@! TF.FilePolarity,Positive*
%FSLAX46Y46*%
G04 Gerber Fmt 4.6, Leading zero omitted, Abs format (unit mm)*
G04 Created by KiCad (PCBNEW (5.0.2)-1) date 2018/12/23 15:21:20*
%MOMM*%
%LPD*%
G01*
G04 APERTURE LIST*
G04 #@! TA.AperFunction,SMDPad,CuDef*
%ADD10R,0.800000X0.900000*%
G04 #@! TD*
G04 #@! TA.AperFunction,ComponentPad*
%ADD11C,1.346200*%
G04 #@! TD*
G04 #@! TA.AperFunction,SMDPad,CuDef*
%ADD12R,0.900000X0.800000*%
G04 #@! TD*
G04 #@! TA.AperFunction,ComponentPad*
%ADD13R,1.700000X1.700000*%
G04 #@! TD*
G04 #@! TA.AperFunction,ComponentPad*
%ADD14O,1.700000X1.700000*%
G04 #@! TD*
G04 #@! TA.AperFunction,SMDPad,CuDef*
%ADD15R,0.750000X0.800000*%
G04 #@! TD*
G04 #@! TA.AperFunction,SMDPad,CuDef*
%ADD16R,0.900000X0.500000*%
G04 #@! TD*
G04 #@! TA.AperFunction,SMDPad,CuDef*
%ADD17R,0.500000X0.900000*%
G04 #@! TD*
G04 #@! TA.AperFunction,SMDPad,CuDef*
%ADD18R,0.400000X1.100000*%
G04 #@! TD*
G04 #@! TA.AperFunction,SMDPad,CuDef*
%ADD19R,2.500000X0.850000*%
G04 #@! TD*
G04 #@! TA.AperFunction,ViaPad*
%ADD20C,0.600000*%
G04 #@! TD*
G04 #@! TA.AperFunction,Conductor*
%ADD21C,1.000000*%
G04 #@! TD*
G04 #@! TA.AperFunction,Conductor*
%ADD22C,0.500000*%
G04 #@! TD*
G04 #@! TA.AperFunction,Conductor*
%ADD23C,0.250000*%
G04 #@! TD*
G04 #@! TA.AperFunction,Conductor*
%ADD24C,0.254000*%
G04 #@! TD*
G04 APERTURE END LIST*
D10*
G04 #@! TO.P,Q1,1*
G04 #@! TO.N,Net-(Q1-Pad1)*
X82230000Y-81804000D03*
G04 #@! TO.P,Q1,2*
G04 #@! TO.N,GND*
X80330000Y-81804000D03*
G04 #@! TO.P,Q1,3*
G04 #@! TO.N,/NIX_1*
X81280000Y-83804000D03*
G04 #@! TD*
D11*
G04 #@! TO.P,N1,0*
G04 #@! TO.N,/NIX_0*
X74155300Y-88686640D03*
G04 #@! TO.P,N1,1*
G04 #@! TO.N,/NIX_1*
X84340700Y-88686640D03*
G04 #@! TO.P,N1,2*
G04 #@! TO.N,/NIX_2*
X85392260Y-91457780D03*
G04 #@! TO.P,N1,3*
G04 #@! TO.N,/NIX_3*
X85034120Y-94396560D03*
G04 #@! TO.P,N1,4*
G04 #@! TO.N,/NIX_4*
X83352640Y-96834960D03*
G04 #@! TO.P,N1,5*
G04 #@! TO.N,/NIX_5*
X80728820Y-98211640D03*
G04 #@! TO.P,N1,6*
G04 #@! TO.N,/NIX_6*
X77767180Y-98211640D03*
G04 #@! TO.P,N1,7*
G04 #@! TO.N,/NIX_7*
X75143360Y-96834960D03*
G04 #@! TO.P,N1,8*
G04 #@! TO.N,/NIX_8*
X73461880Y-94396560D03*
G04 #@! TO.P,N1,9*
G04 #@! TO.N,/NIX_9*
X73103740Y-91457780D03*
G04 #@! TO.P,N1,A*
G04 #@! TO.N,Net-(N1-PadA)*
X79248000Y-86014560D03*
G04 #@! TO.P,N1,LHDP*
G04 #@! TO.N,N/C*
X76372720Y-86723220D03*
G04 #@! TO.P,N1,RHDP*
X82123280Y-86723220D03*
G04 #@! TD*
D12*
G04 #@! TO.P,Q7,1*
G04 #@! TO.N,Net-(Q7-Pad1)*
X87868000Y-97216000D03*
G04 #@! TO.P,Q7,2*
G04 #@! TO.N,GND*
X87868000Y-95316000D03*
G04 #@! TO.P,Q7,3*
G04 #@! TO.N,/NIX_4*
X85868000Y-96266000D03*
G04 #@! TD*
D10*
G04 #@! TO.P,Q2,1*
G04 #@! TO.N,Net-(Q2-Pad1)*
X80198000Y-95266000D03*
G04 #@! TO.P,Q2,2*
G04 #@! TO.N,GND*
X78298000Y-95266000D03*
G04 #@! TO.P,Q2,3*
G04 #@! TO.N,/NIX_6*
X79248000Y-97266000D03*
G04 #@! TD*
G04 #@! TO.P,Q3,1*
G04 #@! TO.N,Net-(Q3-Pad1)*
X86040000Y-83582000D03*
G04 #@! TO.P,Q3,2*
G04 #@! TO.N,GND*
X84140000Y-83582000D03*
G04 #@! TO.P,Q3,3*
G04 #@! TO.N,/NIX_2*
X85090000Y-85582000D03*
G04 #@! TD*
D12*
G04 #@! TO.P,Q4,1*
G04 #@! TO.N,Net-(Q4-Pad1)*
X70628000Y-95316000D03*
G04 #@! TO.P,Q4,2*
G04 #@! TO.N,GND*
X70628000Y-97216000D03*
G04 #@! TO.P,Q4,3*
G04 #@! TO.N,/NIX_7*
X72628000Y-96266000D03*
G04 #@! TD*
G04 #@! TO.P,Q5,1*
G04 #@! TO.N,Net-(Q5-Pad1)*
X87868000Y-88834000D03*
G04 #@! TO.P,Q5,2*
G04 #@! TO.N,GND*
X87868000Y-86934000D03*
G04 #@! TO.P,Q5,3*
G04 #@! TO.N,/NIX_3*
X85868000Y-87884000D03*
G04 #@! TD*
G04 #@! TO.P,Q6,1*
G04 #@! TO.N,Net-(Q6-Pad1)*
X70628000Y-86934000D03*
G04 #@! TO.P,Q6,2*
G04 #@! TO.N,GND*
X70628000Y-88834000D03*
G04 #@! TO.P,Q6,3*
G04 #@! TO.N,/NIX_8*
X72628000Y-87884000D03*
G04 #@! TD*
D10*
G04 #@! TO.P,Q8,1*
G04 #@! TO.N,Net-(Q8-Pad1)*
X74356000Y-83582000D03*
G04 #@! TO.P,Q8,2*
G04 #@! TO.N,GND*
X72456000Y-83582000D03*
G04 #@! TO.P,Q8,3*
G04 #@! TO.N,/NIX_9*
X73406000Y-85582000D03*
G04 #@! TD*
G04 #@! TO.P,Q9,1*
G04 #@! TO.N,Net-(Q9-Pad1)*
X78298000Y-101076000D03*
G04 #@! TO.P,Q9,2*
G04 #@! TO.N,GND*
X80198000Y-101076000D03*
G04 #@! TO.P,Q9,3*
G04 #@! TO.N,/NIX_5*
X79248000Y-99076000D03*
G04 #@! TD*
G04 #@! TO.P,Q10,1*
G04 #@! TO.N,Net-(Q10-Pad1)*
X78166000Y-81804000D03*
G04 #@! TO.P,Q10,2*
G04 #@! TO.N,GND*
X76266000Y-81804000D03*
G04 #@! TO.P,Q10,3*
G04 #@! TO.N,/NIX_0*
X77216000Y-83804000D03*
G04 #@! TD*
D13*
G04 #@! TO.P,J3,1*
G04 #@! TO.N,+HV*
X84328000Y-100076000D03*
D14*
G04 #@! TO.P,J3,2*
X86868000Y-100076000D03*
G04 #@! TD*
D13*
G04 #@! TO.P,J4,1*
G04 #@! TO.N,GND*
X71628000Y-100076000D03*
D14*
G04 #@! TO.P,J4,2*
X74168000Y-100076000D03*
G04 #@! TD*
D15*
G04 #@! TO.P,C1,1*
G04 #@! TO.N,+5V*
X80264000Y-89396000D03*
G04 #@! TO.P,C1,2*
G04 #@! TO.N,GND*
X80264000Y-87896000D03*
G04 #@! TD*
G04 #@! TO.P,C2,2*
G04 #@! TO.N,GND*
X74676000Y-68338000D03*
G04 #@! TO.P,C2,1*
G04 #@! TO.N,+5V*
X74676000Y-69838000D03*
G04 #@! TD*
G04 #@! TO.P,C3,1*
G04 #@! TO.N,+5V*
X74676000Y-71640000D03*
G04 #@! TO.P,C3,2*
G04 #@! TO.N,GND*
X74676000Y-73140000D03*
G04 #@! TD*
D13*
G04 #@! TO.P,J1,1*
G04 #@! TO.N,+5V*
X71628000Y-64516000D03*
D14*
G04 #@! TO.P,J1,2*
G04 #@! TO.N,/I2C_SDA*
X74168000Y-64516000D03*
G04 #@! TO.P,J1,3*
G04 #@! TO.N,/I2C_SCL*
X76708000Y-64516000D03*
G04 #@! TO.P,J1,4*
G04 #@! TO.N,/#OE*
X79248000Y-64516000D03*
G04 #@! TO.P,J1,5*
G04 #@! TO.N,/LED_DIN*
X81788000Y-64516000D03*
G04 #@! TO.P,J1,6*
G04 #@! TO.N,/LED_DOUT*
X84328000Y-64516000D03*
G04 #@! TO.P,J1,7*
G04 #@! TO.N,GND*
X86868000Y-64516000D03*
G04 #@! TD*
D16*
G04 #@! TO.P,R1,2*
G04 #@! TO.N,Net-(N1-PadA)*
X78232000Y-87896000D03*
G04 #@! TO.P,R1,1*
G04 #@! TO.N,+HV*
X78232000Y-89396000D03*
G04 #@! TD*
G04 #@! TO.P,R2,2*
G04 #@! TO.N,/#OE*
X87376000Y-68592000D03*
G04 #@! TO.P,R2,1*
G04 #@! TO.N,GND*
X87376000Y-70092000D03*
G04 #@! TD*
D17*
G04 #@! TO.P,R3,1*
G04 #@! TO.N,Net-(Q1-Pad1)*
X82284000Y-80010000D03*
G04 #@! TO.P,R3,2*
G04 #@! TO.N,/NIX_1_G*
X80784000Y-80010000D03*
G04 #@! TD*
G04 #@! TO.P,R4,1*
G04 #@! TO.N,Net-(Q2-Pad1)*
X81800000Y-94742000D03*
G04 #@! TO.P,R4,2*
G04 #@! TO.N,/NIX_6_G*
X83300000Y-94742000D03*
G04 #@! TD*
G04 #@! TO.P,R5,2*
G04 #@! TO.N,/NIX_2_G*
X84594000Y-81788000D03*
G04 #@! TO.P,R5,1*
G04 #@! TO.N,Net-(Q3-Pad1)*
X86094000Y-81788000D03*
G04 #@! TD*
D16*
G04 #@! TO.P,R6,2*
G04 #@! TO.N,/NIX_7_G*
X70866000Y-91452000D03*
G04 #@! TO.P,R6,1*
G04 #@! TO.N,Net-(Q4-Pad1)*
X70866000Y-92952000D03*
G04 #@! TD*
G04 #@! TO.P,R7,1*
G04 #@! TO.N,Net-(Q5-Pad1)*
X87884000Y-85332000D03*
G04 #@! TO.P,R7,2*
G04 #@! TO.N,/NIX_3_G*
X87884000Y-83832000D03*
G04 #@! TD*
G04 #@! TO.P,R8,1*
G04 #@! TO.N,Net-(Q6-Pad1)*
X70612000Y-85332000D03*
G04 #@! TO.P,R8,2*
G04 #@! TO.N,/NIX_8_G*
X70612000Y-83832000D03*
G04 #@! TD*
G04 #@! TO.P,R9,2*
G04 #@! TO.N,/NIX_4_G*
X87630000Y-91452000D03*
G04 #@! TO.P,R9,1*
G04 #@! TO.N,Net-(Q7-Pad1)*
X87630000Y-92952000D03*
G04 #@! TD*
D17*
G04 #@! TO.P,R10,2*
G04 #@! TO.N,/NIX_9_G*
X73037000Y-81915000D03*
G04 #@! TO.P,R10,1*
G04 #@! TO.N,Net-(Q8-Pad1)*
X74537000Y-81915000D03*
G04 #@! TD*
G04 #@! TO.P,R11,1*
G04 #@! TO.N,Net-(Q9-Pad1)*
X76696000Y-94742000D03*
G04 #@! TO.P,R11,2*
G04 #@! TO.N,/NIX_5_G*
X75196000Y-94742000D03*
G04 #@! TD*
G04 #@! TO.P,R12,1*
G04 #@! TO.N,Net-(Q10-Pad1)*
X78220000Y-80010000D03*
G04 #@! TO.P,R12,2*
G04 #@! TO.N,/NIX_0_G*
X76720000Y-80010000D03*
G04 #@! TD*
G04 #@! TO.P,R14,2*
G04 #@! TO.N,+5V*
X71386000Y-72136000D03*
G04 #@! TO.P,R14,1*
G04 #@! TO.N,/ADDR_0*
X72886000Y-72136000D03*
G04 #@! TD*
G04 #@! TO.P,R15,1*
G04 #@! TO.N,/ADDR_1*
X72886000Y-73914000D03*
G04 #@! TO.P,R15,2*
G04 #@! TO.N,+5V*
X71386000Y-73914000D03*
G04 #@! TD*
G04 #@! TO.P,R16,2*
G04 #@! TO.N,+5V*
X71386000Y-75946000D03*
G04 #@! TO.P,R16,1*
G04 #@! TO.N,/ADDR_2*
X72886000Y-75946000D03*
G04 #@! TD*
G04 #@! TO.P,R17,1*
G04 #@! TO.N,/ADDR_3*
X72886000Y-77774800D03*
G04 #@! TO.P,R17,2*
G04 #@! TO.N,+5V*
X71386000Y-77774800D03*
G04 #@! TD*
G04 #@! TO.P,R18,1*
G04 #@! TO.N,/I2C_SCL*
X72886000Y-68326000D03*
G04 #@! TO.P,R18,2*
G04 #@! TO.N,+5V*
X71386000Y-68326000D03*
G04 #@! TD*
G04 #@! TO.P,R19,2*
G04 #@! TO.N,+5V*
X71386000Y-70358000D03*
G04 #@! TO.P,R19,1*
G04 #@! TO.N,/I2C_SDA*
X72886000Y-70358000D03*
G04 #@! TD*
D18*
G04 #@! TO.P,U3,1*
G04 #@! TO.N,/ADDR_0*
X76801000Y-74986000D03*
G04 #@! TO.P,U3,2*
G04 #@! TO.N,/ADDR_1*
X77451000Y-74986000D03*
G04 #@! TO.P,U3,3*
G04 #@! TO.N,/ADDR_2*
X78101000Y-74986000D03*
G04 #@! TO.P,U3,4*
G04 #@! TO.N,/ADDR_3*
X78751000Y-74986000D03*
G04 #@! TO.P,U3,5*
G04 #@! TO.N,GND*
X79401000Y-74986000D03*
G04 #@! TO.P,U3,6*
G04 #@! TO.N,/NIX_0_G*
X80051000Y-74986000D03*
G04 #@! TO.P,U3,7*
G04 #@! TO.N,/NIX_1_G*
X80701000Y-74986000D03*
G04 #@! TO.P,U3,8*
G04 #@! TO.N,/NIX_2_G*
X81351000Y-74986000D03*
G04 #@! TO.P,U3,9*
G04 #@! TO.N,/NIX_3_G*
X82001000Y-74986000D03*
G04 #@! TO.P,U3,10*
G04 #@! TO.N,/NIX_4_G*
X82651000Y-74986000D03*
G04 #@! TO.P,U3,11*
G04 #@! TO.N,/NIX_5_G*
X83301000Y-74986000D03*
G04 #@! TO.P,U3,12*
G04 #@! TO.N,/NIX_6_G*
X83951000Y-74986000D03*
G04 #@! TO.P,U3,13*
G04 #@! TO.N,/NIX_7_G*
X84601000Y-74986000D03*
G04 #@! TO.P,U3,14*
G04 #@! TO.N,GND*
X85251000Y-74986000D03*
G04 #@! TO.P,U3,15*
G04 #@! TO.N,/NIX_8_G*
X85251000Y-69286000D03*
G04 #@! TO.P,U3,16*
G04 #@! TO.N,/NIX_9_G*
X84601000Y-69286000D03*
G04 #@! TO.P,U3,17*
G04 #@! TO.N,N/C*
X83951000Y-69286000D03*
G04 #@! TO.P,U3,18*
X83301000Y-69286000D03*
G04 #@! TO.P,U3,19*
X82651000Y-69286000D03*
G04 #@! TO.P,U3,20*
X82001000Y-69286000D03*
G04 #@! TO.P,U3,21*
X81351000Y-69286000D03*
G04 #@! TO.P,U3,22*
X80701000Y-69286000D03*
G04 #@! TO.P,U3,23*
G04 #@! TO.N,/#OE*
X80051000Y-69286000D03*
G04 #@! TO.P,U3,24*
G04 #@! TO.N,GND*
X79401000Y-69286000D03*
G04 #@! TO.P,U3,25*
X78751000Y-69286000D03*
G04 #@! TO.P,U3,26*
G04 #@! TO.N,/I2C_SCL*
X78101000Y-69286000D03*
G04 #@! TO.P,U3,27*
G04 #@! TO.N,/I2C_SDA*
X77451000Y-69286000D03*
G04 #@! TO.P,U3,28*
G04 #@! TO.N,+5V*
X76801000Y-69286000D03*
G04 #@! TD*
D19*
G04 #@! TO.P,U1,3*
G04 #@! TO.N,/LED_DIN*
X81398000Y-93077000D03*
G04 #@! TO.P,U1,4*
G04 #@! TO.N,+5V*
X81398000Y-91327000D03*
G04 #@! TO.P,U1,2*
G04 #@! TO.N,GND*
X77098000Y-93077000D03*
G04 #@! TO.P,U1,1*
G04 #@! TO.N,/LED_DOUT*
X77098000Y-91327000D03*
G04 #@! TD*
D20*
G04 #@! TO.N,+5V*
X81280000Y-88900000D03*
X76708000Y-67818042D03*
X78038953Y-78546945D03*
G04 #@! TO.N,GND*
X81026000Y-99822000D03*
X88255000Y-87854000D03*
X87884000Y-94234000D03*
X77978000Y-96520000D03*
X78994000Y-67818000D03*
X75692000Y-68326000D03*
X70612000Y-78994000D03*
X80264000Y-70612000D03*
X79629000Y-71628000D03*
X78994000Y-66802000D03*
X88138000Y-71628000D03*
X88138000Y-73152000D03*
X88138000Y-74422000D03*
X88138000Y-75946000D03*
X87630000Y-77724000D03*
X86360000Y-85344000D03*
X72136000Y-97790000D03*
X73152000Y-97790000D03*
X76454000Y-101092000D03*
X81280000Y-101092000D03*
X74930000Y-91948000D03*
X70104000Y-66294000D03*
X74676000Y-76200000D03*
X75663998Y-75184000D03*
X79502000Y-79502000D03*
X79502000Y-80518000D03*
X85344000Y-71882000D03*
X83566000Y-81915000D03*
X83566000Y-76327000D03*
X70612000Y-80518000D03*
X75438000Y-82804000D03*
X87884000Y-96315998D03*
X72644000Y-86614000D03*
G04 #@! TO.N,/NIX_1*
X82677000Y-84074001D03*
G04 #@! TO.N,/NIX_0*
X74549000Y-85089992D03*
G04 #@! TO.N,/I2C_SDA*
X77273694Y-66998306D03*
G04 #@! TO.N,+HV*
X79248000Y-91693996D03*
X81407000Y-96520000D03*
G04 #@! TO.N,/NIX_6_G*
X83312000Y-93726000D03*
X83273987Y-72898000D03*
G04 #@! TO.N,/NIX_7_G*
X84328000Y-72898000D03*
X70866000Y-90170000D03*
G04 #@! TO.N,/NIX_8_G*
X70612000Y-82804000D03*
X85090000Y-70612000D03*
G04 #@! TO.N,/NIX_4_G*
X87630000Y-90170000D03*
X86359998Y-78740000D03*
G04 #@! TO.N,/NIX_9_G*
X72897996Y-80010000D03*
X84074000Y-70612000D03*
G04 #@! TO.N,/NIX_5_G*
X74930000Y-93472000D03*
X82296016Y-72898000D03*
G04 #@! TO.N,/LED_DIN*
X84328000Y-92710000D03*
G04 #@! TO.N,/LED_DOUT*
X85090000Y-67056000D03*
X80010000Y-83312000D03*
G04 #@! TO.N,/ADDR_0*
X75946000Y-70104000D03*
X73660000Y-70612000D03*
G04 #@! TO.N,/ADDR_1*
X76571010Y-70866000D03*
X73660000Y-72940000D03*
G04 #@! TO.N,/ADDR_2*
X77470000Y-70866000D03*
X73914000Y-73894000D03*
G04 #@! TO.N,/ADDR_3*
X78524013Y-70866000D03*
X74168000Y-75184000D03*
G04 #@! TD*
D21*
G04 #@! TO.N,+5V*
X81398000Y-90530000D02*
X80264000Y-89396000D01*
X81398000Y-91327000D02*
X81398000Y-90530000D01*
D22*
X71386000Y-77774800D02*
X71386000Y-75946000D01*
X71386000Y-75946000D02*
X71386000Y-73914000D01*
X71386000Y-72136000D02*
X71386000Y-73914000D01*
X71386000Y-68326000D02*
X71386000Y-70358000D01*
X71386000Y-70358000D02*
X71386000Y-72136000D01*
D21*
X74676000Y-69838000D02*
X74676000Y-71640000D01*
X71628000Y-64516000D02*
X71628000Y-66366000D01*
X71628000Y-66366000D02*
X71628000Y-66802000D01*
X71628000Y-66802000D02*
X71374000Y-67056000D01*
D22*
X71386000Y-67044000D02*
X71386000Y-68326000D01*
X71628000Y-66802000D02*
X71386000Y-67044000D01*
X75172000Y-69342000D02*
X76708000Y-69342000D01*
X74676000Y-69838000D02*
X75172000Y-69342000D01*
X81139000Y-89396000D02*
X81280000Y-89255000D01*
X81280000Y-89255000D02*
X81280000Y-88900000D01*
X80264000Y-89396000D02*
X81139000Y-89396000D01*
D23*
X76801000Y-69286000D02*
X76801000Y-67911042D01*
X76801000Y-67911042D02*
X76708000Y-67818042D01*
D22*
X77614689Y-78546945D02*
X78038953Y-78546945D01*
X72136000Y-78724800D02*
X77353098Y-78724800D01*
X77353098Y-78724800D02*
X77530953Y-78546945D01*
X77530953Y-78546945D02*
X77614689Y-78546945D01*
X71386000Y-77774800D02*
X71386000Y-77974800D01*
X71386000Y-77974800D02*
X72136000Y-78724800D01*
D23*
G04 #@! TO.N,GND*
X81026000Y-100248000D02*
X80198000Y-101076000D01*
X81026000Y-99822000D02*
X81026000Y-100248000D01*
X87868000Y-86934000D02*
X87868000Y-87584000D01*
X88138000Y-87854000D02*
X88255000Y-87854000D01*
X87868000Y-87584000D02*
X88255000Y-87854000D01*
X87884000Y-95300000D02*
X87868000Y-95316000D01*
X87884000Y-94234000D02*
X87884000Y-95300000D01*
X88659001Y-84821999D02*
X88419002Y-84582000D01*
X88659001Y-86842999D02*
X88659001Y-84821999D01*
X87868000Y-86934000D02*
X88568000Y-86934000D01*
X88568000Y-86934000D02*
X88659001Y-86842999D01*
X84140000Y-83632000D02*
X84140000Y-83582000D01*
X85090000Y-84582000D02*
X84140000Y-83632000D01*
X88419002Y-84582000D02*
X85090000Y-84582000D01*
X78298000Y-96200000D02*
X77978000Y-96520000D01*
X78298000Y-95266000D02*
X78298000Y-96200000D01*
X70678000Y-97216000D02*
X70628000Y-97216000D01*
X71628000Y-98166000D02*
X70678000Y-97216000D01*
X71628000Y-100076000D02*
X71628000Y-98166000D01*
X78091000Y-93077000D02*
X77098000Y-93077000D01*
X78232000Y-93218000D02*
X78091000Y-93077000D01*
X78232000Y-94356000D02*
X78232000Y-93218000D01*
X78298000Y-95266000D02*
X78298000Y-94422000D01*
X78298000Y-94422000D02*
X78232000Y-94356000D01*
X70578000Y-88834000D02*
X70628000Y-88834000D01*
X69852999Y-89559001D02*
X70578000Y-88834000D01*
X69852999Y-96490999D02*
X69852999Y-89559001D01*
X70578000Y-97216000D02*
X69852999Y-96490999D01*
X70628000Y-97216000D02*
X70578000Y-97216000D01*
X72456000Y-84282000D02*
X72456000Y-83582000D01*
X71628000Y-85110000D02*
X72456000Y-84282000D01*
X71628000Y-87884000D02*
X71628000Y-85110000D01*
X70628000Y-88834000D02*
X70678000Y-88834000D01*
X70678000Y-88834000D02*
X71628000Y-87884000D01*
X72597995Y-79384999D02*
X74558999Y-79384999D01*
X72272995Y-79709999D02*
X72597995Y-79384999D01*
X72272995Y-82698995D02*
X72272995Y-79709999D01*
X72456000Y-83582000D02*
X72456000Y-82882000D01*
X72456000Y-82882000D02*
X72272995Y-82698995D01*
X76266000Y-81092000D02*
X76266000Y-81804000D01*
X74558999Y-79384999D02*
X76266000Y-81092000D01*
X83870000Y-83312000D02*
X84140000Y-83582000D01*
X83109196Y-83312000D02*
X83870000Y-83312000D01*
X82601196Y-82804000D02*
X83109196Y-83312000D01*
X81280000Y-82804000D02*
X82601196Y-82804000D01*
X80330000Y-81804000D02*
X80330000Y-81854000D01*
X80330000Y-81854000D02*
X81280000Y-82804000D01*
X79401000Y-74986000D02*
X79401000Y-74186000D01*
X79401000Y-69286000D02*
X78751000Y-69286000D01*
X79401000Y-71628000D02*
X79401000Y-69286000D01*
X79401000Y-74186000D02*
X79401000Y-71628000D01*
X85251000Y-74186000D02*
X85251000Y-74986000D01*
X85251000Y-72551000D02*
X85251000Y-74186000D01*
X79401000Y-71628000D02*
X84328000Y-71628000D01*
X84328000Y-71628000D02*
X85251000Y-72551000D01*
X87376000Y-70592000D02*
X87376000Y-70092000D01*
X85417000Y-72551000D02*
X87376000Y-70592000D01*
X85251000Y-72551000D02*
X85417000Y-72551000D01*
X87576000Y-70092000D02*
X87376000Y-70092000D01*
X88392000Y-69276000D02*
X87576000Y-70092000D01*
X86868000Y-64516000D02*
X88392000Y-66040000D01*
X88392000Y-66040000D02*
X88392000Y-69276000D01*
X78751000Y-68486000D02*
X78994000Y-68243000D01*
X78751000Y-69286000D02*
X78751000Y-68486000D01*
X78994000Y-68243000D02*
X78994000Y-67818000D01*
X74688000Y-68326000D02*
X74676000Y-68338000D01*
X75692000Y-68326000D02*
X74688000Y-68326000D01*
X74676000Y-74196002D02*
X75663998Y-75184000D01*
X74676000Y-73140000D02*
X74676000Y-74196002D01*
X76933998Y-76454000D02*
X78994000Y-76454000D01*
X79401000Y-76047000D02*
X79401000Y-74986000D01*
X78994000Y-76454000D02*
X79401000Y-76047000D01*
X72272995Y-79709999D02*
X71327999Y-79709999D01*
X71327999Y-79709999D02*
X70612000Y-78994000D01*
D22*
X76059000Y-93077000D02*
X77098000Y-93077000D01*
X74930000Y-91948000D02*
X76059000Y-93077000D01*
D23*
X75663998Y-75184000D02*
X76933998Y-76454000D01*
X80248000Y-81804000D02*
X80330000Y-81804000D01*
X79375000Y-82677000D02*
X80248000Y-81804000D01*
X77089000Y-82677000D02*
X79375000Y-82677000D01*
X76266000Y-81804000D02*
X76266000Y-81854000D01*
X76266000Y-81854000D02*
X77089000Y-82677000D01*
X81800000Y-87896000D02*
X80264000Y-87896000D01*
X82042000Y-89662000D02*
X82042000Y-88138000D01*
X77098000Y-93077000D02*
X79135000Y-93077000D01*
X80059990Y-92152010D02*
X82853990Y-92152010D01*
X82853990Y-92152010D02*
X83312000Y-91694000D01*
X79135000Y-93077000D02*
X80059990Y-92152010D01*
X83312000Y-91694000D02*
X83312000Y-90932000D01*
X82042000Y-88138000D02*
X81800000Y-87896000D01*
X83312000Y-90932000D02*
X82042000Y-89662000D01*
D22*
X75438000Y-82632000D02*
X76266000Y-81804000D01*
X75438000Y-82804000D02*
X75438000Y-82632000D01*
X72456000Y-83582000D02*
X72456000Y-83251000D01*
X72456000Y-83251000D02*
X71755000Y-82550000D01*
X71755000Y-81661000D02*
X70612000Y-80518000D01*
X71755000Y-82550000D02*
X71755000Y-81661000D01*
G04 #@! TO.N,/NIX_1*
X81280000Y-83804000D02*
X82406999Y-83804000D01*
X82406999Y-83804000D02*
X82677000Y-84074001D01*
G04 #@! TO.N,/NIX_6*
X79010000Y-97266000D02*
X79248000Y-97266000D01*
X77767180Y-98211640D02*
X78064360Y-98211640D01*
X78064360Y-98211640D02*
X79010000Y-97266000D01*
G04 #@! TO.N,/NIX_2*
X85107780Y-91457780D02*
X85392260Y-91457780D01*
X83058000Y-89408000D02*
X85107780Y-91457780D01*
X83058000Y-87664000D02*
X83058000Y-89408000D01*
X85090000Y-85582000D02*
X85090000Y-85632000D01*
X85090000Y-85632000D02*
X83058000Y-87664000D01*
G04 #@! TO.N,/NIX_8*
X72644000Y-94488000D02*
X73152000Y-94488000D01*
X71882000Y-93726000D02*
X72644000Y-94488000D01*
X71882000Y-89530000D02*
X71882000Y-93726000D01*
X72628000Y-87884000D02*
X72628000Y-88784000D01*
X72628000Y-88784000D02*
X71882000Y-89530000D01*
G04 #@! TO.N,/NIX_3*
X85450680Y-93980000D02*
X85034120Y-94396560D01*
X85598000Y-93980000D02*
X85450680Y-93980000D01*
X85868000Y-89900000D02*
X86106000Y-90138000D01*
X85868000Y-87884000D02*
X85868000Y-89900000D01*
X86106000Y-90138000D02*
X86106000Y-90170000D01*
X86106000Y-90170000D02*
X86614000Y-90678000D01*
X86614000Y-90678000D02*
X86614000Y-92964000D01*
X86614000Y-92964000D02*
X85598000Y-93980000D01*
G04 #@! TO.N,/NIX_4*
X85360000Y-96774000D02*
X85868000Y-96266000D01*
X84365507Y-96774000D02*
X85360000Y-96774000D01*
X83352640Y-96834960D02*
X84304547Y-96834960D01*
X84304547Y-96834960D02*
X84365507Y-96774000D01*
G04 #@! TO.N,/NIX_9*
X73776839Y-90784681D02*
X73103740Y-91457780D01*
X74569319Y-90784681D02*
X73776839Y-90784681D01*
X75692000Y-89662000D02*
X74569319Y-90784681D01*
X75692000Y-88138000D02*
X75692000Y-89662000D01*
X73406000Y-85582000D02*
X73406000Y-85852000D01*
X73406000Y-85852000D02*
X75692000Y-88138000D01*
G04 #@! TO.N,/NIX_5*
X80642460Y-98298000D02*
X80728820Y-98211640D01*
X80010000Y-98298000D02*
X80642460Y-98298000D01*
X79248000Y-99076000D02*
X79248000Y-99060000D01*
X79248000Y-99060000D02*
X80010000Y-98298000D01*
G04 #@! TO.N,/NIX_0*
X75834992Y-83804000D02*
X74848999Y-84789993D01*
X74848999Y-84789993D02*
X74549000Y-85089992D01*
X77216000Y-83804000D02*
X75834992Y-83804000D01*
D23*
G04 #@! TO.N,/I2C_SDA*
X72136000Y-67739590D02*
X74089590Y-65786000D01*
X72136000Y-68908000D02*
X72136000Y-67739590D01*
X72886000Y-70358000D02*
X72886000Y-69658000D01*
X72886000Y-69658000D02*
X72136000Y-68908000D01*
X74168000Y-65718081D02*
X74168000Y-64516000D01*
X74100081Y-65786000D02*
X74168000Y-65718081D01*
X74089590Y-65786000D02*
X74100081Y-65786000D01*
X77451000Y-69286000D02*
X77451000Y-67175612D01*
X77451000Y-67175612D02*
X77273694Y-66998306D01*
G04 #@! TO.N,/I2C_SCL*
X76708000Y-66040000D02*
X76708000Y-64516000D01*
X76454000Y-66294000D02*
X76708000Y-66040000D01*
X74218000Y-66294000D02*
X76454000Y-66294000D01*
X72886000Y-68326000D02*
X72886000Y-67626000D01*
X72886000Y-67626000D02*
X74218000Y-66294000D01*
X77216000Y-66040000D02*
X76708000Y-66040000D01*
X78101000Y-69286000D02*
X78101000Y-66925000D01*
X78101000Y-66925000D02*
X77216000Y-66040000D01*
D21*
G04 #@! TO.N,+HV*
X86868000Y-100076000D02*
X84328000Y-100076000D01*
D22*
X79248000Y-91269732D02*
X79248000Y-91693996D01*
X79248000Y-90424000D02*
X79248000Y-91269732D01*
X78232000Y-89396000D02*
X78232000Y-89408000D01*
X78232000Y-89408000D02*
X79248000Y-90424000D01*
X82804000Y-98933000D02*
X81407000Y-96520000D01*
X84328000Y-100076000D02*
X84328000Y-99822000D01*
X84328000Y-99822000D02*
X82804000Y-98933000D01*
G04 #@! TO.N,/NIX_7*
X74574400Y-96266000D02*
X75143360Y-96834960D01*
X72628000Y-96266000D02*
X74574400Y-96266000D01*
G04 #@! TO.N,Net-(N1-PadA)*
X78232000Y-87030560D02*
X79248000Y-86014560D01*
X78232000Y-87896000D02*
X78232000Y-87030560D01*
D23*
G04 #@! TO.N,/NIX_1_G*
X80784000Y-79310000D02*
X80784000Y-80010000D01*
X80784000Y-75958000D02*
X80784000Y-79310000D01*
X80701000Y-74986000D02*
X80701000Y-75875000D01*
X80701000Y-75875000D02*
X80784000Y-75958000D01*
G04 #@! TO.N,/NIX_6_G*
X83300000Y-94742000D02*
X83300000Y-93738000D01*
X83300000Y-93738000D02*
X83312000Y-93726000D01*
X83312000Y-72898000D02*
X83273987Y-72898000D01*
X83951000Y-74986000D02*
X83951000Y-73537000D01*
X83951000Y-73537000D02*
X83312000Y-72898000D01*
G04 #@! TO.N,/NIX_2_G*
X81351000Y-75786000D02*
X81351000Y-74986000D01*
X81351000Y-77541000D02*
X81351000Y-75786000D01*
X84594000Y-81788000D02*
X84594000Y-80784000D01*
X84594000Y-80784000D02*
X81351000Y-77541000D01*
G04 #@! TO.N,/NIX_7_G*
X84601000Y-74986000D02*
X84601000Y-73171000D01*
X84601000Y-73171000D02*
X84328000Y-72898000D01*
X70866000Y-91452000D02*
X70866000Y-90170000D01*
G04 #@! TO.N,/NIX_3_G*
X82001000Y-75786000D02*
X82001000Y-74986000D01*
X82001000Y-77429000D02*
X82001000Y-75786000D01*
X85344000Y-80772000D02*
X82001000Y-77429000D01*
X86363002Y-80772000D02*
X85344000Y-80772000D01*
X87884000Y-83832000D02*
X87884000Y-82292998D01*
X87884000Y-82292998D02*
X86363002Y-80772000D01*
G04 #@! TO.N,/NIX_8_G*
X70612000Y-83832000D02*
X70612000Y-82804000D01*
X85251000Y-70451000D02*
X85090000Y-70612000D01*
X85251000Y-69286000D02*
X85251000Y-70451000D01*
G04 #@! TO.N,/NIX_4_G*
X87630000Y-91452000D02*
X87630000Y-90952000D01*
X87630000Y-90952000D02*
X87630000Y-90170000D01*
X85935734Y-78740000D02*
X86359998Y-78740000D01*
X84074000Y-78740000D02*
X85935734Y-78740000D01*
X82651000Y-74986000D02*
X82651000Y-77317000D01*
X82651000Y-77317000D02*
X84074000Y-78740000D01*
G04 #@! TO.N,/NIX_9_G*
X73037000Y-81915000D02*
X73037000Y-80149004D01*
X73037000Y-80149004D02*
X72897996Y-80010000D01*
X84601000Y-69286000D02*
X84601000Y-70086000D01*
X84601000Y-70086000D02*
X84075000Y-70612000D01*
X84075000Y-70612000D02*
X84074000Y-70612000D01*
G04 #@! TO.N,/NIX_5_G*
X75196000Y-94542000D02*
X75184000Y-94530000D01*
X75196000Y-94742000D02*
X75196000Y-94542000D01*
X75184000Y-94530000D02*
X75184000Y-93726000D01*
X75184000Y-93726000D02*
X74930000Y-93472000D01*
X82596015Y-73197999D02*
X82296016Y-72898000D01*
X83301000Y-74986000D02*
X83301000Y-73902984D01*
X83301000Y-73902984D02*
X82596015Y-73197999D01*
G04 #@! TO.N,/NIX_0_G*
X77830954Y-79171946D02*
X78338954Y-79171946D01*
X76720000Y-80010000D02*
X76720000Y-79810000D01*
X80051000Y-75786000D02*
X80051000Y-74986000D01*
X76720000Y-79810000D02*
X77220000Y-79310000D01*
X78338954Y-79171946D02*
X80051000Y-77459900D01*
X80051000Y-77459900D02*
X80051000Y-75786000D01*
X77692900Y-79310000D02*
X77830954Y-79171946D01*
X77220000Y-79310000D02*
X77692900Y-79310000D01*
G04 #@! TO.N,/#OE*
X80051000Y-68486000D02*
X80051000Y-69286000D01*
X79248000Y-65718081D02*
X80051000Y-66521081D01*
X79248000Y-64516000D02*
X79248000Y-65718081D01*
X80051000Y-66521081D02*
X80051000Y-66548000D01*
X80051000Y-66548000D02*
X80051000Y-68486000D01*
X83566000Y-66548000D02*
X80051000Y-66548000D01*
X84836000Y-67818000D02*
X83566000Y-66548000D01*
X86402000Y-67818000D02*
X84836000Y-67818000D01*
X87376000Y-68592000D02*
X87176000Y-68592000D01*
X87176000Y-68592000D02*
X86402000Y-67818000D01*
G04 #@! TO.N,/LED_DIN*
X84028001Y-93009999D02*
X84328000Y-92710000D01*
X83961000Y-93077000D02*
X84028001Y-93009999D01*
X81398000Y-93077000D02*
X83961000Y-93077000D01*
G04 #@! TO.N,/LED_DOUT*
X84328000Y-64516000D02*
X84328000Y-66294000D01*
X84328000Y-66294000D02*
X84790001Y-66756001D01*
X84790001Y-66756001D02*
X85090000Y-67056000D01*
X77098000Y-87748000D02*
X77656990Y-87189010D01*
X79710001Y-83611999D02*
X80010000Y-83312000D01*
X77656990Y-87189010D02*
X77656990Y-85665010D01*
X77656990Y-85665010D02*
X79710001Y-83611999D01*
X77098000Y-91327000D02*
X77098000Y-87748000D01*
G04 #@! TO.N,Net-(Q1-Pad1)*
X82230000Y-80064000D02*
X82284000Y-80010000D01*
X82230000Y-81804000D02*
X82230000Y-80064000D01*
G04 #@! TO.N,Net-(Q2-Pad1)*
X80722000Y-94742000D02*
X80198000Y-95266000D01*
X81800000Y-94742000D02*
X80722000Y-94742000D01*
G04 #@! TO.N,Net-(Q3-Pad1)*
X86040000Y-81842000D02*
X86094000Y-81788000D01*
X86040000Y-83582000D02*
X86040000Y-81842000D01*
G04 #@! TO.N,Net-(Q4-Pad1)*
X70628000Y-93190000D02*
X70866000Y-92952000D01*
X70628000Y-95316000D02*
X70628000Y-93190000D01*
G04 #@! TO.N,Net-(Q5-Pad1)*
X87818000Y-88834000D02*
X87868000Y-88834000D01*
X86868000Y-87884000D02*
X87818000Y-88834000D01*
X86868000Y-86148000D02*
X86868000Y-87884000D01*
X87884000Y-85332000D02*
X87684000Y-85332000D01*
X87684000Y-85332000D02*
X86868000Y-86148000D01*
G04 #@! TO.N,Net-(Q6-Pad1)*
X70612000Y-86918000D02*
X70628000Y-86934000D01*
X70612000Y-85332000D02*
X70612000Y-86918000D01*
G04 #@! TO.N,Net-(Q7-Pad1)*
X87168000Y-97216000D02*
X86868000Y-96916000D01*
X87868000Y-97216000D02*
X87168000Y-97216000D01*
X86868000Y-96916000D02*
X86868000Y-94234000D01*
X87630000Y-93472000D02*
X87630000Y-92952000D01*
X86868000Y-94234000D02*
X87630000Y-93472000D01*
G04 #@! TO.N,Net-(Q8-Pad1)*
X74356000Y-82096000D02*
X74537000Y-81915000D01*
X74356000Y-83582000D02*
X74356000Y-82096000D01*
G04 #@! TO.N,Net-(Q9-Pad1)*
X77740000Y-101076000D02*
X78298000Y-101076000D01*
X76708000Y-94754000D02*
X76708000Y-94996000D01*
X76696000Y-94742000D02*
X76708000Y-94754000D01*
X76708000Y-94996000D02*
X76454000Y-95250000D01*
X76454000Y-95250000D02*
X76454000Y-99822000D01*
X76454000Y-99822000D02*
X77724000Y-101092000D01*
X77724000Y-101092000D02*
X77740000Y-101076000D01*
G04 #@! TO.N,Net-(Q10-Pad1)*
X78166000Y-80064000D02*
X78220000Y-80010000D01*
X78166000Y-81804000D02*
X78166000Y-80064000D01*
G04 #@! TO.N,/ADDR_0*
X76801000Y-74986000D02*
X76801000Y-72138002D01*
X75946000Y-70528264D02*
X75946000Y-70104000D01*
X75946000Y-71283002D02*
X75946000Y-70528264D01*
X76801000Y-72138002D02*
X75946000Y-71283002D01*
X73660000Y-71120000D02*
X73660000Y-70612000D01*
X72898000Y-71882000D02*
X73660000Y-71120000D01*
X72886000Y-72136000D02*
X72898000Y-72124000D01*
X72898000Y-72124000D02*
X72898000Y-71882000D01*
G04 #@! TO.N,/ADDR_1*
X77451000Y-71745990D02*
X76871009Y-71165999D01*
X77451000Y-74986000D02*
X77451000Y-71745990D01*
X76871009Y-71165999D02*
X76571010Y-70866000D01*
X72886000Y-73714000D02*
X73660000Y-72940000D01*
X72886000Y-73914000D02*
X72886000Y-73714000D01*
G04 #@! TO.N,/ADDR_2*
X77470000Y-70866000D02*
X78101000Y-71497000D01*
X78101000Y-71497000D02*
X78101000Y-74986000D01*
X73914000Y-74168000D02*
X73914000Y-73894000D01*
X72886000Y-75946000D02*
X72886000Y-75196000D01*
X72886000Y-75196000D02*
X73914000Y-74168000D01*
G04 #@! TO.N,/ADDR_3*
X78751000Y-71092987D02*
X78524013Y-70866000D01*
X78751000Y-74986000D02*
X78751000Y-71092987D01*
X73660000Y-75692000D02*
X74168000Y-75184000D01*
X72886000Y-77774800D02*
X73660000Y-77000800D01*
X73660000Y-77000800D02*
X73660000Y-75692000D01*
G04 #@! TD*
D24*
G04 #@! TO.N,GND*
G36*
X71720191Y-97123809D02*
X71930235Y-97264157D01*
X72178000Y-97313440D01*
X73078000Y-97313440D01*
X73325765Y-97264157D01*
X73495115Y-97151000D01*
X73858391Y-97151000D01*
X74034407Y-97575939D01*
X74402381Y-97943913D01*
X74883163Y-98143060D01*
X75403557Y-98143060D01*
X75694001Y-98022754D01*
X75694001Y-99747148D01*
X75679112Y-99822000D01*
X75738097Y-100118537D01*
X75850894Y-100287349D01*
X75906072Y-100369929D01*
X75969528Y-100412329D01*
X77060198Y-101503000D01*
X74559840Y-101503000D01*
X74934924Y-101347645D01*
X75363183Y-100957358D01*
X75609486Y-100432892D01*
X75488819Y-100203000D01*
X74295000Y-100203000D01*
X74295000Y-100223000D01*
X74041000Y-100223000D01*
X74041000Y-100203000D01*
X71755000Y-100203000D01*
X71755000Y-100223000D01*
X71501000Y-100223000D01*
X71501000Y-100203000D01*
X70301750Y-100203000D01*
X70143000Y-100361750D01*
X70143000Y-100842150D01*
X70074617Y-100736648D01*
X69961569Y-100358642D01*
X69947000Y-100162589D01*
X69947000Y-99099691D01*
X70143000Y-99099691D01*
X70143000Y-99790250D01*
X70301750Y-99949000D01*
X71501000Y-99949000D01*
X71501000Y-98749750D01*
X71755000Y-98749750D01*
X71755000Y-99949000D01*
X74041000Y-99949000D01*
X74041000Y-98755845D01*
X74295000Y-98755845D01*
X74295000Y-99949000D01*
X75488819Y-99949000D01*
X75609486Y-99719108D01*
X75363183Y-99194642D01*
X74934924Y-98804355D01*
X74524890Y-98634524D01*
X74295000Y-98755845D01*
X74041000Y-98755845D01*
X73811110Y-98634524D01*
X73401076Y-98804355D01*
X73103136Y-99075878D01*
X73016327Y-98866302D01*
X72837699Y-98687673D01*
X72604310Y-98591000D01*
X71913750Y-98591000D01*
X71755000Y-98749750D01*
X71501000Y-98749750D01*
X71342250Y-98591000D01*
X70651690Y-98591000D01*
X70418301Y-98687673D01*
X70239673Y-98866302D01*
X70143000Y-99099691D01*
X69947000Y-99099691D01*
X69947000Y-98207636D01*
X70051691Y-98251000D01*
X70342250Y-98251000D01*
X70501000Y-98092250D01*
X70501000Y-97343000D01*
X70755000Y-97343000D01*
X70755000Y-98092250D01*
X70913750Y-98251000D01*
X71204309Y-98251000D01*
X71437698Y-98154327D01*
X71616327Y-97975699D01*
X71713000Y-97742310D01*
X71713000Y-97501750D01*
X71554250Y-97343000D01*
X70755000Y-97343000D01*
X70501000Y-97343000D01*
X70481000Y-97343000D01*
X70481000Y-97089000D01*
X70501000Y-97089000D01*
X70501000Y-97069000D01*
X70755000Y-97069000D01*
X70755000Y-97089000D01*
X71554250Y-97089000D01*
X71639781Y-97003469D01*
X71720191Y-97123809D01*
X71720191Y-97123809D01*
G37*
X71720191Y-97123809D02*
X71930235Y-97264157D01*
X72178000Y-97313440D01*
X73078000Y-97313440D01*
X73325765Y-97264157D01*
X73495115Y-97151000D01*
X73858391Y-97151000D01*
X74034407Y-97575939D01*
X74402381Y-97943913D01*
X74883163Y-98143060D01*
X75403557Y-98143060D01*
X75694001Y-98022754D01*
X75694001Y-99747148D01*
X75679112Y-99822000D01*
X75738097Y-100118537D01*
X75850894Y-100287349D01*
X75906072Y-100369929D01*
X75969528Y-100412329D01*
X77060198Y-101503000D01*
X74559840Y-101503000D01*
X74934924Y-101347645D01*
X75363183Y-100957358D01*
X75609486Y-100432892D01*
X75488819Y-100203000D01*
X74295000Y-100203000D01*
X74295000Y-100223000D01*
X74041000Y-100223000D01*
X74041000Y-100203000D01*
X71755000Y-100203000D01*
X71755000Y-100223000D01*
X71501000Y-100223000D01*
X71501000Y-100203000D01*
X70301750Y-100203000D01*
X70143000Y-100361750D01*
X70143000Y-100842150D01*
X70074617Y-100736648D01*
X69961569Y-100358642D01*
X69947000Y-100162589D01*
X69947000Y-99099691D01*
X70143000Y-99099691D01*
X70143000Y-99790250D01*
X70301750Y-99949000D01*
X71501000Y-99949000D01*
X71501000Y-98749750D01*
X71755000Y-98749750D01*
X71755000Y-99949000D01*
X74041000Y-99949000D01*
X74041000Y-98755845D01*
X74295000Y-98755845D01*
X74295000Y-99949000D01*
X75488819Y-99949000D01*
X75609486Y-99719108D01*
X75363183Y-99194642D01*
X74934924Y-98804355D01*
X74524890Y-98634524D01*
X74295000Y-98755845D01*
X74041000Y-98755845D01*
X73811110Y-98634524D01*
X73401076Y-98804355D01*
X73103136Y-99075878D01*
X73016327Y-98866302D01*
X72837699Y-98687673D01*
X72604310Y-98591000D01*
X71913750Y-98591000D01*
X71755000Y-98749750D01*
X71501000Y-98749750D01*
X71342250Y-98591000D01*
X70651690Y-98591000D01*
X70418301Y-98687673D01*
X70239673Y-98866302D01*
X70143000Y-99099691D01*
X69947000Y-99099691D01*
X69947000Y-98207636D01*
X70051691Y-98251000D01*
X70342250Y-98251000D01*
X70501000Y-98092250D01*
X70501000Y-97343000D01*
X70755000Y-97343000D01*
X70755000Y-98092250D01*
X70913750Y-98251000D01*
X71204309Y-98251000D01*
X71437698Y-98154327D01*
X71616327Y-97975699D01*
X71713000Y-97742310D01*
X71713000Y-97501750D01*
X71554250Y-97343000D01*
X70755000Y-97343000D01*
X70501000Y-97343000D01*
X70481000Y-97343000D01*
X70481000Y-97089000D01*
X70501000Y-97089000D01*
X70501000Y-97069000D01*
X70755000Y-97069000D01*
X70755000Y-97089000D01*
X71554250Y-97089000D01*
X71639781Y-97003469D01*
X71720191Y-97123809D01*
G36*
X81661000Y-101346000D02*
X81670667Y-101394601D01*
X81698197Y-101435803D01*
X81765394Y-101503000D01*
X81233000Y-101503000D01*
X81233000Y-101361750D01*
X81074250Y-101203000D01*
X80325000Y-101203000D01*
X80325000Y-101223000D01*
X80071000Y-101223000D01*
X80071000Y-101203000D01*
X80051000Y-101203000D01*
X80051000Y-100949000D01*
X80071000Y-100949000D01*
X80071000Y-100149750D01*
X80325000Y-100149750D01*
X80325000Y-100949000D01*
X81074250Y-100949000D01*
X81233000Y-100790250D01*
X81233000Y-100499691D01*
X81136327Y-100266302D01*
X80957699Y-100087673D01*
X80724310Y-99991000D01*
X80483750Y-99991000D01*
X80325000Y-100149750D01*
X80071000Y-100149750D01*
X79985469Y-100064219D01*
X80105809Y-99983809D01*
X80246157Y-99773765D01*
X80295440Y-99526000D01*
X80295440Y-99448005D01*
X80468623Y-99519740D01*
X80989017Y-99519740D01*
X81469799Y-99320593D01*
X81661000Y-99129392D01*
X81661000Y-101346000D01*
X81661000Y-101346000D01*
G37*
X81661000Y-101346000D02*
X81670667Y-101394601D01*
X81698197Y-101435803D01*
X81765394Y-101503000D01*
X81233000Y-101503000D01*
X81233000Y-101361750D01*
X81074250Y-101203000D01*
X80325000Y-101203000D01*
X80325000Y-101223000D01*
X80071000Y-101223000D01*
X80071000Y-101203000D01*
X80051000Y-101203000D01*
X80051000Y-100949000D01*
X80071000Y-100949000D01*
X80071000Y-100149750D01*
X80325000Y-100149750D01*
X80325000Y-100949000D01*
X81074250Y-100949000D01*
X81233000Y-100790250D01*
X81233000Y-100499691D01*
X81136327Y-100266302D01*
X80957699Y-100087673D01*
X80724310Y-99991000D01*
X80483750Y-99991000D01*
X80325000Y-100149750D01*
X80071000Y-100149750D01*
X79985469Y-100064219D01*
X80105809Y-99983809D01*
X80246157Y-99773765D01*
X80295440Y-99526000D01*
X80295440Y-99448005D01*
X80468623Y-99519740D01*
X80989017Y-99519740D01*
X81469799Y-99320593D01*
X81661000Y-99129392D01*
X81661000Y-101346000D01*
G36*
X79062017Y-92628996D02*
X79433983Y-92628996D01*
X79511524Y-92596877D01*
X79500560Y-92652000D01*
X79500560Y-93502000D01*
X79549843Y-93749765D01*
X79690191Y-93959809D01*
X79900235Y-94100157D01*
X80148000Y-94149440D01*
X80240866Y-94149440D01*
X80212251Y-94168560D01*
X79798000Y-94168560D01*
X79550235Y-94217843D01*
X79340191Y-94358191D01*
X79250987Y-94491694D01*
X79236327Y-94456302D01*
X79057699Y-94277673D01*
X78824310Y-94181000D01*
X78583750Y-94181000D01*
X78425000Y-94339750D01*
X78425000Y-95139000D01*
X78445000Y-95139000D01*
X78445000Y-95393000D01*
X78425000Y-95393000D01*
X78425000Y-96192250D01*
X78510531Y-96277781D01*
X78390191Y-96358191D01*
X78249843Y-96568235D01*
X78200560Y-96816000D01*
X78200560Y-96823861D01*
X78093494Y-96930927D01*
X78027377Y-96903540D01*
X77506983Y-96903540D01*
X77214000Y-97024898D01*
X77214000Y-95776636D01*
X77263000Y-95743895D01*
X77263000Y-95842309D01*
X77359673Y-96075698D01*
X77538301Y-96254327D01*
X77771690Y-96351000D01*
X78012250Y-96351000D01*
X78171000Y-96192250D01*
X78171000Y-95393000D01*
X78151000Y-95393000D01*
X78151000Y-95139000D01*
X78171000Y-95139000D01*
X78171000Y-94339750D01*
X78012250Y-94181000D01*
X77771690Y-94181000D01*
X77586610Y-94257663D01*
X77562609Y-94137000D01*
X78474309Y-94137000D01*
X78707698Y-94040327D01*
X78886327Y-93861699D01*
X78983000Y-93628310D01*
X78983000Y-93362750D01*
X78824250Y-93204000D01*
X77225000Y-93204000D01*
X77225000Y-93224000D01*
X76971000Y-93224000D01*
X76971000Y-93204000D01*
X76951000Y-93204000D01*
X76951000Y-92950000D01*
X76971000Y-92950000D01*
X76971000Y-92930000D01*
X77225000Y-92930000D01*
X77225000Y-92950000D01*
X78824250Y-92950000D01*
X78983000Y-92791250D01*
X78983000Y-92596266D01*
X79062017Y-92628996D01*
X79062017Y-92628996D01*
G37*
X79062017Y-92628996D02*
X79433983Y-92628996D01*
X79511524Y-92596877D01*
X79500560Y-92652000D01*
X79500560Y-93502000D01*
X79549843Y-93749765D01*
X79690191Y-93959809D01*
X79900235Y-94100157D01*
X80148000Y-94149440D01*
X80240866Y-94149440D01*
X80212251Y-94168560D01*
X79798000Y-94168560D01*
X79550235Y-94217843D01*
X79340191Y-94358191D01*
X79250987Y-94491694D01*
X79236327Y-94456302D01*
X79057699Y-94277673D01*
X78824310Y-94181000D01*
X78583750Y-94181000D01*
X78425000Y-94339750D01*
X78425000Y-95139000D01*
X78445000Y-95139000D01*
X78445000Y-95393000D01*
X78425000Y-95393000D01*
X78425000Y-96192250D01*
X78510531Y-96277781D01*
X78390191Y-96358191D01*
X78249843Y-96568235D01*
X78200560Y-96816000D01*
X78200560Y-96823861D01*
X78093494Y-96930927D01*
X78027377Y-96903540D01*
X77506983Y-96903540D01*
X77214000Y-97024898D01*
X77214000Y-95776636D01*
X77263000Y-95743895D01*
X77263000Y-95842309D01*
X77359673Y-96075698D01*
X77538301Y-96254327D01*
X77771690Y-96351000D01*
X78012250Y-96351000D01*
X78171000Y-96192250D01*
X78171000Y-95393000D01*
X78151000Y-95393000D01*
X78151000Y-95139000D01*
X78171000Y-95139000D01*
X78171000Y-94339750D01*
X78012250Y-94181000D01*
X77771690Y-94181000D01*
X77586610Y-94257663D01*
X77562609Y-94137000D01*
X78474309Y-94137000D01*
X78707698Y-94040327D01*
X78886327Y-93861699D01*
X78983000Y-93628310D01*
X78983000Y-93362750D01*
X78824250Y-93204000D01*
X77225000Y-93204000D01*
X77225000Y-93224000D01*
X76971000Y-93224000D01*
X76971000Y-93204000D01*
X76951000Y-93204000D01*
X76951000Y-92950000D01*
X76971000Y-92950000D01*
X76971000Y-92930000D01*
X77225000Y-92930000D01*
X77225000Y-92950000D01*
X78824250Y-92950000D01*
X78983000Y-92791250D01*
X78983000Y-92596266D01*
X79062017Y-92628996D01*
G36*
X87995000Y-95189000D02*
X88015000Y-95189000D01*
X88015000Y-95443000D01*
X87995000Y-95443000D01*
X87995000Y-95463000D01*
X87741000Y-95463000D01*
X87741000Y-95443000D01*
X87721000Y-95443000D01*
X87721000Y-95189000D01*
X87741000Y-95189000D01*
X87741000Y-95169000D01*
X87995000Y-95169000D01*
X87995000Y-95189000D01*
X87995000Y-95189000D01*
G37*
X87995000Y-95189000D02*
X88015000Y-95189000D01*
X88015000Y-95443000D01*
X87995000Y-95443000D01*
X87995000Y-95463000D01*
X87741000Y-95463000D01*
X87741000Y-95443000D01*
X87721000Y-95443000D01*
X87721000Y-95189000D01*
X87741000Y-95189000D01*
X87741000Y-95169000D01*
X87995000Y-95169000D01*
X87995000Y-95189000D01*
G36*
X87740998Y-94439748D02*
X87739026Y-94437776D01*
X87740998Y-94435804D01*
X87740998Y-94439748D01*
X87740998Y-94439748D01*
G37*
X87740998Y-94439748D02*
X87739026Y-94437776D01*
X87740998Y-94435804D01*
X87740998Y-94439748D01*
G36*
X88577001Y-94335963D02*
X88444309Y-94281000D01*
X88153750Y-94281000D01*
X87995002Y-94439748D01*
X87995002Y-94281000D01*
X87895802Y-94281000D01*
X88114473Y-94062329D01*
X88177929Y-94019929D01*
X88254119Y-93905903D01*
X88324319Y-93800843D01*
X88327765Y-93800157D01*
X88537809Y-93659809D01*
X88577001Y-93601155D01*
X88577001Y-94335963D01*
X88577001Y-94335963D01*
G37*
X88577001Y-94335963D02*
X88444309Y-94281000D01*
X88153750Y-94281000D01*
X87995002Y-94439748D01*
X87995002Y-94281000D01*
X87895802Y-94281000D01*
X88114473Y-94062329D01*
X88177929Y-94019929D01*
X88254119Y-93905903D01*
X88324319Y-93800843D01*
X88327765Y-93800157D01*
X88537809Y-93659809D01*
X88577001Y-93601155D01*
X88577001Y-94335963D01*
G36*
X75200560Y-91752000D02*
X75249843Y-91999765D01*
X75390191Y-92209809D01*
X75391375Y-92210600D01*
X75309673Y-92292301D01*
X75213000Y-92525690D01*
X75213000Y-92577186D01*
X75115983Y-92537000D01*
X74744017Y-92537000D01*
X74400365Y-92679345D01*
X74137345Y-92942365D01*
X74024878Y-93213885D01*
X73722077Y-93088460D01*
X73201683Y-93088460D01*
X72767000Y-93268512D01*
X72767000Y-92734175D01*
X72843543Y-92765880D01*
X73363937Y-92765880D01*
X73844719Y-92566733D01*
X74212693Y-92198759D01*
X74411840Y-91717977D01*
X74411840Y-91669681D01*
X74482158Y-91669681D01*
X74569319Y-91687018D01*
X74656480Y-91669681D01*
X74656484Y-91669681D01*
X74914629Y-91618333D01*
X75200560Y-91427279D01*
X75200560Y-91752000D01*
X75200560Y-91752000D01*
G37*
X75200560Y-91752000D02*
X75249843Y-91999765D01*
X75390191Y-92209809D01*
X75391375Y-92210600D01*
X75309673Y-92292301D01*
X75213000Y-92525690D01*
X75213000Y-92577186D01*
X75115983Y-92537000D01*
X74744017Y-92537000D01*
X74400365Y-92679345D01*
X74137345Y-92942365D01*
X74024878Y-93213885D01*
X73722077Y-93088460D01*
X73201683Y-93088460D01*
X72767000Y-93268512D01*
X72767000Y-92734175D01*
X72843543Y-92765880D01*
X73363937Y-92765880D01*
X73844719Y-92566733D01*
X74212693Y-92198759D01*
X74411840Y-91717977D01*
X74411840Y-91669681D01*
X74482158Y-91669681D01*
X74569319Y-91687018D01*
X74656480Y-91669681D01*
X74656484Y-91669681D01*
X74914629Y-91618333D01*
X75200560Y-91427279D01*
X75200560Y-91752000D01*
G36*
X84084160Y-91685739D02*
X84084160Y-91717977D01*
X84112794Y-91787105D01*
X83798365Y-91917345D01*
X83535345Y-92180365D01*
X83478749Y-92317000D01*
X83187868Y-92317000D01*
X83111027Y-92202000D01*
X83246157Y-91999765D01*
X83295440Y-91752000D01*
X83295440Y-90902000D01*
X83294203Y-90895782D01*
X84084160Y-91685739D01*
X84084160Y-91685739D01*
G37*
X84084160Y-91685739D02*
X84084160Y-91717977D01*
X84112794Y-91787105D01*
X83798365Y-91917345D01*
X83535345Y-92180365D01*
X83478749Y-92317000D01*
X83187868Y-92317000D01*
X83111027Y-92202000D01*
X83246157Y-91999765D01*
X83295440Y-91752000D01*
X83295440Y-90902000D01*
X83294203Y-90895782D01*
X84084160Y-91685739D01*
G36*
X82173001Y-89320835D02*
X82155663Y-89408000D01*
X82216041Y-89711545D01*
X82121521Y-89648389D01*
X82097546Y-89624414D01*
X82113652Y-89600310D01*
X82165000Y-89342165D01*
X82165000Y-89342160D01*
X82173001Y-89301937D01*
X82173001Y-89320835D01*
X82173001Y-89320835D01*
G37*
X82173001Y-89320835D02*
X82155663Y-89408000D01*
X82216041Y-89711545D01*
X82121521Y-89648389D01*
X82097546Y-89624414D01*
X82113652Y-89600310D01*
X82165000Y-89342165D01*
X82165000Y-89342160D01*
X82173001Y-89301937D01*
X82173001Y-89320835D01*
G36*
X70755000Y-88707000D02*
X70775000Y-88707000D01*
X70775000Y-88961000D01*
X70755000Y-88961000D01*
X70755000Y-88981000D01*
X70501000Y-88981000D01*
X70501000Y-88961000D01*
X70481000Y-88961000D01*
X70481000Y-88707000D01*
X70501000Y-88707000D01*
X70501000Y-88687000D01*
X70755000Y-88687000D01*
X70755000Y-88707000D01*
X70755000Y-88707000D01*
G37*
X70755000Y-88707000D02*
X70775000Y-88707000D01*
X70775000Y-88961000D01*
X70755000Y-88961000D01*
X70755000Y-88981000D01*
X70501000Y-88981000D01*
X70501000Y-88961000D01*
X70481000Y-88961000D01*
X70481000Y-88707000D01*
X70501000Y-88707000D01*
X70501000Y-88687000D01*
X70755000Y-88687000D01*
X70755000Y-88707000D01*
G36*
X84267000Y-83455000D02*
X84287000Y-83455000D01*
X84287000Y-83709000D01*
X84267000Y-83709000D01*
X84267000Y-84508250D01*
X84352531Y-84593781D01*
X84232191Y-84674191D01*
X84091843Y-84884235D01*
X84042560Y-85132000D01*
X84042560Y-85427861D01*
X83307198Y-86163223D01*
X83232233Y-85982241D01*
X82864259Y-85614267D01*
X82383477Y-85415120D01*
X81863083Y-85415120D01*
X81382301Y-85614267D01*
X81014327Y-85982241D01*
X80815180Y-86463023D01*
X80815180Y-86881657D01*
X80765310Y-86861000D01*
X80549750Y-86861000D01*
X80391000Y-87019750D01*
X80391000Y-87769000D01*
X81115250Y-87769000D01*
X81217189Y-87667061D01*
X81382301Y-87832173D01*
X81863083Y-88031320D01*
X82173000Y-88031320D01*
X82173001Y-88612621D01*
X82072655Y-88370365D01*
X81809635Y-88107345D01*
X81465983Y-87965000D01*
X81094017Y-87965000D01*
X80953992Y-88023000D01*
X80391000Y-88023000D01*
X80391000Y-88043000D01*
X80137000Y-88043000D01*
X80137000Y-88023000D01*
X80117000Y-88023000D01*
X80117000Y-87769000D01*
X80137000Y-87769000D01*
X80137000Y-87019750D01*
X80114871Y-86997621D01*
X80356953Y-86755539D01*
X80556100Y-86274757D01*
X80556100Y-85754363D01*
X80356953Y-85273581D01*
X79988979Y-84905607D01*
X79636993Y-84759809D01*
X80149802Y-84247000D01*
X80195983Y-84247000D01*
X80232560Y-84231849D01*
X80232560Y-84254000D01*
X80281843Y-84501765D01*
X80422191Y-84711809D01*
X80632235Y-84852157D01*
X80880000Y-84901440D01*
X81680000Y-84901440D01*
X81927765Y-84852157D01*
X82050714Y-84770005D01*
X82147365Y-84866656D01*
X82491017Y-85009001D01*
X82862983Y-85009001D01*
X83206635Y-84866656D01*
X83467037Y-84606254D01*
X83613690Y-84667000D01*
X83854250Y-84667000D01*
X84013000Y-84508250D01*
X84013000Y-83709000D01*
X83993000Y-83709000D01*
X83993000Y-83455000D01*
X84013000Y-83455000D01*
X84013000Y-83435000D01*
X84267000Y-83435000D01*
X84267000Y-83455000D01*
X84267000Y-83455000D01*
G37*
X84267000Y-83455000D02*
X84287000Y-83455000D01*
X84287000Y-83709000D01*
X84267000Y-83709000D01*
X84267000Y-84508250D01*
X84352531Y-84593781D01*
X84232191Y-84674191D01*
X84091843Y-84884235D01*
X84042560Y-85132000D01*
X84042560Y-85427861D01*
X83307198Y-86163223D01*
X83232233Y-85982241D01*
X82864259Y-85614267D01*
X82383477Y-85415120D01*
X81863083Y-85415120D01*
X81382301Y-85614267D01*
X81014327Y-85982241D01*
X80815180Y-86463023D01*
X80815180Y-86881657D01*
X80765310Y-86861000D01*
X80549750Y-86861000D01*
X80391000Y-87019750D01*
X80391000Y-87769000D01*
X81115250Y-87769000D01*
X81217189Y-87667061D01*
X81382301Y-87832173D01*
X81863083Y-88031320D01*
X82173000Y-88031320D01*
X82173001Y-88612621D01*
X82072655Y-88370365D01*
X81809635Y-88107345D01*
X81465983Y-87965000D01*
X81094017Y-87965000D01*
X80953992Y-88023000D01*
X80391000Y-88023000D01*
X80391000Y-88043000D01*
X80137000Y-88043000D01*
X80137000Y-88023000D01*
X80117000Y-88023000D01*
X80117000Y-87769000D01*
X80137000Y-87769000D01*
X80137000Y-87019750D01*
X80114871Y-86997621D01*
X80356953Y-86755539D01*
X80556100Y-86274757D01*
X80556100Y-85754363D01*
X80356953Y-85273581D01*
X79988979Y-84905607D01*
X79636993Y-84759809D01*
X80149802Y-84247000D01*
X80195983Y-84247000D01*
X80232560Y-84231849D01*
X80232560Y-84254000D01*
X80281843Y-84501765D01*
X80422191Y-84711809D01*
X80632235Y-84852157D01*
X80880000Y-84901440D01*
X81680000Y-84901440D01*
X81927765Y-84852157D01*
X82050714Y-84770005D01*
X82147365Y-84866656D01*
X82491017Y-85009001D01*
X82862983Y-85009001D01*
X83206635Y-84866656D01*
X83467037Y-84606254D01*
X83613690Y-84667000D01*
X83854250Y-84667000D01*
X84013000Y-84508250D01*
X84013000Y-83709000D01*
X83993000Y-83709000D01*
X83993000Y-83455000D01*
X84013000Y-83455000D01*
X84013000Y-83435000D01*
X84267000Y-83435000D01*
X84267000Y-83455000D01*
G36*
X71530560Y-87988534D02*
X71437698Y-87895673D01*
X71402306Y-87881013D01*
X71530560Y-87795316D01*
X71530560Y-87988534D01*
X71530560Y-87988534D01*
G37*
X71530560Y-87988534D02*
X71437698Y-87895673D01*
X71402306Y-87881013D01*
X71530560Y-87795316D01*
X71530560Y-87988534D01*
G36*
X87995000Y-86807000D02*
X88015000Y-86807000D01*
X88015000Y-87061000D01*
X87995000Y-87061000D01*
X87995000Y-87081000D01*
X87741000Y-87081000D01*
X87741000Y-87061000D01*
X87721000Y-87061000D01*
X87721000Y-86807000D01*
X87741000Y-86807000D01*
X87741000Y-86787000D01*
X87995000Y-86787000D01*
X87995000Y-86807000D01*
X87995000Y-86807000D01*
G37*
X87995000Y-86807000D02*
X88015000Y-86807000D01*
X88015000Y-87061000D01*
X87995000Y-87061000D01*
X87995000Y-87081000D01*
X87741000Y-87081000D01*
X87741000Y-87061000D01*
X87721000Y-87061000D01*
X87721000Y-86807000D01*
X87741000Y-86807000D01*
X87741000Y-86787000D01*
X87995000Y-86787000D01*
X87995000Y-86807000D01*
G36*
X72583000Y-83455000D02*
X72603000Y-83455000D01*
X72603000Y-83709000D01*
X72583000Y-83709000D01*
X72583000Y-84508250D01*
X72668531Y-84593781D01*
X72548191Y-84674191D01*
X72407843Y-84884235D01*
X72358560Y-85132000D01*
X72358560Y-86032000D01*
X72407843Y-86279765D01*
X72548191Y-86489809D01*
X72758235Y-86630157D01*
X72975868Y-86673447D01*
X73154124Y-86851702D01*
X73078000Y-86836560D01*
X72178000Y-86836560D01*
X71930235Y-86885843D01*
X71725440Y-87022684D01*
X71725440Y-86534000D01*
X71676157Y-86286235D01*
X71535809Y-86076191D01*
X71500584Y-86052655D01*
X71519809Y-86039809D01*
X71660157Y-85829765D01*
X71709440Y-85582000D01*
X71709440Y-85082000D01*
X71660157Y-84834235D01*
X71519809Y-84624191D01*
X71456666Y-84582000D01*
X71519809Y-84539809D01*
X71578279Y-84452304D01*
X71696301Y-84570327D01*
X71929690Y-84667000D01*
X72170250Y-84667000D01*
X72329000Y-84508250D01*
X72329000Y-83709000D01*
X72309000Y-83709000D01*
X72309000Y-83455000D01*
X72329000Y-83455000D01*
X72329000Y-83435000D01*
X72583000Y-83435000D01*
X72583000Y-83455000D01*
X72583000Y-83455000D01*
G37*
X72583000Y-83455000D02*
X72603000Y-83455000D01*
X72603000Y-83709000D01*
X72583000Y-83709000D01*
X72583000Y-84508250D01*
X72668531Y-84593781D01*
X72548191Y-84674191D01*
X72407843Y-84884235D01*
X72358560Y-85132000D01*
X72358560Y-86032000D01*
X72407843Y-86279765D01*
X72548191Y-86489809D01*
X72758235Y-86630157D01*
X72975868Y-86673447D01*
X73154124Y-86851702D01*
X73078000Y-86836560D01*
X72178000Y-86836560D01*
X71930235Y-86885843D01*
X71725440Y-87022684D01*
X71725440Y-86534000D01*
X71676157Y-86286235D01*
X71535809Y-86076191D01*
X71500584Y-86052655D01*
X71519809Y-86039809D01*
X71660157Y-85829765D01*
X71709440Y-85582000D01*
X71709440Y-85082000D01*
X71660157Y-84834235D01*
X71519809Y-84624191D01*
X71456666Y-84582000D01*
X71519809Y-84539809D01*
X71578279Y-84452304D01*
X71696301Y-84570327D01*
X71929690Y-84667000D01*
X72170250Y-84667000D01*
X72329000Y-84508250D01*
X72329000Y-83709000D01*
X72309000Y-83709000D01*
X72309000Y-83455000D01*
X72329000Y-83455000D01*
X72329000Y-83435000D01*
X72583000Y-83435000D01*
X72583000Y-83455000D01*
G36*
X86976191Y-84539809D02*
X87039334Y-84582000D01*
X86976191Y-84624191D01*
X86835843Y-84834235D01*
X86786560Y-85082000D01*
X86786560Y-85154638D01*
X86383530Y-85557669D01*
X86320071Y-85600071D01*
X86152096Y-85851464D01*
X86137440Y-85925145D01*
X86137440Y-85132000D01*
X86088157Y-84884235D01*
X85951316Y-84679440D01*
X86440000Y-84679440D01*
X86687765Y-84630157D01*
X86897809Y-84489809D01*
X86920295Y-84456156D01*
X86976191Y-84539809D01*
X86976191Y-84539809D01*
G37*
X86976191Y-84539809D02*
X87039334Y-84582000D01*
X86976191Y-84624191D01*
X86835843Y-84834235D01*
X86786560Y-85082000D01*
X86786560Y-85154638D01*
X86383530Y-85557669D01*
X86320071Y-85600071D01*
X86152096Y-85851464D01*
X86137440Y-85925145D01*
X86137440Y-85132000D01*
X86088157Y-84884235D01*
X85951316Y-84679440D01*
X86440000Y-84679440D01*
X86687765Y-84630157D01*
X86897809Y-84489809D01*
X86920295Y-84456156D01*
X86976191Y-84539809D01*
G36*
X85178684Y-84484560D02*
X84985466Y-84484560D01*
X85078327Y-84391698D01*
X85092987Y-84356306D01*
X85178684Y-84484560D01*
X85178684Y-84484560D01*
G37*
X85178684Y-84484560D02*
X84985466Y-84484560D01*
X85078327Y-84391698D01*
X85092987Y-84356306D01*
X85178684Y-84484560D01*
G36*
X80024001Y-79180298D02*
X79935843Y-79312235D01*
X79886560Y-79560000D01*
X79886560Y-80460000D01*
X79935843Y-80707765D01*
X79943350Y-80719000D01*
X79803690Y-80719000D01*
X79570301Y-80815673D01*
X79391673Y-80994302D01*
X79295000Y-81227691D01*
X79295000Y-81518250D01*
X79453750Y-81677000D01*
X80203000Y-81677000D01*
X80203000Y-81657000D01*
X80457000Y-81657000D01*
X80457000Y-81677000D01*
X80477000Y-81677000D01*
X80477000Y-81931000D01*
X80457000Y-81931000D01*
X80457000Y-81951000D01*
X80203000Y-81951000D01*
X80203000Y-81931000D01*
X79453750Y-81931000D01*
X79295000Y-82089750D01*
X79295000Y-82380309D01*
X79390015Y-82609695D01*
X79217345Y-82782365D01*
X79075000Y-83126017D01*
X79075000Y-83172198D01*
X78263440Y-83983758D01*
X78263440Y-83354000D01*
X78214157Y-83106235D01*
X78077316Y-82901440D01*
X78566000Y-82901440D01*
X78813765Y-82852157D01*
X79023809Y-82711809D01*
X79164157Y-82501765D01*
X79213440Y-82254000D01*
X79213440Y-81354000D01*
X79164157Y-81106235D01*
X79023809Y-80896191D01*
X78967427Y-80858517D01*
X79068157Y-80707765D01*
X79117440Y-80460000D01*
X79117440Y-79560000D01*
X79102220Y-79483481D01*
X80024001Y-78561701D01*
X80024001Y-79180298D01*
X80024001Y-79180298D01*
G37*
X80024001Y-79180298D02*
X79935843Y-79312235D01*
X79886560Y-79560000D01*
X79886560Y-80460000D01*
X79935843Y-80707765D01*
X79943350Y-80719000D01*
X79803690Y-80719000D01*
X79570301Y-80815673D01*
X79391673Y-80994302D01*
X79295000Y-81227691D01*
X79295000Y-81518250D01*
X79453750Y-81677000D01*
X80203000Y-81677000D01*
X80203000Y-81657000D01*
X80457000Y-81657000D01*
X80457000Y-81677000D01*
X80477000Y-81677000D01*
X80477000Y-81931000D01*
X80457000Y-81931000D01*
X80457000Y-81951000D01*
X80203000Y-81951000D01*
X80203000Y-81931000D01*
X79453750Y-81931000D01*
X79295000Y-82089750D01*
X79295000Y-82380309D01*
X79390015Y-82609695D01*
X79217345Y-82782365D01*
X79075000Y-83126017D01*
X79075000Y-83172198D01*
X78263440Y-83983758D01*
X78263440Y-83354000D01*
X78214157Y-83106235D01*
X78077316Y-82901440D01*
X78566000Y-82901440D01*
X78813765Y-82852157D01*
X79023809Y-82711809D01*
X79164157Y-82501765D01*
X79213440Y-82254000D01*
X79213440Y-81354000D01*
X79164157Y-81106235D01*
X79023809Y-80896191D01*
X78967427Y-80858517D01*
X79068157Y-80707765D01*
X79117440Y-80460000D01*
X79117440Y-79560000D01*
X79102220Y-79483481D01*
X80024001Y-78561701D01*
X80024001Y-79180298D01*
G36*
X83777722Y-81042524D02*
X83745843Y-81090235D01*
X83696560Y-81338000D01*
X83696560Y-82238000D01*
X83745843Y-82485765D01*
X83753350Y-82497000D01*
X83613690Y-82497000D01*
X83380301Y-82593673D01*
X83201673Y-82772302D01*
X83105000Y-83005691D01*
X83105000Y-83239247D01*
X83089823Y-83232961D01*
X83045048Y-83165951D01*
X82752309Y-82970348D01*
X82494164Y-82919000D01*
X82494160Y-82919000D01*
X82406999Y-82901663D01*
X82319838Y-82919000D01*
X82153050Y-82919000D01*
X82141316Y-82901440D01*
X82630000Y-82901440D01*
X82877765Y-82852157D01*
X83087809Y-82711809D01*
X83228157Y-82501765D01*
X83277440Y-82254000D01*
X83277440Y-81354000D01*
X83228157Y-81106235D01*
X83087809Y-80896191D01*
X83031427Y-80858517D01*
X83132157Y-80707765D01*
X83181440Y-80460000D01*
X83181440Y-80446242D01*
X83777722Y-81042524D01*
X83777722Y-81042524D01*
G37*
X83777722Y-81042524D02*
X83745843Y-81090235D01*
X83696560Y-81338000D01*
X83696560Y-82238000D01*
X83745843Y-82485765D01*
X83753350Y-82497000D01*
X83613690Y-82497000D01*
X83380301Y-82593673D01*
X83201673Y-82772302D01*
X83105000Y-83005691D01*
X83105000Y-83239247D01*
X83089823Y-83232961D01*
X83045048Y-83165951D01*
X82752309Y-82970348D01*
X82494164Y-82919000D01*
X82494160Y-82919000D01*
X82406999Y-82901663D01*
X82319838Y-82919000D01*
X82153050Y-82919000D01*
X82141316Y-82901440D01*
X82630000Y-82901440D01*
X82877765Y-82852157D01*
X83087809Y-82711809D01*
X83228157Y-82501765D01*
X83277440Y-82254000D01*
X83277440Y-81354000D01*
X83228157Y-81106235D01*
X83087809Y-80896191D01*
X83031427Y-80858517D01*
X83132157Y-80707765D01*
X83181440Y-80460000D01*
X83181440Y-80446242D01*
X83777722Y-81042524D01*
G36*
X76393000Y-81677000D02*
X76413000Y-81677000D01*
X76413000Y-81931000D01*
X76393000Y-81931000D01*
X76393000Y-82730250D01*
X76478531Y-82815781D01*
X76358191Y-82896191D01*
X76342950Y-82919000D01*
X75922153Y-82919000D01*
X75834992Y-82901663D01*
X75747831Y-82919000D01*
X75747827Y-82919000D01*
X75525834Y-82963157D01*
X75489682Y-82970348D01*
X75385176Y-83040177D01*
X75354157Y-82884235D01*
X75278961Y-82771697D01*
X75361758Y-82647783D01*
X75506301Y-82792327D01*
X75739690Y-82889000D01*
X75980250Y-82889000D01*
X76139000Y-82730250D01*
X76139000Y-81931000D01*
X76119000Y-81931000D01*
X76119000Y-81677000D01*
X76139000Y-81677000D01*
X76139000Y-81657000D01*
X76393000Y-81657000D01*
X76393000Y-81677000D01*
X76393000Y-81677000D01*
G37*
X76393000Y-81677000D02*
X76413000Y-81677000D01*
X76413000Y-81931000D01*
X76393000Y-81931000D01*
X76393000Y-82730250D01*
X76478531Y-82815781D01*
X76358191Y-82896191D01*
X76342950Y-82919000D01*
X75922153Y-82919000D01*
X75834992Y-82901663D01*
X75747831Y-82919000D01*
X75747827Y-82919000D01*
X75525834Y-82963157D01*
X75489682Y-82970348D01*
X75385176Y-83040177D01*
X75354157Y-82884235D01*
X75278961Y-82771697D01*
X75361758Y-82647783D01*
X75506301Y-82792327D01*
X75739690Y-82889000D01*
X75980250Y-82889000D01*
X76139000Y-82730250D01*
X76139000Y-81931000D01*
X76119000Y-81931000D01*
X76119000Y-81677000D01*
X76139000Y-81677000D01*
X76139000Y-81657000D01*
X76393000Y-81657000D01*
X76393000Y-81677000D01*
G36*
X70130560Y-63666000D02*
X70130560Y-65366000D01*
X70179843Y-65613765D01*
X70320191Y-65823809D01*
X70493001Y-65939278D01*
X70493001Y-66254214D01*
X70493000Y-66254218D01*
X70493000Y-66331869D01*
X70492392Y-66332477D01*
X70304854Y-66613146D01*
X70216765Y-67056000D01*
X70304854Y-67498854D01*
X70501001Y-67792407D01*
X70501001Y-67813456D01*
X70488560Y-67876000D01*
X70488560Y-68776000D01*
X70501000Y-68838542D01*
X70501001Y-69845456D01*
X70488560Y-69908000D01*
X70488560Y-70808000D01*
X70501000Y-70870542D01*
X70501001Y-71623456D01*
X70488560Y-71686000D01*
X70488560Y-72586000D01*
X70501000Y-72648542D01*
X70501001Y-73401456D01*
X70488560Y-73464000D01*
X70488560Y-74364000D01*
X70501001Y-74426544D01*
X70501000Y-75433458D01*
X70488560Y-75496000D01*
X70488560Y-76396000D01*
X70501001Y-76458544D01*
X70501000Y-77262258D01*
X70488560Y-77324800D01*
X70488560Y-77950181D01*
X70483663Y-77974800D01*
X70488560Y-77999419D01*
X70488560Y-78224800D01*
X70537843Y-78472565D01*
X70678191Y-78682609D01*
X70888235Y-78822957D01*
X71006004Y-78846382D01*
X71448577Y-79288956D01*
X71497951Y-79362849D01*
X71571844Y-79412223D01*
X71571845Y-79412224D01*
X71673825Y-79480365D01*
X71790690Y-79558452D01*
X72048835Y-79609800D01*
X72048839Y-79609800D01*
X72051508Y-79610331D01*
X71962996Y-79824017D01*
X71962996Y-80195983D01*
X72105341Y-80539635D01*
X72277001Y-80711295D01*
X72277000Y-81085299D01*
X72188843Y-81217235D01*
X72139560Y-81465000D01*
X72139560Y-82365000D01*
X72165816Y-82497000D01*
X71929690Y-82497000D01*
X71696301Y-82593673D01*
X71547000Y-82742975D01*
X71547000Y-82618017D01*
X71404655Y-82274365D01*
X71141635Y-82011345D01*
X70797983Y-81869000D01*
X70426017Y-81869000D01*
X70082365Y-82011345D01*
X69947000Y-82146710D01*
X69947000Y-64236802D01*
X70006564Y-63820883D01*
X70160063Y-63483280D01*
X70168958Y-63472956D01*
X70130560Y-63666000D01*
X70130560Y-63666000D01*
G37*
X70130560Y-63666000D02*
X70130560Y-65366000D01*
X70179843Y-65613765D01*
X70320191Y-65823809D01*
X70493001Y-65939278D01*
X70493001Y-66254214D01*
X70493000Y-66254218D01*
X70493000Y-66331869D01*
X70492392Y-66332477D01*
X70304854Y-66613146D01*
X70216765Y-67056000D01*
X70304854Y-67498854D01*
X70501001Y-67792407D01*
X70501001Y-67813456D01*
X70488560Y-67876000D01*
X70488560Y-68776000D01*
X70501000Y-68838542D01*
X70501001Y-69845456D01*
X70488560Y-69908000D01*
X70488560Y-70808000D01*
X70501000Y-70870542D01*
X70501001Y-71623456D01*
X70488560Y-71686000D01*
X70488560Y-72586000D01*
X70501000Y-72648542D01*
X70501001Y-73401456D01*
X70488560Y-73464000D01*
X70488560Y-74364000D01*
X70501001Y-74426544D01*
X70501000Y-75433458D01*
X70488560Y-75496000D01*
X70488560Y-76396000D01*
X70501001Y-76458544D01*
X70501000Y-77262258D01*
X70488560Y-77324800D01*
X70488560Y-77950181D01*
X70483663Y-77974800D01*
X70488560Y-77999419D01*
X70488560Y-78224800D01*
X70537843Y-78472565D01*
X70678191Y-78682609D01*
X70888235Y-78822957D01*
X71006004Y-78846382D01*
X71448577Y-79288956D01*
X71497951Y-79362849D01*
X71571844Y-79412223D01*
X71571845Y-79412224D01*
X71673825Y-79480365D01*
X71790690Y-79558452D01*
X72048835Y-79609800D01*
X72048839Y-79609800D01*
X72051508Y-79610331D01*
X71962996Y-79824017D01*
X71962996Y-80195983D01*
X72105341Y-80539635D01*
X72277001Y-80711295D01*
X72277000Y-81085299D01*
X72188843Y-81217235D01*
X72139560Y-81465000D01*
X72139560Y-82365000D01*
X72165816Y-82497000D01*
X71929690Y-82497000D01*
X71696301Y-82593673D01*
X71547000Y-82742975D01*
X71547000Y-82618017D01*
X71404655Y-82274365D01*
X71141635Y-82011345D01*
X70797983Y-81869000D01*
X70426017Y-81869000D01*
X70082365Y-82011345D01*
X69947000Y-82146710D01*
X69947000Y-64236802D01*
X70006564Y-63820883D01*
X70160063Y-63483280D01*
X70168958Y-63472956D01*
X70130560Y-63666000D01*
G36*
X77304684Y-82706560D02*
X77111466Y-82706560D01*
X77204327Y-82613698D01*
X77218987Y-82578306D01*
X77304684Y-82706560D01*
X77304684Y-82706560D01*
G37*
X77304684Y-82706560D02*
X77111466Y-82706560D01*
X77204327Y-82613698D01*
X77218987Y-82578306D01*
X77304684Y-82706560D01*
G36*
X81368684Y-82706560D02*
X81175466Y-82706560D01*
X81268327Y-82613698D01*
X81282987Y-82578306D01*
X81368684Y-82706560D01*
X81368684Y-82706560D01*
G37*
X81368684Y-82706560D02*
X81175466Y-82706560D01*
X81268327Y-82613698D01*
X81282987Y-82578306D01*
X81368684Y-82706560D01*
G36*
X87629116Y-62932563D02*
X87966719Y-63086062D01*
X88247669Y-63328145D01*
X88449383Y-63639351D01*
X88562431Y-64017356D01*
X88577000Y-64213410D01*
X88577000Y-81962184D01*
X88431929Y-81745069D01*
X88368473Y-81702669D01*
X86953333Y-80287530D01*
X86910931Y-80224071D01*
X86659539Y-80056096D01*
X86437854Y-80012000D01*
X86437849Y-80012000D01*
X86363002Y-79997112D01*
X86288155Y-80012000D01*
X85658802Y-80012000D01*
X85146802Y-79500000D01*
X85797708Y-79500000D01*
X85830363Y-79532655D01*
X86174015Y-79675000D01*
X86545981Y-79675000D01*
X86889633Y-79532655D01*
X87152653Y-79269635D01*
X87294998Y-78925983D01*
X87294998Y-78554017D01*
X87152653Y-78210365D01*
X86889633Y-77947345D01*
X86545981Y-77805000D01*
X86174015Y-77805000D01*
X85830363Y-77947345D01*
X85797708Y-77980000D01*
X84388802Y-77980000D01*
X83411000Y-77002199D01*
X83411000Y-76183440D01*
X83501000Y-76183440D01*
X83626000Y-76158576D01*
X83751000Y-76183440D01*
X84151000Y-76183440D01*
X84276000Y-76158576D01*
X84401000Y-76183440D01*
X84801000Y-76183440D01*
X84904852Y-76162783D01*
X84924690Y-76171000D01*
X84992250Y-76171000D01*
X85024208Y-76139042D01*
X85048765Y-76134157D01*
X85258809Y-75993809D01*
X85351000Y-75855836D01*
X85351000Y-76012250D01*
X85509750Y-76171000D01*
X85577310Y-76171000D01*
X85810699Y-76074327D01*
X85989327Y-75895698D01*
X86086000Y-75662309D01*
X86086000Y-75271750D01*
X85927250Y-75113000D01*
X85448440Y-75113000D01*
X85448440Y-74859000D01*
X85927250Y-74859000D01*
X86086000Y-74700250D01*
X86086000Y-74309691D01*
X85989327Y-74076302D01*
X85810699Y-73897673D01*
X85577310Y-73801000D01*
X85509750Y-73801000D01*
X85378002Y-73932748D01*
X85378002Y-73801000D01*
X85361000Y-73801000D01*
X85361000Y-73245846D01*
X85375888Y-73170999D01*
X85361000Y-73096152D01*
X85361000Y-73096148D01*
X85316904Y-72874463D01*
X85263000Y-72793790D01*
X85263000Y-72712017D01*
X85120655Y-72368365D01*
X84857635Y-72105345D01*
X84513983Y-71963000D01*
X84142017Y-71963000D01*
X83800993Y-72104256D01*
X83459970Y-71963000D01*
X83088004Y-71963000D01*
X82785002Y-72088507D01*
X82481999Y-71963000D01*
X82110033Y-71963000D01*
X81766381Y-72105345D01*
X81503361Y-72368365D01*
X81361016Y-72712017D01*
X81361016Y-73083983D01*
X81503361Y-73427635D01*
X81766381Y-73690655D01*
X82002745Y-73788560D01*
X81801000Y-73788560D01*
X81676000Y-73813424D01*
X81551000Y-73788560D01*
X81151000Y-73788560D01*
X81026000Y-73813424D01*
X80901000Y-73788560D01*
X80501000Y-73788560D01*
X80376000Y-73813424D01*
X80251000Y-73788560D01*
X79851000Y-73788560D01*
X79747148Y-73809217D01*
X79727310Y-73801000D01*
X79659750Y-73801000D01*
X79627792Y-73832958D01*
X79603235Y-73837843D01*
X79528002Y-73888113D01*
X79528002Y-73801000D01*
X79511000Y-73801000D01*
X79511000Y-71167833D01*
X79525888Y-71092986D01*
X79511000Y-71018139D01*
X79511000Y-71018135D01*
X79466904Y-70796450D01*
X79459013Y-70784640D01*
X79459013Y-70680017D01*
X79326038Y-70358987D01*
X79392400Y-70292625D01*
X79393191Y-70293809D01*
X79603235Y-70434157D01*
X79627792Y-70439042D01*
X79659750Y-70471000D01*
X79727310Y-70471000D01*
X79747148Y-70462783D01*
X79851000Y-70483440D01*
X80251000Y-70483440D01*
X80376000Y-70458576D01*
X80501000Y-70483440D01*
X80901000Y-70483440D01*
X81026000Y-70458576D01*
X81151000Y-70483440D01*
X81551000Y-70483440D01*
X81676000Y-70458576D01*
X81801000Y-70483440D01*
X82201000Y-70483440D01*
X82326000Y-70458576D01*
X82451000Y-70483440D01*
X82851000Y-70483440D01*
X82976000Y-70458576D01*
X83101000Y-70483440D01*
X83139000Y-70483440D01*
X83139000Y-70797983D01*
X83281345Y-71141635D01*
X83544365Y-71404655D01*
X83888017Y-71547000D01*
X84259983Y-71547000D01*
X84582000Y-71413616D01*
X84904017Y-71547000D01*
X85275983Y-71547000D01*
X85619635Y-71404655D01*
X85882655Y-71141635D01*
X86025000Y-70797983D01*
X86025000Y-70455465D01*
X86025888Y-70451001D01*
X86025000Y-70446537D01*
X86025000Y-70426017D01*
X86017147Y-70407059D01*
X86011000Y-70376154D01*
X86011000Y-70375750D01*
X86291000Y-70375750D01*
X86291000Y-70468309D01*
X86387673Y-70701698D01*
X86566301Y-70880327D01*
X86799690Y-70977000D01*
X87090250Y-70977000D01*
X87249000Y-70818250D01*
X87249000Y-70217000D01*
X87503000Y-70217000D01*
X87503000Y-70818250D01*
X87661750Y-70977000D01*
X87952310Y-70977000D01*
X88185699Y-70880327D01*
X88364327Y-70701698D01*
X88461000Y-70468309D01*
X88461000Y-70375750D01*
X88302250Y-70217000D01*
X87503000Y-70217000D01*
X87249000Y-70217000D01*
X86449750Y-70217000D01*
X86291000Y-70375750D01*
X86011000Y-70375750D01*
X86011000Y-70140871D01*
X86049157Y-70083765D01*
X86098440Y-69836000D01*
X86098440Y-68736000D01*
X86067012Y-68578000D01*
X86087198Y-68578000D01*
X86278560Y-68769362D01*
X86278560Y-68842000D01*
X86327843Y-69089765D01*
X86468191Y-69299809D01*
X86529320Y-69340654D01*
X86387673Y-69482302D01*
X86291000Y-69715691D01*
X86291000Y-69808250D01*
X86449750Y-69967000D01*
X87249000Y-69967000D01*
X87249000Y-69945000D01*
X87503000Y-69945000D01*
X87503000Y-69967000D01*
X88302250Y-69967000D01*
X88461000Y-69808250D01*
X88461000Y-69715691D01*
X88364327Y-69482302D01*
X88222680Y-69340654D01*
X88283809Y-69299809D01*
X88424157Y-69089765D01*
X88473440Y-68842000D01*
X88473440Y-68342000D01*
X88424157Y-68094235D01*
X88283809Y-67884191D01*
X88073765Y-67743843D01*
X87826000Y-67694560D01*
X87353362Y-67694560D01*
X86992331Y-67333529D01*
X86949929Y-67270071D01*
X86698537Y-67102096D01*
X86476852Y-67058000D01*
X86476847Y-67058000D01*
X86402000Y-67043112D01*
X86327153Y-67058000D01*
X86025000Y-67058000D01*
X86025000Y-66870017D01*
X85882655Y-66526365D01*
X85619635Y-66263345D01*
X85275983Y-66121000D01*
X85229801Y-66121000D01*
X85088000Y-65979199D01*
X85088000Y-65794178D01*
X85398625Y-65586625D01*
X85611843Y-65267522D01*
X85672817Y-65397358D01*
X86101076Y-65787645D01*
X86511110Y-65957476D01*
X86741000Y-65836155D01*
X86741000Y-64643000D01*
X86995000Y-64643000D01*
X86995000Y-65836155D01*
X87224890Y-65957476D01*
X87634924Y-65787645D01*
X88063183Y-65397358D01*
X88309486Y-64872892D01*
X88188819Y-64643000D01*
X86995000Y-64643000D01*
X86741000Y-64643000D01*
X86721000Y-64643000D01*
X86721000Y-64389000D01*
X86741000Y-64389000D01*
X86741000Y-63195845D01*
X86995000Y-63195845D01*
X86995000Y-64389000D01*
X88188819Y-64389000D01*
X88309486Y-64159108D01*
X88063183Y-63634642D01*
X87634924Y-63244355D01*
X87224890Y-63074524D01*
X86995000Y-63195845D01*
X86741000Y-63195845D01*
X86511110Y-63074524D01*
X86101076Y-63244355D01*
X85672817Y-63634642D01*
X85611843Y-63764478D01*
X85398625Y-63445375D01*
X84907418Y-63117161D01*
X84474256Y-63031000D01*
X84181744Y-63031000D01*
X83748582Y-63117161D01*
X83257375Y-63445375D01*
X83058000Y-63743761D01*
X82858625Y-63445375D01*
X82367418Y-63117161D01*
X81934256Y-63031000D01*
X81641744Y-63031000D01*
X81208582Y-63117161D01*
X80717375Y-63445375D01*
X80518000Y-63743761D01*
X80318625Y-63445375D01*
X79827418Y-63117161D01*
X79394256Y-63031000D01*
X79101744Y-63031000D01*
X78668582Y-63117161D01*
X78177375Y-63445375D01*
X77978000Y-63743761D01*
X77778625Y-63445375D01*
X77287418Y-63117161D01*
X76854256Y-63031000D01*
X76561744Y-63031000D01*
X76128582Y-63117161D01*
X75637375Y-63445375D01*
X75438000Y-63743761D01*
X75238625Y-63445375D01*
X74747418Y-63117161D01*
X74314256Y-63031000D01*
X74021744Y-63031000D01*
X73588582Y-63117161D01*
X73097375Y-63445375D01*
X73085184Y-63463619D01*
X73076157Y-63418235D01*
X72935809Y-63208191D01*
X72725765Y-63067843D01*
X72478000Y-63018560D01*
X70778000Y-63018560D01*
X70644788Y-63045057D01*
X70713352Y-63000616D01*
X71091357Y-62887568D01*
X71287411Y-62872999D01*
X87213197Y-62872999D01*
X87629116Y-62932563D01*
X87629116Y-62932563D01*
G37*
X87629116Y-62932563D02*
X87966719Y-63086062D01*
X88247669Y-63328145D01*
X88449383Y-63639351D01*
X88562431Y-64017356D01*
X88577000Y-64213410D01*
X88577000Y-81962184D01*
X88431929Y-81745069D01*
X88368473Y-81702669D01*
X86953333Y-80287530D01*
X86910931Y-80224071D01*
X86659539Y-80056096D01*
X86437854Y-80012000D01*
X86437849Y-80012000D01*
X86363002Y-79997112D01*
X86288155Y-80012000D01*
X85658802Y-80012000D01*
X85146802Y-79500000D01*
X85797708Y-79500000D01*
X85830363Y-79532655D01*
X86174015Y-79675000D01*
X86545981Y-79675000D01*
X86889633Y-79532655D01*
X87152653Y-79269635D01*
X87294998Y-78925983D01*
X87294998Y-78554017D01*
X87152653Y-78210365D01*
X86889633Y-77947345D01*
X86545981Y-77805000D01*
X86174015Y-77805000D01*
X85830363Y-77947345D01*
X85797708Y-77980000D01*
X84388802Y-77980000D01*
X83411000Y-77002199D01*
X83411000Y-76183440D01*
X83501000Y-76183440D01*
X83626000Y-76158576D01*
X83751000Y-76183440D01*
X84151000Y-76183440D01*
X84276000Y-76158576D01*
X84401000Y-76183440D01*
X84801000Y-76183440D01*
X84904852Y-76162783D01*
X84924690Y-76171000D01*
X84992250Y-76171000D01*
X85024208Y-76139042D01*
X85048765Y-76134157D01*
X85258809Y-75993809D01*
X85351000Y-75855836D01*
X85351000Y-76012250D01*
X85509750Y-76171000D01*
X85577310Y-76171000D01*
X85810699Y-76074327D01*
X85989327Y-75895698D01*
X86086000Y-75662309D01*
X86086000Y-75271750D01*
X85927250Y-75113000D01*
X85448440Y-75113000D01*
X85448440Y-74859000D01*
X85927250Y-74859000D01*
X86086000Y-74700250D01*
X86086000Y-74309691D01*
X85989327Y-74076302D01*
X85810699Y-73897673D01*
X85577310Y-73801000D01*
X85509750Y-73801000D01*
X85378002Y-73932748D01*
X85378002Y-73801000D01*
X85361000Y-73801000D01*
X85361000Y-73245846D01*
X85375888Y-73170999D01*
X85361000Y-73096152D01*
X85361000Y-73096148D01*
X85316904Y-72874463D01*
X85263000Y-72793790D01*
X85263000Y-72712017D01*
X85120655Y-72368365D01*
X84857635Y-72105345D01*
X84513983Y-71963000D01*
X84142017Y-71963000D01*
X83800993Y-72104256D01*
X83459970Y-71963000D01*
X83088004Y-71963000D01*
X82785002Y-72088507D01*
X82481999Y-71963000D01*
X82110033Y-71963000D01*
X81766381Y-72105345D01*
X81503361Y-72368365D01*
X81361016Y-72712017D01*
X81361016Y-73083983D01*
X81503361Y-73427635D01*
X81766381Y-73690655D01*
X82002745Y-73788560D01*
X81801000Y-73788560D01*
X81676000Y-73813424D01*
X81551000Y-73788560D01*
X81151000Y-73788560D01*
X81026000Y-73813424D01*
X80901000Y-73788560D01*
X80501000Y-73788560D01*
X80376000Y-73813424D01*
X80251000Y-73788560D01*
X79851000Y-73788560D01*
X79747148Y-73809217D01*
X79727310Y-73801000D01*
X79659750Y-73801000D01*
X79627792Y-73832958D01*
X79603235Y-73837843D01*
X79528002Y-73888113D01*
X79528002Y-73801000D01*
X79511000Y-73801000D01*
X79511000Y-71167833D01*
X79525888Y-71092986D01*
X79511000Y-71018139D01*
X79511000Y-71018135D01*
X79466904Y-70796450D01*
X79459013Y-70784640D01*
X79459013Y-70680017D01*
X79326038Y-70358987D01*
X79392400Y-70292625D01*
X79393191Y-70293809D01*
X79603235Y-70434157D01*
X79627792Y-70439042D01*
X79659750Y-70471000D01*
X79727310Y-70471000D01*
X79747148Y-70462783D01*
X79851000Y-70483440D01*
X80251000Y-70483440D01*
X80376000Y-70458576D01*
X80501000Y-70483440D01*
X80901000Y-70483440D01*
X81026000Y-70458576D01*
X81151000Y-70483440D01*
X81551000Y-70483440D01*
X81676000Y-70458576D01*
X81801000Y-70483440D01*
X82201000Y-70483440D01*
X82326000Y-70458576D01*
X82451000Y-70483440D01*
X82851000Y-70483440D01*
X82976000Y-70458576D01*
X83101000Y-70483440D01*
X83139000Y-70483440D01*
X83139000Y-70797983D01*
X83281345Y-71141635D01*
X83544365Y-71404655D01*
X83888017Y-71547000D01*
X84259983Y-71547000D01*
X84582000Y-71413616D01*
X84904017Y-71547000D01*
X85275983Y-71547000D01*
X85619635Y-71404655D01*
X85882655Y-71141635D01*
X86025000Y-70797983D01*
X86025000Y-70455465D01*
X86025888Y-70451001D01*
X86025000Y-70446537D01*
X86025000Y-70426017D01*
X86017147Y-70407059D01*
X86011000Y-70376154D01*
X86011000Y-70375750D01*
X86291000Y-70375750D01*
X86291000Y-70468309D01*
X86387673Y-70701698D01*
X86566301Y-70880327D01*
X86799690Y-70977000D01*
X87090250Y-70977000D01*
X87249000Y-70818250D01*
X87249000Y-70217000D01*
X87503000Y-70217000D01*
X87503000Y-70818250D01*
X87661750Y-70977000D01*
X87952310Y-70977000D01*
X88185699Y-70880327D01*
X88364327Y-70701698D01*
X88461000Y-70468309D01*
X88461000Y-70375750D01*
X88302250Y-70217000D01*
X87503000Y-70217000D01*
X87249000Y-70217000D01*
X86449750Y-70217000D01*
X86291000Y-70375750D01*
X86011000Y-70375750D01*
X86011000Y-70140871D01*
X86049157Y-70083765D01*
X86098440Y-69836000D01*
X86098440Y-68736000D01*
X86067012Y-68578000D01*
X86087198Y-68578000D01*
X86278560Y-68769362D01*
X86278560Y-68842000D01*
X86327843Y-69089765D01*
X86468191Y-69299809D01*
X86529320Y-69340654D01*
X86387673Y-69482302D01*
X86291000Y-69715691D01*
X86291000Y-69808250D01*
X86449750Y-69967000D01*
X87249000Y-69967000D01*
X87249000Y-69945000D01*
X87503000Y-69945000D01*
X87503000Y-69967000D01*
X88302250Y-69967000D01*
X88461000Y-69808250D01*
X88461000Y-69715691D01*
X88364327Y-69482302D01*
X88222680Y-69340654D01*
X88283809Y-69299809D01*
X88424157Y-69089765D01*
X88473440Y-68842000D01*
X88473440Y-68342000D01*
X88424157Y-68094235D01*
X88283809Y-67884191D01*
X88073765Y-67743843D01*
X87826000Y-67694560D01*
X87353362Y-67694560D01*
X86992331Y-67333529D01*
X86949929Y-67270071D01*
X86698537Y-67102096D01*
X86476852Y-67058000D01*
X86476847Y-67058000D01*
X86402000Y-67043112D01*
X86327153Y-67058000D01*
X86025000Y-67058000D01*
X86025000Y-66870017D01*
X85882655Y-66526365D01*
X85619635Y-66263345D01*
X85275983Y-66121000D01*
X85229801Y-66121000D01*
X85088000Y-65979199D01*
X85088000Y-65794178D01*
X85398625Y-65586625D01*
X85611843Y-65267522D01*
X85672817Y-65397358D01*
X86101076Y-65787645D01*
X86511110Y-65957476D01*
X86741000Y-65836155D01*
X86741000Y-64643000D01*
X86995000Y-64643000D01*
X86995000Y-65836155D01*
X87224890Y-65957476D01*
X87634924Y-65787645D01*
X88063183Y-65397358D01*
X88309486Y-64872892D01*
X88188819Y-64643000D01*
X86995000Y-64643000D01*
X86741000Y-64643000D01*
X86721000Y-64643000D01*
X86721000Y-64389000D01*
X86741000Y-64389000D01*
X86741000Y-63195845D01*
X86995000Y-63195845D01*
X86995000Y-64389000D01*
X88188819Y-64389000D01*
X88309486Y-64159108D01*
X88063183Y-63634642D01*
X87634924Y-63244355D01*
X87224890Y-63074524D01*
X86995000Y-63195845D01*
X86741000Y-63195845D01*
X86511110Y-63074524D01*
X86101076Y-63244355D01*
X85672817Y-63634642D01*
X85611843Y-63764478D01*
X85398625Y-63445375D01*
X84907418Y-63117161D01*
X84474256Y-63031000D01*
X84181744Y-63031000D01*
X83748582Y-63117161D01*
X83257375Y-63445375D01*
X83058000Y-63743761D01*
X82858625Y-63445375D01*
X82367418Y-63117161D01*
X81934256Y-63031000D01*
X81641744Y-63031000D01*
X81208582Y-63117161D01*
X80717375Y-63445375D01*
X80518000Y-63743761D01*
X80318625Y-63445375D01*
X79827418Y-63117161D01*
X79394256Y-63031000D01*
X79101744Y-63031000D01*
X78668582Y-63117161D01*
X78177375Y-63445375D01*
X77978000Y-63743761D01*
X77778625Y-63445375D01*
X77287418Y-63117161D01*
X76854256Y-63031000D01*
X76561744Y-63031000D01*
X76128582Y-63117161D01*
X75637375Y-63445375D01*
X75438000Y-63743761D01*
X75238625Y-63445375D01*
X74747418Y-63117161D01*
X74314256Y-63031000D01*
X74021744Y-63031000D01*
X73588582Y-63117161D01*
X73097375Y-63445375D01*
X73085184Y-63463619D01*
X73076157Y-63418235D01*
X72935809Y-63208191D01*
X72725765Y-63067843D01*
X72478000Y-63018560D01*
X70778000Y-63018560D01*
X70644788Y-63045057D01*
X70713352Y-63000616D01*
X71091357Y-62887568D01*
X71287411Y-62872999D01*
X87213197Y-62872999D01*
X87629116Y-62932563D01*
G36*
X76041001Y-72452805D02*
X76041000Y-74131129D01*
X76002843Y-74188235D01*
X75953560Y-74436000D01*
X75953560Y-75536000D01*
X76002843Y-75783765D01*
X76143191Y-75993809D01*
X76353235Y-76134157D01*
X76601000Y-76183440D01*
X77001000Y-76183440D01*
X77126000Y-76158576D01*
X77251000Y-76183440D01*
X77651000Y-76183440D01*
X77776000Y-76158576D01*
X77901000Y-76183440D01*
X78301000Y-76183440D01*
X78426000Y-76158576D01*
X78551000Y-76183440D01*
X78951000Y-76183440D01*
X79054852Y-76162783D01*
X79074690Y-76171000D01*
X79142250Y-76171000D01*
X79174208Y-76139042D01*
X79198765Y-76134157D01*
X79273998Y-76083888D01*
X79273998Y-76171000D01*
X79291001Y-76171000D01*
X79291000Y-77145098D01*
X78625198Y-77810900D01*
X78568588Y-77754290D01*
X78224936Y-77611945D01*
X77852970Y-77611945D01*
X77732259Y-77661945D01*
X77618114Y-77661945D01*
X77530953Y-77644608D01*
X77443792Y-77661945D01*
X77443788Y-77661945D01*
X77185643Y-77713293D01*
X76996313Y-77839800D01*
X73895802Y-77839800D01*
X74144476Y-77591127D01*
X74207929Y-77548729D01*
X74250327Y-77485276D01*
X74250329Y-77485274D01*
X74357554Y-77324800D01*
X74375904Y-77297337D01*
X74420000Y-77075652D01*
X74420000Y-77075648D01*
X74434888Y-77000801D01*
X74420000Y-76925954D01*
X74420000Y-76091655D01*
X74697635Y-75976655D01*
X74960655Y-75713635D01*
X75103000Y-75369983D01*
X75103000Y-74998017D01*
X74960655Y-74654365D01*
X74713471Y-74407181D01*
X74849000Y-74079983D01*
X74849000Y-74062250D01*
X74961750Y-74175000D01*
X75177310Y-74175000D01*
X75410699Y-74078327D01*
X75589327Y-73899698D01*
X75686000Y-73666309D01*
X75686000Y-73425750D01*
X75527250Y-73267000D01*
X74803000Y-73267000D01*
X74803000Y-73287000D01*
X74629290Y-73287000D01*
X74557883Y-73215593D01*
X74595000Y-73125983D01*
X74595000Y-72993000D01*
X74803000Y-72993000D01*
X74803000Y-73013000D01*
X75527250Y-73013000D01*
X75686000Y-72854250D01*
X75686000Y-72613691D01*
X75589327Y-72380302D01*
X75588127Y-72379102D01*
X75649157Y-72287765D01*
X75666505Y-72200549D01*
X75715468Y-72127271D01*
X76041001Y-72452805D01*
X76041001Y-72452805D01*
G37*
X76041001Y-72452805D02*
X76041000Y-74131129D01*
X76002843Y-74188235D01*
X75953560Y-74436000D01*
X75953560Y-75536000D01*
X76002843Y-75783765D01*
X76143191Y-75993809D01*
X76353235Y-76134157D01*
X76601000Y-76183440D01*
X77001000Y-76183440D01*
X77126000Y-76158576D01*
X77251000Y-76183440D01*
X77651000Y-76183440D01*
X77776000Y-76158576D01*
X77901000Y-76183440D01*
X78301000Y-76183440D01*
X78426000Y-76158576D01*
X78551000Y-76183440D01*
X78951000Y-76183440D01*
X79054852Y-76162783D01*
X79074690Y-76171000D01*
X79142250Y-76171000D01*
X79174208Y-76139042D01*
X79198765Y-76134157D01*
X79273998Y-76083888D01*
X79273998Y-76171000D01*
X79291001Y-76171000D01*
X79291000Y-77145098D01*
X78625198Y-77810900D01*
X78568588Y-77754290D01*
X78224936Y-77611945D01*
X77852970Y-77611945D01*
X77732259Y-77661945D01*
X77618114Y-77661945D01*
X77530953Y-77644608D01*
X77443792Y-77661945D01*
X77443788Y-77661945D01*
X77185643Y-77713293D01*
X76996313Y-77839800D01*
X73895802Y-77839800D01*
X74144476Y-77591127D01*
X74207929Y-77548729D01*
X74250327Y-77485276D01*
X74250329Y-77485274D01*
X74357554Y-77324800D01*
X74375904Y-77297337D01*
X74420000Y-77075652D01*
X74420000Y-77075648D01*
X74434888Y-77000801D01*
X74420000Y-76925954D01*
X74420000Y-76091655D01*
X74697635Y-75976655D01*
X74960655Y-75713635D01*
X75103000Y-75369983D01*
X75103000Y-74998017D01*
X74960655Y-74654365D01*
X74713471Y-74407181D01*
X74849000Y-74079983D01*
X74849000Y-74062250D01*
X74961750Y-74175000D01*
X75177310Y-74175000D01*
X75410699Y-74078327D01*
X75589327Y-73899698D01*
X75686000Y-73666309D01*
X75686000Y-73425750D01*
X75527250Y-73267000D01*
X74803000Y-73267000D01*
X74803000Y-73287000D01*
X74629290Y-73287000D01*
X74557883Y-73215593D01*
X74595000Y-73125983D01*
X74595000Y-72993000D01*
X74803000Y-72993000D01*
X74803000Y-73013000D01*
X75527250Y-73013000D01*
X75686000Y-72854250D01*
X75686000Y-72613691D01*
X75589327Y-72380302D01*
X75588127Y-72379102D01*
X75649157Y-72287765D01*
X75666505Y-72200549D01*
X75715468Y-72127271D01*
X76041001Y-72452805D01*
G36*
X75915345Y-67288407D02*
X75773000Y-67632059D01*
X75773000Y-68004025D01*
X75915345Y-68347677D01*
X76024096Y-68456428D01*
X76023714Y-68457000D01*
X75259161Y-68457000D01*
X75172000Y-68439663D01*
X75084839Y-68457000D01*
X75084835Y-68457000D01*
X75044616Y-68465000D01*
X74803000Y-68465000D01*
X74803000Y-68485000D01*
X74549000Y-68485000D01*
X74549000Y-68465000D01*
X74529000Y-68465000D01*
X74529000Y-68211000D01*
X74549000Y-68211000D01*
X74549000Y-67461750D01*
X74803000Y-67461750D01*
X74803000Y-68211000D01*
X75527250Y-68211000D01*
X75686000Y-68052250D01*
X75686000Y-67811691D01*
X75589327Y-67578302D01*
X75410699Y-67399673D01*
X75177310Y-67303000D01*
X74961750Y-67303000D01*
X74803000Y-67461750D01*
X74549000Y-67461750D01*
X74390250Y-67303000D01*
X74283802Y-67303000D01*
X74532803Y-67054000D01*
X76149752Y-67054000D01*
X75915345Y-67288407D01*
X75915345Y-67288407D01*
G37*
X75915345Y-67288407D02*
X75773000Y-67632059D01*
X75773000Y-68004025D01*
X75915345Y-68347677D01*
X76024096Y-68456428D01*
X76023714Y-68457000D01*
X75259161Y-68457000D01*
X75172000Y-68439663D01*
X75084839Y-68457000D01*
X75084835Y-68457000D01*
X75044616Y-68465000D01*
X74803000Y-68465000D01*
X74803000Y-68485000D01*
X74549000Y-68485000D01*
X74549000Y-68465000D01*
X74529000Y-68465000D01*
X74529000Y-68211000D01*
X74549000Y-68211000D01*
X74549000Y-67461750D01*
X74803000Y-67461750D01*
X74803000Y-68211000D01*
X75527250Y-68211000D01*
X75686000Y-68052250D01*
X75686000Y-67811691D01*
X75589327Y-67578302D01*
X75410699Y-67399673D01*
X75177310Y-67303000D01*
X74961750Y-67303000D01*
X74803000Y-67461750D01*
X74549000Y-67461750D01*
X74390250Y-67303000D01*
X74283802Y-67303000D01*
X74532803Y-67054000D01*
X76149752Y-67054000D01*
X75915345Y-67288407D01*
G36*
X78177375Y-65586625D02*
X78488287Y-65794370D01*
X78491302Y-65809528D01*
X78532097Y-66014618D01*
X78622631Y-66150111D01*
X78700072Y-66266010D01*
X78763527Y-66308410D01*
X79291000Y-66835884D01*
X79291001Y-68101000D01*
X79273998Y-68101000D01*
X79273998Y-68182471D01*
X79188170Y-68146920D01*
X79142250Y-68101000D01*
X79009750Y-68101000D01*
X78963830Y-68146920D01*
X78878002Y-68182471D01*
X78878002Y-68101000D01*
X78861000Y-68101000D01*
X78861000Y-66999846D01*
X78875888Y-66924999D01*
X78861000Y-66850152D01*
X78861000Y-66850148D01*
X78816904Y-66628463D01*
X78648929Y-66377071D01*
X78585473Y-66334671D01*
X77806331Y-65555530D01*
X77802867Y-65550345D01*
X77978000Y-65288239D01*
X78177375Y-65586625D01*
X78177375Y-65586625D01*
G37*
X78177375Y-65586625D02*
X78488287Y-65794370D01*
X78491302Y-65809528D01*
X78532097Y-66014618D01*
X78622631Y-66150111D01*
X78700072Y-66266010D01*
X78763527Y-66308410D01*
X79291000Y-66835884D01*
X79291001Y-68101000D01*
X79273998Y-68101000D01*
X79273998Y-68182471D01*
X79188170Y-68146920D01*
X79142250Y-68101000D01*
X79009750Y-68101000D01*
X78963830Y-68146920D01*
X78878002Y-68182471D01*
X78878002Y-68101000D01*
X78861000Y-68101000D01*
X78861000Y-66999846D01*
X78875888Y-66924999D01*
X78861000Y-66850152D01*
X78861000Y-66850148D01*
X78816904Y-66628463D01*
X78648929Y-66377071D01*
X78585473Y-66334671D01*
X77806331Y-65555530D01*
X77802867Y-65550345D01*
X77978000Y-65288239D01*
X78177375Y-65586625D01*
G04 #@! TD*
M02*
