G04 #@! TF.GenerationSoftware,KiCad,Pcbnew,(5.0.2)-1*
G04 #@! TF.CreationDate,2018-12-23T15:21:20+09:00*
G04 #@! TF.ProjectId,Nixie_Module_IN-14,4e697869-655f-44d6-9f64-756c655f494e,rev?*
G04 #@! TF.SameCoordinates,Original*
G04 #@! TF.FileFunction,Soldermask,Bot*
G04 #@! TF.FilePolarity,Negative*
%FSLAX46Y46*%
G04 Gerber Fmt 4.6, Leading zero omitted, Abs format (unit mm)*
G04 Created by KiCad (PCBNEW (5.0.2)-1) date 2018/12/23 15:21:20*
%MOMM*%
%LPD*%
G01*
G04 APERTURE LIST*
%ADD10C,0.100000*%
G04 APERTURE END LIST*
D10*
G36*
X74296707Y-99033597D02*
X74373836Y-99041193D01*
X74505787Y-99081220D01*
X74571763Y-99101233D01*
X74754172Y-99198733D01*
X74914054Y-99329946D01*
X75045267Y-99489828D01*
X75142767Y-99672237D01*
X75142767Y-99672238D01*
X75202807Y-99870164D01*
X75223080Y-100076000D01*
X75202807Y-100281836D01*
X75162780Y-100413787D01*
X75142767Y-100479763D01*
X75045267Y-100662172D01*
X74914054Y-100822054D01*
X74754172Y-100953267D01*
X74571763Y-101050767D01*
X74505787Y-101070780D01*
X74373836Y-101110807D01*
X74296707Y-101118404D01*
X74219580Y-101126000D01*
X74116420Y-101126000D01*
X74039293Y-101118404D01*
X73962164Y-101110807D01*
X73830213Y-101070780D01*
X73764237Y-101050767D01*
X73581828Y-100953267D01*
X73421946Y-100822054D01*
X73290733Y-100662172D01*
X73193233Y-100479763D01*
X73173220Y-100413787D01*
X73133193Y-100281836D01*
X73112920Y-100076000D01*
X73133193Y-99870164D01*
X73193233Y-99672238D01*
X73193233Y-99672237D01*
X73290733Y-99489828D01*
X73421946Y-99329946D01*
X73581828Y-99198733D01*
X73764237Y-99101233D01*
X73830213Y-99081220D01*
X73962164Y-99041193D01*
X74039293Y-99033597D01*
X74116420Y-99026000D01*
X74219580Y-99026000D01*
X74296707Y-99033597D01*
X74296707Y-99033597D01*
G37*
G36*
X72678000Y-101126000D02*
X70578000Y-101126000D01*
X70578000Y-99026000D01*
X72678000Y-99026000D01*
X72678000Y-101126000D01*
X72678000Y-101126000D01*
G37*
G36*
X86996707Y-99033597D02*
X87073836Y-99041193D01*
X87205787Y-99081220D01*
X87271763Y-99101233D01*
X87454172Y-99198733D01*
X87614054Y-99329946D01*
X87745267Y-99489828D01*
X87842767Y-99672237D01*
X87842767Y-99672238D01*
X87902807Y-99870164D01*
X87923080Y-100076000D01*
X87902807Y-100281836D01*
X87862780Y-100413787D01*
X87842767Y-100479763D01*
X87745267Y-100662172D01*
X87614054Y-100822054D01*
X87454172Y-100953267D01*
X87271763Y-101050767D01*
X87205787Y-101070780D01*
X87073836Y-101110807D01*
X86996707Y-101118404D01*
X86919580Y-101126000D01*
X86816420Y-101126000D01*
X86739293Y-101118404D01*
X86662164Y-101110807D01*
X86530213Y-101070780D01*
X86464237Y-101050767D01*
X86281828Y-100953267D01*
X86121946Y-100822054D01*
X85990733Y-100662172D01*
X85893233Y-100479763D01*
X85873220Y-100413787D01*
X85833193Y-100281836D01*
X85812920Y-100076000D01*
X85833193Y-99870164D01*
X85893233Y-99672238D01*
X85893233Y-99672237D01*
X85990733Y-99489828D01*
X86121946Y-99329946D01*
X86281828Y-99198733D01*
X86464237Y-99101233D01*
X86530213Y-99081220D01*
X86662164Y-99041193D01*
X86739293Y-99033597D01*
X86816420Y-99026000D01*
X86919580Y-99026000D01*
X86996707Y-99033597D01*
X86996707Y-99033597D01*
G37*
G36*
X85378000Y-101126000D02*
X83278000Y-101126000D01*
X83278000Y-99026000D01*
X85378000Y-99026000D01*
X85378000Y-101126000D01*
X85378000Y-101126000D01*
G37*
G36*
X72025203Y-76014893D02*
X72025206Y-76014894D01*
X72025207Y-76014894D01*
X72062907Y-76026330D01*
X72062908Y-76026330D01*
X72062913Y-76026332D01*
X72077078Y-76033903D01*
X72099717Y-76043280D01*
X72123750Y-76048060D01*
X72148255Y-76048060D01*
X72172288Y-76043279D01*
X72194922Y-76033903D01*
X72209087Y-76026332D01*
X72209092Y-76026330D01*
X72209093Y-76026330D01*
X72246793Y-76014894D01*
X72246794Y-76014894D01*
X72246797Y-76014893D01*
X72292140Y-76010427D01*
X72779860Y-76010427D01*
X72798197Y-76012233D01*
X72810449Y-76012835D01*
X72828869Y-76012835D01*
X72880358Y-76017906D01*
X72964443Y-76034632D01*
X72992949Y-76043279D01*
X73008048Y-76047859D01*
X73008050Y-76047860D01*
X73013955Y-76049651D01*
X73093164Y-76082460D01*
X73138787Y-76106846D01*
X73210082Y-76154484D01*
X73250076Y-76187306D01*
X73310694Y-76247924D01*
X73343516Y-76287918D01*
X73391154Y-76359213D01*
X73415540Y-76404836D01*
X73448349Y-76484045D01*
X73463368Y-76533557D01*
X73480094Y-76617642D01*
X73485165Y-76669131D01*
X73485165Y-76687551D01*
X73485767Y-76699803D01*
X73487573Y-76718140D01*
X73487573Y-77205860D01*
X73485767Y-77224197D01*
X73485165Y-77236449D01*
X73485165Y-77254869D01*
X73480094Y-77306358D01*
X73463368Y-77390443D01*
X73448349Y-77439955D01*
X73415540Y-77519164D01*
X73391154Y-77564787D01*
X73343516Y-77636082D01*
X73310694Y-77676076D01*
X73250076Y-77736694D01*
X73210082Y-77769516D01*
X73138787Y-77817154D01*
X73093164Y-77841540D01*
X73013955Y-77874349D01*
X73008050Y-77876140D01*
X73008048Y-77876141D01*
X72998296Y-77879099D01*
X72964443Y-77889368D01*
X72880358Y-77906094D01*
X72828869Y-77911165D01*
X72810449Y-77911165D01*
X72798197Y-77911767D01*
X72779860Y-77913573D01*
X72292140Y-77913573D01*
X72246797Y-77909107D01*
X72246794Y-77909106D01*
X72246793Y-77909106D01*
X72209093Y-77897670D01*
X72209092Y-77897670D01*
X72209087Y-77897668D01*
X72194922Y-77890097D01*
X72172283Y-77880720D01*
X72148250Y-77875940D01*
X72123745Y-77875940D01*
X72099712Y-77880721D01*
X72077078Y-77890097D01*
X72062913Y-77897668D01*
X72062908Y-77897670D01*
X72062907Y-77897670D01*
X72025207Y-77909106D01*
X72025206Y-77909106D01*
X72025203Y-77909107D01*
X71979860Y-77913573D01*
X71492140Y-77913573D01*
X71473803Y-77911767D01*
X71461551Y-77911165D01*
X71443131Y-77911165D01*
X71391642Y-77906094D01*
X71307557Y-77889368D01*
X71273704Y-77879099D01*
X71263952Y-77876141D01*
X71263950Y-77876140D01*
X71258045Y-77874349D01*
X71178836Y-77841540D01*
X71133213Y-77817154D01*
X71061918Y-77769516D01*
X71021924Y-77736694D01*
X70961306Y-77676076D01*
X70928484Y-77636082D01*
X70880846Y-77564787D01*
X70856460Y-77519164D01*
X70823651Y-77439955D01*
X70808632Y-77390443D01*
X70791906Y-77306358D01*
X70786835Y-77254869D01*
X70786835Y-77236449D01*
X70786233Y-77224197D01*
X70784427Y-77205860D01*
X70784427Y-76718140D01*
X70786233Y-76699803D01*
X70786835Y-76687551D01*
X70786835Y-76669131D01*
X70791906Y-76617642D01*
X70808632Y-76533557D01*
X70823651Y-76484045D01*
X70856460Y-76404836D01*
X70880846Y-76359213D01*
X70928484Y-76287918D01*
X70961306Y-76247924D01*
X71021924Y-76187306D01*
X71061918Y-76154484D01*
X71133213Y-76106846D01*
X71178836Y-76082460D01*
X71258045Y-76049651D01*
X71263950Y-76047860D01*
X71263952Y-76047859D01*
X71279051Y-76043279D01*
X71307557Y-76034632D01*
X71391642Y-76017906D01*
X71443131Y-76012835D01*
X71461551Y-76012835D01*
X71473803Y-76012233D01*
X71492140Y-76010427D01*
X71979860Y-76010427D01*
X72025203Y-76014893D01*
X72025203Y-76014893D01*
G37*
G36*
X72025203Y-73474893D02*
X72025206Y-73474894D01*
X72025207Y-73474894D01*
X72062907Y-73486330D01*
X72062908Y-73486330D01*
X72062913Y-73486332D01*
X72077078Y-73493903D01*
X72099717Y-73503280D01*
X72123750Y-73508060D01*
X72148255Y-73508060D01*
X72172288Y-73503279D01*
X72194922Y-73493903D01*
X72209087Y-73486332D01*
X72209092Y-73486330D01*
X72209093Y-73486330D01*
X72246793Y-73474894D01*
X72246794Y-73474894D01*
X72246797Y-73474893D01*
X72292140Y-73470427D01*
X72779860Y-73470427D01*
X72798197Y-73472233D01*
X72810449Y-73472835D01*
X72828869Y-73472835D01*
X72880358Y-73477906D01*
X72964443Y-73494632D01*
X72992949Y-73503279D01*
X73008048Y-73507859D01*
X73008050Y-73507860D01*
X73013955Y-73509651D01*
X73093164Y-73542460D01*
X73138787Y-73566846D01*
X73210082Y-73614484D01*
X73250076Y-73647306D01*
X73310694Y-73707924D01*
X73343516Y-73747918D01*
X73391154Y-73819213D01*
X73415540Y-73864836D01*
X73448349Y-73944045D01*
X73463368Y-73993557D01*
X73480094Y-74077642D01*
X73485165Y-74129131D01*
X73485165Y-74147551D01*
X73485767Y-74159803D01*
X73487573Y-74178140D01*
X73487573Y-74665860D01*
X73485767Y-74684197D01*
X73485165Y-74696449D01*
X73485165Y-74714869D01*
X73480094Y-74766358D01*
X73463368Y-74850443D01*
X73448349Y-74899955D01*
X73415540Y-74979164D01*
X73391154Y-75024787D01*
X73343516Y-75096082D01*
X73310694Y-75136076D01*
X73250076Y-75196694D01*
X73210082Y-75229516D01*
X73138787Y-75277154D01*
X73093164Y-75301540D01*
X73013955Y-75334349D01*
X73008050Y-75336140D01*
X73008048Y-75336141D01*
X72998296Y-75339099D01*
X72964443Y-75349368D01*
X72880358Y-75366094D01*
X72828869Y-75371165D01*
X72810449Y-75371165D01*
X72798197Y-75371767D01*
X72779860Y-75373573D01*
X72292140Y-75373573D01*
X72246797Y-75369107D01*
X72246794Y-75369106D01*
X72246793Y-75369106D01*
X72209093Y-75357670D01*
X72209092Y-75357670D01*
X72209087Y-75357668D01*
X72194922Y-75350097D01*
X72172283Y-75340720D01*
X72148250Y-75335940D01*
X72123745Y-75335940D01*
X72099712Y-75340721D01*
X72077078Y-75350097D01*
X72062913Y-75357668D01*
X72062908Y-75357670D01*
X72062907Y-75357670D01*
X72025207Y-75369106D01*
X72025206Y-75369106D01*
X72025203Y-75369107D01*
X71979860Y-75373573D01*
X71492140Y-75373573D01*
X71473803Y-75371767D01*
X71461551Y-75371165D01*
X71443131Y-75371165D01*
X71391642Y-75366094D01*
X71307557Y-75349368D01*
X71273704Y-75339099D01*
X71263952Y-75336141D01*
X71263950Y-75336140D01*
X71258045Y-75334349D01*
X71178836Y-75301540D01*
X71133213Y-75277154D01*
X71061918Y-75229516D01*
X71021924Y-75196694D01*
X70961306Y-75136076D01*
X70928484Y-75096082D01*
X70880846Y-75024787D01*
X70856460Y-74979164D01*
X70823651Y-74899955D01*
X70808632Y-74850443D01*
X70791906Y-74766358D01*
X70786835Y-74714869D01*
X70786835Y-74696449D01*
X70786233Y-74684197D01*
X70784427Y-74665860D01*
X70784427Y-74178140D01*
X70786233Y-74159803D01*
X70786835Y-74147551D01*
X70786835Y-74129131D01*
X70791906Y-74077642D01*
X70808632Y-73993557D01*
X70823651Y-73944045D01*
X70856460Y-73864836D01*
X70880846Y-73819213D01*
X70928484Y-73747918D01*
X70961306Y-73707924D01*
X71021924Y-73647306D01*
X71061918Y-73614484D01*
X71133213Y-73566846D01*
X71178836Y-73542460D01*
X71258045Y-73509651D01*
X71263950Y-73507860D01*
X71263952Y-73507859D01*
X71279051Y-73503279D01*
X71307557Y-73494632D01*
X71391642Y-73477906D01*
X71443131Y-73472835D01*
X71461551Y-73472835D01*
X71473803Y-73472233D01*
X71492140Y-73470427D01*
X71979860Y-73470427D01*
X72025203Y-73474893D01*
X72025203Y-73474893D01*
G37*
G36*
X72025203Y-70934893D02*
X72025206Y-70934894D01*
X72025207Y-70934894D01*
X72062907Y-70946330D01*
X72062908Y-70946330D01*
X72062913Y-70946332D01*
X72077078Y-70953903D01*
X72099717Y-70963280D01*
X72123750Y-70968060D01*
X72148255Y-70968060D01*
X72172288Y-70963279D01*
X72194922Y-70953903D01*
X72209087Y-70946332D01*
X72209092Y-70946330D01*
X72209093Y-70946330D01*
X72246793Y-70934894D01*
X72246794Y-70934894D01*
X72246797Y-70934893D01*
X72292140Y-70930427D01*
X72779860Y-70930427D01*
X72798197Y-70932233D01*
X72810449Y-70932835D01*
X72828869Y-70932835D01*
X72880358Y-70937906D01*
X72964443Y-70954632D01*
X72992949Y-70963279D01*
X73008048Y-70967859D01*
X73008050Y-70967860D01*
X73013955Y-70969651D01*
X73093164Y-71002460D01*
X73138787Y-71026846D01*
X73210082Y-71074484D01*
X73250076Y-71107306D01*
X73310694Y-71167924D01*
X73343516Y-71207918D01*
X73391154Y-71279213D01*
X73415540Y-71324836D01*
X73448349Y-71404045D01*
X73463368Y-71453557D01*
X73480094Y-71537642D01*
X73485165Y-71589131D01*
X73485165Y-71607551D01*
X73485767Y-71619803D01*
X73487573Y-71638140D01*
X73487573Y-72125860D01*
X73485767Y-72144197D01*
X73485165Y-72156449D01*
X73485165Y-72174869D01*
X73480094Y-72226358D01*
X73463368Y-72310443D01*
X73448349Y-72359955D01*
X73415540Y-72439164D01*
X73391154Y-72484787D01*
X73343516Y-72556082D01*
X73310694Y-72596076D01*
X73250076Y-72656694D01*
X73210082Y-72689516D01*
X73138787Y-72737154D01*
X73093164Y-72761540D01*
X73013955Y-72794349D01*
X73008050Y-72796140D01*
X73008048Y-72796141D01*
X72998296Y-72799099D01*
X72964443Y-72809368D01*
X72880358Y-72826094D01*
X72828869Y-72831165D01*
X72810449Y-72831165D01*
X72798197Y-72831767D01*
X72779860Y-72833573D01*
X72292140Y-72833573D01*
X72246797Y-72829107D01*
X72246794Y-72829106D01*
X72246793Y-72829106D01*
X72209093Y-72817670D01*
X72209092Y-72817670D01*
X72209087Y-72817668D01*
X72194922Y-72810097D01*
X72172283Y-72800720D01*
X72148250Y-72795940D01*
X72123745Y-72795940D01*
X72099712Y-72800721D01*
X72077078Y-72810097D01*
X72062913Y-72817668D01*
X72062908Y-72817670D01*
X72062907Y-72817670D01*
X72025207Y-72829106D01*
X72025206Y-72829106D01*
X72025203Y-72829107D01*
X71979860Y-72833573D01*
X71492140Y-72833573D01*
X71473803Y-72831767D01*
X71461551Y-72831165D01*
X71443131Y-72831165D01*
X71391642Y-72826094D01*
X71307557Y-72809368D01*
X71273704Y-72799099D01*
X71263952Y-72796141D01*
X71263950Y-72796140D01*
X71258045Y-72794349D01*
X71178836Y-72761540D01*
X71133213Y-72737154D01*
X71061918Y-72689516D01*
X71021924Y-72656694D01*
X70961306Y-72596076D01*
X70928484Y-72556082D01*
X70880846Y-72484787D01*
X70856460Y-72439164D01*
X70823651Y-72359955D01*
X70808632Y-72310443D01*
X70791906Y-72226358D01*
X70786835Y-72174869D01*
X70786835Y-72156449D01*
X70786233Y-72144197D01*
X70784427Y-72125860D01*
X70784427Y-71638140D01*
X70786233Y-71619803D01*
X70786835Y-71607551D01*
X70786835Y-71589131D01*
X70791906Y-71537642D01*
X70808632Y-71453557D01*
X70823651Y-71404045D01*
X70856460Y-71324836D01*
X70880846Y-71279213D01*
X70928484Y-71207918D01*
X70961306Y-71167924D01*
X71021924Y-71107306D01*
X71061918Y-71074484D01*
X71133213Y-71026846D01*
X71178836Y-71002460D01*
X71258045Y-70969651D01*
X71263950Y-70967860D01*
X71263952Y-70967859D01*
X71279051Y-70963279D01*
X71307557Y-70954632D01*
X71391642Y-70937906D01*
X71443131Y-70932835D01*
X71461551Y-70932835D01*
X71473803Y-70932233D01*
X71492140Y-70930427D01*
X71979860Y-70930427D01*
X72025203Y-70934893D01*
X72025203Y-70934893D01*
G37*
G36*
X72025203Y-68394893D02*
X72025206Y-68394894D01*
X72025207Y-68394894D01*
X72062907Y-68406330D01*
X72062908Y-68406330D01*
X72062913Y-68406332D01*
X72077078Y-68413903D01*
X72099717Y-68423280D01*
X72123750Y-68428060D01*
X72148255Y-68428060D01*
X72172288Y-68423279D01*
X72194922Y-68413903D01*
X72209087Y-68406332D01*
X72209092Y-68406330D01*
X72209093Y-68406330D01*
X72246793Y-68394894D01*
X72246794Y-68394894D01*
X72246797Y-68394893D01*
X72292140Y-68390427D01*
X72779860Y-68390427D01*
X72798197Y-68392233D01*
X72810449Y-68392835D01*
X72828869Y-68392835D01*
X72880358Y-68397906D01*
X72964443Y-68414632D01*
X72992949Y-68423279D01*
X73008048Y-68427859D01*
X73008050Y-68427860D01*
X73013955Y-68429651D01*
X73093164Y-68462460D01*
X73138787Y-68486846D01*
X73210082Y-68534484D01*
X73250076Y-68567306D01*
X73310694Y-68627924D01*
X73343516Y-68667918D01*
X73391154Y-68739213D01*
X73415540Y-68784836D01*
X73448349Y-68864045D01*
X73463368Y-68913557D01*
X73480094Y-68997642D01*
X73485165Y-69049131D01*
X73485165Y-69067551D01*
X73485767Y-69079803D01*
X73487573Y-69098140D01*
X73487573Y-69585860D01*
X73485767Y-69604197D01*
X73485165Y-69616449D01*
X73485165Y-69634869D01*
X73480094Y-69686358D01*
X73463368Y-69770443D01*
X73448349Y-69819955D01*
X73415540Y-69899164D01*
X73391154Y-69944787D01*
X73343516Y-70016082D01*
X73310694Y-70056076D01*
X73250076Y-70116694D01*
X73210082Y-70149516D01*
X73138787Y-70197154D01*
X73093164Y-70221540D01*
X73013955Y-70254349D01*
X73008050Y-70256140D01*
X73008048Y-70256141D01*
X72998296Y-70259099D01*
X72964443Y-70269368D01*
X72880358Y-70286094D01*
X72828869Y-70291165D01*
X72810449Y-70291165D01*
X72798197Y-70291767D01*
X72779860Y-70293573D01*
X72292140Y-70293573D01*
X72246797Y-70289107D01*
X72246794Y-70289106D01*
X72246793Y-70289106D01*
X72209093Y-70277670D01*
X72209092Y-70277670D01*
X72209087Y-70277668D01*
X72194922Y-70270097D01*
X72172283Y-70260720D01*
X72148250Y-70255940D01*
X72123745Y-70255940D01*
X72099712Y-70260721D01*
X72077078Y-70270097D01*
X72062913Y-70277668D01*
X72062908Y-70277670D01*
X72062907Y-70277670D01*
X72025207Y-70289106D01*
X72025206Y-70289106D01*
X72025203Y-70289107D01*
X71979860Y-70293573D01*
X71492140Y-70293573D01*
X71473803Y-70291767D01*
X71461551Y-70291165D01*
X71443131Y-70291165D01*
X71391642Y-70286094D01*
X71307557Y-70269368D01*
X71273704Y-70259099D01*
X71263952Y-70256141D01*
X71263950Y-70256140D01*
X71258045Y-70254349D01*
X71178836Y-70221540D01*
X71133213Y-70197154D01*
X71061918Y-70149516D01*
X71021924Y-70116694D01*
X70961306Y-70056076D01*
X70928484Y-70016082D01*
X70880846Y-69944787D01*
X70856460Y-69899164D01*
X70823651Y-69819955D01*
X70808632Y-69770443D01*
X70791906Y-69686358D01*
X70786835Y-69634869D01*
X70786835Y-69616449D01*
X70786233Y-69604197D01*
X70784427Y-69585860D01*
X70784427Y-69098140D01*
X70786233Y-69079803D01*
X70786835Y-69067551D01*
X70786835Y-69049131D01*
X70791906Y-68997642D01*
X70808632Y-68913557D01*
X70823651Y-68864045D01*
X70856460Y-68784836D01*
X70880846Y-68739213D01*
X70928484Y-68667918D01*
X70961306Y-68627924D01*
X71021924Y-68567306D01*
X71061918Y-68534484D01*
X71133213Y-68486846D01*
X71178836Y-68462460D01*
X71258045Y-68429651D01*
X71263950Y-68427860D01*
X71263952Y-68427859D01*
X71279051Y-68423279D01*
X71307557Y-68414632D01*
X71391642Y-68397906D01*
X71443131Y-68392835D01*
X71461551Y-68392835D01*
X71473803Y-68392233D01*
X71492140Y-68390427D01*
X71979860Y-68390427D01*
X72025203Y-68394893D01*
X72025203Y-68394893D01*
G37*
G36*
X74296707Y-63473596D02*
X74373836Y-63481193D01*
X74505787Y-63521220D01*
X74571763Y-63541233D01*
X74754172Y-63638733D01*
X74914054Y-63769946D01*
X75045267Y-63929828D01*
X75142767Y-64112237D01*
X75142767Y-64112238D01*
X75202807Y-64310164D01*
X75223080Y-64516000D01*
X75202807Y-64721836D01*
X75162780Y-64853787D01*
X75142767Y-64919763D01*
X75045267Y-65102172D01*
X74914054Y-65262054D01*
X74754172Y-65393267D01*
X74571763Y-65490767D01*
X74505787Y-65510780D01*
X74373836Y-65550807D01*
X74296707Y-65558403D01*
X74219580Y-65566000D01*
X74116420Y-65566000D01*
X74039293Y-65558403D01*
X73962164Y-65550807D01*
X73830213Y-65510780D01*
X73764237Y-65490767D01*
X73581828Y-65393267D01*
X73421946Y-65262054D01*
X73290733Y-65102172D01*
X73193233Y-64919763D01*
X73173220Y-64853787D01*
X73133193Y-64721836D01*
X73112920Y-64516000D01*
X73133193Y-64310164D01*
X73193233Y-64112238D01*
X73193233Y-64112237D01*
X73290733Y-63929828D01*
X73421946Y-63769946D01*
X73581828Y-63638733D01*
X73764237Y-63541233D01*
X73830213Y-63521220D01*
X73962164Y-63481193D01*
X74039293Y-63473596D01*
X74116420Y-63466000D01*
X74219580Y-63466000D01*
X74296707Y-63473596D01*
X74296707Y-63473596D01*
G37*
G36*
X76836707Y-63473596D02*
X76913836Y-63481193D01*
X77045787Y-63521220D01*
X77111763Y-63541233D01*
X77294172Y-63638733D01*
X77454054Y-63769946D01*
X77585267Y-63929828D01*
X77682767Y-64112237D01*
X77682767Y-64112238D01*
X77742807Y-64310164D01*
X77763080Y-64516000D01*
X77742807Y-64721836D01*
X77702780Y-64853787D01*
X77682767Y-64919763D01*
X77585267Y-65102172D01*
X77454054Y-65262054D01*
X77294172Y-65393267D01*
X77111763Y-65490767D01*
X77045787Y-65510780D01*
X76913836Y-65550807D01*
X76836707Y-65558403D01*
X76759580Y-65566000D01*
X76656420Y-65566000D01*
X76579293Y-65558403D01*
X76502164Y-65550807D01*
X76370213Y-65510780D01*
X76304237Y-65490767D01*
X76121828Y-65393267D01*
X75961946Y-65262054D01*
X75830733Y-65102172D01*
X75733233Y-64919763D01*
X75713220Y-64853787D01*
X75673193Y-64721836D01*
X75652920Y-64516000D01*
X75673193Y-64310164D01*
X75733233Y-64112238D01*
X75733233Y-64112237D01*
X75830733Y-63929828D01*
X75961946Y-63769946D01*
X76121828Y-63638733D01*
X76304237Y-63541233D01*
X76370213Y-63521220D01*
X76502164Y-63481193D01*
X76579293Y-63473596D01*
X76656420Y-63466000D01*
X76759580Y-63466000D01*
X76836707Y-63473596D01*
X76836707Y-63473596D01*
G37*
G36*
X79376707Y-63473596D02*
X79453836Y-63481193D01*
X79585787Y-63521220D01*
X79651763Y-63541233D01*
X79834172Y-63638733D01*
X79994054Y-63769946D01*
X80125267Y-63929828D01*
X80222767Y-64112237D01*
X80222767Y-64112238D01*
X80282807Y-64310164D01*
X80303080Y-64516000D01*
X80282807Y-64721836D01*
X80242780Y-64853787D01*
X80222767Y-64919763D01*
X80125267Y-65102172D01*
X79994054Y-65262054D01*
X79834172Y-65393267D01*
X79651763Y-65490767D01*
X79585787Y-65510780D01*
X79453836Y-65550807D01*
X79376707Y-65558403D01*
X79299580Y-65566000D01*
X79196420Y-65566000D01*
X79119293Y-65558403D01*
X79042164Y-65550807D01*
X78910213Y-65510780D01*
X78844237Y-65490767D01*
X78661828Y-65393267D01*
X78501946Y-65262054D01*
X78370733Y-65102172D01*
X78273233Y-64919763D01*
X78253220Y-64853787D01*
X78213193Y-64721836D01*
X78192920Y-64516000D01*
X78213193Y-64310164D01*
X78273233Y-64112238D01*
X78273233Y-64112237D01*
X78370733Y-63929828D01*
X78501946Y-63769946D01*
X78661828Y-63638733D01*
X78844237Y-63541233D01*
X78910213Y-63521220D01*
X79042164Y-63481193D01*
X79119293Y-63473596D01*
X79196420Y-63466000D01*
X79299580Y-63466000D01*
X79376707Y-63473596D01*
X79376707Y-63473596D01*
G37*
G36*
X81916707Y-63473596D02*
X81993836Y-63481193D01*
X82125787Y-63521220D01*
X82191763Y-63541233D01*
X82374172Y-63638733D01*
X82534054Y-63769946D01*
X82665267Y-63929828D01*
X82762767Y-64112237D01*
X82762767Y-64112238D01*
X82822807Y-64310164D01*
X82843080Y-64516000D01*
X82822807Y-64721836D01*
X82782780Y-64853787D01*
X82762767Y-64919763D01*
X82665267Y-65102172D01*
X82534054Y-65262054D01*
X82374172Y-65393267D01*
X82191763Y-65490767D01*
X82125787Y-65510780D01*
X81993836Y-65550807D01*
X81916707Y-65558403D01*
X81839580Y-65566000D01*
X81736420Y-65566000D01*
X81659293Y-65558403D01*
X81582164Y-65550807D01*
X81450213Y-65510780D01*
X81384237Y-65490767D01*
X81201828Y-65393267D01*
X81041946Y-65262054D01*
X80910733Y-65102172D01*
X80813233Y-64919763D01*
X80793220Y-64853787D01*
X80753193Y-64721836D01*
X80732920Y-64516000D01*
X80753193Y-64310164D01*
X80813233Y-64112238D01*
X80813233Y-64112237D01*
X80910733Y-63929828D01*
X81041946Y-63769946D01*
X81201828Y-63638733D01*
X81384237Y-63541233D01*
X81450213Y-63521220D01*
X81582164Y-63481193D01*
X81659293Y-63473596D01*
X81736420Y-63466000D01*
X81839580Y-63466000D01*
X81916707Y-63473596D01*
X81916707Y-63473596D01*
G37*
G36*
X84456707Y-63473596D02*
X84533836Y-63481193D01*
X84665787Y-63521220D01*
X84731763Y-63541233D01*
X84914172Y-63638733D01*
X85074054Y-63769946D01*
X85205267Y-63929828D01*
X85302767Y-64112237D01*
X85302767Y-64112238D01*
X85362807Y-64310164D01*
X85383080Y-64516000D01*
X85362807Y-64721836D01*
X85322780Y-64853787D01*
X85302767Y-64919763D01*
X85205267Y-65102172D01*
X85074054Y-65262054D01*
X84914172Y-65393267D01*
X84731763Y-65490767D01*
X84665787Y-65510780D01*
X84533836Y-65550807D01*
X84456707Y-65558403D01*
X84379580Y-65566000D01*
X84276420Y-65566000D01*
X84199293Y-65558403D01*
X84122164Y-65550807D01*
X83990213Y-65510780D01*
X83924237Y-65490767D01*
X83741828Y-65393267D01*
X83581946Y-65262054D01*
X83450733Y-65102172D01*
X83353233Y-64919763D01*
X83333220Y-64853787D01*
X83293193Y-64721836D01*
X83272920Y-64516000D01*
X83293193Y-64310164D01*
X83353233Y-64112238D01*
X83353233Y-64112237D01*
X83450733Y-63929828D01*
X83581946Y-63769946D01*
X83741828Y-63638733D01*
X83924237Y-63541233D01*
X83990213Y-63521220D01*
X84122164Y-63481193D01*
X84199293Y-63473596D01*
X84276420Y-63466000D01*
X84379580Y-63466000D01*
X84456707Y-63473596D01*
X84456707Y-63473596D01*
G37*
G36*
X86996707Y-63473596D02*
X87073836Y-63481193D01*
X87205787Y-63521220D01*
X87271763Y-63541233D01*
X87454172Y-63638733D01*
X87614054Y-63769946D01*
X87745267Y-63929828D01*
X87842767Y-64112237D01*
X87842767Y-64112238D01*
X87902807Y-64310164D01*
X87923080Y-64516000D01*
X87902807Y-64721836D01*
X87862780Y-64853787D01*
X87842767Y-64919763D01*
X87745267Y-65102172D01*
X87614054Y-65262054D01*
X87454172Y-65393267D01*
X87271763Y-65490767D01*
X87205787Y-65510780D01*
X87073836Y-65550807D01*
X86996707Y-65558403D01*
X86919580Y-65566000D01*
X86816420Y-65566000D01*
X86739293Y-65558403D01*
X86662164Y-65550807D01*
X86530213Y-65510780D01*
X86464237Y-65490767D01*
X86281828Y-65393267D01*
X86121946Y-65262054D01*
X85990733Y-65102172D01*
X85893233Y-64919763D01*
X85873220Y-64853787D01*
X85833193Y-64721836D01*
X85812920Y-64516000D01*
X85833193Y-64310164D01*
X85893233Y-64112238D01*
X85893233Y-64112237D01*
X85990733Y-63929828D01*
X86121946Y-63769946D01*
X86281828Y-63638733D01*
X86464237Y-63541233D01*
X86530213Y-63521220D01*
X86662164Y-63481193D01*
X86739293Y-63473596D01*
X86816420Y-63466000D01*
X86919580Y-63466000D01*
X86996707Y-63473596D01*
X86996707Y-63473596D01*
G37*
G36*
X72678000Y-65566000D02*
X70578000Y-65566000D01*
X70578000Y-63466000D01*
X72678000Y-63466000D01*
X72678000Y-65566000D01*
X72678000Y-65566000D01*
G37*
M02*
