M48
;DRILL file {KiCad (5.0.2)-1} date 2018/12/23 15:21:25
;FORMAT={-:-/ absolute / metric / decimal}
FMAT,2
METRIC,TZ
T1C0.400
T2C0.838
T3C1.000
%
G90
G05
T1
X70.104Y-66.294
X70.612Y-78.994
X70.612Y-80.518
X70.612Y-82.804
X70.866Y-90.17
X72.136Y-97.79
X72.644Y-86.614
X72.898Y-80.01
X73.152Y-97.79
X73.66Y-70.612
X73.66Y-72.94
X73.914Y-73.894
X74.168Y-75.184
X74.549Y-85.09
X74.676Y-76.2
X74.93Y-91.948
X74.93Y-93.472
X75.438Y-82.804
X75.664Y-75.184
X75.692Y-68.326
X75.946Y-70.104
X76.454Y-101.092
X76.571Y-70.866
X76.708Y-67.818
X77.274Y-66.998
X77.47Y-70.866
X77.978Y-96.52
X78.039Y-78.547
X78.524Y-70.866
X78.994Y-66.802
X78.994Y-67.818
X79.248Y-91.694
X79.502Y-79.502
X79.502Y-80.518
X79.629Y-71.628
X80.01Y-83.312
X80.264Y-70.612
X81.026Y-99.822
X81.28Y-88.9
X81.28Y-101.092
X81.407Y-96.52
X82.296Y-72.898
X82.677Y-84.074
X83.274Y-72.898
X83.312Y-93.726
X83.566Y-76.327
X83.566Y-81.915
X84.074Y-70.612
X84.328Y-72.898
X84.328Y-92.71
X85.09Y-67.056
X85.09Y-70.612
X85.344Y-71.882
X86.36Y-78.74
X86.36Y-85.344
X87.63Y-77.724
X87.63Y-90.17
X87.884Y-94.234
X87.884Y-96.316
X88.138Y-71.628
X88.138Y-73.152
X88.138Y-74.422
X88.138Y-75.946
X88.255Y-87.854
T2
X73.104Y-91.458
X73.462Y-94.397
X74.155Y-88.687
X75.143Y-96.835
X76.373Y-86.723
X77.767Y-98.212
X79.248Y-86.015
X80.729Y-98.212
X82.123Y-86.723
X83.353Y-96.835
X84.341Y-88.687
X85.034Y-94.397
X85.392Y-91.458
T3
X71.628Y-100.076
X74.168Y-100.076
X71.628Y-64.516
X74.168Y-64.516
X76.708Y-64.516
X79.248Y-64.516
X81.788Y-64.516
X84.328Y-64.516
X86.868Y-64.516
X84.328Y-100.076
X86.868Y-100.076
T0
M30
