G04 #@! TF.GenerationSoftware,KiCad,Pcbnew,(5.0.2)-1*
G04 #@! TF.CreationDate,2018-12-23T17:42:09+09:00*
G04 #@! TF.ProjectId,Nixie_Module_IN-12,4e697869-655f-44d6-9f64-756c655f494e,rev?*
G04 #@! TF.SameCoordinates,Original*
G04 #@! TF.FileFunction,Copper,L1,Top*
G04 #@! TF.FilePolarity,Positive*
%FSLAX46Y46*%
G04 Gerber Fmt 4.6, Leading zero omitted, Abs format (unit mm)*
G04 Created by KiCad (PCBNEW (5.0.2)-1) date 2018/12/23 17:42:09*
%MOMM*%
%LPD*%
G01*
G04 APERTURE LIST*
G04 #@! TA.AperFunction,SMDPad,CuDef*
%ADD10R,0.900000X0.500000*%
G04 #@! TD*
G04 #@! TA.AperFunction,SMDPad,CuDef*
%ADD11R,0.800000X0.900000*%
G04 #@! TD*
G04 #@! TA.AperFunction,SMDPad,CuDef*
%ADD12R,2.500000X0.850000*%
G04 #@! TD*
G04 #@! TA.AperFunction,SMDPad,CuDef*
%ADD13R,0.900000X0.800000*%
G04 #@! TD*
G04 #@! TA.AperFunction,ComponentPad*
%ADD14C,2.600000*%
G04 #@! TD*
G04 #@! TA.AperFunction,ComponentPad*
%ADD15R,1.700000X1.700000*%
G04 #@! TD*
G04 #@! TA.AperFunction,ComponentPad*
%ADD16O,1.700000X1.700000*%
G04 #@! TD*
G04 #@! TA.AperFunction,SMDPad,CuDef*
%ADD17R,0.400000X1.100000*%
G04 #@! TD*
G04 #@! TA.AperFunction,SMDPad,CuDef*
%ADD18R,0.750000X0.800000*%
G04 #@! TD*
G04 #@! TA.AperFunction,SMDPad,CuDef*
%ADD19R,0.800000X0.750000*%
G04 #@! TD*
G04 #@! TA.AperFunction,SMDPad,CuDef*
%ADD20R,0.500000X0.900000*%
G04 #@! TD*
G04 #@! TA.AperFunction,ViaPad*
%ADD21C,0.600000*%
G04 #@! TD*
G04 #@! TA.AperFunction,Conductor*
%ADD22C,0.500000*%
G04 #@! TD*
G04 #@! TA.AperFunction,Conductor*
%ADD23C,0.250000*%
G04 #@! TD*
G04 #@! TA.AperFunction,Conductor*
%ADD24C,1.000000*%
G04 #@! TD*
G04 #@! TA.AperFunction,Conductor*
%ADD25C,0.254000*%
G04 #@! TD*
G04 APERTURE END LIST*
D10*
G04 #@! TO.P,R13,2*
G04 #@! TO.N,/NIX_DP_G*
X75946000Y-85332000D03*
G04 #@! TO.P,R13,1*
G04 #@! TO.N,Net-(Q11-Pad1)*
X75946000Y-83832000D03*
G04 #@! TD*
D11*
G04 #@! TO.P,Q9,1*
G04 #@! TO.N,Net-(Q9-Pad1)*
X77028000Y-100822000D03*
G04 #@! TO.P,Q9,2*
G04 #@! TO.N,GND*
X78928000Y-100822000D03*
G04 #@! TO.P,Q9,3*
G04 #@! TO.N,/NIX_5*
X77978000Y-98822000D03*
G04 #@! TD*
D12*
G04 #@! TO.P,U1,3*
G04 #@! TO.N,/LED_DIN*
X81398000Y-92823000D03*
G04 #@! TO.P,U1,4*
G04 #@! TO.N,+5V*
X81398000Y-91073000D03*
G04 #@! TO.P,U1,2*
G04 #@! TO.N,GND*
X77098000Y-92823000D03*
G04 #@! TO.P,U1,1*
G04 #@! TO.N,/LED_DOUT*
X77098000Y-91073000D03*
G04 #@! TD*
D11*
G04 #@! TO.P,Q11,1*
G04 #@! TO.N,Net-(Q11-Pad1)*
X76520000Y-82534000D03*
G04 #@! TO.P,Q11,2*
G04 #@! TO.N,GND*
X78420000Y-82534000D03*
G04 #@! TO.P,Q11,3*
G04 #@! TO.N,/NIX_DP*
X77470000Y-80534000D03*
G04 #@! TD*
G04 #@! TO.P,Q2,1*
G04 #@! TO.N,Net-(Q2-Pad1)*
X86172000Y-97774000D03*
G04 #@! TO.P,Q2,2*
G04 #@! TO.N,GND*
X88072000Y-97774000D03*
G04 #@! TO.P,Q2,3*
G04 #@! TO.N,/NIX_6*
X87122000Y-95774000D03*
G04 #@! TD*
D13*
G04 #@! TO.P,Q3,1*
G04 #@! TO.N,Net-(Q3-Pad1)*
X70120000Y-83378000D03*
G04 #@! TO.P,Q3,2*
G04 #@! TO.N,GND*
X70120000Y-85278000D03*
G04 #@! TO.P,Q3,3*
G04 #@! TO.N,/NIX_2*
X72120000Y-84328000D03*
G04 #@! TD*
G04 #@! TO.P,Q4,1*
G04 #@! TO.N,Net-(Q4-Pad1)*
X88376000Y-94422000D03*
G04 #@! TO.P,Q4,2*
G04 #@! TO.N,GND*
X88376000Y-92522000D03*
G04 #@! TO.P,Q4,3*
G04 #@! TO.N,/NIX_7*
X86376000Y-93472000D03*
G04 #@! TD*
G04 #@! TO.P,Q5,1*
G04 #@! TO.N,Net-(Q5-Pad1)*
X70120000Y-88458000D03*
G04 #@! TO.P,Q5,2*
G04 #@! TO.N,GND*
X70120000Y-90358000D03*
G04 #@! TO.P,Q5,3*
G04 #@! TO.N,/NIX_3*
X72120000Y-89408000D03*
G04 #@! TD*
G04 #@! TO.P,Q6,1*
G04 #@! TO.N,Net-(Q6-Pad1)*
X88376000Y-85278000D03*
G04 #@! TO.P,Q6,2*
G04 #@! TO.N,GND*
X88376000Y-83378000D03*
G04 #@! TO.P,Q6,3*
G04 #@! TO.N,/NIX_8*
X86376000Y-84328000D03*
G04 #@! TD*
G04 #@! TO.P,Q7,1*
G04 #@! TO.N,Net-(Q7-Pad1)*
X70882000Y-95824000D03*
G04 #@! TO.P,Q7,2*
G04 #@! TO.N,GND*
X70882000Y-97724000D03*
G04 #@! TO.P,Q7,3*
G04 #@! TO.N,/NIX_4*
X72882000Y-96774000D03*
G04 #@! TD*
D11*
G04 #@! TO.P,Q8,1*
G04 #@! TO.N,Net-(Q8-Pad1)*
X88072000Y-78756000D03*
G04 #@! TO.P,Q8,2*
G04 #@! TO.N,GND*
X86172000Y-78756000D03*
G04 #@! TO.P,Q8,3*
G04 #@! TO.N,/NIX_9*
X87122000Y-80756000D03*
G04 #@! TD*
G04 #@! TO.P,Q1,1*
G04 #@! TO.N,Net-(Q1-Pad1)*
X72578000Y-78756000D03*
G04 #@! TO.P,Q1,2*
G04 #@! TO.N,GND*
X70678000Y-78756000D03*
G04 #@! TO.P,Q1,3*
G04 #@! TO.N,/NIX_1*
X71628000Y-80756000D03*
G04 #@! TD*
D14*
G04 #@! TO.P,U2,12*
G04 #@! TO.N,/NIX_DP*
X79248000Y-77868000D03*
G04 #@! TO.P,U2,11*
G04 #@! TO.N,/NIX_0*
X83248000Y-78868000D03*
G04 #@! TO.P,U2,10*
G04 #@! TO.N,/NIX_9*
X84998000Y-82368000D03*
G04 #@! TO.P,U2,9*
G04 #@! TO.N,/NIX_8*
X84998000Y-86868000D03*
G04 #@! TO.P,U2,8*
G04 #@! TO.N,/NIX_7*
X84998000Y-91368000D03*
G04 #@! TO.P,U2,7*
G04 #@! TO.N,/NIX_6*
X83248000Y-94868000D03*
G04 #@! TO.P,U2,6*
G04 #@! TO.N,/NIX_5*
X79248000Y-95868000D03*
G04 #@! TO.P,U2,5*
G04 #@! TO.N,/NIX_4*
X75248000Y-94868000D03*
G04 #@! TO.P,U2,4*
G04 #@! TO.N,/NIX_3*
X73498000Y-91368000D03*
G04 #@! TO.P,U2,3*
G04 #@! TO.N,/NIX_2*
X73498000Y-86868000D03*
G04 #@! TO.P,U2,2*
G04 #@! TO.N,/NIX_1*
X73498000Y-82368000D03*
G04 #@! TO.P,U2,1*
G04 #@! TO.N,Net-(R1-Pad2)*
X75248000Y-78868000D03*
G04 #@! TD*
D15*
G04 #@! TO.P,J4,1*
G04 #@! TO.N,GND*
X71628000Y-100012500D03*
D16*
G04 #@! TO.P,J4,2*
X74168000Y-100012500D03*
G04 #@! TD*
D15*
G04 #@! TO.P,J3,1*
G04 #@! TO.N,+HV*
X84328000Y-100012500D03*
D16*
G04 #@! TO.P,J3,2*
X86868000Y-100012500D03*
G04 #@! TD*
D11*
G04 #@! TO.P,Q10,1*
G04 #@! TO.N,Net-(Q10-Pad1)*
X80076000Y-82534000D03*
G04 #@! TO.P,Q10,2*
G04 #@! TO.N,GND*
X81976000Y-82534000D03*
G04 #@! TO.P,Q10,3*
G04 #@! TO.N,/NIX_0*
X81026000Y-80534000D03*
G04 #@! TD*
D15*
G04 #@! TO.P,J1,1*
G04 #@! TO.N,+5V*
X71678800Y-64160400D03*
D16*
G04 #@! TO.P,J1,2*
G04 #@! TO.N,/I2C_SDA*
X74218800Y-64160400D03*
G04 #@! TO.P,J1,3*
G04 #@! TO.N,/I2C_SCL*
X76758800Y-64160400D03*
G04 #@! TO.P,J1,4*
G04 #@! TO.N,/#OE*
X79298800Y-64160400D03*
G04 #@! TO.P,J1,5*
G04 #@! TO.N,/LED_DIN*
X81838800Y-64160400D03*
G04 #@! TO.P,J1,6*
G04 #@! TO.N,/LED_DOUT*
X84378800Y-64160400D03*
G04 #@! TO.P,J1,7*
G04 #@! TO.N,GND*
X86918800Y-64160400D03*
G04 #@! TD*
D17*
G04 #@! TO.P,U3,1*
G04 #@! TO.N,/ADDR_0*
X75277000Y-73970000D03*
G04 #@! TO.P,U3,2*
G04 #@! TO.N,/ADDR_1*
X75927000Y-73970000D03*
G04 #@! TO.P,U3,3*
G04 #@! TO.N,/ADDR_2*
X76577000Y-73970000D03*
G04 #@! TO.P,U3,4*
G04 #@! TO.N,/ADDR_3*
X77227000Y-73970000D03*
G04 #@! TO.P,U3,5*
G04 #@! TO.N,GND*
X77877000Y-73970000D03*
G04 #@! TO.P,U3,6*
G04 #@! TO.N,/NIX_0_G*
X78527000Y-73970000D03*
G04 #@! TO.P,U3,7*
G04 #@! TO.N,/NIX_1_G*
X79177000Y-73970000D03*
G04 #@! TO.P,U3,8*
G04 #@! TO.N,/NIX_2_G*
X79827000Y-73970000D03*
G04 #@! TO.P,U3,9*
G04 #@! TO.N,/NIX_3_G*
X80477000Y-73970000D03*
G04 #@! TO.P,U3,10*
G04 #@! TO.N,/NIX_4_G*
X81127000Y-73970000D03*
G04 #@! TO.P,U3,11*
G04 #@! TO.N,/NIX_5_G*
X81777000Y-73970000D03*
G04 #@! TO.P,U3,12*
G04 #@! TO.N,/NIX_6_G*
X82427000Y-73970000D03*
G04 #@! TO.P,U3,13*
G04 #@! TO.N,/NIX_7_G*
X83077000Y-73970000D03*
G04 #@! TO.P,U3,14*
G04 #@! TO.N,GND*
X83727000Y-73970000D03*
G04 #@! TO.P,U3,15*
G04 #@! TO.N,/NIX_8_G*
X83727000Y-68270000D03*
G04 #@! TO.P,U3,16*
G04 #@! TO.N,/NIX_9_G*
X83077000Y-68270000D03*
G04 #@! TO.P,U3,17*
G04 #@! TO.N,/NIX_DP_G*
X82427000Y-68270000D03*
G04 #@! TO.P,U3,18*
G04 #@! TO.N,N/C*
X81777000Y-68270000D03*
G04 #@! TO.P,U3,19*
X81127000Y-68270000D03*
G04 #@! TO.P,U3,20*
X80477000Y-68270000D03*
G04 #@! TO.P,U3,21*
X79827000Y-68270000D03*
G04 #@! TO.P,U3,22*
X79177000Y-68270000D03*
G04 #@! TO.P,U3,23*
G04 #@! TO.N,/#OE*
X78527000Y-68270000D03*
G04 #@! TO.P,U3,24*
G04 #@! TO.N,GND*
X77877000Y-68270000D03*
G04 #@! TO.P,U3,25*
X77227000Y-68270000D03*
G04 #@! TO.P,U3,26*
G04 #@! TO.N,/I2C_SCL*
X76577000Y-68270000D03*
G04 #@! TO.P,U3,27*
G04 #@! TO.N,/I2C_SDA*
X75927000Y-68270000D03*
G04 #@! TO.P,U3,28*
G04 #@! TO.N,+5V*
X75277000Y-68270000D03*
G04 #@! TD*
D18*
G04 #@! TO.P,C1,1*
G04 #@! TO.N,+5V*
X70358000Y-70370000D03*
G04 #@! TO.P,C1,2*
G04 #@! TO.N,GND*
X70358000Y-71870000D03*
G04 #@! TD*
G04 #@! TO.P,C2,2*
G04 #@! TO.N,GND*
X71882000Y-71870000D03*
G04 #@! TO.P,C2,1*
G04 #@! TO.N,+5V*
X71882000Y-70370000D03*
G04 #@! TD*
D19*
G04 #@! TO.P,C3,1*
G04 #@! TO.N,+5V*
X82308000Y-89154000D03*
G04 #@! TO.P,C3,2*
G04 #@! TO.N,GND*
X83808000Y-89154000D03*
G04 #@! TD*
D10*
G04 #@! TO.P,R1,1*
G04 #@! TO.N,+HV*
X81280000Y-100572000D03*
G04 #@! TO.P,R1,2*
G04 #@! TO.N,Net-(R1-Pad2)*
X81280000Y-99072000D03*
G04 #@! TD*
D20*
G04 #@! TO.P,R2,1*
G04 #@! TO.N,GND*
X87110000Y-67818000D03*
G04 #@! TO.P,R2,2*
G04 #@! TO.N,/#OE*
X85610000Y-67818000D03*
G04 #@! TD*
G04 #@! TO.P,R3,2*
G04 #@! TO.N,/NIX_1_G*
X73394000Y-76962000D03*
G04 #@! TO.P,R3,1*
G04 #@! TO.N,Net-(Q1-Pad1)*
X71894000Y-76962000D03*
G04 #@! TD*
G04 #@! TO.P,R4,2*
G04 #@! TO.N,/NIX_6_G*
X83070000Y-97536000D03*
G04 #@! TO.P,R4,1*
G04 #@! TO.N,Net-(Q2-Pad1)*
X84570000Y-97536000D03*
G04 #@! TD*
D10*
G04 #@! TO.P,R5,1*
G04 #@! TO.N,Net-(Q3-Pad1)*
X70104000Y-82284000D03*
G04 #@! TO.P,R5,2*
G04 #@! TO.N,/NIX_2_G*
X70104000Y-80784000D03*
G04 #@! TD*
G04 #@! TO.P,R6,1*
G04 #@! TO.N,Net-(Q4-Pad1)*
X87630000Y-90920000D03*
G04 #@! TO.P,R6,2*
G04 #@! TO.N,/NIX_7_G*
X87630000Y-89420000D03*
G04 #@! TD*
D20*
G04 #@! TO.P,R7,2*
G04 #@! TO.N,/NIX_3_G*
X71362000Y-86868000D03*
G04 #@! TO.P,R7,1*
G04 #@! TO.N,Net-(Q5-Pad1)*
X69862000Y-86868000D03*
G04 #@! TD*
G04 #@! TO.P,R8,2*
G04 #@! TO.N,/NIX_8_G*
X87134000Y-86868000D03*
G04 #@! TO.P,R8,1*
G04 #@! TO.N,Net-(Q6-Pad1)*
X88634000Y-86868000D03*
G04 #@! TD*
G04 #@! TO.P,R9,1*
G04 #@! TO.N,Net-(Q7-Pad1)*
X70370000Y-93980000D03*
G04 #@! TO.P,R9,2*
G04 #@! TO.N,/NIX_4_G*
X71870000Y-93980000D03*
G04 #@! TD*
D10*
G04 #@! TO.P,R10,1*
G04 #@! TO.N,Net-(Q8-Pad1)*
X88138000Y-77458000D03*
G04 #@! TO.P,R10,2*
G04 #@! TO.N,/NIX_9_G*
X88138000Y-75958000D03*
G04 #@! TD*
D20*
G04 #@! TO.P,R11,2*
G04 #@! TO.N,/NIX_5_G*
X74942000Y-97536000D03*
G04 #@! TO.P,R11,1*
G04 #@! TO.N,Net-(Q9-Pad1)*
X76442000Y-97536000D03*
G04 #@! TD*
G04 #@! TO.P,R12,2*
G04 #@! TO.N,/NIX_0_G*
X83046000Y-84074000D03*
G04 #@! TO.P,R12,1*
G04 #@! TO.N,Net-(Q10-Pad1)*
X81546000Y-84074000D03*
G04 #@! TD*
D10*
G04 #@! TO.P,R14,1*
G04 #@! TO.N,/ADDR_0*
X70358000Y-69064000D03*
G04 #@! TO.P,R14,2*
G04 #@! TO.N,+5V*
X70358000Y-67564000D03*
G04 #@! TD*
G04 #@! TO.P,R15,1*
G04 #@! TO.N,/ADDR_1*
X73406000Y-71870000D03*
G04 #@! TO.P,R15,2*
G04 #@! TO.N,+5V*
X73406000Y-70370000D03*
G04 #@! TD*
G04 #@! TO.P,R16,1*
G04 #@! TO.N,/ADDR_2*
X72136000Y-74664000D03*
G04 #@! TO.P,R16,2*
G04 #@! TO.N,+5V*
X72136000Y-73164000D03*
G04 #@! TD*
G04 #@! TO.P,R17,2*
G04 #@! TO.N,+5V*
X70358000Y-73164000D03*
G04 #@! TO.P,R17,1*
G04 #@! TO.N,/ADDR_3*
X70358000Y-74664000D03*
G04 #@! TD*
G04 #@! TO.P,R18,1*
G04 #@! TO.N,/I2C_SCL*
X71882000Y-67564000D03*
G04 #@! TO.P,R18,2*
G04 #@! TO.N,+5V*
X71882000Y-69064000D03*
G04 #@! TD*
G04 #@! TO.P,R19,2*
G04 #@! TO.N,+5V*
X73406000Y-69064000D03*
G04 #@! TO.P,R19,1*
G04 #@! TO.N,/I2C_SDA*
X73406000Y-67564000D03*
G04 #@! TD*
D21*
G04 #@! TO.N,+5V*
X84328000Y-84328000D03*
X74676000Y-69342000D03*
X76454000Y-76200000D03*
G04 #@! TO.N,GND*
X70104000Y-64516000D03*
X70866000Y-89408000D03*
X70065997Y-84328000D03*
X70104000Y-77470000D03*
X83820000Y-72644000D03*
X75438000Y-62992000D03*
X80518000Y-62992000D03*
X77978000Y-62992000D03*
X82804010Y-76708000D03*
X88392000Y-96520000D03*
X88392000Y-93472000D03*
X86868000Y-75692000D03*
X78232000Y-83566000D03*
X71120000Y-71120000D03*
X79248000Y-91948000D03*
X73152000Y-93980000D03*
X70104000Y-91694000D03*
X80010000Y-100838000D03*
X79248000Y-90424000D03*
X79248000Y-93273002D03*
X76454000Y-89916000D03*
X87884000Y-72644000D03*
X88646000Y-90170000D03*
X84582000Y-67310000D03*
X79756000Y-67056000D03*
X77470000Y-70358000D03*
X77978000Y-66040010D03*
X83820000Y-76962000D03*
X79248000Y-71120000D03*
X79248000Y-98298000D03*
X79756000Y-99314000D03*
G04 #@! TO.N,/I2C_SDA*
X74930000Y-66040000D03*
G04 #@! TO.N,/NIX_6_G*
X82042000Y-97536000D03*
X87083988Y-76708000D03*
G04 #@! TO.N,/NIX_2_G*
X70358000Y-80010000D03*
X79756008Y-72136000D03*
G04 #@! TO.N,/NIX_7_G*
X85852000Y-75574990D03*
X87376000Y-88646000D03*
G04 #@! TO.N,/NIX_3_G*
X70866000Y-84328000D03*
X80575694Y-72701694D03*
G04 #@! TO.N,/NIX_8_G*
X87126000Y-85344000D03*
X86360000Y-71120000D03*
G04 #@! TO.N,/NIX_4_G*
X81222313Y-72078313D03*
X71120000Y-92456000D03*
G04 #@! TO.N,/NIX_5_G*
X81825705Y-72644000D03*
X73152000Y-98044000D03*
G04 #@! TO.N,/NIX_0_G*
X83058000Y-82804000D03*
X77409051Y-75631051D03*
G04 #@! TO.N,Net-(R1-Pad2)*
X81280014Y-98298000D03*
G04 #@! TO.N,/ADDR_0*
X76454000Y-70358000D03*
X71120000Y-68326000D03*
G04 #@! TO.N,/ADDR_1*
X75946000Y-71120000D03*
X73406000Y-71120000D03*
G04 #@! TO.N,/ADDR_2*
X76962000Y-71120000D03*
X73406000Y-73621987D03*
G04 #@! TO.N,/ADDR_3*
X77978000Y-71120000D03*
X73659988Y-74422000D03*
G04 #@! TO.N,/LED_DIN*
X83312000Y-92710000D03*
G04 #@! TO.N,/LED_DOUT*
X81280000Y-75438000D03*
G04 #@! TO.N,/NIX_DP_G*
X82550000Y-69850000D03*
X82042000Y-75946000D03*
G04 #@! TD*
D22*
G04 #@! TO.N,+5V*
X74975999Y-69042001D02*
X74676000Y-69342000D01*
X75277000Y-68741000D02*
X74975999Y-69042001D01*
X75277000Y-68270000D02*
X75277000Y-68741000D01*
X72136000Y-73164000D02*
X70358000Y-73164000D01*
X70358000Y-70370000D02*
X71882000Y-70370000D01*
X71882000Y-70370000D02*
X71882000Y-69064000D01*
X71882000Y-69064000D02*
X73406000Y-69064000D01*
X74398000Y-69064000D02*
X74676000Y-69342000D01*
X73406000Y-69064000D02*
X74398000Y-69064000D01*
X73406000Y-70370000D02*
X73406000Y-69064000D01*
X71678800Y-64160400D02*
X71678800Y-64465200D01*
X70358000Y-65786000D02*
X70358000Y-67564000D01*
X71678800Y-64465200D02*
X70358000Y-65786000D01*
X74676000Y-71120000D02*
X74676000Y-69342000D01*
X74422000Y-72898000D02*
X74676000Y-72644000D01*
X74676000Y-72644000D02*
X74676000Y-71120000D01*
D23*
X72836000Y-73164000D02*
X73356000Y-72644000D01*
X72136000Y-73164000D02*
X72836000Y-73164000D01*
X74168000Y-72644000D02*
X74422000Y-72898000D01*
X74168000Y-72644000D02*
X74676000Y-72644000D01*
X73356000Y-72644000D02*
X74168000Y-72644000D01*
D22*
X81398000Y-90064000D02*
X82308000Y-89154000D01*
X81398000Y-91073000D02*
X81398000Y-90064000D01*
X82308000Y-88912000D02*
X82308000Y-89154000D01*
X82296000Y-88900000D02*
X82308000Y-88912000D01*
X82804000Y-88392000D02*
X82296000Y-88900000D01*
X84328000Y-84328000D02*
X82804000Y-85852000D01*
X82804000Y-85852000D02*
X82804000Y-88392000D01*
X74422000Y-74592264D02*
X76029736Y-76200000D01*
X74422000Y-72898000D02*
X74422000Y-74592264D01*
X76029736Y-76200000D02*
X76454000Y-76200000D01*
D23*
G04 #@! TO.N,GND*
X77877000Y-68270000D02*
X77227000Y-68270000D01*
X70816198Y-62738000D02*
X70104000Y-63450198D01*
X77978000Y-63246000D02*
X77470000Y-62738000D01*
X70104000Y-63450198D02*
X70104000Y-64516000D01*
X78486000Y-62738000D02*
X77978000Y-63246000D01*
X86918800Y-62958319D02*
X86698481Y-62738000D01*
X86918800Y-64160400D02*
X86918800Y-62958319D01*
D24*
X71628000Y-100012500D02*
X74168000Y-100012500D01*
D23*
X77877000Y-69749000D02*
X77877000Y-68270000D01*
X78740000Y-70612000D02*
X77877000Y-69749000D01*
X78740000Y-71374000D02*
X78740000Y-70612000D01*
X77877000Y-73970000D02*
X77877000Y-72237000D01*
X77877000Y-72237000D02*
X78740000Y-71374000D01*
X70170000Y-90358000D02*
X70120000Y-90358000D01*
X70170000Y-90358000D02*
X70866000Y-89662000D01*
X70866000Y-89662000D02*
X70866000Y-89408000D01*
X70065997Y-85223997D02*
X70120000Y-85278000D01*
X70065997Y-84328000D02*
X70065997Y-85223997D01*
X70104000Y-78182000D02*
X70678000Y-78756000D01*
X70104000Y-77470000D02*
X70104000Y-78182000D01*
X81976000Y-82534000D02*
X81976000Y-82484000D01*
X85852000Y-79248000D02*
X86172000Y-78756000D01*
X81976000Y-82108000D02*
X83058000Y-81026000D01*
X81976000Y-82484000D02*
X81976000Y-82108000D01*
X83058000Y-81026000D02*
X83495002Y-81026000D01*
X83495002Y-81026000D02*
X84836000Y-80264000D01*
X84836000Y-80264000D02*
X85344000Y-80010000D01*
X85344000Y-80010000D02*
X85852000Y-79248000D01*
X83820000Y-73877000D02*
X83727000Y-73970000D01*
X83820000Y-72644000D02*
X83820000Y-73877000D01*
X83727000Y-74770000D02*
X83727000Y-73970000D01*
X86360000Y-74930000D02*
X83887000Y-74930000D01*
X83887000Y-74930000D02*
X83727000Y-74770000D01*
X75438000Y-62738000D02*
X75438000Y-62992000D01*
X75438000Y-62738000D02*
X70816198Y-62738000D01*
X77470000Y-62738000D02*
X75438000Y-62738000D01*
X80518000Y-62738000D02*
X80518000Y-62992000D01*
X80518000Y-62738000D02*
X78486000Y-62738000D01*
X86698481Y-62738000D02*
X80518000Y-62738000D01*
X77978000Y-63246000D02*
X77978000Y-62992000D01*
X85522000Y-78756000D02*
X86172000Y-78756000D01*
X82804010Y-76708000D02*
X83474000Y-76708000D01*
X83820000Y-77054000D02*
X85522000Y-78756000D01*
X83474000Y-76708000D02*
X83820000Y-77054000D01*
D22*
X70882000Y-99266500D02*
X71628000Y-100012500D01*
X70882000Y-97724000D02*
X70882000Y-99266500D01*
D23*
X75598000Y-92823000D02*
X77098000Y-92823000D01*
X74930000Y-92964000D02*
X75184000Y-92710000D01*
X73914000Y-93472000D02*
X74930000Y-92964000D01*
X70932000Y-97724000D02*
X71882000Y-96774000D01*
X70882000Y-97724000D02*
X70932000Y-97724000D01*
X71882000Y-96774000D02*
X71882000Y-96012000D01*
X75184000Y-92710000D02*
X75598000Y-92823000D01*
X71882000Y-96012000D02*
X72390000Y-95504000D01*
X73152000Y-94742000D02*
X73152000Y-93980000D01*
X73152000Y-93980000D02*
X73914000Y-93472000D01*
X88072000Y-97074000D02*
X88392000Y-96754000D01*
X88392000Y-96754000D02*
X88392000Y-96520000D01*
X88376000Y-93456000D02*
X88392000Y-93472000D01*
X88376000Y-92522000D02*
X88376000Y-93456000D01*
X88376000Y-91872000D02*
X88646000Y-91602000D01*
X88376000Y-92522000D02*
X88376000Y-91872000D01*
X88646000Y-91602000D02*
X88646000Y-90170000D01*
X88646000Y-88646000D02*
X87884000Y-87884000D01*
X87884000Y-87884000D02*
X86868000Y-87884000D01*
X85598000Y-89154000D02*
X85260264Y-89154000D01*
X86868000Y-87884000D02*
X85598000Y-89154000D01*
X86360000Y-74930000D02*
X86868000Y-75438000D01*
X86868000Y-75438000D02*
X86868000Y-75692000D01*
X78420000Y-82534000D02*
X78502000Y-82534000D01*
X78502000Y-82534000D02*
X79502000Y-81534000D01*
X79502000Y-81534000D02*
X81788000Y-81534000D01*
X81788000Y-81534000D02*
X82042000Y-81788000D01*
X78420000Y-83234000D02*
X78232000Y-83422000D01*
X78420000Y-82534000D02*
X78420000Y-83234000D01*
X78232000Y-83422000D02*
X78232000Y-83566000D01*
D22*
X71120000Y-71870000D02*
X70358000Y-71870000D01*
X71882000Y-71870000D02*
X71120000Y-71870000D01*
X86918800Y-67626800D02*
X87110000Y-67818000D01*
X86918800Y-64160400D02*
X86918800Y-67626800D01*
X71120000Y-71870000D02*
X71120000Y-71120000D01*
D23*
X88376000Y-83378000D02*
X88376000Y-80248000D01*
X88376000Y-80248000D02*
X87884000Y-79756000D01*
X87884000Y-79756000D02*
X87122000Y-79756000D01*
X86172000Y-78806000D02*
X86172000Y-78756000D01*
X87122000Y-79756000D02*
X86172000Y-78806000D01*
X85260264Y-89154000D02*
X83808000Y-89154000D01*
X88072000Y-97774000D02*
X88072000Y-97074000D01*
X79248000Y-92372264D02*
X79248000Y-91948000D01*
X78823736Y-91948000D02*
X79248000Y-91948000D01*
X79248000Y-93273002D02*
X79248000Y-92372264D01*
X77923000Y-92823000D02*
X78798000Y-91948000D01*
X78798000Y-91948000D02*
X78823736Y-91948000D01*
X77098000Y-92823000D02*
X77923000Y-92823000D01*
X72390000Y-95504000D02*
X73152000Y-94742000D01*
X73152000Y-93980000D02*
X73152000Y-93980000D01*
X79248000Y-93273002D02*
X79248000Y-93273002D01*
X88646000Y-90170000D02*
X88646000Y-88646000D01*
X78928000Y-99380000D02*
X78928000Y-100822000D01*
X81478998Y-95504000D02*
X81280000Y-95702998D01*
X81280000Y-95702998D02*
X81280000Y-97028000D01*
X81280000Y-97028000D02*
X78928000Y-99380000D01*
X81026000Y-94742000D02*
X81478998Y-95504000D01*
X79248000Y-93273002D02*
X81026000Y-94234000D01*
X81026000Y-94234000D02*
X81026000Y-94742000D01*
X81788000Y-96520000D02*
X81478998Y-95504000D01*
X88072000Y-97074000D02*
X85852000Y-96520000D01*
X85852000Y-96520000D02*
X81788000Y-96520000D01*
X77227000Y-70115000D02*
X77470000Y-70358000D01*
X77227000Y-68270000D02*
X77227000Y-70115000D01*
X77227000Y-66791010D02*
X77678001Y-66340009D01*
X77678001Y-66340009D02*
X77978000Y-66040010D01*
X77227000Y-68270000D02*
X77227000Y-66791010D01*
X77978000Y-63246000D02*
X77978000Y-66040010D01*
X83820000Y-77054000D02*
X83820000Y-76962000D01*
D22*
G04 #@! TO.N,/NIX_1*
X71886000Y-80756000D02*
X73498000Y-82368000D01*
X71628000Y-80756000D02*
X71886000Y-80756000D01*
G04 #@! TO.N,/NIX_6*
X83884000Y-95504000D02*
X83248000Y-94868000D01*
X84074000Y-95504000D02*
X83884000Y-95504000D01*
X87122000Y-95774000D02*
X84344000Y-95774000D01*
X84344000Y-95774000D02*
X84074000Y-95504000D01*
G04 #@! TO.N,/NIX_2*
X72120000Y-85490000D02*
X73498000Y-86868000D01*
X72120000Y-84328000D02*
X72120000Y-85490000D01*
G04 #@! TO.N,/NIX_8*
X86376000Y-85490000D02*
X84998000Y-86868000D01*
X86376000Y-84328000D02*
X86376000Y-85490000D01*
G04 #@! TO.N,/NIX_3*
X73498000Y-90516000D02*
X73498000Y-91368000D01*
X72120000Y-89408000D02*
X72390000Y-89408000D01*
X72390000Y-89408000D02*
X73498000Y-90516000D01*
G04 #@! TO.N,/NIX_4*
X73342000Y-96774000D02*
X75248000Y-94868000D01*
X72882000Y-96774000D02*
X73342000Y-96774000D01*
G04 #@! TO.N,/NIX_9*
X85832000Y-81534000D02*
X84998000Y-82368000D01*
X86106000Y-81534000D02*
X85832000Y-81534000D01*
X87122000Y-80756000D02*
X86884000Y-80756000D01*
X86884000Y-80756000D02*
X86106000Y-81534000D01*
G04 #@! TO.N,/NIX_5*
X77948001Y-98792001D02*
X77978000Y-98822000D01*
X79248000Y-95868000D02*
X77948001Y-97167999D01*
X77948001Y-97167999D02*
X77948001Y-98792001D01*
G04 #@! TO.N,/NIX_0*
X83122000Y-78994000D02*
X83248000Y-78868000D01*
X82550000Y-78994000D02*
X83122000Y-78994000D01*
X81026000Y-80534000D02*
X81026000Y-80518000D01*
X81026000Y-80518000D02*
X82550000Y-78994000D01*
D23*
G04 #@! TO.N,/I2C_SDA*
X75927000Y-67037000D02*
X75229999Y-66339999D01*
X73523001Y-67446999D02*
X74630001Y-66339999D01*
X75927000Y-68270000D02*
X75927000Y-67037000D01*
X73523001Y-67564000D02*
X73523001Y-67446999D01*
X74630001Y-66339999D02*
X74930000Y-66040000D01*
X75229999Y-66339999D02*
X74930000Y-66040000D01*
G04 #@! TO.N,/I2C_SCL*
X76758800Y-65481200D02*
X76758800Y-64160400D01*
X76577000Y-65663000D02*
X76708000Y-65532000D01*
X76454000Y-65786000D02*
X76708000Y-65532000D01*
X76708000Y-65532000D02*
X76758800Y-65481200D01*
X76323000Y-65786000D02*
X76577000Y-66040000D01*
X76200000Y-65786000D02*
X76323000Y-65786000D01*
X76577000Y-66040000D02*
X76577000Y-65663000D01*
X76577000Y-68270000D02*
X76577000Y-66040000D01*
X76200000Y-65786000D02*
X76454000Y-65786000D01*
X76200000Y-65786000D02*
X75828999Y-65414999D01*
X71882000Y-66294000D02*
X71882000Y-67064000D01*
X71882000Y-67064000D02*
X71882000Y-67564000D01*
X72761001Y-65414999D02*
X71882000Y-66294000D01*
X75828999Y-65414999D02*
X72761001Y-65414999D01*
D24*
G04 #@! TO.N,+HV*
X86868000Y-100012500D02*
X84328000Y-100012500D01*
X83568500Y-100772000D02*
X84328000Y-100012500D01*
X81280000Y-100772000D02*
X83568500Y-100772000D01*
D22*
G04 #@! TO.N,/NIX_7*
X84998000Y-92094000D02*
X86376000Y-93472000D01*
X84998000Y-91368000D02*
X84998000Y-92094000D01*
D23*
G04 #@! TO.N,/NIX_1_G*
X74011001Y-77079001D02*
X76867999Y-77079001D01*
X79177000Y-74770000D02*
X79177000Y-73970000D01*
X73394000Y-76962000D02*
X73894000Y-76962000D01*
X73894000Y-76962000D02*
X74011001Y-77079001D01*
X76867999Y-77079001D02*
X79177000Y-74770000D01*
D22*
G04 #@! TO.N,/NIX_6_G*
X82870000Y-97536000D02*
X82042000Y-97536000D01*
D23*
X82427000Y-74770000D02*
X82427000Y-73970000D01*
X87083988Y-76708000D02*
X86659724Y-76708000D01*
X86151724Y-76200000D02*
X83566000Y-76200000D01*
X82427000Y-75061000D02*
X82427000Y-74770000D01*
X83566000Y-76200000D02*
X82427000Y-75061000D01*
X86659724Y-76708000D02*
X86151724Y-76200000D01*
G04 #@! TO.N,/NIX_2_G*
X79813686Y-73983314D02*
X79827000Y-73970000D01*
X70104000Y-80264000D02*
X70358000Y-80010000D01*
X79827000Y-73970000D02*
X79827000Y-72206992D01*
X79827000Y-72206992D02*
X79756008Y-72136000D01*
X70104000Y-80264000D02*
X70104000Y-80784000D01*
G04 #@! TO.N,/NIX_7_G*
X85427736Y-75574990D02*
X85852000Y-75574990D01*
X83702990Y-75574990D02*
X85427736Y-75574990D01*
X83077000Y-73970000D02*
X83077000Y-74949000D01*
X83077000Y-74949000D02*
X83702990Y-75574990D01*
X87434000Y-88450000D02*
X87376000Y-88508000D01*
X87376000Y-88508000D02*
X87376000Y-88646000D01*
X87630000Y-89420000D02*
X87630000Y-88900000D01*
X87630000Y-88900000D02*
X87376000Y-88646000D01*
G04 #@! TO.N,/NIX_3_G*
X80477000Y-73970000D02*
X80477000Y-72800388D01*
X80477000Y-72800388D02*
X80575694Y-72701694D01*
X71120000Y-84582000D02*
X70866000Y-84328000D01*
X71120000Y-86360000D02*
X71120000Y-84582000D01*
X71362000Y-86868000D02*
X71362000Y-86602000D01*
X71362000Y-86602000D02*
X71120000Y-86360000D01*
G04 #@! TO.N,/NIX_8_G*
X84836000Y-71120000D02*
X86360000Y-71120000D01*
X83727000Y-68270000D02*
X83727000Y-70011000D01*
X83727000Y-70011000D02*
X84836000Y-71120000D01*
X87126000Y-86860000D02*
X87134000Y-86868000D01*
X87126000Y-85344000D02*
X87126000Y-86860000D01*
G04 #@! TO.N,/NIX_4_G*
X81200695Y-73096305D02*
X81127000Y-73170000D01*
X81200695Y-72099931D02*
X81200695Y-73096305D01*
X81127000Y-73170000D02*
X81127000Y-73970000D01*
X81222313Y-72078313D02*
X81200695Y-72099931D01*
X71120000Y-93218000D02*
X71120000Y-92456000D01*
X71882000Y-93980000D02*
X71120000Y-93218000D01*
G04 #@! TO.N,/NIX_9_G*
X83201999Y-70501999D02*
X88138000Y-75438000D01*
X83201999Y-69194999D02*
X83201999Y-70501999D01*
X83077000Y-68270000D02*
X83077000Y-69070000D01*
X83077000Y-69070000D02*
X83201999Y-69194999D01*
X88138000Y-75438000D02*
X88138000Y-75958000D01*
G04 #@! TO.N,/NIX_5_G*
X81777000Y-72692705D02*
X81825705Y-72644000D01*
X81777000Y-73970000D02*
X81777000Y-72692705D01*
X74142000Y-97536000D02*
X73634000Y-98044000D01*
X74742000Y-97536000D02*
X74142000Y-97536000D01*
X73634000Y-98044000D02*
X73152000Y-98044000D01*
G04 #@! TO.N,/NIX_0_G*
X78527000Y-73970000D02*
X78527000Y-74655002D01*
X77850950Y-75331052D02*
X77709050Y-75331052D01*
X77709050Y-75331052D02*
X77409051Y-75631051D01*
X78527000Y-74655002D02*
X77850950Y-75331052D01*
D22*
X83058000Y-84062000D02*
X83046000Y-84074000D01*
X83058000Y-82804000D02*
X83058000Y-84062000D01*
G04 #@! TO.N,Net-(R1-Pad2)*
X81280000Y-98872000D02*
X81280014Y-98871986D01*
X81280014Y-98871986D02*
X81280014Y-98722264D01*
X81280014Y-98722264D02*
X81280014Y-98298000D01*
D23*
G04 #@! TO.N,Net-(Q1-Pad1)*
X72578000Y-78756000D02*
X72578000Y-78674000D01*
X71894000Y-77990000D02*
X71894000Y-76962000D01*
X72578000Y-78674000D02*
X71894000Y-77990000D01*
D22*
G04 #@! TO.N,Net-(Q2-Pad1)*
X85934000Y-97536000D02*
X86172000Y-97774000D01*
X84770000Y-97536000D02*
X85934000Y-97536000D01*
D23*
G04 #@! TO.N,Net-(Q3-Pad1)*
X70104000Y-83362000D02*
X70120000Y-83378000D01*
X70104000Y-82284000D02*
X70104000Y-83362000D01*
G04 #@! TO.N,Net-(Q4-Pad1)*
X87676000Y-94422000D02*
X87376000Y-94122000D01*
X88376000Y-94422000D02*
X87676000Y-94422000D01*
X87376000Y-94122000D02*
X87376000Y-91694000D01*
X87630000Y-91440000D02*
X87630000Y-90920000D01*
X87376000Y-91694000D02*
X87630000Y-91440000D01*
G04 #@! TO.N,Net-(Q5-Pad1)*
X69908000Y-88246000D02*
X70120000Y-88458000D01*
X69862000Y-88200000D02*
X70120000Y-88458000D01*
X69862000Y-86868000D02*
X69862000Y-88200000D01*
G04 #@! TO.N,Net-(Q6-Pad1)*
X88634000Y-86868000D02*
X88634000Y-86602000D01*
X88376000Y-86344000D02*
X88376000Y-85278000D01*
X88634000Y-86602000D02*
X88376000Y-86344000D01*
D22*
G04 #@! TO.N,Net-(Q7-Pad1)*
X70882000Y-95824000D02*
X70678000Y-95824000D01*
X70170000Y-95316000D02*
X70170000Y-93980000D01*
X70678000Y-95824000D02*
X70170000Y-95316000D01*
D23*
G04 #@! TO.N,Net-(Q8-Pad1)*
X87884000Y-78568000D02*
X88072000Y-78756000D01*
D22*
X88138000Y-78690000D02*
X88072000Y-78756000D01*
X88138000Y-77458000D02*
X88138000Y-78690000D01*
G04 #@! TO.N,Net-(Q9-Pad1)*
X76642000Y-100142000D02*
X76642000Y-97536000D01*
X77028000Y-100822000D02*
X76642000Y-100436000D01*
X76642000Y-100436000D02*
X76642000Y-100142000D01*
D23*
G04 #@! TO.N,Net-(Q10-Pad1)*
X80076000Y-82534000D02*
X80076000Y-83234000D01*
X80076000Y-83234000D02*
X80408000Y-83566000D01*
X81546000Y-84074000D02*
X81546000Y-83832000D01*
X81280000Y-83566000D02*
X80408000Y-83566000D01*
X81546000Y-83832000D02*
X81280000Y-83566000D01*
G04 #@! TO.N,/ADDR_0*
X76029736Y-70358000D02*
X76454000Y-70358000D01*
X75775736Y-70358000D02*
X76029736Y-70358000D01*
X75277000Y-73970000D02*
X75277000Y-70856736D01*
X75277000Y-70856736D02*
X75775736Y-70358000D01*
X70358000Y-68564000D02*
X70596000Y-68326000D01*
X70358000Y-69064000D02*
X70358000Y-68564000D01*
X70596000Y-68326000D02*
X71120000Y-68326000D01*
G04 #@! TO.N,/ADDR_1*
X75927000Y-71139000D02*
X75946000Y-71120000D01*
X75927000Y-73970000D02*
X75927000Y-71139000D01*
X73406000Y-71870000D02*
X73406000Y-71120000D01*
G04 #@! TO.N,/ADDR_2*
X76708000Y-71374000D02*
X76962000Y-71120000D01*
X76577000Y-73970000D02*
X76577000Y-71505000D01*
X76577000Y-71505000D02*
X76708000Y-71374000D01*
X73190013Y-73621987D02*
X73406000Y-73621987D01*
X72836000Y-73976000D02*
X73190013Y-73621987D01*
X72836000Y-74164000D02*
X72836000Y-73976000D01*
X72136000Y-74664000D02*
X72336000Y-74664000D01*
X72336000Y-74664000D02*
X72836000Y-74164000D01*
G04 #@! TO.N,/ADDR_3*
X77678001Y-71419999D02*
X77978000Y-71120000D01*
X77227000Y-71871000D02*
X77678001Y-71419999D01*
X77227000Y-73970000D02*
X77227000Y-71871000D01*
X70558000Y-74664000D02*
X71586000Y-75692000D01*
X71586000Y-75692000D02*
X72389988Y-75692000D01*
X73359989Y-74721999D02*
X73659988Y-74422000D01*
X70358000Y-74664000D02*
X70558000Y-74664000D01*
X72389988Y-75692000D02*
X73359989Y-74721999D01*
G04 #@! TO.N,/#OE*
X85610000Y-66814000D02*
X85610000Y-67818000D01*
X79502000Y-65786000D02*
X84582000Y-65786000D01*
X84582000Y-65786000D02*
X85610000Y-66814000D01*
X79248000Y-64211200D02*
X79298800Y-64160400D01*
X78527000Y-67015000D02*
X78527000Y-68270000D01*
X79298800Y-66243200D02*
X78527000Y-67015000D01*
X79502000Y-65786000D02*
X79298800Y-65786000D01*
X79502000Y-65735200D02*
X79298800Y-65532000D01*
X79502000Y-65786000D02*
X79502000Y-65735200D01*
X79298800Y-64160400D02*
X79298800Y-65532000D01*
X79298800Y-65532000D02*
X79298800Y-65786000D01*
X79502000Y-65836800D02*
X79298800Y-66040000D01*
X79502000Y-65786000D02*
X79502000Y-65836800D01*
X79298800Y-65786000D02*
X79298800Y-66040000D01*
X79298800Y-66040000D02*
X79298800Y-66243200D01*
G04 #@! TO.N,/LED_DIN*
X81511000Y-92710000D02*
X81398000Y-92823000D01*
X83312000Y-92710000D02*
X81511000Y-92710000D01*
G04 #@! TO.N,/LED_DOUT*
X80855736Y-75438000D02*
X81280000Y-75438000D01*
X77216000Y-77470000D02*
X79248000Y-75438000D01*
X77216000Y-79305002D02*
X77216000Y-77470000D01*
X75692000Y-80829002D02*
X77216000Y-79305002D01*
X75692000Y-82804000D02*
X75692000Y-80829002D01*
X79248000Y-75438000D02*
X80855736Y-75438000D01*
X76341000Y-91073000D02*
X75438000Y-90170000D01*
X77098000Y-91073000D02*
X76341000Y-91073000D01*
X75438000Y-90170000D02*
X75438000Y-86360000D01*
X75438000Y-86360000D02*
X74970999Y-85892999D01*
X74970999Y-85892999D02*
X74970999Y-83525001D01*
X74970999Y-83525001D02*
X75692000Y-82804000D01*
G04 #@! TO.N,Net-(Q11-Pad1)*
X76520000Y-83258000D02*
X76520000Y-82534000D01*
X75946000Y-83832000D02*
X76520000Y-83258000D01*
D22*
G04 #@! TO.N,/NIX_DP*
X78994000Y-78122000D02*
X79248000Y-77868000D01*
X78994000Y-79248000D02*
X78994000Y-78122000D01*
X77470000Y-80534000D02*
X77708000Y-80534000D01*
X77708000Y-80534000D02*
X78994000Y-79248000D01*
D23*
G04 #@! TO.N,/NIX_DP_G*
X82550000Y-69850000D02*
X82296000Y-69596000D01*
X82296000Y-69596000D02*
X82296000Y-69086002D01*
X82296000Y-69215000D02*
X82296000Y-69086002D01*
X82427000Y-68703000D02*
X82427000Y-68270000D01*
X82302001Y-69080001D02*
X82302001Y-68827999D01*
X82302001Y-68827999D02*
X82427000Y-68703000D01*
X82042000Y-76370264D02*
X82042000Y-75946000D01*
X82042000Y-76708000D02*
X82042000Y-76370264D01*
X80772000Y-79248000D02*
X82042000Y-76708000D01*
X75946000Y-84832000D02*
X76196000Y-84582000D01*
X76196000Y-84582000D02*
X76708000Y-84582000D01*
X79756000Y-79756000D02*
X80772000Y-79248000D01*
X75946000Y-85332000D02*
X75946000Y-84832000D01*
X76708000Y-84582000D02*
X77470000Y-83820000D01*
X77470000Y-83820000D02*
X77470000Y-82042000D01*
X77470000Y-82042000D02*
X79756000Y-79756000D01*
G04 #@! TD*
D25*
G04 #@! TO.N,GND*
G36*
X76271000Y-86275838D02*
X76271000Y-87460162D01*
X76724221Y-88554335D01*
X77561665Y-89391779D01*
X78655838Y-89845000D01*
X79840162Y-89845000D01*
X80934335Y-89391779D01*
X81421656Y-88904458D01*
X81421656Y-89012211D01*
X80934562Y-89499306D01*
X80873864Y-89539863D01*
X80833307Y-89600561D01*
X80833306Y-89600562D01*
X80713182Y-89780340D01*
X80656759Y-90064000D01*
X80671001Y-90135599D01*
X80671001Y-90161656D01*
X80148000Y-90161656D01*
X79961884Y-90198677D01*
X79804103Y-90304103D01*
X79698677Y-90461884D01*
X79661656Y-90648000D01*
X79661656Y-91498000D01*
X79698677Y-91684116D01*
X79804103Y-91841897D01*
X79961884Y-91947323D01*
X79965287Y-91948000D01*
X79961884Y-91948677D01*
X79804103Y-92054103D01*
X79698677Y-92211884D01*
X79661656Y-92398000D01*
X79661656Y-93248000D01*
X79698677Y-93434116D01*
X79804103Y-93591897D01*
X79961884Y-93697323D01*
X80148000Y-93734344D01*
X81868600Y-93734344D01*
X81741533Y-93861411D01*
X81471000Y-94514533D01*
X81471000Y-95221467D01*
X81741533Y-95874589D01*
X82241411Y-96374467D01*
X82796398Y-96604351D01*
X82633884Y-96636677D01*
X82476103Y-96742103D01*
X82431404Y-96809000D01*
X82317266Y-96809000D01*
X82196555Y-96759000D01*
X81887445Y-96759000D01*
X81601865Y-96877291D01*
X81383291Y-97095865D01*
X81265000Y-97381445D01*
X81265000Y-97521000D01*
X81125459Y-97521000D01*
X80839879Y-97639291D01*
X80621305Y-97857865D01*
X80503014Y-98143445D01*
X80503014Y-98452555D01*
X80507637Y-98463715D01*
X80486103Y-98478103D01*
X80380677Y-98635884D01*
X80343656Y-98822000D01*
X80343656Y-99322000D01*
X80380677Y-99508116D01*
X80486103Y-99665897D01*
X80643884Y-99771323D01*
X80830000Y-99808344D01*
X81116693Y-99808344D01*
X80979387Y-99835656D01*
X80830000Y-99835656D01*
X80643884Y-99872677D01*
X80486103Y-99978103D01*
X80380677Y-100135884D01*
X80343656Y-100322000D01*
X80343656Y-100471387D01*
X80283860Y-100772000D01*
X80359687Y-101153206D01*
X80575623Y-101476377D01*
X80851931Y-101661000D01*
X79837025Y-101661000D01*
X79866327Y-101631698D01*
X79963000Y-101398309D01*
X79963000Y-101107750D01*
X79804250Y-100949000D01*
X79055000Y-100949000D01*
X79055000Y-100969000D01*
X78801000Y-100969000D01*
X78801000Y-100949000D01*
X78781000Y-100949000D01*
X78781000Y-100695000D01*
X78801000Y-100695000D01*
X78801000Y-99895750D01*
X79055000Y-99895750D01*
X79055000Y-100695000D01*
X79804250Y-100695000D01*
X79963000Y-100536250D01*
X79963000Y-100245691D01*
X79866327Y-100012302D01*
X79687699Y-99833673D01*
X79454310Y-99737000D01*
X79213750Y-99737000D01*
X79055000Y-99895750D01*
X78801000Y-99895750D01*
X78642250Y-99737000D01*
X78485303Y-99737000D01*
X78564116Y-99721323D01*
X78721897Y-99615897D01*
X78827323Y-99458116D01*
X78864344Y-99272000D01*
X78864344Y-98372000D01*
X78827323Y-98185884D01*
X78721897Y-98028103D01*
X78675001Y-97996768D01*
X78675001Y-97554067D01*
X78894533Y-97645000D01*
X79601467Y-97645000D01*
X80254589Y-97374467D01*
X80754467Y-96874589D01*
X81025000Y-96221467D01*
X81025000Y-95514533D01*
X80754467Y-94861411D01*
X80254589Y-94361533D01*
X79601467Y-94091000D01*
X78894533Y-94091000D01*
X78241411Y-94361533D01*
X77741533Y-94861411D01*
X77471000Y-95514533D01*
X77471000Y-96221467D01*
X77586811Y-96501057D01*
X77484563Y-96603305D01*
X77423864Y-96643863D01*
X77263183Y-96884339D01*
X77221373Y-97094530D01*
X77166137Y-97011863D01*
X77163208Y-97009906D01*
X77141323Y-96899884D01*
X77035897Y-96742103D01*
X76878116Y-96636677D01*
X76692000Y-96599656D01*
X76192000Y-96599656D01*
X76005884Y-96636677D01*
X75848103Y-96742103D01*
X75742677Y-96899884D01*
X75705656Y-97086000D01*
X75705656Y-97986000D01*
X75742677Y-98172116D01*
X75848103Y-98329897D01*
X75915001Y-98374597D01*
X75915000Y-100070401D01*
X75915000Y-100364405D01*
X75900759Y-100436000D01*
X75915000Y-100507595D01*
X75915000Y-100507598D01*
X75957182Y-100719660D01*
X76117863Y-100960136D01*
X76141656Y-100976034D01*
X76141656Y-101272000D01*
X76178677Y-101458116D01*
X76284103Y-101615897D01*
X76351604Y-101661000D01*
X71299548Y-101661000D01*
X70850084Y-101596632D01*
X70471287Y-101424403D01*
X70467648Y-101421267D01*
X70651690Y-101497500D01*
X71342250Y-101497500D01*
X71501000Y-101338750D01*
X71501000Y-100139500D01*
X71755000Y-100139500D01*
X71755000Y-101338750D01*
X71913750Y-101497500D01*
X72604310Y-101497500D01*
X72837699Y-101400827D01*
X73016327Y-101222198D01*
X73103136Y-101012622D01*
X73401076Y-101284145D01*
X73811110Y-101453976D01*
X74041000Y-101332655D01*
X74041000Y-100139500D01*
X74295000Y-100139500D01*
X74295000Y-101332655D01*
X74524890Y-101453976D01*
X74934924Y-101284145D01*
X75363183Y-100893858D01*
X75609486Y-100369392D01*
X75488819Y-100139500D01*
X74295000Y-100139500D01*
X74041000Y-100139500D01*
X71755000Y-100139500D01*
X71501000Y-100139500D01*
X70301750Y-100139500D01*
X70143000Y-100298250D01*
X70143000Y-100988809D01*
X70239673Y-101222198D01*
X70258705Y-101241230D01*
X70156054Y-101152780D01*
X69929724Y-100803596D01*
X69805276Y-100387473D01*
X69789000Y-100168444D01*
X69789000Y-95963132D01*
X69945656Y-96119789D01*
X69945656Y-96224000D01*
X69982677Y-96410116D01*
X70088103Y-96567897D01*
X70245884Y-96673323D01*
X70324697Y-96689000D01*
X70305691Y-96689000D01*
X70072302Y-96785673D01*
X69893673Y-96964301D01*
X69797000Y-97197690D01*
X69797000Y-97438250D01*
X69955750Y-97597000D01*
X70755000Y-97597000D01*
X70755000Y-97577000D01*
X71009000Y-97577000D01*
X71009000Y-97597000D01*
X71808250Y-97597000D01*
X71967000Y-97438250D01*
X71967000Y-97281303D01*
X71982677Y-97360116D01*
X72088103Y-97517897D01*
X72245884Y-97623323D01*
X72432000Y-97660344D01*
X72469897Y-97660344D01*
X72375000Y-97889445D01*
X72375000Y-98198555D01*
X72493291Y-98484135D01*
X72536656Y-98527500D01*
X71913750Y-98527500D01*
X71755002Y-98686248D01*
X71755002Y-98599023D01*
X71870327Y-98483699D01*
X71967000Y-98250310D01*
X71967000Y-98009750D01*
X71808250Y-97851000D01*
X71009000Y-97851000D01*
X71009000Y-97871000D01*
X70755000Y-97871000D01*
X70755000Y-97851000D01*
X69955750Y-97851000D01*
X69797000Y-98009750D01*
X69797000Y-98250310D01*
X69893673Y-98483699D01*
X70072302Y-98662327D01*
X70289982Y-98752493D01*
X70239673Y-98802802D01*
X70143000Y-99036191D01*
X70143000Y-99726750D01*
X70301750Y-99885500D01*
X71501000Y-99885500D01*
X71501000Y-99865500D01*
X71755000Y-99865500D01*
X71755000Y-99885500D01*
X74041000Y-99885500D01*
X74041000Y-98692345D01*
X74295000Y-98692345D01*
X74295000Y-99885500D01*
X75488819Y-99885500D01*
X75609486Y-99655608D01*
X75363183Y-99131142D01*
X74934924Y-98740855D01*
X74524890Y-98571024D01*
X74295000Y-98692345D01*
X74041000Y-98692345D01*
X73876878Y-98605732D01*
X74068017Y-98478017D01*
X74101601Y-98427755D01*
X74288565Y-98240791D01*
X74348103Y-98329897D01*
X74505884Y-98435323D01*
X74692000Y-98472344D01*
X75192000Y-98472344D01*
X75378116Y-98435323D01*
X75535897Y-98329897D01*
X75641323Y-98172116D01*
X75678344Y-97986000D01*
X75678344Y-97086000D01*
X75641323Y-96899884D01*
X75535897Y-96742103D01*
X75390572Y-96645000D01*
X75601467Y-96645000D01*
X76254589Y-96374467D01*
X76754467Y-95874589D01*
X77025000Y-95221467D01*
X77025000Y-94514533D01*
X76763409Y-93883000D01*
X76812250Y-93883000D01*
X76971000Y-93724250D01*
X76971000Y-92950000D01*
X77225000Y-92950000D01*
X77225000Y-93724250D01*
X77383750Y-93883000D01*
X78474309Y-93883000D01*
X78707698Y-93786327D01*
X78886327Y-93607699D01*
X78983000Y-93374310D01*
X78983000Y-93108750D01*
X78824250Y-92950000D01*
X77225000Y-92950000D01*
X76971000Y-92950000D01*
X75371750Y-92950000D01*
X75230750Y-93091000D01*
X74894533Y-93091000D01*
X74241411Y-93361533D01*
X73741533Y-93861411D01*
X73471000Y-94514533D01*
X73471000Y-95221467D01*
X73586810Y-95501057D01*
X73200212Y-95887656D01*
X72432000Y-95887656D01*
X72245884Y-95924677D01*
X72088103Y-96030103D01*
X71982677Y-96187884D01*
X71945656Y-96374000D01*
X71945656Y-97146161D01*
X71870327Y-96964301D01*
X71691698Y-96785673D01*
X71458309Y-96689000D01*
X71439303Y-96689000D01*
X71518116Y-96673323D01*
X71675897Y-96567897D01*
X71781323Y-96410116D01*
X71818344Y-96224000D01*
X71818344Y-95424000D01*
X71781323Y-95237884D01*
X71675897Y-95080103D01*
X71518116Y-94974677D01*
X71332000Y-94937656D01*
X70897000Y-94937656D01*
X70897000Y-94818596D01*
X70963897Y-94773897D01*
X71069323Y-94616116D01*
X71106344Y-94430000D01*
X71106344Y-94055701D01*
X71133656Y-94083013D01*
X71133656Y-94430000D01*
X71170677Y-94616116D01*
X71276103Y-94773897D01*
X71433884Y-94879323D01*
X71620000Y-94916344D01*
X72120000Y-94916344D01*
X72306116Y-94879323D01*
X72463897Y-94773897D01*
X72569323Y-94616116D01*
X72606344Y-94430000D01*
X72606344Y-93530000D01*
X72569323Y-93343884D01*
X72463897Y-93186103D01*
X72306116Y-93080677D01*
X72120000Y-93043656D01*
X71797012Y-93043656D01*
X71722000Y-92968644D01*
X71722000Y-92952844D01*
X71778709Y-92896135D01*
X71897000Y-92610555D01*
X71897000Y-92301445D01*
X71778709Y-92015865D01*
X71560135Y-91797291D01*
X71274555Y-91679000D01*
X70965445Y-91679000D01*
X70679865Y-91797291D01*
X70461291Y-92015865D01*
X70343000Y-92301445D01*
X70343000Y-92610555D01*
X70461291Y-92896135D01*
X70518000Y-92952844D01*
X70518000Y-93043656D01*
X70120000Y-93043656D01*
X69933884Y-93080677D01*
X69789000Y-93177485D01*
X69789000Y-91393000D01*
X69834250Y-91393000D01*
X69993000Y-91234250D01*
X69993000Y-90485000D01*
X70247000Y-90485000D01*
X70247000Y-91234250D01*
X70405750Y-91393000D01*
X70696309Y-91393000D01*
X70929698Y-91296327D01*
X71108327Y-91117699D01*
X71205000Y-90884310D01*
X71205000Y-90643750D01*
X71046250Y-90485000D01*
X70247000Y-90485000D01*
X69993000Y-90485000D01*
X69973000Y-90485000D01*
X69973000Y-90231000D01*
X69993000Y-90231000D01*
X69993000Y-90211000D01*
X70247000Y-90211000D01*
X70247000Y-90231000D01*
X71046250Y-90231000D01*
X71205000Y-90072250D01*
X71205000Y-89915303D01*
X71220677Y-89994116D01*
X71326103Y-90151897D01*
X71483884Y-90257323D01*
X71670000Y-90294344D01*
X72058600Y-90294344D01*
X71991533Y-90361411D01*
X71721000Y-91014533D01*
X71721000Y-91721467D01*
X71991533Y-92374589D01*
X72491411Y-92874467D01*
X73144533Y-93145000D01*
X73851467Y-93145000D01*
X74504589Y-92874467D01*
X75004467Y-92374589D01*
X75275000Y-91721467D01*
X75275000Y-91014533D01*
X75164566Y-90747922D01*
X75361656Y-90945012D01*
X75361656Y-91498000D01*
X75398677Y-91684116D01*
X75504103Y-91841897D01*
X75514479Y-91848830D01*
X75488302Y-91859673D01*
X75309673Y-92038301D01*
X75213000Y-92271690D01*
X75213000Y-92537250D01*
X75371750Y-92696000D01*
X76971000Y-92696000D01*
X76971000Y-92676000D01*
X77225000Y-92676000D01*
X77225000Y-92696000D01*
X78824250Y-92696000D01*
X78983000Y-92537250D01*
X78983000Y-92271690D01*
X78886327Y-92038301D01*
X78707698Y-91859673D01*
X78681521Y-91848830D01*
X78691897Y-91841897D01*
X78797323Y-91684116D01*
X78834344Y-91498000D01*
X78834344Y-90648000D01*
X78797323Y-90461884D01*
X78691897Y-90304103D01*
X78534116Y-90198677D01*
X78348000Y-90161656D01*
X76281012Y-90161656D01*
X76040000Y-89920644D01*
X76040000Y-86419282D01*
X76051792Y-86359999D01*
X76040000Y-86300716D01*
X76040000Y-86300712D01*
X76005071Y-86125112D01*
X75967140Y-86068344D01*
X76356947Y-86068344D01*
X76271000Y-86275838D01*
X76271000Y-86275838D01*
G37*
X76271000Y-86275838D02*
X76271000Y-87460162D01*
X76724221Y-88554335D01*
X77561665Y-89391779D01*
X78655838Y-89845000D01*
X79840162Y-89845000D01*
X80934335Y-89391779D01*
X81421656Y-88904458D01*
X81421656Y-89012211D01*
X80934562Y-89499306D01*
X80873864Y-89539863D01*
X80833307Y-89600561D01*
X80833306Y-89600562D01*
X80713182Y-89780340D01*
X80656759Y-90064000D01*
X80671001Y-90135599D01*
X80671001Y-90161656D01*
X80148000Y-90161656D01*
X79961884Y-90198677D01*
X79804103Y-90304103D01*
X79698677Y-90461884D01*
X79661656Y-90648000D01*
X79661656Y-91498000D01*
X79698677Y-91684116D01*
X79804103Y-91841897D01*
X79961884Y-91947323D01*
X79965287Y-91948000D01*
X79961884Y-91948677D01*
X79804103Y-92054103D01*
X79698677Y-92211884D01*
X79661656Y-92398000D01*
X79661656Y-93248000D01*
X79698677Y-93434116D01*
X79804103Y-93591897D01*
X79961884Y-93697323D01*
X80148000Y-93734344D01*
X81868600Y-93734344D01*
X81741533Y-93861411D01*
X81471000Y-94514533D01*
X81471000Y-95221467D01*
X81741533Y-95874589D01*
X82241411Y-96374467D01*
X82796398Y-96604351D01*
X82633884Y-96636677D01*
X82476103Y-96742103D01*
X82431404Y-96809000D01*
X82317266Y-96809000D01*
X82196555Y-96759000D01*
X81887445Y-96759000D01*
X81601865Y-96877291D01*
X81383291Y-97095865D01*
X81265000Y-97381445D01*
X81265000Y-97521000D01*
X81125459Y-97521000D01*
X80839879Y-97639291D01*
X80621305Y-97857865D01*
X80503014Y-98143445D01*
X80503014Y-98452555D01*
X80507637Y-98463715D01*
X80486103Y-98478103D01*
X80380677Y-98635884D01*
X80343656Y-98822000D01*
X80343656Y-99322000D01*
X80380677Y-99508116D01*
X80486103Y-99665897D01*
X80643884Y-99771323D01*
X80830000Y-99808344D01*
X81116693Y-99808344D01*
X80979387Y-99835656D01*
X80830000Y-99835656D01*
X80643884Y-99872677D01*
X80486103Y-99978103D01*
X80380677Y-100135884D01*
X80343656Y-100322000D01*
X80343656Y-100471387D01*
X80283860Y-100772000D01*
X80359687Y-101153206D01*
X80575623Y-101476377D01*
X80851931Y-101661000D01*
X79837025Y-101661000D01*
X79866327Y-101631698D01*
X79963000Y-101398309D01*
X79963000Y-101107750D01*
X79804250Y-100949000D01*
X79055000Y-100949000D01*
X79055000Y-100969000D01*
X78801000Y-100969000D01*
X78801000Y-100949000D01*
X78781000Y-100949000D01*
X78781000Y-100695000D01*
X78801000Y-100695000D01*
X78801000Y-99895750D01*
X79055000Y-99895750D01*
X79055000Y-100695000D01*
X79804250Y-100695000D01*
X79963000Y-100536250D01*
X79963000Y-100245691D01*
X79866327Y-100012302D01*
X79687699Y-99833673D01*
X79454310Y-99737000D01*
X79213750Y-99737000D01*
X79055000Y-99895750D01*
X78801000Y-99895750D01*
X78642250Y-99737000D01*
X78485303Y-99737000D01*
X78564116Y-99721323D01*
X78721897Y-99615897D01*
X78827323Y-99458116D01*
X78864344Y-99272000D01*
X78864344Y-98372000D01*
X78827323Y-98185884D01*
X78721897Y-98028103D01*
X78675001Y-97996768D01*
X78675001Y-97554067D01*
X78894533Y-97645000D01*
X79601467Y-97645000D01*
X80254589Y-97374467D01*
X80754467Y-96874589D01*
X81025000Y-96221467D01*
X81025000Y-95514533D01*
X80754467Y-94861411D01*
X80254589Y-94361533D01*
X79601467Y-94091000D01*
X78894533Y-94091000D01*
X78241411Y-94361533D01*
X77741533Y-94861411D01*
X77471000Y-95514533D01*
X77471000Y-96221467D01*
X77586811Y-96501057D01*
X77484563Y-96603305D01*
X77423864Y-96643863D01*
X77263183Y-96884339D01*
X77221373Y-97094530D01*
X77166137Y-97011863D01*
X77163208Y-97009906D01*
X77141323Y-96899884D01*
X77035897Y-96742103D01*
X76878116Y-96636677D01*
X76692000Y-96599656D01*
X76192000Y-96599656D01*
X76005884Y-96636677D01*
X75848103Y-96742103D01*
X75742677Y-96899884D01*
X75705656Y-97086000D01*
X75705656Y-97986000D01*
X75742677Y-98172116D01*
X75848103Y-98329897D01*
X75915001Y-98374597D01*
X75915000Y-100070401D01*
X75915000Y-100364405D01*
X75900759Y-100436000D01*
X75915000Y-100507595D01*
X75915000Y-100507598D01*
X75957182Y-100719660D01*
X76117863Y-100960136D01*
X76141656Y-100976034D01*
X76141656Y-101272000D01*
X76178677Y-101458116D01*
X76284103Y-101615897D01*
X76351604Y-101661000D01*
X71299548Y-101661000D01*
X70850084Y-101596632D01*
X70471287Y-101424403D01*
X70467648Y-101421267D01*
X70651690Y-101497500D01*
X71342250Y-101497500D01*
X71501000Y-101338750D01*
X71501000Y-100139500D01*
X71755000Y-100139500D01*
X71755000Y-101338750D01*
X71913750Y-101497500D01*
X72604310Y-101497500D01*
X72837699Y-101400827D01*
X73016327Y-101222198D01*
X73103136Y-101012622D01*
X73401076Y-101284145D01*
X73811110Y-101453976D01*
X74041000Y-101332655D01*
X74041000Y-100139500D01*
X74295000Y-100139500D01*
X74295000Y-101332655D01*
X74524890Y-101453976D01*
X74934924Y-101284145D01*
X75363183Y-100893858D01*
X75609486Y-100369392D01*
X75488819Y-100139500D01*
X74295000Y-100139500D01*
X74041000Y-100139500D01*
X71755000Y-100139500D01*
X71501000Y-100139500D01*
X70301750Y-100139500D01*
X70143000Y-100298250D01*
X70143000Y-100988809D01*
X70239673Y-101222198D01*
X70258705Y-101241230D01*
X70156054Y-101152780D01*
X69929724Y-100803596D01*
X69805276Y-100387473D01*
X69789000Y-100168444D01*
X69789000Y-95963132D01*
X69945656Y-96119789D01*
X69945656Y-96224000D01*
X69982677Y-96410116D01*
X70088103Y-96567897D01*
X70245884Y-96673323D01*
X70324697Y-96689000D01*
X70305691Y-96689000D01*
X70072302Y-96785673D01*
X69893673Y-96964301D01*
X69797000Y-97197690D01*
X69797000Y-97438250D01*
X69955750Y-97597000D01*
X70755000Y-97597000D01*
X70755000Y-97577000D01*
X71009000Y-97577000D01*
X71009000Y-97597000D01*
X71808250Y-97597000D01*
X71967000Y-97438250D01*
X71967000Y-97281303D01*
X71982677Y-97360116D01*
X72088103Y-97517897D01*
X72245884Y-97623323D01*
X72432000Y-97660344D01*
X72469897Y-97660344D01*
X72375000Y-97889445D01*
X72375000Y-98198555D01*
X72493291Y-98484135D01*
X72536656Y-98527500D01*
X71913750Y-98527500D01*
X71755002Y-98686248D01*
X71755002Y-98599023D01*
X71870327Y-98483699D01*
X71967000Y-98250310D01*
X71967000Y-98009750D01*
X71808250Y-97851000D01*
X71009000Y-97851000D01*
X71009000Y-97871000D01*
X70755000Y-97871000D01*
X70755000Y-97851000D01*
X69955750Y-97851000D01*
X69797000Y-98009750D01*
X69797000Y-98250310D01*
X69893673Y-98483699D01*
X70072302Y-98662327D01*
X70289982Y-98752493D01*
X70239673Y-98802802D01*
X70143000Y-99036191D01*
X70143000Y-99726750D01*
X70301750Y-99885500D01*
X71501000Y-99885500D01*
X71501000Y-99865500D01*
X71755000Y-99865500D01*
X71755000Y-99885500D01*
X74041000Y-99885500D01*
X74041000Y-98692345D01*
X74295000Y-98692345D01*
X74295000Y-99885500D01*
X75488819Y-99885500D01*
X75609486Y-99655608D01*
X75363183Y-99131142D01*
X74934924Y-98740855D01*
X74524890Y-98571024D01*
X74295000Y-98692345D01*
X74041000Y-98692345D01*
X73876878Y-98605732D01*
X74068017Y-98478017D01*
X74101601Y-98427755D01*
X74288565Y-98240791D01*
X74348103Y-98329897D01*
X74505884Y-98435323D01*
X74692000Y-98472344D01*
X75192000Y-98472344D01*
X75378116Y-98435323D01*
X75535897Y-98329897D01*
X75641323Y-98172116D01*
X75678344Y-97986000D01*
X75678344Y-97086000D01*
X75641323Y-96899884D01*
X75535897Y-96742103D01*
X75390572Y-96645000D01*
X75601467Y-96645000D01*
X76254589Y-96374467D01*
X76754467Y-95874589D01*
X77025000Y-95221467D01*
X77025000Y-94514533D01*
X76763409Y-93883000D01*
X76812250Y-93883000D01*
X76971000Y-93724250D01*
X76971000Y-92950000D01*
X77225000Y-92950000D01*
X77225000Y-93724250D01*
X77383750Y-93883000D01*
X78474309Y-93883000D01*
X78707698Y-93786327D01*
X78886327Y-93607699D01*
X78983000Y-93374310D01*
X78983000Y-93108750D01*
X78824250Y-92950000D01*
X77225000Y-92950000D01*
X76971000Y-92950000D01*
X75371750Y-92950000D01*
X75230750Y-93091000D01*
X74894533Y-93091000D01*
X74241411Y-93361533D01*
X73741533Y-93861411D01*
X73471000Y-94514533D01*
X73471000Y-95221467D01*
X73586810Y-95501057D01*
X73200212Y-95887656D01*
X72432000Y-95887656D01*
X72245884Y-95924677D01*
X72088103Y-96030103D01*
X71982677Y-96187884D01*
X71945656Y-96374000D01*
X71945656Y-97146161D01*
X71870327Y-96964301D01*
X71691698Y-96785673D01*
X71458309Y-96689000D01*
X71439303Y-96689000D01*
X71518116Y-96673323D01*
X71675897Y-96567897D01*
X71781323Y-96410116D01*
X71818344Y-96224000D01*
X71818344Y-95424000D01*
X71781323Y-95237884D01*
X71675897Y-95080103D01*
X71518116Y-94974677D01*
X71332000Y-94937656D01*
X70897000Y-94937656D01*
X70897000Y-94818596D01*
X70963897Y-94773897D01*
X71069323Y-94616116D01*
X71106344Y-94430000D01*
X71106344Y-94055701D01*
X71133656Y-94083013D01*
X71133656Y-94430000D01*
X71170677Y-94616116D01*
X71276103Y-94773897D01*
X71433884Y-94879323D01*
X71620000Y-94916344D01*
X72120000Y-94916344D01*
X72306116Y-94879323D01*
X72463897Y-94773897D01*
X72569323Y-94616116D01*
X72606344Y-94430000D01*
X72606344Y-93530000D01*
X72569323Y-93343884D01*
X72463897Y-93186103D01*
X72306116Y-93080677D01*
X72120000Y-93043656D01*
X71797012Y-93043656D01*
X71722000Y-92968644D01*
X71722000Y-92952844D01*
X71778709Y-92896135D01*
X71897000Y-92610555D01*
X71897000Y-92301445D01*
X71778709Y-92015865D01*
X71560135Y-91797291D01*
X71274555Y-91679000D01*
X70965445Y-91679000D01*
X70679865Y-91797291D01*
X70461291Y-92015865D01*
X70343000Y-92301445D01*
X70343000Y-92610555D01*
X70461291Y-92896135D01*
X70518000Y-92952844D01*
X70518000Y-93043656D01*
X70120000Y-93043656D01*
X69933884Y-93080677D01*
X69789000Y-93177485D01*
X69789000Y-91393000D01*
X69834250Y-91393000D01*
X69993000Y-91234250D01*
X69993000Y-90485000D01*
X70247000Y-90485000D01*
X70247000Y-91234250D01*
X70405750Y-91393000D01*
X70696309Y-91393000D01*
X70929698Y-91296327D01*
X71108327Y-91117699D01*
X71205000Y-90884310D01*
X71205000Y-90643750D01*
X71046250Y-90485000D01*
X70247000Y-90485000D01*
X69993000Y-90485000D01*
X69973000Y-90485000D01*
X69973000Y-90231000D01*
X69993000Y-90231000D01*
X69993000Y-90211000D01*
X70247000Y-90211000D01*
X70247000Y-90231000D01*
X71046250Y-90231000D01*
X71205000Y-90072250D01*
X71205000Y-89915303D01*
X71220677Y-89994116D01*
X71326103Y-90151897D01*
X71483884Y-90257323D01*
X71670000Y-90294344D01*
X72058600Y-90294344D01*
X71991533Y-90361411D01*
X71721000Y-91014533D01*
X71721000Y-91721467D01*
X71991533Y-92374589D01*
X72491411Y-92874467D01*
X73144533Y-93145000D01*
X73851467Y-93145000D01*
X74504589Y-92874467D01*
X75004467Y-92374589D01*
X75275000Y-91721467D01*
X75275000Y-91014533D01*
X75164566Y-90747922D01*
X75361656Y-90945012D01*
X75361656Y-91498000D01*
X75398677Y-91684116D01*
X75504103Y-91841897D01*
X75514479Y-91848830D01*
X75488302Y-91859673D01*
X75309673Y-92038301D01*
X75213000Y-92271690D01*
X75213000Y-92537250D01*
X75371750Y-92696000D01*
X76971000Y-92696000D01*
X76971000Y-92676000D01*
X77225000Y-92676000D01*
X77225000Y-92696000D01*
X78824250Y-92696000D01*
X78983000Y-92537250D01*
X78983000Y-92271690D01*
X78886327Y-92038301D01*
X78707698Y-91859673D01*
X78681521Y-91848830D01*
X78691897Y-91841897D01*
X78797323Y-91684116D01*
X78834344Y-91498000D01*
X78834344Y-90648000D01*
X78797323Y-90461884D01*
X78691897Y-90304103D01*
X78534116Y-90198677D01*
X78348000Y-90161656D01*
X76281012Y-90161656D01*
X76040000Y-89920644D01*
X76040000Y-86419282D01*
X76051792Y-86359999D01*
X76040000Y-86300716D01*
X76040000Y-86300712D01*
X76005071Y-86125112D01*
X75967140Y-86068344D01*
X76356947Y-86068344D01*
X76271000Y-86275838D01*
G36*
X84060339Y-96458818D02*
X84272401Y-96501000D01*
X84272405Y-96501000D01*
X84344000Y-96515241D01*
X84415595Y-96501000D01*
X86333404Y-96501000D01*
X86378103Y-96567897D01*
X86535884Y-96673323D01*
X86722000Y-96710344D01*
X87494161Y-96710344D01*
X87312301Y-96785673D01*
X87133673Y-96964302D01*
X87037000Y-97197691D01*
X87037000Y-97216697D01*
X87021323Y-97137884D01*
X86915897Y-96980103D01*
X86758116Y-96874677D01*
X86572000Y-96837656D01*
X86149662Y-96837656D01*
X86005599Y-96809000D01*
X86005595Y-96809000D01*
X85934000Y-96794759D01*
X85862405Y-96809000D01*
X85208596Y-96809000D01*
X85163897Y-96742103D01*
X85006116Y-96636677D01*
X84820000Y-96599656D01*
X84320000Y-96599656D01*
X84133884Y-96636677D01*
X83976103Y-96742103D01*
X83870677Y-96899884D01*
X83833656Y-97086000D01*
X83833656Y-97917000D01*
X83806344Y-97917000D01*
X83806344Y-97086000D01*
X83769323Y-96899884D01*
X83663897Y-96742103D01*
X83518572Y-96645000D01*
X83601467Y-96645000D01*
X84056745Y-96456417D01*
X84060339Y-96458818D01*
X84060339Y-96458818D01*
G37*
X84060339Y-96458818D02*
X84272401Y-96501000D01*
X84272405Y-96501000D01*
X84344000Y-96515241D01*
X84415595Y-96501000D01*
X86333404Y-96501000D01*
X86378103Y-96567897D01*
X86535884Y-96673323D01*
X86722000Y-96710344D01*
X87494161Y-96710344D01*
X87312301Y-96785673D01*
X87133673Y-96964302D01*
X87037000Y-97197691D01*
X87037000Y-97216697D01*
X87021323Y-97137884D01*
X86915897Y-96980103D01*
X86758116Y-96874677D01*
X86572000Y-96837656D01*
X86149662Y-96837656D01*
X86005599Y-96809000D01*
X86005595Y-96809000D01*
X85934000Y-96794759D01*
X85862405Y-96809000D01*
X85208596Y-96809000D01*
X85163897Y-96742103D01*
X85006116Y-96636677D01*
X84820000Y-96599656D01*
X84320000Y-96599656D01*
X84133884Y-96636677D01*
X83976103Y-96742103D01*
X83870677Y-96899884D01*
X83833656Y-97086000D01*
X83833656Y-97917000D01*
X83806344Y-97917000D01*
X83806344Y-97086000D01*
X83769323Y-96899884D01*
X83663897Y-96742103D01*
X83518572Y-96645000D01*
X83601467Y-96645000D01*
X84056745Y-96456417D01*
X84060339Y-96458818D01*
G36*
X88735001Y-96745619D02*
X88598310Y-96689000D01*
X88357750Y-96689000D01*
X88199000Y-96847750D01*
X88199000Y-97647000D01*
X88219000Y-97647000D01*
X88219000Y-97901000D01*
X88199000Y-97901000D01*
X88199000Y-97917000D01*
X87945000Y-97917000D01*
X87945000Y-97901000D01*
X87925000Y-97901000D01*
X87925000Y-97647000D01*
X87945000Y-97647000D01*
X87945000Y-96847750D01*
X87786250Y-96689000D01*
X87629303Y-96689000D01*
X87708116Y-96673323D01*
X87865897Y-96567897D01*
X87971323Y-96410116D01*
X88008344Y-96224000D01*
X88008344Y-95324000D01*
X88005230Y-95308344D01*
X88735001Y-95308344D01*
X88735001Y-96745619D01*
X88735001Y-96745619D01*
G37*
X88735001Y-96745619D02*
X88598310Y-96689000D01*
X88357750Y-96689000D01*
X88199000Y-96847750D01*
X88199000Y-97647000D01*
X88219000Y-97647000D01*
X88219000Y-97901000D01*
X88199000Y-97901000D01*
X88199000Y-97917000D01*
X87945000Y-97917000D01*
X87945000Y-97901000D01*
X87925000Y-97901000D01*
X87925000Y-97647000D01*
X87945000Y-97647000D01*
X87945000Y-96847750D01*
X87786250Y-96689000D01*
X87629303Y-96689000D01*
X87708116Y-96673323D01*
X87865897Y-96567897D01*
X87971323Y-96410116D01*
X88008344Y-96224000D01*
X88008344Y-95324000D01*
X88005230Y-95308344D01*
X88735001Y-95308344D01*
X88735001Y-96745619D01*
G36*
X88248998Y-93535656D02*
X88111594Y-93535656D01*
X88248998Y-93398252D01*
X88248998Y-93535656D01*
X88248998Y-93535656D01*
G37*
X88248998Y-93535656D02*
X88111594Y-93535656D01*
X88248998Y-93398252D01*
X88248998Y-93535656D01*
G36*
X88640406Y-93535656D02*
X88503002Y-93535656D01*
X88503002Y-93398252D01*
X88640406Y-93535656D01*
X88640406Y-93535656D01*
G37*
X88640406Y-93535656D02*
X88503002Y-93535656D01*
X88503002Y-93398252D01*
X88640406Y-93535656D01*
G36*
X88503000Y-92395000D02*
X88523000Y-92395000D01*
X88523000Y-92649000D01*
X88503000Y-92649000D01*
X88503000Y-92669000D01*
X88249000Y-92669000D01*
X88249000Y-92649000D01*
X88229000Y-92649000D01*
X88229000Y-92395000D01*
X88249000Y-92395000D01*
X88249000Y-92375000D01*
X88503000Y-92375000D01*
X88503000Y-92395000D01*
X88503000Y-92395000D01*
G37*
X88503000Y-92395000D02*
X88523000Y-92395000D01*
X88523000Y-92649000D01*
X88503000Y-92649000D01*
X88503000Y-92669000D01*
X88249000Y-92669000D01*
X88249000Y-92649000D01*
X88229000Y-92649000D01*
X88229000Y-92395000D01*
X88249000Y-92395000D01*
X88249000Y-92375000D01*
X88503000Y-92375000D01*
X88503000Y-92395000D01*
G36*
X87897656Y-86711677D02*
X87897656Y-87318000D01*
X87934677Y-87504116D01*
X88040103Y-87661897D01*
X88197884Y-87767323D01*
X88384000Y-87804344D01*
X88735001Y-87804344D01*
X88735001Y-91487000D01*
X88661750Y-91487000D01*
X88503002Y-91645748D01*
X88503002Y-91487000D01*
X88441869Y-91487000D01*
X88529323Y-91356116D01*
X88566344Y-91170000D01*
X88566344Y-90670000D01*
X88529323Y-90483884D01*
X88423897Y-90326103D01*
X88266116Y-90220677D01*
X88080000Y-90183656D01*
X87180000Y-90183656D01*
X86993884Y-90220677D01*
X86836103Y-90326103D01*
X86730677Y-90483884D01*
X86693656Y-90670000D01*
X86693656Y-90818152D01*
X86504467Y-90361411D01*
X86004589Y-89861533D01*
X85351467Y-89591000D01*
X84843000Y-89591000D01*
X84843000Y-89439750D01*
X84684250Y-89281000D01*
X83935000Y-89281000D01*
X83935000Y-89301000D01*
X83681000Y-89301000D01*
X83681000Y-89281000D01*
X83661000Y-89281000D01*
X83661000Y-89027000D01*
X83681000Y-89027000D01*
X83681000Y-89007000D01*
X83935000Y-89007000D01*
X83935000Y-89027000D01*
X84684250Y-89027000D01*
X84843000Y-88868250D01*
X84843000Y-88652690D01*
X84839815Y-88645000D01*
X85351467Y-88645000D01*
X85722180Y-88491445D01*
X86599000Y-88491445D01*
X86599000Y-88800555D01*
X86712594Y-89074795D01*
X86693656Y-89170000D01*
X86693656Y-89670000D01*
X86730677Y-89856116D01*
X86836103Y-90013897D01*
X86993884Y-90119323D01*
X87180000Y-90156344D01*
X88080000Y-90156344D01*
X88266116Y-90119323D01*
X88423897Y-90013897D01*
X88529323Y-89856116D01*
X88566344Y-89670000D01*
X88566344Y-89170000D01*
X88529323Y-88983884D01*
X88423897Y-88826103D01*
X88266116Y-88720677D01*
X88205734Y-88708666D01*
X88197071Y-88665112D01*
X88173519Y-88629863D01*
X88153000Y-88599155D01*
X88153000Y-88491445D01*
X88034709Y-88205865D01*
X87914710Y-88085866D01*
X87868016Y-88015984D01*
X87668888Y-87882930D01*
X87433999Y-87836208D01*
X87269142Y-87869000D01*
X87221445Y-87869000D01*
X86935865Y-87987291D01*
X86717291Y-88205865D01*
X86599000Y-88491445D01*
X85722180Y-88491445D01*
X86004589Y-88374467D01*
X86504467Y-87874589D01*
X86581194Y-87689353D01*
X86697884Y-87767323D01*
X86884000Y-87804344D01*
X87384000Y-87804344D01*
X87570116Y-87767323D01*
X87727897Y-87661897D01*
X87833323Y-87504116D01*
X87870344Y-87318000D01*
X87870344Y-86670801D01*
X87897656Y-86711677D01*
X87897656Y-86711677D01*
G37*
X87897656Y-86711677D02*
X87897656Y-87318000D01*
X87934677Y-87504116D01*
X88040103Y-87661897D01*
X88197884Y-87767323D01*
X88384000Y-87804344D01*
X88735001Y-87804344D01*
X88735001Y-91487000D01*
X88661750Y-91487000D01*
X88503002Y-91645748D01*
X88503002Y-91487000D01*
X88441869Y-91487000D01*
X88529323Y-91356116D01*
X88566344Y-91170000D01*
X88566344Y-90670000D01*
X88529323Y-90483884D01*
X88423897Y-90326103D01*
X88266116Y-90220677D01*
X88080000Y-90183656D01*
X87180000Y-90183656D01*
X86993884Y-90220677D01*
X86836103Y-90326103D01*
X86730677Y-90483884D01*
X86693656Y-90670000D01*
X86693656Y-90818152D01*
X86504467Y-90361411D01*
X86004589Y-89861533D01*
X85351467Y-89591000D01*
X84843000Y-89591000D01*
X84843000Y-89439750D01*
X84684250Y-89281000D01*
X83935000Y-89281000D01*
X83935000Y-89301000D01*
X83681000Y-89301000D01*
X83681000Y-89281000D01*
X83661000Y-89281000D01*
X83661000Y-89027000D01*
X83681000Y-89027000D01*
X83681000Y-89007000D01*
X83935000Y-89007000D01*
X83935000Y-89027000D01*
X84684250Y-89027000D01*
X84843000Y-88868250D01*
X84843000Y-88652690D01*
X84839815Y-88645000D01*
X85351467Y-88645000D01*
X85722180Y-88491445D01*
X86599000Y-88491445D01*
X86599000Y-88800555D01*
X86712594Y-89074795D01*
X86693656Y-89170000D01*
X86693656Y-89670000D01*
X86730677Y-89856116D01*
X86836103Y-90013897D01*
X86993884Y-90119323D01*
X87180000Y-90156344D01*
X88080000Y-90156344D01*
X88266116Y-90119323D01*
X88423897Y-90013897D01*
X88529323Y-89856116D01*
X88566344Y-89670000D01*
X88566344Y-89170000D01*
X88529323Y-88983884D01*
X88423897Y-88826103D01*
X88266116Y-88720677D01*
X88205734Y-88708666D01*
X88197071Y-88665112D01*
X88173519Y-88629863D01*
X88153000Y-88599155D01*
X88153000Y-88491445D01*
X88034709Y-88205865D01*
X87914710Y-88085866D01*
X87868016Y-88015984D01*
X87668888Y-87882930D01*
X87433999Y-87836208D01*
X87269142Y-87869000D01*
X87221445Y-87869000D01*
X86935865Y-87987291D01*
X86717291Y-88205865D01*
X86599000Y-88491445D01*
X85722180Y-88491445D01*
X86004589Y-88374467D01*
X86504467Y-87874589D01*
X86581194Y-87689353D01*
X86697884Y-87767323D01*
X86884000Y-87804344D01*
X87384000Y-87804344D01*
X87570116Y-87767323D01*
X87727897Y-87661897D01*
X87833323Y-87504116D01*
X87870344Y-87318000D01*
X87870344Y-86670801D01*
X87897656Y-86711677D01*
G36*
X71991533Y-87874589D02*
X72491411Y-88374467D01*
X73144533Y-88645000D01*
X73851467Y-88645000D01*
X74504589Y-88374467D01*
X74836001Y-88043055D01*
X74836000Y-90110717D01*
X74824208Y-90170000D01*
X74826977Y-90183921D01*
X74504589Y-89861533D01*
X73851467Y-89591000D01*
X73601133Y-89591000D01*
X73056344Y-89046212D01*
X73056344Y-89008000D01*
X73019323Y-88821884D01*
X72913897Y-88664103D01*
X72756116Y-88558677D01*
X72570000Y-88521656D01*
X71670000Y-88521656D01*
X71483884Y-88558677D01*
X71326103Y-88664103D01*
X71220677Y-88821884D01*
X71183656Y-89008000D01*
X71183656Y-89780161D01*
X71108327Y-89598301D01*
X70929698Y-89419673D01*
X70696309Y-89323000D01*
X70677303Y-89323000D01*
X70756116Y-89307323D01*
X70913897Y-89201897D01*
X71019323Y-89044116D01*
X71056344Y-88858000D01*
X71056344Y-88058000D01*
X71019323Y-87871884D01*
X70953071Y-87772731D01*
X71112000Y-87804344D01*
X71612000Y-87804344D01*
X71798116Y-87767323D01*
X71914806Y-87689353D01*
X71991533Y-87874589D01*
X71991533Y-87874589D01*
G37*
X71991533Y-87874589D02*
X72491411Y-88374467D01*
X73144533Y-88645000D01*
X73851467Y-88645000D01*
X74504589Y-88374467D01*
X74836001Y-88043055D01*
X74836000Y-90110717D01*
X74824208Y-90170000D01*
X74826977Y-90183921D01*
X74504589Y-89861533D01*
X73851467Y-89591000D01*
X73601133Y-89591000D01*
X73056344Y-89046212D01*
X73056344Y-89008000D01*
X73019323Y-88821884D01*
X72913897Y-88664103D01*
X72756116Y-88558677D01*
X72570000Y-88521656D01*
X71670000Y-88521656D01*
X71483884Y-88558677D01*
X71326103Y-88664103D01*
X71220677Y-88821884D01*
X71183656Y-89008000D01*
X71183656Y-89780161D01*
X71108327Y-89598301D01*
X70929698Y-89419673D01*
X70696309Y-89323000D01*
X70677303Y-89323000D01*
X70756116Y-89307323D01*
X70913897Y-89201897D01*
X71019323Y-89044116D01*
X71056344Y-88858000D01*
X71056344Y-88058000D01*
X71019323Y-87871884D01*
X70953071Y-87772731D01*
X71112000Y-87804344D01*
X71612000Y-87804344D01*
X71798116Y-87767323D01*
X71914806Y-87689353D01*
X71991533Y-87874589D01*
G36*
X70247000Y-85151000D02*
X70267000Y-85151000D01*
X70267000Y-85405000D01*
X70247000Y-85405000D01*
X70247000Y-85425000D01*
X69993000Y-85425000D01*
X69993000Y-85405000D01*
X69973000Y-85405000D01*
X69973000Y-85151000D01*
X69993000Y-85151000D01*
X69993000Y-85131000D01*
X70247000Y-85131000D01*
X70247000Y-85151000D01*
X70247000Y-85151000D01*
G37*
X70247000Y-85151000D02*
X70267000Y-85151000D01*
X70267000Y-85405000D01*
X70247000Y-85405000D01*
X70247000Y-85425000D01*
X69993000Y-85425000D01*
X69993000Y-85405000D01*
X69973000Y-85405000D01*
X69973000Y-85151000D01*
X69993000Y-85151000D01*
X69993000Y-85131000D01*
X70247000Y-85131000D01*
X70247000Y-85151000D01*
G36*
X69992998Y-84401748D02*
X69855594Y-84264344D01*
X69992998Y-84264344D01*
X69992998Y-84401748D01*
X69992998Y-84401748D01*
G37*
X69992998Y-84401748D02*
X69855594Y-84264344D01*
X69992998Y-84264344D01*
X69992998Y-84401748D01*
G36*
X78547000Y-82407000D02*
X78567000Y-82407000D01*
X78567000Y-82661000D01*
X78547000Y-82661000D01*
X78547000Y-83460250D01*
X78705750Y-83619000D01*
X78946310Y-83619000D01*
X79179699Y-83522327D01*
X79357295Y-83344730D01*
X79489884Y-83433323D01*
X79502348Y-83435802D01*
X79508929Y-83468888D01*
X79546423Y-83525001D01*
X79608399Y-83617755D01*
X79608401Y-83617757D01*
X79641984Y-83668017D01*
X79692243Y-83701599D01*
X79910976Y-83920332D01*
X79840162Y-83891000D01*
X78655838Y-83891000D01*
X77951692Y-84182666D01*
X78037070Y-84054889D01*
X78037071Y-84054888D01*
X78072000Y-83879288D01*
X78072000Y-83879283D01*
X78083792Y-83820000D01*
X78072000Y-83760717D01*
X78072000Y-83619000D01*
X78134250Y-83619000D01*
X78293000Y-83460250D01*
X78293000Y-82661000D01*
X78273000Y-82661000D01*
X78273000Y-82407000D01*
X78293000Y-82407000D01*
X78293000Y-82387000D01*
X78547000Y-82387000D01*
X78547000Y-82407000D01*
X78547000Y-82407000D01*
G37*
X78547000Y-82407000D02*
X78567000Y-82407000D01*
X78567000Y-82661000D01*
X78547000Y-82661000D01*
X78547000Y-83460250D01*
X78705750Y-83619000D01*
X78946310Y-83619000D01*
X79179699Y-83522327D01*
X79357295Y-83344730D01*
X79489884Y-83433323D01*
X79502348Y-83435802D01*
X79508929Y-83468888D01*
X79546423Y-83525001D01*
X79608399Y-83617755D01*
X79608401Y-83617757D01*
X79641984Y-83668017D01*
X79692243Y-83701599D01*
X79910976Y-83920332D01*
X79840162Y-83891000D01*
X78655838Y-83891000D01*
X77951692Y-84182666D01*
X78037070Y-84054889D01*
X78037071Y-84054888D01*
X78072000Y-83879288D01*
X78072000Y-83879283D01*
X78083792Y-83820000D01*
X78072000Y-83760717D01*
X78072000Y-83619000D01*
X78134250Y-83619000D01*
X78293000Y-83460250D01*
X78293000Y-82661000D01*
X78273000Y-82661000D01*
X78273000Y-82407000D01*
X78293000Y-82407000D01*
X78293000Y-82387000D01*
X78547000Y-82387000D01*
X78547000Y-82407000D01*
G36*
X87222677Y-79392116D02*
X87328103Y-79549897D01*
X87485884Y-79655323D01*
X87672000Y-79692344D01*
X88472000Y-79692344D01*
X88658116Y-79655323D01*
X88735000Y-79603950D01*
X88735001Y-82343000D01*
X88661750Y-82343000D01*
X88503000Y-82501750D01*
X88503000Y-83251000D01*
X88523000Y-83251000D01*
X88523000Y-83505000D01*
X88503000Y-83505000D01*
X88503000Y-83525000D01*
X88249000Y-83525000D01*
X88249000Y-83505000D01*
X87449750Y-83505000D01*
X87291000Y-83663750D01*
X87291000Y-83820697D01*
X87275323Y-83741884D01*
X87169897Y-83584103D01*
X87012116Y-83478677D01*
X86826000Y-83441656D01*
X86437400Y-83441656D01*
X86504467Y-83374589D01*
X86721059Y-82851690D01*
X87291000Y-82851690D01*
X87291000Y-83092250D01*
X87449750Y-83251000D01*
X88249000Y-83251000D01*
X88249000Y-82501750D01*
X88090250Y-82343000D01*
X87799691Y-82343000D01*
X87566302Y-82439673D01*
X87387673Y-82618301D01*
X87291000Y-82851690D01*
X86721059Y-82851690D01*
X86775000Y-82721467D01*
X86775000Y-82014533D01*
X86739442Y-81928690D01*
X86975788Y-81692344D01*
X87522000Y-81692344D01*
X87708116Y-81655323D01*
X87865897Y-81549897D01*
X87971323Y-81392116D01*
X88008344Y-81206000D01*
X88008344Y-80306000D01*
X87971323Y-80119884D01*
X87865897Y-79962103D01*
X87708116Y-79856677D01*
X87522000Y-79819656D01*
X86749839Y-79819656D01*
X86931699Y-79744327D01*
X87110327Y-79565698D01*
X87207000Y-79332309D01*
X87207000Y-79313303D01*
X87222677Y-79392116D01*
X87222677Y-79392116D01*
G37*
X87222677Y-79392116D02*
X87328103Y-79549897D01*
X87485884Y-79655323D01*
X87672000Y-79692344D01*
X88472000Y-79692344D01*
X88658116Y-79655323D01*
X88735000Y-79603950D01*
X88735001Y-82343000D01*
X88661750Y-82343000D01*
X88503000Y-82501750D01*
X88503000Y-83251000D01*
X88523000Y-83251000D01*
X88523000Y-83505000D01*
X88503000Y-83505000D01*
X88503000Y-83525000D01*
X88249000Y-83525000D01*
X88249000Y-83505000D01*
X87449750Y-83505000D01*
X87291000Y-83663750D01*
X87291000Y-83820697D01*
X87275323Y-83741884D01*
X87169897Y-83584103D01*
X87012116Y-83478677D01*
X86826000Y-83441656D01*
X86437400Y-83441656D01*
X86504467Y-83374589D01*
X86721059Y-82851690D01*
X87291000Y-82851690D01*
X87291000Y-83092250D01*
X87449750Y-83251000D01*
X88249000Y-83251000D01*
X88249000Y-82501750D01*
X88090250Y-82343000D01*
X87799691Y-82343000D01*
X87566302Y-82439673D01*
X87387673Y-82618301D01*
X87291000Y-82851690D01*
X86721059Y-82851690D01*
X86775000Y-82721467D01*
X86775000Y-82014533D01*
X86739442Y-81928690D01*
X86975788Y-81692344D01*
X87522000Y-81692344D01*
X87708116Y-81655323D01*
X87865897Y-81549897D01*
X87971323Y-81392116D01*
X88008344Y-81206000D01*
X88008344Y-80306000D01*
X87971323Y-80119884D01*
X87865897Y-79962103D01*
X87708116Y-79856677D01*
X87522000Y-79819656D01*
X86749839Y-79819656D01*
X86931699Y-79744327D01*
X87110327Y-79565698D01*
X87207000Y-79332309D01*
X87207000Y-79313303D01*
X87222677Y-79392116D01*
G36*
X83098401Y-76583758D02*
X83131983Y-76634017D01*
X83182242Y-76667599D01*
X83182244Y-76667601D01*
X83331110Y-76767070D01*
X83331111Y-76767070D01*
X83331112Y-76767071D01*
X83506712Y-76802000D01*
X83506716Y-76802000D01*
X83565999Y-76813792D01*
X83625282Y-76802000D01*
X85902368Y-76802000D01*
X86192123Y-77091755D01*
X86225707Y-77142017D01*
X86356006Y-77229080D01*
X86424834Y-77275070D01*
X86424835Y-77275070D01*
X86424836Y-77275071D01*
X86583844Y-77306700D01*
X86643853Y-77366709D01*
X86929433Y-77485000D01*
X87201656Y-77485000D01*
X87201656Y-77708000D01*
X87238677Y-77894116D01*
X87306104Y-77995027D01*
X87222677Y-78119884D01*
X87207000Y-78198697D01*
X87207000Y-78179691D01*
X87110327Y-77946302D01*
X86931699Y-77767673D01*
X86698310Y-77671000D01*
X86457750Y-77671000D01*
X86299000Y-77829750D01*
X86299000Y-78629000D01*
X86319000Y-78629000D01*
X86319000Y-78883000D01*
X86299000Y-78883000D01*
X86299000Y-79682250D01*
X86457750Y-79841000D01*
X86614697Y-79841000D01*
X86535884Y-79856677D01*
X86378103Y-79962103D01*
X86272677Y-80119884D01*
X86235656Y-80306000D01*
X86235656Y-80376211D01*
X85824804Y-80787063D01*
X85351467Y-80591000D01*
X84644533Y-80591000D01*
X83991411Y-80861533D01*
X83491533Y-81361411D01*
X83221000Y-82014533D01*
X83221000Y-82030498D01*
X83212555Y-82027000D01*
X83011000Y-82027000D01*
X83011000Y-81957691D01*
X82914327Y-81724302D01*
X82735699Y-81545673D01*
X82502310Y-81449000D01*
X82261750Y-81449000D01*
X82103000Y-81607750D01*
X82103000Y-82407000D01*
X82123000Y-82407000D01*
X82123000Y-82661000D01*
X82103000Y-82661000D01*
X82103000Y-82681000D01*
X81849000Y-82681000D01*
X81849000Y-82661000D01*
X81829000Y-82661000D01*
X81829000Y-82407000D01*
X81849000Y-82407000D01*
X81849000Y-81607750D01*
X81690250Y-81449000D01*
X81533303Y-81449000D01*
X81612116Y-81433323D01*
X81769897Y-81327897D01*
X81875323Y-81170116D01*
X81912344Y-80984000D01*
X81912344Y-80659788D01*
X82219538Y-80352594D01*
X82241411Y-80374467D01*
X82894533Y-80645000D01*
X83601467Y-80645000D01*
X84254589Y-80374467D01*
X84754467Y-79874589D01*
X85025000Y-79221467D01*
X85025000Y-79041750D01*
X85137000Y-79041750D01*
X85137000Y-79332309D01*
X85233673Y-79565698D01*
X85412301Y-79744327D01*
X85645690Y-79841000D01*
X85886250Y-79841000D01*
X86045000Y-79682250D01*
X86045000Y-78883000D01*
X85295750Y-78883000D01*
X85137000Y-79041750D01*
X85025000Y-79041750D01*
X85025000Y-78514533D01*
X84886304Y-78179691D01*
X85137000Y-78179691D01*
X85137000Y-78470250D01*
X85295750Y-78629000D01*
X86045000Y-78629000D01*
X86045000Y-77829750D01*
X85886250Y-77671000D01*
X85645690Y-77671000D01*
X85412301Y-77767673D01*
X85233673Y-77946302D01*
X85137000Y-78179691D01*
X84886304Y-78179691D01*
X84754467Y-77861411D01*
X84254589Y-77361533D01*
X83601467Y-77091000D01*
X82894533Y-77091000D01*
X82426655Y-77284802D01*
X82563546Y-77011021D01*
X82609071Y-76942888D01*
X82628265Y-76846392D01*
X82654248Y-76751512D01*
X82644000Y-76670220D01*
X82644000Y-76442844D01*
X82700709Y-76386135D01*
X82759308Y-76244665D01*
X83098401Y-76583758D01*
X83098401Y-76583758D01*
G37*
X83098401Y-76583758D02*
X83131983Y-76634017D01*
X83182242Y-76667599D01*
X83182244Y-76667601D01*
X83331110Y-76767070D01*
X83331111Y-76767070D01*
X83331112Y-76767071D01*
X83506712Y-76802000D01*
X83506716Y-76802000D01*
X83565999Y-76813792D01*
X83625282Y-76802000D01*
X85902368Y-76802000D01*
X86192123Y-77091755D01*
X86225707Y-77142017D01*
X86356006Y-77229080D01*
X86424834Y-77275070D01*
X86424835Y-77275070D01*
X86424836Y-77275071D01*
X86583844Y-77306700D01*
X86643853Y-77366709D01*
X86929433Y-77485000D01*
X87201656Y-77485000D01*
X87201656Y-77708000D01*
X87238677Y-77894116D01*
X87306104Y-77995027D01*
X87222677Y-78119884D01*
X87207000Y-78198697D01*
X87207000Y-78179691D01*
X87110327Y-77946302D01*
X86931699Y-77767673D01*
X86698310Y-77671000D01*
X86457750Y-77671000D01*
X86299000Y-77829750D01*
X86299000Y-78629000D01*
X86319000Y-78629000D01*
X86319000Y-78883000D01*
X86299000Y-78883000D01*
X86299000Y-79682250D01*
X86457750Y-79841000D01*
X86614697Y-79841000D01*
X86535884Y-79856677D01*
X86378103Y-79962103D01*
X86272677Y-80119884D01*
X86235656Y-80306000D01*
X86235656Y-80376211D01*
X85824804Y-80787063D01*
X85351467Y-80591000D01*
X84644533Y-80591000D01*
X83991411Y-80861533D01*
X83491533Y-81361411D01*
X83221000Y-82014533D01*
X83221000Y-82030498D01*
X83212555Y-82027000D01*
X83011000Y-82027000D01*
X83011000Y-81957691D01*
X82914327Y-81724302D01*
X82735699Y-81545673D01*
X82502310Y-81449000D01*
X82261750Y-81449000D01*
X82103000Y-81607750D01*
X82103000Y-82407000D01*
X82123000Y-82407000D01*
X82123000Y-82661000D01*
X82103000Y-82661000D01*
X82103000Y-82681000D01*
X81849000Y-82681000D01*
X81849000Y-82661000D01*
X81829000Y-82661000D01*
X81829000Y-82407000D01*
X81849000Y-82407000D01*
X81849000Y-81607750D01*
X81690250Y-81449000D01*
X81533303Y-81449000D01*
X81612116Y-81433323D01*
X81769897Y-81327897D01*
X81875323Y-81170116D01*
X81912344Y-80984000D01*
X81912344Y-80659788D01*
X82219538Y-80352594D01*
X82241411Y-80374467D01*
X82894533Y-80645000D01*
X83601467Y-80645000D01*
X84254589Y-80374467D01*
X84754467Y-79874589D01*
X85025000Y-79221467D01*
X85025000Y-79041750D01*
X85137000Y-79041750D01*
X85137000Y-79332309D01*
X85233673Y-79565698D01*
X85412301Y-79744327D01*
X85645690Y-79841000D01*
X85886250Y-79841000D01*
X86045000Y-79682250D01*
X86045000Y-78883000D01*
X85295750Y-78883000D01*
X85137000Y-79041750D01*
X85025000Y-79041750D01*
X85025000Y-78514533D01*
X84886304Y-78179691D01*
X85137000Y-78179691D01*
X85137000Y-78470250D01*
X85295750Y-78629000D01*
X86045000Y-78629000D01*
X86045000Y-77829750D01*
X85886250Y-77671000D01*
X85645690Y-77671000D01*
X85412301Y-77767673D01*
X85233673Y-77946302D01*
X85137000Y-78179691D01*
X84886304Y-78179691D01*
X84754467Y-77861411D01*
X84254589Y-77361533D01*
X83601467Y-77091000D01*
X82894533Y-77091000D01*
X82426655Y-77284802D01*
X82563546Y-77011021D01*
X82609071Y-76942888D01*
X82628265Y-76846392D01*
X82654248Y-76751512D01*
X82644000Y-76670220D01*
X82644000Y-76442844D01*
X82700709Y-76386135D01*
X82759308Y-76244665D01*
X83098401Y-76583758D01*
G36*
X80139656Y-80984000D02*
X80176677Y-81170116D01*
X80282103Y-81327897D01*
X80439884Y-81433323D01*
X80626000Y-81470344D01*
X81398161Y-81470344D01*
X81216301Y-81545673D01*
X81037673Y-81724302D01*
X80941000Y-81957691D01*
X80941000Y-81976697D01*
X80925323Y-81897884D01*
X80819897Y-81740103D01*
X80662116Y-81634677D01*
X80476000Y-81597656D01*
X79676000Y-81597656D01*
X79489884Y-81634677D01*
X79357295Y-81723270D01*
X79179699Y-81545673D01*
X78946310Y-81449000D01*
X78914356Y-81449000D01*
X80112603Y-80250754D01*
X80139656Y-80237228D01*
X80139656Y-80984000D01*
X80139656Y-80984000D01*
G37*
X80139656Y-80984000D02*
X80176677Y-81170116D01*
X80282103Y-81327897D01*
X80439884Y-81433323D01*
X80626000Y-81470344D01*
X81398161Y-81470344D01*
X81216301Y-81545673D01*
X81037673Y-81724302D01*
X80941000Y-81957691D01*
X80941000Y-81976697D01*
X80925323Y-81897884D01*
X80819897Y-81740103D01*
X80662116Y-81634677D01*
X80476000Y-81597656D01*
X79676000Y-81597656D01*
X79489884Y-81634677D01*
X79357295Y-81723270D01*
X79179699Y-81545673D01*
X78946310Y-81449000D01*
X78914356Y-81449000D01*
X80112603Y-80250754D01*
X80139656Y-80237228D01*
X80139656Y-80984000D01*
G36*
X69908000Y-75400344D02*
X70442988Y-75400344D01*
X71118401Y-76075758D01*
X71151983Y-76126017D01*
X71202242Y-76159599D01*
X71202244Y-76159601D01*
X71262706Y-76200000D01*
X71273826Y-76207430D01*
X71194677Y-76325884D01*
X71157656Y-76512000D01*
X71157656Y-77412000D01*
X71194677Y-77598116D01*
X71258327Y-77693374D01*
X71204310Y-77671000D01*
X70963750Y-77671000D01*
X70805000Y-77829750D01*
X70805000Y-78629000D01*
X70825000Y-78629000D01*
X70825000Y-78883000D01*
X70805000Y-78883000D01*
X70805000Y-78903000D01*
X70551000Y-78903000D01*
X70551000Y-78883000D01*
X70531000Y-78883000D01*
X70531000Y-78629000D01*
X70551000Y-78629000D01*
X70551000Y-77829750D01*
X70392250Y-77671000D01*
X70151690Y-77671000D01*
X69918301Y-77767673D01*
X69789000Y-77896975D01*
X69789000Y-75376673D01*
X69908000Y-75400344D01*
X69908000Y-75400344D01*
G37*
X69908000Y-75400344D02*
X70442988Y-75400344D01*
X71118401Y-76075758D01*
X71151983Y-76126017D01*
X71202242Y-76159599D01*
X71202244Y-76159601D01*
X71262706Y-76200000D01*
X71273826Y-76207430D01*
X71194677Y-76325884D01*
X71157656Y-76512000D01*
X71157656Y-77412000D01*
X71194677Y-77598116D01*
X71258327Y-77693374D01*
X71204310Y-77671000D01*
X70963750Y-77671000D01*
X70805000Y-77829750D01*
X70805000Y-78629000D01*
X70825000Y-78629000D01*
X70825000Y-78883000D01*
X70805000Y-78883000D01*
X70805000Y-78903000D01*
X70551000Y-78903000D01*
X70551000Y-78883000D01*
X70531000Y-78883000D01*
X70531000Y-78629000D01*
X70551000Y-78629000D01*
X70551000Y-77829750D01*
X70392250Y-77671000D01*
X70151690Y-77671000D01*
X69918301Y-77767673D01*
X69789000Y-77896975D01*
X69789000Y-75376673D01*
X69908000Y-75400344D01*
G36*
X77977000Y-69154763D02*
X77977000Y-69296250D01*
X78135750Y-69455000D01*
X78203310Y-69455000D01*
X78436699Y-69358327D01*
X78488682Y-69306344D01*
X78727000Y-69306344D01*
X78852000Y-69281480D01*
X78977000Y-69306344D01*
X79377000Y-69306344D01*
X79502000Y-69281480D01*
X79627000Y-69306344D01*
X80027000Y-69306344D01*
X80152000Y-69281480D01*
X80277000Y-69306344D01*
X80677000Y-69306344D01*
X80802000Y-69281480D01*
X80927000Y-69306344D01*
X81327000Y-69306344D01*
X81452000Y-69281480D01*
X81577000Y-69306344D01*
X81694000Y-69306344D01*
X81694000Y-69536717D01*
X81682208Y-69596000D01*
X81694000Y-69655283D01*
X81694000Y-69655287D01*
X81728929Y-69830887D01*
X81773000Y-69896844D01*
X81773000Y-70004555D01*
X81891291Y-70290135D01*
X82109865Y-70508709D01*
X82395445Y-70627000D01*
X82613071Y-70627000D01*
X82634929Y-70736887D01*
X82734398Y-70885754D01*
X82734401Y-70885757D01*
X82767983Y-70936016D01*
X82818242Y-70969598D01*
X87291489Y-75442846D01*
X87238677Y-75521884D01*
X87201656Y-75708000D01*
X87201656Y-75931000D01*
X86929433Y-75931000D01*
X86791298Y-75988218D01*
X86619324Y-75816244D01*
X86603128Y-75792005D01*
X86629000Y-75729545D01*
X86629000Y-75420435D01*
X86510709Y-75134855D01*
X86292135Y-74916281D01*
X86006555Y-74797990D01*
X85697445Y-74797990D01*
X85411865Y-74916281D01*
X85355156Y-74972990D01*
X84372036Y-74972990D01*
X84465327Y-74879698D01*
X84562000Y-74646309D01*
X84562000Y-74255750D01*
X84403250Y-74097000D01*
X83827000Y-74097000D01*
X83827000Y-74117000D01*
X83763344Y-74117000D01*
X83763344Y-73420000D01*
X83726323Y-73233884D01*
X83627000Y-73085237D01*
X83627000Y-72943750D01*
X83827000Y-72943750D01*
X83827000Y-73843000D01*
X84403250Y-73843000D01*
X84562000Y-73684250D01*
X84562000Y-73293691D01*
X84465327Y-73060302D01*
X84286699Y-72881673D01*
X84053310Y-72785000D01*
X83985750Y-72785000D01*
X83827000Y-72943750D01*
X83627000Y-72943750D01*
X83468250Y-72785000D01*
X83400690Y-72785000D01*
X83167301Y-72881673D01*
X83115318Y-72933656D01*
X82877000Y-72933656D01*
X82752000Y-72958520D01*
X82627000Y-72933656D01*
X82546744Y-72933656D01*
X82602705Y-72798555D01*
X82602705Y-72489445D01*
X82484414Y-72203865D01*
X82265840Y-71985291D01*
X81980260Y-71867000D01*
X81975803Y-71867000D01*
X81881022Y-71638178D01*
X81662448Y-71419604D01*
X81376868Y-71301313D01*
X81067758Y-71301313D01*
X80782178Y-71419604D01*
X80563604Y-71638178D01*
X80477213Y-71846744D01*
X80414717Y-71695865D01*
X80196143Y-71477291D01*
X79910563Y-71359000D01*
X79601453Y-71359000D01*
X79315873Y-71477291D01*
X79097299Y-71695865D01*
X78979008Y-71981445D01*
X78979008Y-72290555D01*
X79097299Y-72576135D01*
X79225001Y-72703837D01*
X79225001Y-72933656D01*
X78977000Y-72933656D01*
X78852000Y-72958520D01*
X78727000Y-72933656D01*
X78488682Y-72933656D01*
X78436699Y-72881673D01*
X78203310Y-72785000D01*
X78135750Y-72785000D01*
X77977000Y-72943750D01*
X77977000Y-73085237D01*
X77877677Y-73233884D01*
X77877000Y-73237287D01*
X77876323Y-73233884D01*
X77829000Y-73163060D01*
X77829000Y-72120356D01*
X78052357Y-71897000D01*
X78132555Y-71897000D01*
X78418135Y-71778709D01*
X78636709Y-71560135D01*
X78755000Y-71274555D01*
X78755000Y-70965445D01*
X78636709Y-70679865D01*
X78418135Y-70461291D01*
X78132555Y-70343000D01*
X77823445Y-70343000D01*
X77537865Y-70461291D01*
X77470000Y-70529156D01*
X77402135Y-70461291D01*
X77231000Y-70390405D01*
X77231000Y-70203445D01*
X77112709Y-69917865D01*
X76894135Y-69699291D01*
X76608555Y-69581000D01*
X76299445Y-69581000D01*
X76013865Y-69699291D01*
X75957156Y-69756000D01*
X75835018Y-69756000D01*
X75775735Y-69744208D01*
X75716452Y-69756000D01*
X75716448Y-69756000D01*
X75540848Y-69790929D01*
X75540847Y-69790930D01*
X75540846Y-69790930D01*
X75403000Y-69883036D01*
X75403000Y-69643133D01*
X75540694Y-69505439D01*
X75540696Y-69505436D01*
X75739788Y-69306344D01*
X76127000Y-69306344D01*
X76252000Y-69281480D01*
X76377000Y-69306344D01*
X76615318Y-69306344D01*
X76667301Y-69358327D01*
X76900690Y-69455000D01*
X76968250Y-69455000D01*
X77127000Y-69296250D01*
X77127000Y-69154763D01*
X77127830Y-69153521D01*
X77138673Y-69179698D01*
X77317301Y-69358327D01*
X77439830Y-69409080D01*
X77485750Y-69455000D01*
X77618250Y-69455000D01*
X77664170Y-69409080D01*
X77786699Y-69358327D01*
X77965327Y-69179698D01*
X77976170Y-69153521D01*
X77977000Y-69154763D01*
X77977000Y-69154763D01*
G37*
X77977000Y-69154763D02*
X77977000Y-69296250D01*
X78135750Y-69455000D01*
X78203310Y-69455000D01*
X78436699Y-69358327D01*
X78488682Y-69306344D01*
X78727000Y-69306344D01*
X78852000Y-69281480D01*
X78977000Y-69306344D01*
X79377000Y-69306344D01*
X79502000Y-69281480D01*
X79627000Y-69306344D01*
X80027000Y-69306344D01*
X80152000Y-69281480D01*
X80277000Y-69306344D01*
X80677000Y-69306344D01*
X80802000Y-69281480D01*
X80927000Y-69306344D01*
X81327000Y-69306344D01*
X81452000Y-69281480D01*
X81577000Y-69306344D01*
X81694000Y-69306344D01*
X81694000Y-69536717D01*
X81682208Y-69596000D01*
X81694000Y-69655283D01*
X81694000Y-69655287D01*
X81728929Y-69830887D01*
X81773000Y-69896844D01*
X81773000Y-70004555D01*
X81891291Y-70290135D01*
X82109865Y-70508709D01*
X82395445Y-70627000D01*
X82613071Y-70627000D01*
X82634929Y-70736887D01*
X82734398Y-70885754D01*
X82734401Y-70885757D01*
X82767983Y-70936016D01*
X82818242Y-70969598D01*
X87291489Y-75442846D01*
X87238677Y-75521884D01*
X87201656Y-75708000D01*
X87201656Y-75931000D01*
X86929433Y-75931000D01*
X86791298Y-75988218D01*
X86619324Y-75816244D01*
X86603128Y-75792005D01*
X86629000Y-75729545D01*
X86629000Y-75420435D01*
X86510709Y-75134855D01*
X86292135Y-74916281D01*
X86006555Y-74797990D01*
X85697445Y-74797990D01*
X85411865Y-74916281D01*
X85355156Y-74972990D01*
X84372036Y-74972990D01*
X84465327Y-74879698D01*
X84562000Y-74646309D01*
X84562000Y-74255750D01*
X84403250Y-74097000D01*
X83827000Y-74097000D01*
X83827000Y-74117000D01*
X83763344Y-74117000D01*
X83763344Y-73420000D01*
X83726323Y-73233884D01*
X83627000Y-73085237D01*
X83627000Y-72943750D01*
X83827000Y-72943750D01*
X83827000Y-73843000D01*
X84403250Y-73843000D01*
X84562000Y-73684250D01*
X84562000Y-73293691D01*
X84465327Y-73060302D01*
X84286699Y-72881673D01*
X84053310Y-72785000D01*
X83985750Y-72785000D01*
X83827000Y-72943750D01*
X83627000Y-72943750D01*
X83468250Y-72785000D01*
X83400690Y-72785000D01*
X83167301Y-72881673D01*
X83115318Y-72933656D01*
X82877000Y-72933656D01*
X82752000Y-72958520D01*
X82627000Y-72933656D01*
X82546744Y-72933656D01*
X82602705Y-72798555D01*
X82602705Y-72489445D01*
X82484414Y-72203865D01*
X82265840Y-71985291D01*
X81980260Y-71867000D01*
X81975803Y-71867000D01*
X81881022Y-71638178D01*
X81662448Y-71419604D01*
X81376868Y-71301313D01*
X81067758Y-71301313D01*
X80782178Y-71419604D01*
X80563604Y-71638178D01*
X80477213Y-71846744D01*
X80414717Y-71695865D01*
X80196143Y-71477291D01*
X79910563Y-71359000D01*
X79601453Y-71359000D01*
X79315873Y-71477291D01*
X79097299Y-71695865D01*
X78979008Y-71981445D01*
X78979008Y-72290555D01*
X79097299Y-72576135D01*
X79225001Y-72703837D01*
X79225001Y-72933656D01*
X78977000Y-72933656D01*
X78852000Y-72958520D01*
X78727000Y-72933656D01*
X78488682Y-72933656D01*
X78436699Y-72881673D01*
X78203310Y-72785000D01*
X78135750Y-72785000D01*
X77977000Y-72943750D01*
X77977000Y-73085237D01*
X77877677Y-73233884D01*
X77877000Y-73237287D01*
X77876323Y-73233884D01*
X77829000Y-73163060D01*
X77829000Y-72120356D01*
X78052357Y-71897000D01*
X78132555Y-71897000D01*
X78418135Y-71778709D01*
X78636709Y-71560135D01*
X78755000Y-71274555D01*
X78755000Y-70965445D01*
X78636709Y-70679865D01*
X78418135Y-70461291D01*
X78132555Y-70343000D01*
X77823445Y-70343000D01*
X77537865Y-70461291D01*
X77470000Y-70529156D01*
X77402135Y-70461291D01*
X77231000Y-70390405D01*
X77231000Y-70203445D01*
X77112709Y-69917865D01*
X76894135Y-69699291D01*
X76608555Y-69581000D01*
X76299445Y-69581000D01*
X76013865Y-69699291D01*
X75957156Y-69756000D01*
X75835018Y-69756000D01*
X75775735Y-69744208D01*
X75716452Y-69756000D01*
X75716448Y-69756000D01*
X75540848Y-69790929D01*
X75540847Y-69790930D01*
X75540846Y-69790930D01*
X75403000Y-69883036D01*
X75403000Y-69643133D01*
X75540694Y-69505439D01*
X75540696Y-69505436D01*
X75739788Y-69306344D01*
X76127000Y-69306344D01*
X76252000Y-69281480D01*
X76377000Y-69306344D01*
X76615318Y-69306344D01*
X76667301Y-69358327D01*
X76900690Y-69455000D01*
X76968250Y-69455000D01*
X77127000Y-69296250D01*
X77127000Y-69154763D01*
X77127830Y-69153521D01*
X77138673Y-69179698D01*
X77317301Y-69358327D01*
X77439830Y-69409080D01*
X77485750Y-69455000D01*
X77618250Y-69455000D01*
X77664170Y-69409080D01*
X77786699Y-69358327D01*
X77965327Y-69179698D01*
X77976170Y-69153521D01*
X77977000Y-69154763D01*
G36*
X87673914Y-62779367D02*
X88052713Y-62951596D01*
X88367946Y-63223219D01*
X88594276Y-63572403D01*
X88718723Y-63988525D01*
X88735000Y-64207555D01*
X88735000Y-75250896D01*
X88713734Y-75246666D01*
X88705071Y-75203112D01*
X88649729Y-75120287D01*
X88605601Y-75054244D01*
X88605599Y-75054242D01*
X88572017Y-75003983D01*
X88521758Y-74970401D01*
X85273356Y-71722000D01*
X85863156Y-71722000D01*
X85919865Y-71778709D01*
X86205445Y-71897000D01*
X86514555Y-71897000D01*
X86800135Y-71778709D01*
X87018709Y-71560135D01*
X87137000Y-71274555D01*
X87137000Y-70965445D01*
X87018709Y-70679865D01*
X86800135Y-70461291D01*
X86514555Y-70343000D01*
X86205445Y-70343000D01*
X85919865Y-70461291D01*
X85863156Y-70518000D01*
X85085357Y-70518000D01*
X84329000Y-69761644D01*
X84329000Y-69076940D01*
X84376323Y-69006116D01*
X84413344Y-68820000D01*
X84413344Y-67720000D01*
X84376323Y-67533884D01*
X84270897Y-67376103D01*
X84113116Y-67270677D01*
X83927000Y-67233656D01*
X83527000Y-67233656D01*
X83402000Y-67258520D01*
X83277000Y-67233656D01*
X82877000Y-67233656D01*
X82752000Y-67258520D01*
X82627000Y-67233656D01*
X82227000Y-67233656D01*
X82102000Y-67258520D01*
X81977000Y-67233656D01*
X81577000Y-67233656D01*
X81452000Y-67258520D01*
X81327000Y-67233656D01*
X80927000Y-67233656D01*
X80802000Y-67258520D01*
X80677000Y-67233656D01*
X80277000Y-67233656D01*
X80152000Y-67258520D01*
X80027000Y-67233656D01*
X79627000Y-67233656D01*
X79502000Y-67258520D01*
X79377000Y-67233656D01*
X79159700Y-67233656D01*
X79682558Y-66710799D01*
X79732817Y-66677217D01*
X79766399Y-66626958D01*
X79766401Y-66626956D01*
X79865870Y-66478089D01*
X79865870Y-66478088D01*
X79865871Y-66478087D01*
X79883790Y-66388000D01*
X84332644Y-66388000D01*
X84997135Y-67052491D01*
X84910677Y-67181884D01*
X84873656Y-67368000D01*
X84873656Y-68268000D01*
X84910677Y-68454116D01*
X85016103Y-68611897D01*
X85173884Y-68717323D01*
X85360000Y-68754344D01*
X85860000Y-68754344D01*
X86046116Y-68717323D01*
X86203897Y-68611897D01*
X86272561Y-68509133D01*
X86321673Y-68627699D01*
X86500302Y-68806327D01*
X86733691Y-68903000D01*
X86826250Y-68903000D01*
X86985000Y-68744250D01*
X86985000Y-67945000D01*
X87235000Y-67945000D01*
X87235000Y-68744250D01*
X87393750Y-68903000D01*
X87486309Y-68903000D01*
X87719698Y-68806327D01*
X87898327Y-68627699D01*
X87995000Y-68394310D01*
X87995000Y-68103750D01*
X87836250Y-67945000D01*
X87235000Y-67945000D01*
X86985000Y-67945000D01*
X86963000Y-67945000D01*
X86963000Y-67691000D01*
X86985000Y-67691000D01*
X86985000Y-66891750D01*
X87235000Y-66891750D01*
X87235000Y-67691000D01*
X87836250Y-67691000D01*
X87995000Y-67532250D01*
X87995000Y-67241690D01*
X87898327Y-67008301D01*
X87719698Y-66829673D01*
X87486309Y-66733000D01*
X87393750Y-66733000D01*
X87235000Y-66891750D01*
X86985000Y-66891750D01*
X86826250Y-66733000D01*
X86733691Y-66733000D01*
X86500302Y-66829673D01*
X86321673Y-67008301D01*
X86272561Y-67126867D01*
X86212000Y-67036230D01*
X86212000Y-66873287D01*
X86223793Y-66814000D01*
X86196585Y-66677217D01*
X86177071Y-66579112D01*
X86110937Y-66480135D01*
X86077601Y-66430244D01*
X86077599Y-66430242D01*
X86044017Y-66379983D01*
X85993758Y-66346401D01*
X85049601Y-65402245D01*
X85016017Y-65351983D01*
X85000011Y-65341288D01*
X85335513Y-65117113D01*
X85584210Y-64744912D01*
X85723617Y-65041758D01*
X86151876Y-65432045D01*
X86561910Y-65601876D01*
X86791800Y-65480555D01*
X86791800Y-64287400D01*
X87045800Y-64287400D01*
X87045800Y-65480555D01*
X87275690Y-65601876D01*
X87685724Y-65432045D01*
X88113983Y-65041758D01*
X88360286Y-64517292D01*
X88239619Y-64287400D01*
X87045800Y-64287400D01*
X86791800Y-64287400D01*
X86771800Y-64287400D01*
X86771800Y-64033400D01*
X86791800Y-64033400D01*
X86791800Y-64013400D01*
X87045800Y-64013400D01*
X87045800Y-64033400D01*
X88239619Y-64033400D01*
X88360286Y-63803508D01*
X88113983Y-63279042D01*
X87685724Y-62888755D01*
X87288285Y-62724141D01*
X87673914Y-62779367D01*
X87673914Y-62779367D01*
G37*
X87673914Y-62779367D02*
X88052713Y-62951596D01*
X88367946Y-63223219D01*
X88594276Y-63572403D01*
X88718723Y-63988525D01*
X88735000Y-64207555D01*
X88735000Y-75250896D01*
X88713734Y-75246666D01*
X88705071Y-75203112D01*
X88649729Y-75120287D01*
X88605601Y-75054244D01*
X88605599Y-75054242D01*
X88572017Y-75003983D01*
X88521758Y-74970401D01*
X85273356Y-71722000D01*
X85863156Y-71722000D01*
X85919865Y-71778709D01*
X86205445Y-71897000D01*
X86514555Y-71897000D01*
X86800135Y-71778709D01*
X87018709Y-71560135D01*
X87137000Y-71274555D01*
X87137000Y-70965445D01*
X87018709Y-70679865D01*
X86800135Y-70461291D01*
X86514555Y-70343000D01*
X86205445Y-70343000D01*
X85919865Y-70461291D01*
X85863156Y-70518000D01*
X85085357Y-70518000D01*
X84329000Y-69761644D01*
X84329000Y-69076940D01*
X84376323Y-69006116D01*
X84413344Y-68820000D01*
X84413344Y-67720000D01*
X84376323Y-67533884D01*
X84270897Y-67376103D01*
X84113116Y-67270677D01*
X83927000Y-67233656D01*
X83527000Y-67233656D01*
X83402000Y-67258520D01*
X83277000Y-67233656D01*
X82877000Y-67233656D01*
X82752000Y-67258520D01*
X82627000Y-67233656D01*
X82227000Y-67233656D01*
X82102000Y-67258520D01*
X81977000Y-67233656D01*
X81577000Y-67233656D01*
X81452000Y-67258520D01*
X81327000Y-67233656D01*
X80927000Y-67233656D01*
X80802000Y-67258520D01*
X80677000Y-67233656D01*
X80277000Y-67233656D01*
X80152000Y-67258520D01*
X80027000Y-67233656D01*
X79627000Y-67233656D01*
X79502000Y-67258520D01*
X79377000Y-67233656D01*
X79159700Y-67233656D01*
X79682558Y-66710799D01*
X79732817Y-66677217D01*
X79766399Y-66626958D01*
X79766401Y-66626956D01*
X79865870Y-66478089D01*
X79865870Y-66478088D01*
X79865871Y-66478087D01*
X79883790Y-66388000D01*
X84332644Y-66388000D01*
X84997135Y-67052491D01*
X84910677Y-67181884D01*
X84873656Y-67368000D01*
X84873656Y-68268000D01*
X84910677Y-68454116D01*
X85016103Y-68611897D01*
X85173884Y-68717323D01*
X85360000Y-68754344D01*
X85860000Y-68754344D01*
X86046116Y-68717323D01*
X86203897Y-68611897D01*
X86272561Y-68509133D01*
X86321673Y-68627699D01*
X86500302Y-68806327D01*
X86733691Y-68903000D01*
X86826250Y-68903000D01*
X86985000Y-68744250D01*
X86985000Y-67945000D01*
X87235000Y-67945000D01*
X87235000Y-68744250D01*
X87393750Y-68903000D01*
X87486309Y-68903000D01*
X87719698Y-68806327D01*
X87898327Y-68627699D01*
X87995000Y-68394310D01*
X87995000Y-68103750D01*
X87836250Y-67945000D01*
X87235000Y-67945000D01*
X86985000Y-67945000D01*
X86963000Y-67945000D01*
X86963000Y-67691000D01*
X86985000Y-67691000D01*
X86985000Y-66891750D01*
X87235000Y-66891750D01*
X87235000Y-67691000D01*
X87836250Y-67691000D01*
X87995000Y-67532250D01*
X87995000Y-67241690D01*
X87898327Y-67008301D01*
X87719698Y-66829673D01*
X87486309Y-66733000D01*
X87393750Y-66733000D01*
X87235000Y-66891750D01*
X86985000Y-66891750D01*
X86826250Y-66733000D01*
X86733691Y-66733000D01*
X86500302Y-66829673D01*
X86321673Y-67008301D01*
X86272561Y-67126867D01*
X86212000Y-67036230D01*
X86212000Y-66873287D01*
X86223793Y-66814000D01*
X86196585Y-66677217D01*
X86177071Y-66579112D01*
X86110937Y-66480135D01*
X86077601Y-66430244D01*
X86077599Y-66430242D01*
X86044017Y-66379983D01*
X85993758Y-66346401D01*
X85049601Y-65402245D01*
X85016017Y-65351983D01*
X85000011Y-65341288D01*
X85335513Y-65117113D01*
X85584210Y-64744912D01*
X85723617Y-65041758D01*
X86151876Y-65432045D01*
X86561910Y-65601876D01*
X86791800Y-65480555D01*
X86791800Y-64287400D01*
X87045800Y-64287400D01*
X87045800Y-65480555D01*
X87275690Y-65601876D01*
X87685724Y-65432045D01*
X88113983Y-65041758D01*
X88360286Y-64517292D01*
X88239619Y-64287400D01*
X87045800Y-64287400D01*
X86791800Y-64287400D01*
X86771800Y-64287400D01*
X86771800Y-64033400D01*
X86791800Y-64033400D01*
X86791800Y-64013400D01*
X87045800Y-64013400D01*
X87045800Y-64033400D01*
X88239619Y-64033400D01*
X88360286Y-63803508D01*
X88113983Y-63279042D01*
X87685724Y-62888755D01*
X87288285Y-62724141D01*
X87673914Y-62779367D01*
G36*
X70485000Y-71743000D02*
X71755000Y-71743000D01*
X71755000Y-71723000D01*
X72009000Y-71723000D01*
X72009000Y-71743000D01*
X72029000Y-71743000D01*
X72029000Y-71997000D01*
X72009000Y-71997000D01*
X72009000Y-72017000D01*
X71755000Y-72017000D01*
X71755000Y-71997000D01*
X70485000Y-71997000D01*
X70485000Y-72017000D01*
X70231000Y-72017000D01*
X70231000Y-71997000D01*
X70211000Y-71997000D01*
X70211000Y-71743000D01*
X70231000Y-71743000D01*
X70231000Y-71723000D01*
X70485000Y-71723000D01*
X70485000Y-71743000D01*
X70485000Y-71743000D01*
G37*
X70485000Y-71743000D02*
X71755000Y-71743000D01*
X71755000Y-71723000D01*
X72009000Y-71723000D01*
X72009000Y-71743000D01*
X72029000Y-71743000D01*
X72029000Y-71997000D01*
X72009000Y-71997000D01*
X72009000Y-72017000D01*
X71755000Y-72017000D01*
X71755000Y-71997000D01*
X70485000Y-71997000D01*
X70485000Y-72017000D01*
X70231000Y-72017000D01*
X70231000Y-71997000D01*
X70211000Y-71997000D01*
X70211000Y-71743000D01*
X70231000Y-71743000D01*
X70231000Y-71723000D01*
X70485000Y-71723000D01*
X70485000Y-71743000D01*
G36*
X78048794Y-64678170D02*
X78342087Y-65117113D01*
X78696801Y-65354126D01*
X78696801Y-65472708D01*
X78696800Y-65472713D01*
X78696800Y-65472717D01*
X78685008Y-65532000D01*
X78696800Y-65591283D01*
X78696800Y-65726712D01*
X78685007Y-65786000D01*
X78696800Y-65845287D01*
X78696800Y-65980717D01*
X78693541Y-65997102D01*
X78143245Y-66547399D01*
X78092983Y-66580983D01*
X77959929Y-66780113D01*
X77925000Y-66955713D01*
X77925000Y-66955717D01*
X77913208Y-67015000D01*
X77925000Y-67074283D01*
X77925000Y-67319975D01*
X77786699Y-67181673D01*
X77664170Y-67130920D01*
X77618250Y-67085000D01*
X77485750Y-67085000D01*
X77439830Y-67130920D01*
X77317301Y-67181673D01*
X77179000Y-67319975D01*
X77179000Y-66099282D01*
X77190792Y-66039999D01*
X77179000Y-65980716D01*
X77179000Y-65924449D01*
X77192817Y-65915217D01*
X77325871Y-65716088D01*
X77360800Y-65540488D01*
X77360800Y-65540483D01*
X77372592Y-65481201D01*
X77360800Y-65421918D01*
X77360800Y-65354125D01*
X77715513Y-65117113D01*
X78008806Y-64678170D01*
X78028800Y-64577654D01*
X78048794Y-64678170D01*
X78048794Y-64678170D01*
G37*
X78048794Y-64678170D02*
X78342087Y-65117113D01*
X78696801Y-65354126D01*
X78696801Y-65472708D01*
X78696800Y-65472713D01*
X78696800Y-65472717D01*
X78685008Y-65532000D01*
X78696800Y-65591283D01*
X78696800Y-65726712D01*
X78685007Y-65786000D01*
X78696800Y-65845287D01*
X78696800Y-65980717D01*
X78693541Y-65997102D01*
X78143245Y-66547399D01*
X78092983Y-66580983D01*
X77959929Y-66780113D01*
X77925000Y-66955713D01*
X77925000Y-66955717D01*
X77913208Y-67015000D01*
X77925000Y-67074283D01*
X77925000Y-67319975D01*
X77786699Y-67181673D01*
X77664170Y-67130920D01*
X77618250Y-67085000D01*
X77485750Y-67085000D01*
X77439830Y-67130920D01*
X77317301Y-67181673D01*
X77179000Y-67319975D01*
X77179000Y-66099282D01*
X77190792Y-66039999D01*
X77179000Y-65980716D01*
X77179000Y-65924449D01*
X77192817Y-65915217D01*
X77325871Y-65716088D01*
X77360800Y-65540488D01*
X77360800Y-65540483D01*
X77372592Y-65481201D01*
X77360800Y-65421918D01*
X77360800Y-65354125D01*
X77715513Y-65117113D01*
X78008806Y-64678170D01*
X78028800Y-64577654D01*
X78048794Y-64678170D01*
G36*
X86791798Y-62840244D02*
X86561910Y-62718924D01*
X86151876Y-62888755D01*
X85723617Y-63279042D01*
X85584210Y-63575888D01*
X85335513Y-63203687D01*
X84896570Y-62910394D01*
X84509496Y-62833400D01*
X84248104Y-62833400D01*
X83861030Y-62910394D01*
X83422087Y-63203687D01*
X83128794Y-63642630D01*
X83108800Y-63743146D01*
X83088806Y-63642630D01*
X82795513Y-63203687D01*
X82356570Y-62910394D01*
X81969496Y-62833400D01*
X81708104Y-62833400D01*
X81321030Y-62910394D01*
X80882087Y-63203687D01*
X80588794Y-63642630D01*
X80568800Y-63743146D01*
X80548806Y-63642630D01*
X80255513Y-63203687D01*
X79816570Y-62910394D01*
X79429496Y-62833400D01*
X79168104Y-62833400D01*
X78781030Y-62910394D01*
X78342087Y-63203687D01*
X78048794Y-63642630D01*
X78028800Y-63743146D01*
X78008806Y-63642630D01*
X77715513Y-63203687D01*
X77276570Y-62910394D01*
X76889496Y-62833400D01*
X76628104Y-62833400D01*
X76241030Y-62910394D01*
X75802087Y-63203687D01*
X75508794Y-63642630D01*
X75488800Y-63743146D01*
X75468806Y-63642630D01*
X75175513Y-63203687D01*
X74736570Y-62910394D01*
X74349496Y-62833400D01*
X74088104Y-62833400D01*
X73701030Y-62910394D01*
X73262087Y-63203687D01*
X73015144Y-63573262D01*
X73015144Y-63310400D01*
X72978123Y-63124284D01*
X72872697Y-62966503D01*
X72714916Y-62861077D01*
X72528800Y-62824056D01*
X70828800Y-62824056D01*
X70642684Y-62861077D01*
X70484903Y-62966503D01*
X70379477Y-63124284D01*
X70342456Y-63310400D01*
X70342456Y-64773412D01*
X69894562Y-65221306D01*
X69833863Y-65261864D01*
X69789000Y-65329006D01*
X69789000Y-64225547D01*
X69853368Y-63776085D01*
X70025597Y-63397286D01*
X70297220Y-63082053D01*
X70646404Y-62855723D01*
X71062526Y-62731276D01*
X71281556Y-62714999D01*
X86791798Y-62714999D01*
X86791798Y-62840244D01*
X86791798Y-62840244D01*
G37*
X86791798Y-62840244D02*
X86561910Y-62718924D01*
X86151876Y-62888755D01*
X85723617Y-63279042D01*
X85584210Y-63575888D01*
X85335513Y-63203687D01*
X84896570Y-62910394D01*
X84509496Y-62833400D01*
X84248104Y-62833400D01*
X83861030Y-62910394D01*
X83422087Y-63203687D01*
X83128794Y-63642630D01*
X83108800Y-63743146D01*
X83088806Y-63642630D01*
X82795513Y-63203687D01*
X82356570Y-62910394D01*
X81969496Y-62833400D01*
X81708104Y-62833400D01*
X81321030Y-62910394D01*
X80882087Y-63203687D01*
X80588794Y-63642630D01*
X80568800Y-63743146D01*
X80548806Y-63642630D01*
X80255513Y-63203687D01*
X79816570Y-62910394D01*
X79429496Y-62833400D01*
X79168104Y-62833400D01*
X78781030Y-62910394D01*
X78342087Y-63203687D01*
X78048794Y-63642630D01*
X78028800Y-63743146D01*
X78008806Y-63642630D01*
X77715513Y-63203687D01*
X77276570Y-62910394D01*
X76889496Y-62833400D01*
X76628104Y-62833400D01*
X76241030Y-62910394D01*
X75802087Y-63203687D01*
X75508794Y-63642630D01*
X75488800Y-63743146D01*
X75468806Y-63642630D01*
X75175513Y-63203687D01*
X74736570Y-62910394D01*
X74349496Y-62833400D01*
X74088104Y-62833400D01*
X73701030Y-62910394D01*
X73262087Y-63203687D01*
X73015144Y-63573262D01*
X73015144Y-63310400D01*
X72978123Y-63124284D01*
X72872697Y-62966503D01*
X72714916Y-62861077D01*
X72528800Y-62824056D01*
X70828800Y-62824056D01*
X70642684Y-62861077D01*
X70484903Y-62966503D01*
X70379477Y-63124284D01*
X70342456Y-63310400D01*
X70342456Y-64773412D01*
X69894562Y-65221306D01*
X69833863Y-65261864D01*
X69789000Y-65329006D01*
X69789000Y-64225547D01*
X69853368Y-63776085D01*
X70025597Y-63397286D01*
X70297220Y-63082053D01*
X70646404Y-62855723D01*
X71062526Y-62731276D01*
X71281556Y-62714999D01*
X86791798Y-62714999D01*
X86791798Y-62840244D01*
G36*
X87270603Y-62721608D02*
X87045802Y-62840244D01*
X87045802Y-62714999D01*
X87224452Y-62714999D01*
X87270603Y-62721608D01*
X87270603Y-62721608D01*
G37*
X87270603Y-62721608D02*
X87045802Y-62840244D01*
X87045802Y-62714999D01*
X87224452Y-62714999D01*
X87270603Y-62721608D01*
G04 #@! TD*
M02*
