G04 #@! TF.GenerationSoftware,KiCad,Pcbnew,(5.0.2)-1*
G04 #@! TF.CreationDate,2018-12-23T17:42:09+09:00*
G04 #@! TF.ProjectId,Nixie_Module_IN-12,4e697869-655f-44d6-9f64-756c655f494e,rev?*
G04 #@! TF.SameCoordinates,Original*
G04 #@! TF.FileFunction,Paste,Top*
G04 #@! TF.FilePolarity,Positive*
%FSLAX46Y46*%
G04 Gerber Fmt 4.6, Leading zero omitted, Abs format (unit mm)*
G04 Created by KiCad (PCBNEW (5.0.2)-1) date 2018/12/23 17:42:09*
%MOMM*%
%LPD*%
G01*
G04 APERTURE LIST*
%ADD10R,0.900000X0.500000*%
%ADD11R,0.800000X0.900000*%
%ADD12R,2.500000X0.850000*%
%ADD13R,0.900000X0.800000*%
%ADD14R,0.400000X1.100000*%
%ADD15R,0.750000X0.800000*%
%ADD16R,0.800000X0.750000*%
%ADD17R,0.500000X0.900000*%
G04 APERTURE END LIST*
D10*
G04 #@! TO.C,R13*
X75946000Y-85332000D03*
X75946000Y-83832000D03*
G04 #@! TD*
D11*
G04 #@! TO.C,Q9*
X77028000Y-100822000D03*
X78928000Y-100822000D03*
X77978000Y-98822000D03*
G04 #@! TD*
D12*
G04 #@! TO.C,U1*
X81398000Y-92823000D03*
X81398000Y-91073000D03*
X77098000Y-92823000D03*
X77098000Y-91073000D03*
G04 #@! TD*
D11*
G04 #@! TO.C,Q11*
X76520000Y-82534000D03*
X78420000Y-82534000D03*
X77470000Y-80534000D03*
G04 #@! TD*
G04 #@! TO.C,Q2*
X86172000Y-97774000D03*
X88072000Y-97774000D03*
X87122000Y-95774000D03*
G04 #@! TD*
D13*
G04 #@! TO.C,Q3*
X70120000Y-83378000D03*
X70120000Y-85278000D03*
X72120000Y-84328000D03*
G04 #@! TD*
G04 #@! TO.C,Q4*
X88376000Y-94422000D03*
X88376000Y-92522000D03*
X86376000Y-93472000D03*
G04 #@! TD*
G04 #@! TO.C,Q5*
X70120000Y-88458000D03*
X70120000Y-90358000D03*
X72120000Y-89408000D03*
G04 #@! TD*
G04 #@! TO.C,Q6*
X88376000Y-85278000D03*
X88376000Y-83378000D03*
X86376000Y-84328000D03*
G04 #@! TD*
G04 #@! TO.C,Q7*
X70882000Y-95824000D03*
X70882000Y-97724000D03*
X72882000Y-96774000D03*
G04 #@! TD*
D11*
G04 #@! TO.C,Q8*
X88072000Y-78756000D03*
X86172000Y-78756000D03*
X87122000Y-80756000D03*
G04 #@! TD*
G04 #@! TO.C,Q1*
X72578000Y-78756000D03*
X70678000Y-78756000D03*
X71628000Y-80756000D03*
G04 #@! TD*
G04 #@! TO.C,Q10*
X80076000Y-82534000D03*
X81976000Y-82534000D03*
X81026000Y-80534000D03*
G04 #@! TD*
D14*
G04 #@! TO.C,U3*
X75277000Y-73970000D03*
X75927000Y-73970000D03*
X76577000Y-73970000D03*
X77227000Y-73970000D03*
X77877000Y-73970000D03*
X78527000Y-73970000D03*
X79177000Y-73970000D03*
X79827000Y-73970000D03*
X80477000Y-73970000D03*
X81127000Y-73970000D03*
X81777000Y-73970000D03*
X82427000Y-73970000D03*
X83077000Y-73970000D03*
X83727000Y-73970000D03*
X83727000Y-68270000D03*
X83077000Y-68270000D03*
X82427000Y-68270000D03*
X81777000Y-68270000D03*
X81127000Y-68270000D03*
X80477000Y-68270000D03*
X79827000Y-68270000D03*
X79177000Y-68270000D03*
X78527000Y-68270000D03*
X77877000Y-68270000D03*
X77227000Y-68270000D03*
X76577000Y-68270000D03*
X75927000Y-68270000D03*
X75277000Y-68270000D03*
G04 #@! TD*
D15*
G04 #@! TO.C,C1*
X70358000Y-70370000D03*
X70358000Y-71870000D03*
G04 #@! TD*
G04 #@! TO.C,C2*
X71882000Y-71870000D03*
X71882000Y-70370000D03*
G04 #@! TD*
D16*
G04 #@! TO.C,C3*
X82308000Y-89154000D03*
X83808000Y-89154000D03*
G04 #@! TD*
D10*
G04 #@! TO.C,R1*
X81280000Y-100572000D03*
X81280000Y-99072000D03*
G04 #@! TD*
D17*
G04 #@! TO.C,R2*
X87110000Y-67818000D03*
X85610000Y-67818000D03*
G04 #@! TD*
G04 #@! TO.C,R3*
X73394000Y-76962000D03*
X71894000Y-76962000D03*
G04 #@! TD*
G04 #@! TO.C,R4*
X83070000Y-97536000D03*
X84570000Y-97536000D03*
G04 #@! TD*
D10*
G04 #@! TO.C,R5*
X70104000Y-82284000D03*
X70104000Y-80784000D03*
G04 #@! TD*
G04 #@! TO.C,R6*
X87630000Y-90920000D03*
X87630000Y-89420000D03*
G04 #@! TD*
D17*
G04 #@! TO.C,R7*
X71362000Y-86868000D03*
X69862000Y-86868000D03*
G04 #@! TD*
G04 #@! TO.C,R8*
X87134000Y-86868000D03*
X88634000Y-86868000D03*
G04 #@! TD*
G04 #@! TO.C,R9*
X70370000Y-93980000D03*
X71870000Y-93980000D03*
G04 #@! TD*
D10*
G04 #@! TO.C,R10*
X88138000Y-77458000D03*
X88138000Y-75958000D03*
G04 #@! TD*
D17*
G04 #@! TO.C,R11*
X74942000Y-97536000D03*
X76442000Y-97536000D03*
G04 #@! TD*
G04 #@! TO.C,R12*
X83046000Y-84074000D03*
X81546000Y-84074000D03*
G04 #@! TD*
D10*
G04 #@! TO.C,R14*
X70358000Y-69064000D03*
X70358000Y-67564000D03*
G04 #@! TD*
G04 #@! TO.C,R15*
X73406000Y-71870000D03*
X73406000Y-70370000D03*
G04 #@! TD*
G04 #@! TO.C,R16*
X72136000Y-74664000D03*
X72136000Y-73164000D03*
G04 #@! TD*
G04 #@! TO.C,R17*
X70358000Y-73164000D03*
X70358000Y-74664000D03*
G04 #@! TD*
G04 #@! TO.C,R18*
X71882000Y-67564000D03*
X71882000Y-69064000D03*
G04 #@! TD*
G04 #@! TO.C,R19*
X73406000Y-69064000D03*
X73406000Y-67564000D03*
G04 #@! TD*
M02*
