G04 #@! TF.GenerationSoftware,KiCad,Pcbnew,(5.0.2)-1*
G04 #@! TF.CreationDate,2018-12-23T17:42:09+09:00*
G04 #@! TF.ProjectId,Nixie_Module_IN-12,4e697869-655f-44d6-9f64-756c655f494e,rev?*
G04 #@! TF.SameCoordinates,Original*
G04 #@! TF.FileFunction,Paste,Bot*
G04 #@! TF.FilePolarity,Positive*
%FSLAX46Y46*%
G04 Gerber Fmt 4.6, Leading zero omitted, Abs format (unit mm)*
G04 Created by KiCad (PCBNEW (5.0.2)-1) date 2018/12/23 17:42:09*
%MOMM*%
%LPD*%
G01*
G04 APERTURE LIST*
%ADD10C,0.200000*%
G04 APERTURE END LIST*
D10*
X88499904Y-65735904D02*
X87699904Y-65735904D01*
X88499904Y-66116857D02*
X87699904Y-66116857D01*
X88499904Y-66574000D01*
X87699904Y-66574000D01*
X88195142Y-66954952D02*
X88195142Y-67564476D01*
X88499904Y-68364476D02*
X88499904Y-67907333D01*
X88499904Y-68135904D02*
X87699904Y-68135904D01*
X87814190Y-68059714D01*
X87890380Y-67983523D01*
X87928476Y-67907333D01*
X87776095Y-68669238D02*
X87738000Y-68707333D01*
X87699904Y-68783523D01*
X87699904Y-68974000D01*
X87738000Y-69050190D01*
X87776095Y-69088285D01*
X87852285Y-69126380D01*
X87928476Y-69126380D01*
X88042761Y-69088285D01*
X88499904Y-68631142D01*
X88499904Y-69126380D01*
X88499904Y-70078761D02*
X87699904Y-70078761D01*
X88271333Y-70345428D01*
X87699904Y-70612095D01*
X88499904Y-70612095D01*
X88499904Y-71107333D02*
X88461809Y-71031142D01*
X88423714Y-70993047D01*
X88347523Y-70954952D01*
X88118952Y-70954952D01*
X88042761Y-70993047D01*
X88004666Y-71031142D01*
X87966571Y-71107333D01*
X87966571Y-71221619D01*
X88004666Y-71297809D01*
X88042761Y-71335904D01*
X88118952Y-71374000D01*
X88347523Y-71374000D01*
X88423714Y-71335904D01*
X88461809Y-71297809D01*
X88499904Y-71221619D01*
X88499904Y-71107333D01*
X88499904Y-72059714D02*
X87699904Y-72059714D01*
X88461809Y-72059714D02*
X88499904Y-71983523D01*
X88499904Y-71831142D01*
X88461809Y-71754952D01*
X88423714Y-71716857D01*
X88347523Y-71678761D01*
X88118952Y-71678761D01*
X88042761Y-71716857D01*
X88004666Y-71754952D01*
X87966571Y-71831142D01*
X87966571Y-71983523D01*
X88004666Y-72059714D01*
X87966571Y-72783523D02*
X88499904Y-72783523D01*
X87966571Y-72440666D02*
X88385619Y-72440666D01*
X88461809Y-72478761D01*
X88499904Y-72554952D01*
X88499904Y-72669238D01*
X88461809Y-72745428D01*
X88423714Y-72783523D01*
X88499904Y-73278761D02*
X88461809Y-73202571D01*
X88385619Y-73164476D01*
X87699904Y-73164476D01*
X88461809Y-73888285D02*
X88499904Y-73812095D01*
X88499904Y-73659714D01*
X88461809Y-73583523D01*
X88385619Y-73545428D01*
X88080857Y-73545428D01*
X88004666Y-73583523D01*
X87966571Y-73659714D01*
X87966571Y-73812095D01*
X88004666Y-73888285D01*
X88080857Y-73926380D01*
X88157047Y-73926380D01*
X88233238Y-73545428D01*
X87966571Y-74802571D02*
X88499904Y-74993047D01*
X87966571Y-75183523D01*
X87699904Y-75640666D02*
X87699904Y-75716857D01*
X87738000Y-75793047D01*
X87776095Y-75831142D01*
X87852285Y-75869238D01*
X88004666Y-75907333D01*
X88195142Y-75907333D01*
X88347523Y-75869238D01*
X88423714Y-75831142D01*
X88461809Y-75793047D01*
X88499904Y-75716857D01*
X88499904Y-75640666D01*
X88461809Y-75564476D01*
X88423714Y-75526380D01*
X88347523Y-75488285D01*
X88195142Y-75450190D01*
X88004666Y-75450190D01*
X87852285Y-75488285D01*
X87776095Y-75526380D01*
X87738000Y-75564476D01*
X87699904Y-75640666D01*
X88423714Y-76250190D02*
X88461809Y-76288285D01*
X88499904Y-76250190D01*
X88461809Y-76212095D01*
X88423714Y-76250190D01*
X88499904Y-76250190D01*
X88499904Y-77050190D02*
X88499904Y-76593047D01*
X88499904Y-76821619D02*
X87699904Y-76821619D01*
X87814190Y-76745428D01*
X87890380Y-76669238D01*
X87928476Y-76593047D01*
M02*
