M48
;DRILL file {KiCad (5.0.2)-1} date 2018/12/23 17:42:14
;FORMAT={-:-/ absolute / metric / decimal}
FMAT,2
METRIC,TZ
T1C0.400
T2C1.000
T3C1.600
%
G90
G05
T1
X70.066Y-84.328
X70.104Y-64.516
X70.104Y-77.47
X70.104Y-91.694
X70.358Y-80.01
X70.866Y-84.328
X70.866Y-89.408
X71.12Y-68.326
X71.12Y-71.12
X71.12Y-92.456
X73.152Y-93.98
X73.152Y-98.044
X73.406Y-71.12
X73.406Y-73.622
X73.66Y-74.422
X74.676Y-69.342
X74.93Y-66.04
X75.438Y-62.992
X75.946Y-71.12
X76.454Y-70.358
X76.454Y-76.2
X76.454Y-89.916
X76.962Y-71.12
X77.409Y-75.631
X77.47Y-70.358
X77.978Y-62.992
X77.978Y-66.04
X77.978Y-71.12
X78.232Y-83.566
X79.248Y-71.12
X79.248Y-90.424
X79.248Y-91.948
X79.248Y-93.273
X79.248Y-98.298
X79.756Y-67.056
X79.756Y-99.314
X79.756Y-72.136
X80.01Y-100.838
X80.518Y-62.992
X80.576Y-72.702
X81.222Y-72.078
X81.28Y-75.438
X81.28Y-98.298
X81.826Y-72.644
X82.042Y-75.946
X82.042Y-97.536
X82.55Y-69.85
X82.804Y-76.708
X83.058Y-82.804
X83.312Y-92.71
X83.82Y-72.644
X83.82Y-76.962
X84.328Y-84.328
X84.582Y-67.31
X85.852Y-75.575
X86.36Y-71.12
X86.868Y-75.692
X87.084Y-76.708
X87.126Y-85.344
X87.376Y-88.646
X87.884Y-72.644
X88.392Y-93.472
X88.392Y-96.52
X88.646Y-90.17
T2
X71.628Y-100.012
X74.168Y-100.012
X71.679Y-64.16
X74.219Y-64.16
X76.759Y-64.16
X79.299Y-64.16
X81.839Y-64.16
X84.379Y-64.16
X86.919Y-64.16
X84.328Y-100.012
X86.868Y-100.012
T3
X73.498Y-82.368
X73.498Y-86.868
X73.498Y-91.368
X75.248Y-78.868
X75.248Y-94.868
X79.248Y-77.868
X79.248Y-95.868
X83.248Y-78.868
X83.248Y-94.868
X84.998Y-82.368
X84.998Y-86.868
X84.998Y-91.368
T0
M30
