G04 #@! TF.GenerationSoftware,KiCad,Pcbnew,(5.0.2)-1*
G04 #@! TF.CreationDate,2018-12-23T17:42:09+09:00*
G04 #@! TF.ProjectId,Nixie_Module_IN-12,4e697869-655f-44d6-9f64-756c655f494e,rev?*
G04 #@! TF.SameCoordinates,Original*
G04 #@! TF.FileFunction,Soldermask,Top*
G04 #@! TF.FilePolarity,Negative*
%FSLAX46Y46*%
G04 Gerber Fmt 4.6, Leading zero omitted, Abs format (unit mm)*
G04 Created by KiCad (PCBNEW (5.0.2)-1) date 2018/12/23 17:42:09*
%MOMM*%
%LPD*%
G01*
G04 APERTURE LIST*
%ADD10C,0.100000*%
G04 APERTURE END LIST*
D10*
G36*
X79528000Y-101472000D02*
X78328000Y-101472000D01*
X78328000Y-100172000D01*
X79528000Y-100172000D01*
X79528000Y-101472000D01*
X79528000Y-101472000D01*
G37*
G36*
X77628000Y-101472000D02*
X76428000Y-101472000D01*
X76428000Y-100172000D01*
X77628000Y-100172000D01*
X77628000Y-101472000D01*
X77628000Y-101472000D01*
G37*
G36*
X85378000Y-101062500D02*
X83278000Y-101062500D01*
X83278000Y-98962500D01*
X85378000Y-98962500D01*
X85378000Y-101062500D01*
X85378000Y-101062500D01*
G37*
G36*
X74296707Y-98970097D02*
X74373836Y-98977693D01*
X74505787Y-99017720D01*
X74571763Y-99037733D01*
X74754172Y-99135233D01*
X74914054Y-99266446D01*
X75045267Y-99426328D01*
X75142767Y-99608737D01*
X75142767Y-99608738D01*
X75202807Y-99806664D01*
X75223080Y-100012500D01*
X75202807Y-100218336D01*
X75162780Y-100350287D01*
X75142767Y-100416263D01*
X75045267Y-100598672D01*
X74914054Y-100758554D01*
X74754172Y-100889767D01*
X74571763Y-100987267D01*
X74505787Y-101007280D01*
X74373836Y-101047307D01*
X74296707Y-101054904D01*
X74219580Y-101062500D01*
X74116420Y-101062500D01*
X74039293Y-101054904D01*
X73962164Y-101047307D01*
X73830213Y-101007280D01*
X73764237Y-100987267D01*
X73581828Y-100889767D01*
X73421946Y-100758554D01*
X73290733Y-100598672D01*
X73193233Y-100416263D01*
X73173220Y-100350287D01*
X73133193Y-100218336D01*
X73112920Y-100012500D01*
X73133193Y-99806664D01*
X73193233Y-99608738D01*
X73193233Y-99608737D01*
X73290733Y-99426328D01*
X73421946Y-99266446D01*
X73581828Y-99135233D01*
X73764237Y-99037733D01*
X73830213Y-99017720D01*
X73962164Y-98977693D01*
X74039293Y-98970097D01*
X74116420Y-98962500D01*
X74219580Y-98962500D01*
X74296707Y-98970097D01*
X74296707Y-98970097D01*
G37*
G36*
X86996707Y-98970097D02*
X87073836Y-98977693D01*
X87205787Y-99017720D01*
X87271763Y-99037733D01*
X87454172Y-99135233D01*
X87614054Y-99266446D01*
X87745267Y-99426328D01*
X87842767Y-99608737D01*
X87842767Y-99608738D01*
X87902807Y-99806664D01*
X87923080Y-100012500D01*
X87902807Y-100218336D01*
X87862780Y-100350287D01*
X87842767Y-100416263D01*
X87745267Y-100598672D01*
X87614054Y-100758554D01*
X87454172Y-100889767D01*
X87271763Y-100987267D01*
X87205787Y-101007280D01*
X87073836Y-101047307D01*
X86996707Y-101054904D01*
X86919580Y-101062500D01*
X86816420Y-101062500D01*
X86739293Y-101054904D01*
X86662164Y-101047307D01*
X86530213Y-101007280D01*
X86464237Y-100987267D01*
X86281828Y-100889767D01*
X86121946Y-100758554D01*
X85990733Y-100598672D01*
X85893233Y-100416263D01*
X85873220Y-100350287D01*
X85833193Y-100218336D01*
X85812920Y-100012500D01*
X85833193Y-99806664D01*
X85893233Y-99608738D01*
X85893233Y-99608737D01*
X85990733Y-99426328D01*
X86121946Y-99266446D01*
X86281828Y-99135233D01*
X86464237Y-99037733D01*
X86530213Y-99017720D01*
X86662164Y-98977693D01*
X86739293Y-98970097D01*
X86816420Y-98962500D01*
X86919580Y-98962500D01*
X86996707Y-98970097D01*
X86996707Y-98970097D01*
G37*
G36*
X72678000Y-101062500D02*
X70578000Y-101062500D01*
X70578000Y-98962500D01*
X72678000Y-98962500D01*
X72678000Y-101062500D01*
X72678000Y-101062500D01*
G37*
G36*
X81930000Y-101022000D02*
X80630000Y-101022000D01*
X80630000Y-100122000D01*
X81930000Y-100122000D01*
X81930000Y-101022000D01*
X81930000Y-101022000D01*
G37*
G36*
X81930000Y-99522000D02*
X80630000Y-99522000D01*
X80630000Y-98622000D01*
X81930000Y-98622000D01*
X81930000Y-99522000D01*
X81930000Y-99522000D01*
G37*
G36*
X78578000Y-99472000D02*
X77378000Y-99472000D01*
X77378000Y-98172000D01*
X78578000Y-98172000D01*
X78578000Y-99472000D01*
X78578000Y-99472000D01*
G37*
G36*
X86772000Y-98424000D02*
X85572000Y-98424000D01*
X85572000Y-97124000D01*
X86772000Y-97124000D01*
X86772000Y-98424000D01*
X86772000Y-98424000D01*
G37*
G36*
X88672000Y-98424000D02*
X87472000Y-98424000D01*
X87472000Y-97124000D01*
X88672000Y-97124000D01*
X88672000Y-98424000D01*
X88672000Y-98424000D01*
G37*
G36*
X71532000Y-98324000D02*
X70232000Y-98324000D01*
X70232000Y-97124000D01*
X71532000Y-97124000D01*
X71532000Y-98324000D01*
X71532000Y-98324000D01*
G37*
G36*
X75392000Y-98186000D02*
X74492000Y-98186000D01*
X74492000Y-96886000D01*
X75392000Y-96886000D01*
X75392000Y-98186000D01*
X75392000Y-98186000D01*
G37*
G36*
X76892000Y-98186000D02*
X75992000Y-98186000D01*
X75992000Y-96886000D01*
X76892000Y-96886000D01*
X76892000Y-98186000D01*
X76892000Y-98186000D01*
G37*
G36*
X85020000Y-98186000D02*
X84120000Y-98186000D01*
X84120000Y-96886000D01*
X85020000Y-96886000D01*
X85020000Y-98186000D01*
X85020000Y-98186000D01*
G37*
G36*
X83520000Y-98186000D02*
X82620000Y-98186000D01*
X82620000Y-96886000D01*
X83520000Y-96886000D01*
X83520000Y-98186000D01*
X83520000Y-98186000D01*
G37*
G36*
X73532000Y-97374000D02*
X72232000Y-97374000D01*
X72232000Y-96174000D01*
X73532000Y-96174000D01*
X73532000Y-97374000D01*
X73532000Y-97374000D01*
G37*
G36*
X79588935Y-94406429D02*
X79685534Y-94425644D01*
X79958517Y-94538717D01*
X80095131Y-94630000D01*
X80204197Y-94702876D01*
X80413124Y-94911803D01*
X80413126Y-94911806D01*
X80577283Y-95157483D01*
X80690356Y-95430466D01*
X80748000Y-95720263D01*
X80748000Y-96015737D01*
X80690356Y-96305534D01*
X80664482Y-96368000D01*
X80577284Y-96578515D01*
X80413124Y-96824197D01*
X80204197Y-97033124D01*
X80204194Y-97033126D01*
X79958517Y-97197283D01*
X79685534Y-97310356D01*
X79588935Y-97329571D01*
X79395739Y-97368000D01*
X79100261Y-97368000D01*
X78907065Y-97329571D01*
X78810466Y-97310356D01*
X78537483Y-97197283D01*
X78291806Y-97033126D01*
X78291803Y-97033124D01*
X78082876Y-96824197D01*
X77918716Y-96578515D01*
X77831518Y-96368000D01*
X77805644Y-96305534D01*
X77748000Y-96015737D01*
X77748000Y-95720263D01*
X77805644Y-95430466D01*
X77918717Y-95157483D01*
X78082874Y-94911806D01*
X78082876Y-94911803D01*
X78291803Y-94702876D01*
X78400869Y-94630000D01*
X78537483Y-94538717D01*
X78810466Y-94425644D01*
X78907065Y-94406429D01*
X79100261Y-94368000D01*
X79395739Y-94368000D01*
X79588935Y-94406429D01*
X79588935Y-94406429D01*
G37*
G36*
X71532000Y-96424000D02*
X70232000Y-96424000D01*
X70232000Y-95224000D01*
X71532000Y-95224000D01*
X71532000Y-96424000D01*
X71532000Y-96424000D01*
G37*
G36*
X89026000Y-95022000D02*
X87847000Y-95022000D01*
X87822614Y-95024402D01*
X87799165Y-95031515D01*
X87777554Y-95043066D01*
X87758612Y-95058612D01*
X87743066Y-95077554D01*
X87731515Y-95099165D01*
X87724402Y-95122614D01*
X87722000Y-95147000D01*
X87722000Y-96424000D01*
X86522000Y-96424000D01*
X86522000Y-95124000D01*
X87601000Y-95124000D01*
X87625386Y-95121598D01*
X87648835Y-95114485D01*
X87670446Y-95102934D01*
X87689388Y-95087388D01*
X87704934Y-95068446D01*
X87716485Y-95046835D01*
X87723598Y-95023386D01*
X87726000Y-94999000D01*
X87726000Y-93822000D01*
X89026000Y-93822000D01*
X89026000Y-95022000D01*
X89026000Y-95022000D01*
G37*
G36*
X82848000Y-93265865D02*
X82850402Y-93290251D01*
X82857515Y-93313700D01*
X82869066Y-93335311D01*
X82884612Y-93354253D01*
X82903554Y-93369799D01*
X82925165Y-93381350D01*
X82948614Y-93388463D01*
X82973000Y-93390865D01*
X82997386Y-93388463D01*
X83100261Y-93368000D01*
X83395739Y-93368000D01*
X83510688Y-93390865D01*
X83685534Y-93425644D01*
X83958517Y-93538717D01*
X84113759Y-93642447D01*
X84204197Y-93702876D01*
X84413124Y-93911803D01*
X84413126Y-93911806D01*
X84577283Y-94157483D01*
X84688359Y-94425644D01*
X84690356Y-94430467D01*
X84748000Y-94720261D01*
X84748000Y-95015739D01*
X84739472Y-95058612D01*
X84690356Y-95305534D01*
X84638607Y-95430467D01*
X84577284Y-95578515D01*
X84413124Y-95824197D01*
X84204197Y-96033124D01*
X84204194Y-96033126D01*
X83958517Y-96197283D01*
X83685534Y-96310356D01*
X83588935Y-96329571D01*
X83395739Y-96368000D01*
X83100261Y-96368000D01*
X82907065Y-96329571D01*
X82810466Y-96310356D01*
X82537483Y-96197283D01*
X82291806Y-96033126D01*
X82291803Y-96033124D01*
X82082876Y-95824197D01*
X81918716Y-95578515D01*
X81857393Y-95430467D01*
X81805644Y-95305534D01*
X81756528Y-95058612D01*
X81748000Y-95015739D01*
X81748000Y-94720261D01*
X81805644Y-94430467D01*
X81807642Y-94425644D01*
X81918717Y-94157483D01*
X82082874Y-93911806D01*
X82082876Y-93911803D01*
X82291803Y-93702876D01*
X82330628Y-93676934D01*
X82349570Y-93661389D01*
X82365116Y-93642447D01*
X82376667Y-93620836D01*
X82383780Y-93597387D01*
X82386182Y-93573000D01*
X82383780Y-93548614D01*
X82376667Y-93525165D01*
X82365116Y-93503554D01*
X82349571Y-93484612D01*
X82330629Y-93469066D01*
X82309018Y-93457515D01*
X82285569Y-93450402D01*
X82261182Y-93448000D01*
X79948000Y-93448000D01*
X79948000Y-92198000D01*
X82848000Y-92198000D01*
X82848000Y-93265865D01*
X82848000Y-93265865D01*
G37*
G36*
X78548000Y-93448000D02*
X76234818Y-93448000D01*
X76210432Y-93450402D01*
X76186983Y-93457515D01*
X76165372Y-93469066D01*
X76146430Y-93484612D01*
X76130884Y-93503554D01*
X76119333Y-93525165D01*
X76112220Y-93548614D01*
X76109818Y-93573000D01*
X76112220Y-93597386D01*
X76119333Y-93620835D01*
X76130884Y-93642446D01*
X76146430Y-93661388D01*
X76165372Y-93676934D01*
X76204197Y-93702876D01*
X76413124Y-93911803D01*
X76413126Y-93911806D01*
X76577283Y-94157483D01*
X76688359Y-94425644D01*
X76690356Y-94430467D01*
X76748000Y-94720261D01*
X76748000Y-95015739D01*
X76739472Y-95058612D01*
X76690356Y-95305534D01*
X76638607Y-95430467D01*
X76577284Y-95578515D01*
X76413124Y-95824197D01*
X76204197Y-96033124D01*
X76204194Y-96033126D01*
X75958517Y-96197283D01*
X75685534Y-96310356D01*
X75588935Y-96329571D01*
X75395739Y-96368000D01*
X75100261Y-96368000D01*
X74907065Y-96329571D01*
X74810466Y-96310356D01*
X74537483Y-96197283D01*
X74291806Y-96033126D01*
X74291803Y-96033124D01*
X74082876Y-95824197D01*
X73918716Y-95578515D01*
X73857393Y-95430467D01*
X73805644Y-95305534D01*
X73756528Y-95058612D01*
X73748000Y-95015739D01*
X73748000Y-94720261D01*
X73805644Y-94430467D01*
X73807642Y-94425644D01*
X73918717Y-94157483D01*
X74082874Y-93911806D01*
X74082876Y-93911803D01*
X74291803Y-93702876D01*
X74382241Y-93642447D01*
X74537483Y-93538717D01*
X74810466Y-93425644D01*
X74985312Y-93390865D01*
X75100261Y-93368000D01*
X75395739Y-93368000D01*
X75498614Y-93388463D01*
X75523000Y-93390865D01*
X75547386Y-93388463D01*
X75570836Y-93381350D01*
X75592446Y-93369799D01*
X75611388Y-93354253D01*
X75626934Y-93335311D01*
X75638485Y-93313700D01*
X75645598Y-93290251D01*
X75648000Y-93265865D01*
X75648000Y-92198000D01*
X78548000Y-92198000D01*
X78548000Y-93448000D01*
X78548000Y-93448000D01*
G37*
G36*
X70820000Y-94630000D02*
X69920000Y-94630000D01*
X69920000Y-93330000D01*
X70820000Y-93330000D01*
X70820000Y-94630000D01*
X70820000Y-94630000D01*
G37*
G36*
X72320000Y-94630000D02*
X71420000Y-94630000D01*
X71420000Y-93330000D01*
X72320000Y-93330000D01*
X72320000Y-94630000D01*
X72320000Y-94630000D01*
G37*
G36*
X85338935Y-89906429D02*
X85435534Y-89925644D01*
X85628560Y-90005598D01*
X85685218Y-90029066D01*
X85708517Y-90038717D01*
X85849621Y-90133000D01*
X85954197Y-90202876D01*
X86163124Y-90411803D01*
X86163126Y-90411806D01*
X86327283Y-90657483D01*
X86440356Y-90930466D01*
X86498000Y-91220263D01*
X86498000Y-91515737D01*
X86440356Y-91805534D01*
X86327283Y-92078517D01*
X86165313Y-92320920D01*
X86163124Y-92324197D01*
X85954197Y-92533124D01*
X85789658Y-92643066D01*
X85770716Y-92658612D01*
X85755170Y-92677554D01*
X85743619Y-92699165D01*
X85736506Y-92722614D01*
X85734104Y-92747000D01*
X85736506Y-92771386D01*
X85743619Y-92794836D01*
X85755170Y-92816446D01*
X85770716Y-92835388D01*
X85789658Y-92850934D01*
X85811269Y-92862485D01*
X85834718Y-92869598D01*
X85859104Y-92872000D01*
X87026000Y-92872000D01*
X87026000Y-94072000D01*
X85726000Y-94072000D01*
X85726000Y-92877117D01*
X85723598Y-92852731D01*
X85716485Y-92829282D01*
X85704934Y-92807671D01*
X85689388Y-92788729D01*
X85670446Y-92773183D01*
X85648835Y-92761632D01*
X85625386Y-92754519D01*
X85601000Y-92752117D01*
X85576614Y-92754519D01*
X85553165Y-92761632D01*
X85435534Y-92810356D01*
X85145739Y-92868000D01*
X84850261Y-92868000D01*
X84591083Y-92816446D01*
X84560466Y-92810356D01*
X84367440Y-92730402D01*
X84287485Y-92697284D01*
X84287484Y-92697284D01*
X84287483Y-92697283D01*
X84041806Y-92533126D01*
X84041803Y-92533124D01*
X83832876Y-92324197D01*
X83830687Y-92320920D01*
X83668717Y-92078517D01*
X83555644Y-91805534D01*
X83498000Y-91515737D01*
X83498000Y-91220263D01*
X83555644Y-90930466D01*
X83668717Y-90657483D01*
X83832874Y-90411806D01*
X83832876Y-90411803D01*
X84041803Y-90202876D01*
X84146379Y-90133000D01*
X84287483Y-90038717D01*
X84310783Y-90029066D01*
X84454624Y-89969485D01*
X84476235Y-89957934D01*
X84495177Y-89942388D01*
X84508455Y-89926209D01*
X84508614Y-89926257D01*
X84533000Y-89928659D01*
X84557386Y-89926257D01*
X84560464Y-89925645D01*
X84560466Y-89925644D01*
X84694898Y-89898904D01*
X84850261Y-89868000D01*
X85145739Y-89868000D01*
X85338935Y-89906429D01*
X85338935Y-89906429D01*
G37*
G36*
X89026000Y-93122000D02*
X87726000Y-93122000D01*
X87726000Y-91922000D01*
X89026000Y-91922000D01*
X89026000Y-93122000D01*
X89026000Y-93122000D01*
G37*
G36*
X72770000Y-89858883D02*
X72772402Y-89883269D01*
X72779515Y-89906718D01*
X72791066Y-89928329D01*
X72806612Y-89947271D01*
X72825554Y-89962817D01*
X72847165Y-89974368D01*
X72870614Y-89981481D01*
X72895000Y-89983883D01*
X72919386Y-89981481D01*
X72942835Y-89974368D01*
X73060466Y-89925644D01*
X73350261Y-89868000D01*
X73645739Y-89868000D01*
X73838935Y-89906429D01*
X73935534Y-89925644D01*
X74128560Y-90005598D01*
X74185218Y-90029066D01*
X74208517Y-90038717D01*
X74349621Y-90133000D01*
X74454197Y-90202876D01*
X74663124Y-90411803D01*
X74663126Y-90411806D01*
X74827283Y-90657483D01*
X74940356Y-90930466D01*
X74998000Y-91220263D01*
X74998000Y-91515737D01*
X74940356Y-91805534D01*
X74827283Y-92078517D01*
X74665313Y-92320920D01*
X74663124Y-92324197D01*
X74454197Y-92533124D01*
X74454194Y-92533126D01*
X74208517Y-92697283D01*
X74208516Y-92697284D01*
X74208515Y-92697284D01*
X74128560Y-92730402D01*
X73935534Y-92810356D01*
X73904917Y-92816446D01*
X73645739Y-92868000D01*
X73350261Y-92868000D01*
X73091083Y-92816446D01*
X73060466Y-92810356D01*
X72867440Y-92730402D01*
X72787485Y-92697284D01*
X72787484Y-92697284D01*
X72787483Y-92697283D01*
X72541806Y-92533126D01*
X72541803Y-92533124D01*
X72332876Y-92324197D01*
X72330687Y-92320920D01*
X72168717Y-92078517D01*
X72055644Y-91805534D01*
X71998000Y-91515737D01*
X71998000Y-91220263D01*
X72055644Y-90930466D01*
X72168717Y-90657483D01*
X72332874Y-90411806D01*
X72332876Y-90411803D01*
X72523291Y-90221388D01*
X72538837Y-90202446D01*
X72550388Y-90180835D01*
X72557501Y-90157386D01*
X72559903Y-90133000D01*
X72557501Y-90108614D01*
X72550388Y-90085165D01*
X72538837Y-90063554D01*
X72523291Y-90044612D01*
X72504349Y-90029066D01*
X72482738Y-90017515D01*
X72459289Y-90010402D01*
X72434903Y-90008000D01*
X71470000Y-90008000D01*
X71470000Y-88808000D01*
X72770000Y-88808000D01*
X72770000Y-89858883D01*
X72770000Y-89858883D01*
G37*
G36*
X78548000Y-91698000D02*
X75648000Y-91698000D01*
X75648000Y-90448000D01*
X78548000Y-90448000D01*
X78548000Y-91698000D01*
X78548000Y-91698000D01*
G37*
G36*
X82848000Y-91698000D02*
X79948000Y-91698000D01*
X79948000Y-90448000D01*
X82848000Y-90448000D01*
X82848000Y-91698000D01*
X82848000Y-91698000D01*
G37*
G36*
X88280000Y-91370000D02*
X86980000Y-91370000D01*
X86980000Y-90470000D01*
X88280000Y-90470000D01*
X88280000Y-91370000D01*
X88280000Y-91370000D01*
G37*
G36*
X70770000Y-90958000D02*
X69470000Y-90958000D01*
X69470000Y-89758000D01*
X70770000Y-89758000D01*
X70770000Y-90958000D01*
X70770000Y-90958000D01*
G37*
G36*
X88280000Y-89870000D02*
X86980000Y-89870000D01*
X86980000Y-88970000D01*
X88280000Y-88970000D01*
X88280000Y-89870000D01*
X88280000Y-89870000D01*
G37*
G36*
X84408000Y-89729119D02*
X84406789Y-89729000D01*
X83208000Y-89729000D01*
X83208000Y-88579000D01*
X84408000Y-88579000D01*
X84408000Y-89729119D01*
X84408000Y-89729119D01*
G37*
G36*
X82908000Y-89729000D02*
X81708000Y-89729000D01*
X81708000Y-88579000D01*
X82908000Y-88579000D01*
X82908000Y-89729000D01*
X82908000Y-89729000D01*
G37*
G36*
X82576000Y-83241548D02*
X82574934Y-83239554D01*
X82559388Y-83220612D01*
X82540446Y-83205066D01*
X82518835Y-83193515D01*
X82495386Y-83186402D01*
X82471000Y-83184000D01*
X82121000Y-83184000D01*
X82096614Y-83186402D01*
X82073165Y-83193515D01*
X82051554Y-83205066D01*
X82032612Y-83220612D01*
X82017066Y-83239554D01*
X82005515Y-83261165D01*
X81998402Y-83284614D01*
X81996000Y-83309000D01*
X81996000Y-84724000D01*
X81224154Y-84724000D01*
X81199768Y-84726402D01*
X81176319Y-84733515D01*
X81154708Y-84745066D01*
X81135766Y-84760612D01*
X81120220Y-84779554D01*
X81108669Y-84801165D01*
X81101556Y-84824614D01*
X81099154Y-84849000D01*
X81101556Y-84873386D01*
X81108669Y-84896835D01*
X81120220Y-84918446D01*
X81135766Y-84937388D01*
X81345225Y-85146847D01*
X81345227Y-85146850D01*
X81639083Y-85586636D01*
X81640710Y-85589072D01*
X81844241Y-86080440D01*
X81948000Y-86602072D01*
X81948000Y-87133928D01*
X81844241Y-87655560D01*
X81687849Y-88033124D01*
X81640709Y-88146930D01*
X81557261Y-88271818D01*
X81481934Y-88384554D01*
X81480712Y-88386841D01*
X81479066Y-88388846D01*
X81345225Y-88589153D01*
X80969153Y-88965225D01*
X80969150Y-88965227D01*
X80526930Y-89260709D01*
X80526929Y-89260710D01*
X80526928Y-89260710D01*
X80035560Y-89464241D01*
X79513928Y-89568000D01*
X78982072Y-89568000D01*
X78460440Y-89464241D01*
X77969072Y-89260710D01*
X77969071Y-89260710D01*
X77969070Y-89260709D01*
X77526850Y-88965227D01*
X77526847Y-88965225D01*
X77150775Y-88589153D01*
X77016934Y-88388846D01*
X76855291Y-88146930D01*
X76808151Y-88033124D01*
X76651759Y-87655560D01*
X76548000Y-87133928D01*
X76548000Y-86602072D01*
X76651759Y-86080440D01*
X76703786Y-85954835D01*
X76710899Y-85931386D01*
X76713301Y-85907000D01*
X76710899Y-85882614D01*
X76703786Y-85859164D01*
X76692235Y-85837554D01*
X76676689Y-85818612D01*
X76657747Y-85803066D01*
X76636136Y-85791515D01*
X76612687Y-85784402D01*
X76588301Y-85782000D01*
X75296000Y-85782000D01*
X75296000Y-84882000D01*
X76596000Y-84882000D01*
X76596000Y-85586636D01*
X76598402Y-85611022D01*
X76605515Y-85634471D01*
X76617066Y-85656082D01*
X76632612Y-85675024D01*
X76651554Y-85690570D01*
X76673165Y-85702121D01*
X76696614Y-85709234D01*
X76721000Y-85711636D01*
X76745386Y-85709234D01*
X76768835Y-85702121D01*
X76790446Y-85690570D01*
X76809388Y-85675024D01*
X76824934Y-85656082D01*
X76836485Y-85634471D01*
X76855290Y-85589072D01*
X76856918Y-85586636D01*
X77150773Y-85146850D01*
X77150775Y-85146847D01*
X77526847Y-84770775D01*
X77749994Y-84621673D01*
X77969070Y-84475291D01*
X77969072Y-84475290D01*
X78460440Y-84271759D01*
X78982072Y-84168000D01*
X79513928Y-84168000D01*
X80035560Y-84271759D01*
X80526928Y-84475290D01*
X80526930Y-84475291D01*
X80746006Y-84621673D01*
X80901554Y-84725607D01*
X80923165Y-84737158D01*
X80946614Y-84744271D01*
X80971000Y-84746673D01*
X80995386Y-84744271D01*
X81018835Y-84737158D01*
X81040446Y-84725607D01*
X81059388Y-84710061D01*
X81074934Y-84691119D01*
X81086485Y-84669508D01*
X81093598Y-84646059D01*
X81096000Y-84621673D01*
X81096000Y-83424000D01*
X81251000Y-83424000D01*
X81275386Y-83421598D01*
X81298835Y-83414485D01*
X81320446Y-83402934D01*
X81339388Y-83387388D01*
X81354934Y-83368446D01*
X81366485Y-83346835D01*
X81373598Y-83323386D01*
X81376000Y-83299000D01*
X81376000Y-81884000D01*
X82576000Y-81884000D01*
X82576000Y-83241548D01*
X82576000Y-83241548D01*
G37*
G36*
X70770000Y-89058000D02*
X69470000Y-89058000D01*
X69470000Y-87858000D01*
X70770000Y-87858000D01*
X70770000Y-89058000D01*
X70770000Y-89058000D01*
G37*
G36*
X73838935Y-85406429D02*
X73935534Y-85425644D01*
X74208517Y-85538717D01*
X74351822Y-85634471D01*
X74454197Y-85702876D01*
X74663124Y-85911803D01*
X74663126Y-85911806D01*
X74827283Y-86157483D01*
X74940356Y-86430466D01*
X74949940Y-86478647D01*
X74998000Y-86720261D01*
X74998000Y-87015739D01*
X74959571Y-87208935D01*
X74940356Y-87305534D01*
X74827283Y-87578517D01*
X74665313Y-87820920D01*
X74663124Y-87824197D01*
X74454197Y-88033124D01*
X74454194Y-88033126D01*
X74208517Y-88197283D01*
X73935534Y-88310356D01*
X73838935Y-88329571D01*
X73645739Y-88368000D01*
X73350261Y-88368000D01*
X73157065Y-88329571D01*
X73060466Y-88310356D01*
X72787483Y-88197283D01*
X72541806Y-88033126D01*
X72541803Y-88033124D01*
X72332876Y-87824197D01*
X72330687Y-87820920D01*
X72168717Y-87578517D01*
X72055644Y-87305534D01*
X72055644Y-87305533D01*
X72052485Y-87297907D01*
X72040934Y-87276296D01*
X72025389Y-87257354D01*
X72006447Y-87241808D01*
X71984836Y-87230257D01*
X71961387Y-87223144D01*
X71937000Y-87220742D01*
X71912614Y-87223144D01*
X71889165Y-87230257D01*
X71867554Y-87241808D01*
X71848612Y-87257353D01*
X71833066Y-87276295D01*
X71821515Y-87297906D01*
X71814402Y-87321355D01*
X71812000Y-87345742D01*
X71812000Y-87518000D01*
X70912000Y-87518000D01*
X70912000Y-86218000D01*
X71812000Y-86218000D01*
X71812000Y-86390258D01*
X71814402Y-86414644D01*
X71821515Y-86438093D01*
X71833066Y-86459704D01*
X71848612Y-86478646D01*
X71867554Y-86494192D01*
X71889165Y-86505743D01*
X71912614Y-86512856D01*
X71937000Y-86515258D01*
X71961386Y-86512856D01*
X71984835Y-86505743D01*
X72006446Y-86494192D01*
X72025388Y-86478646D01*
X72040934Y-86459704D01*
X72052485Y-86438093D01*
X72168716Y-86157485D01*
X72220197Y-86080439D01*
X72332874Y-85911806D01*
X72332876Y-85911803D01*
X72541803Y-85702876D01*
X72644178Y-85634471D01*
X72787483Y-85538717D01*
X73060466Y-85425644D01*
X73157065Y-85406429D01*
X73350261Y-85368000D01*
X73645739Y-85368000D01*
X73838935Y-85406429D01*
X73838935Y-85406429D01*
G37*
G36*
X85338935Y-85406429D02*
X85435534Y-85425644D01*
X85708517Y-85538717D01*
X85851822Y-85634471D01*
X85954197Y-85702876D01*
X86163124Y-85911803D01*
X86163126Y-85911806D01*
X86275804Y-86080439D01*
X86327284Y-86157485D01*
X86443515Y-86438093D01*
X86455066Y-86459704D01*
X86470611Y-86478646D01*
X86489553Y-86494192D01*
X86511164Y-86505743D01*
X86534613Y-86512856D01*
X86559000Y-86515258D01*
X86583386Y-86512856D01*
X86606835Y-86505743D01*
X86628446Y-86494192D01*
X86647388Y-86478647D01*
X86662934Y-86459705D01*
X86674485Y-86438094D01*
X86681598Y-86414645D01*
X86684000Y-86390258D01*
X86684000Y-86218000D01*
X87584000Y-86218000D01*
X87584000Y-87518000D01*
X86684000Y-87518000D01*
X86684000Y-87345742D01*
X86681598Y-87321356D01*
X86674485Y-87297907D01*
X86662934Y-87276296D01*
X86647388Y-87257354D01*
X86628446Y-87241808D01*
X86606835Y-87230257D01*
X86583386Y-87223144D01*
X86559000Y-87220742D01*
X86534614Y-87223144D01*
X86511165Y-87230257D01*
X86489554Y-87241808D01*
X86470612Y-87257354D01*
X86455066Y-87276296D01*
X86443515Y-87297907D01*
X86440356Y-87305533D01*
X86440356Y-87305534D01*
X86327283Y-87578517D01*
X86165313Y-87820920D01*
X86163124Y-87824197D01*
X85954197Y-88033124D01*
X85954194Y-88033126D01*
X85708517Y-88197283D01*
X85435534Y-88310356D01*
X85338935Y-88329571D01*
X85145739Y-88368000D01*
X84850261Y-88368000D01*
X84657065Y-88329571D01*
X84560466Y-88310356D01*
X84287483Y-88197283D01*
X84041806Y-88033126D01*
X84041803Y-88033124D01*
X83832876Y-87824197D01*
X83830687Y-87820920D01*
X83668717Y-87578517D01*
X83555644Y-87305534D01*
X83536429Y-87208935D01*
X83498000Y-87015739D01*
X83498000Y-86720261D01*
X83546060Y-86478647D01*
X83555644Y-86430466D01*
X83668717Y-86157483D01*
X83832874Y-85911806D01*
X83832876Y-85911803D01*
X84041803Y-85702876D01*
X84144178Y-85634471D01*
X84287483Y-85538717D01*
X84560466Y-85425644D01*
X84657065Y-85406429D01*
X84850261Y-85368000D01*
X85145739Y-85368000D01*
X85338935Y-85406429D01*
X85338935Y-85406429D01*
G37*
G36*
X89084000Y-87518000D02*
X88184000Y-87518000D01*
X88184000Y-86218000D01*
X89084000Y-86218000D01*
X89084000Y-87518000D01*
X89084000Y-87518000D01*
G37*
G36*
X70312000Y-87518000D02*
X69412000Y-87518000D01*
X69412000Y-86218000D01*
X70312000Y-86218000D01*
X70312000Y-87518000D01*
X70312000Y-87518000D01*
G37*
G36*
X89026000Y-85878000D02*
X87726000Y-85878000D01*
X87726000Y-84678000D01*
X89026000Y-84678000D01*
X89026000Y-85878000D01*
X89026000Y-85878000D01*
G37*
G36*
X70770000Y-85878000D02*
X69470000Y-85878000D01*
X69470000Y-84678000D01*
X70770000Y-84678000D01*
X70770000Y-85878000D01*
X70770000Y-85878000D01*
G37*
G36*
X72228000Y-81214903D02*
X72230402Y-81239289D01*
X72237515Y-81262738D01*
X72249066Y-81284349D01*
X72264612Y-81303291D01*
X72283554Y-81318837D01*
X72305165Y-81330388D01*
X72328614Y-81337501D01*
X72353000Y-81339903D01*
X72377386Y-81337501D01*
X72400835Y-81330388D01*
X72422446Y-81318837D01*
X72441388Y-81303291D01*
X72541803Y-81202876D01*
X72570053Y-81184000D01*
X72787483Y-81038717D01*
X73060466Y-80925644D01*
X73157065Y-80906429D01*
X73350261Y-80868000D01*
X73645739Y-80868000D01*
X73838935Y-80906429D01*
X73935534Y-80925644D01*
X74208517Y-81038717D01*
X74425947Y-81184000D01*
X74454197Y-81202876D01*
X74663124Y-81411803D01*
X74663126Y-81411806D01*
X74827283Y-81657483D01*
X74940356Y-81930466D01*
X74998000Y-82220263D01*
X74998000Y-82515737D01*
X74940356Y-82805534D01*
X74827283Y-83078517D01*
X74689573Y-83284614D01*
X74663124Y-83324197D01*
X74454197Y-83533124D01*
X74454194Y-83533126D01*
X74208517Y-83697283D01*
X74208516Y-83697284D01*
X74208515Y-83697284D01*
X74157331Y-83718485D01*
X73935534Y-83810356D01*
X73840386Y-83829282D01*
X73645739Y-83868000D01*
X73350261Y-83868000D01*
X73060466Y-83810356D01*
X72942835Y-83761632D01*
X72919386Y-83754519D01*
X72894999Y-83752117D01*
X72870613Y-83754519D01*
X72847164Y-83761632D01*
X72825553Y-83773184D01*
X72806611Y-83788729D01*
X72791066Y-83807671D01*
X72779515Y-83829282D01*
X72772402Y-83852731D01*
X72770000Y-83877117D01*
X72770000Y-84928000D01*
X71470000Y-84928000D01*
X71470000Y-83728000D01*
X72434903Y-83728000D01*
X72459289Y-83725598D01*
X72482738Y-83718485D01*
X72504349Y-83706934D01*
X72523291Y-83691388D01*
X72538837Y-83672446D01*
X72550388Y-83650835D01*
X72557501Y-83627386D01*
X72559903Y-83603000D01*
X72557501Y-83578614D01*
X72550388Y-83555165D01*
X72538837Y-83533554D01*
X72523291Y-83514612D01*
X72332876Y-83324197D01*
X72306427Y-83284614D01*
X72168717Y-83078517D01*
X72055644Y-82805534D01*
X71998000Y-82515737D01*
X71998000Y-82220263D01*
X72055644Y-81930466D01*
X72168716Y-81657485D01*
X72168716Y-81657484D01*
X72206828Y-81600446D01*
X72218379Y-81578835D01*
X72225492Y-81555386D01*
X72227894Y-81531000D01*
X72225492Y-81506614D01*
X72218379Y-81483165D01*
X72206828Y-81461554D01*
X72191282Y-81442612D01*
X72172340Y-81427066D01*
X72150729Y-81415515D01*
X72127280Y-81408402D01*
X72102894Y-81406000D01*
X71028000Y-81406000D01*
X71028000Y-80106000D01*
X72228000Y-80106000D01*
X72228000Y-81214903D01*
X72228000Y-81214903D01*
G37*
G36*
X85338935Y-80906429D02*
X85435534Y-80925644D01*
X85708517Y-81038717D01*
X85925947Y-81184000D01*
X85954197Y-81202876D01*
X86163124Y-81411803D01*
X86163126Y-81411806D01*
X86327283Y-81657483D01*
X86440356Y-81930466D01*
X86498000Y-82220263D01*
X86498000Y-82515737D01*
X86440356Y-82805534D01*
X86327283Y-83078517D01*
X86189573Y-83284614D01*
X86163124Y-83324197D01*
X85972709Y-83514612D01*
X85957163Y-83533554D01*
X85945612Y-83555165D01*
X85938499Y-83578614D01*
X85936097Y-83603000D01*
X85938499Y-83627386D01*
X85945612Y-83650835D01*
X85957163Y-83672446D01*
X85972709Y-83691388D01*
X85991651Y-83706934D01*
X86013262Y-83718485D01*
X86036711Y-83725598D01*
X86061097Y-83728000D01*
X87026000Y-83728000D01*
X87026000Y-84928000D01*
X85726000Y-84928000D01*
X85726000Y-83877117D01*
X85723598Y-83852731D01*
X85716485Y-83829282D01*
X85704934Y-83807671D01*
X85689388Y-83788729D01*
X85670446Y-83773183D01*
X85648835Y-83761632D01*
X85625386Y-83754519D01*
X85601000Y-83752117D01*
X85576614Y-83754519D01*
X85553165Y-83761632D01*
X85435534Y-83810356D01*
X85145739Y-83868000D01*
X84850261Y-83868000D01*
X84655614Y-83829282D01*
X84560466Y-83810356D01*
X84338669Y-83718485D01*
X84287485Y-83697284D01*
X84287484Y-83697284D01*
X84287483Y-83697283D01*
X84041806Y-83533126D01*
X84041803Y-83533124D01*
X83832876Y-83324197D01*
X83806427Y-83284614D01*
X83668717Y-83078517D01*
X83555644Y-82805534D01*
X83498000Y-82515737D01*
X83498000Y-82220263D01*
X83555644Y-81930466D01*
X83668717Y-81657483D01*
X83832874Y-81411806D01*
X83832876Y-81411803D01*
X84041803Y-81202876D01*
X84070053Y-81184000D01*
X84287483Y-81038717D01*
X84560466Y-80925644D01*
X84657065Y-80906429D01*
X84850261Y-80868000D01*
X85145739Y-80868000D01*
X85338935Y-80906429D01*
X85338935Y-80906429D01*
G37*
G36*
X82597066Y-83368446D02*
X82612612Y-83387388D01*
X82631554Y-83402934D01*
X82653165Y-83414485D01*
X82676614Y-83421598D01*
X82701000Y-83424000D01*
X83496000Y-83424000D01*
X83496000Y-84724000D01*
X82596000Y-84724000D01*
X82596000Y-83366452D01*
X82597066Y-83368446D01*
X82597066Y-83368446D01*
G37*
G36*
X77120000Y-83184000D02*
X76721000Y-83184000D01*
X76696614Y-83186402D01*
X76673165Y-83193515D01*
X76651554Y-83205066D01*
X76632612Y-83220612D01*
X76617066Y-83239554D01*
X76605515Y-83261165D01*
X76598402Y-83284614D01*
X76596000Y-83309000D01*
X76596000Y-84282000D01*
X75296000Y-84282000D01*
X75296000Y-83382000D01*
X75795000Y-83382000D01*
X75819386Y-83379598D01*
X75842835Y-83372485D01*
X75864446Y-83360934D01*
X75883388Y-83345388D01*
X75898934Y-83326446D01*
X75910485Y-83304835D01*
X75917598Y-83281386D01*
X75920000Y-83257000D01*
X75920000Y-81884000D01*
X77120000Y-81884000D01*
X77120000Y-83184000D01*
X77120000Y-83184000D01*
G37*
G36*
X70754000Y-82653000D02*
X70756402Y-82677386D01*
X70763515Y-82700835D01*
X70770000Y-82712968D01*
X70770000Y-83978000D01*
X69470000Y-83978000D01*
X69470000Y-82859000D01*
X69467598Y-82834614D01*
X69460485Y-82811165D01*
X69454000Y-82799032D01*
X69454000Y-81834000D01*
X70754000Y-81834000D01*
X70754000Y-82653000D01*
X70754000Y-82653000D01*
G37*
G36*
X89026000Y-83978000D02*
X87726000Y-83978000D01*
X87726000Y-82778000D01*
X89026000Y-82778000D01*
X89026000Y-83978000D01*
X89026000Y-83978000D01*
G37*
G36*
X79020000Y-83184000D02*
X77820000Y-83184000D01*
X77820000Y-81884000D01*
X79020000Y-81884000D01*
X79020000Y-83184000D01*
X79020000Y-83184000D01*
G37*
G36*
X80676000Y-83184000D02*
X79476000Y-83184000D01*
X79476000Y-81884000D01*
X80676000Y-81884000D01*
X80676000Y-83184000D01*
X80676000Y-83184000D01*
G37*
G36*
X87722000Y-81406000D02*
X86522000Y-81406000D01*
X86522000Y-80106000D01*
X87722000Y-80106000D01*
X87722000Y-81406000D01*
X87722000Y-81406000D01*
G37*
G36*
X70754000Y-81234000D02*
X69454000Y-81234000D01*
X69454000Y-80334000D01*
X70754000Y-80334000D01*
X70754000Y-81234000D01*
X70754000Y-81234000D01*
G37*
G36*
X81626000Y-81184000D02*
X80426000Y-81184000D01*
X80426000Y-79884000D01*
X81626000Y-79884000D01*
X81626000Y-81184000D01*
X81626000Y-81184000D01*
G37*
G36*
X78070000Y-81184000D02*
X76870000Y-81184000D01*
X76870000Y-79884000D01*
X78070000Y-79884000D01*
X78070000Y-81184000D01*
X78070000Y-81184000D01*
G37*
G36*
X75588935Y-77406429D02*
X75685534Y-77425644D01*
X75958517Y-77538717D01*
X76068192Y-77612000D01*
X76204197Y-77702876D01*
X76413124Y-77911803D01*
X76413126Y-77911806D01*
X76577283Y-78157483D01*
X76690356Y-78430466D01*
X76748000Y-78720263D01*
X76748000Y-79015737D01*
X76690356Y-79305534D01*
X76664482Y-79368000D01*
X76577284Y-79578515D01*
X76413124Y-79824197D01*
X76204197Y-80033124D01*
X76204194Y-80033126D01*
X75958517Y-80197283D01*
X75685534Y-80310356D01*
X75588935Y-80329571D01*
X75395739Y-80368000D01*
X75100261Y-80368000D01*
X74907065Y-80329571D01*
X74810466Y-80310356D01*
X74537483Y-80197283D01*
X74291806Y-80033126D01*
X74291803Y-80033124D01*
X74082876Y-79824197D01*
X73918716Y-79578515D01*
X73831518Y-79368000D01*
X73805644Y-79305534D01*
X73748000Y-79015737D01*
X73748000Y-78720263D01*
X73805644Y-78430466D01*
X73918717Y-78157483D01*
X74082874Y-77911806D01*
X74082876Y-77911803D01*
X74291803Y-77702876D01*
X74427808Y-77612000D01*
X74537483Y-77538717D01*
X74810466Y-77425644D01*
X74907065Y-77406429D01*
X75100261Y-77368000D01*
X75395739Y-77368000D01*
X75588935Y-77406429D01*
X75588935Y-77406429D01*
G37*
G36*
X83588935Y-77406429D02*
X83685534Y-77425644D01*
X83958517Y-77538717D01*
X84068192Y-77612000D01*
X84204197Y-77702876D01*
X84413124Y-77911803D01*
X84413126Y-77911806D01*
X84577283Y-78157483D01*
X84690356Y-78430466D01*
X84748000Y-78720263D01*
X84748000Y-79015737D01*
X84690356Y-79305534D01*
X84664482Y-79368000D01*
X84577284Y-79578515D01*
X84413124Y-79824197D01*
X84204197Y-80033124D01*
X84204194Y-80033126D01*
X83958517Y-80197283D01*
X83685534Y-80310356D01*
X83588935Y-80329571D01*
X83395739Y-80368000D01*
X83100261Y-80368000D01*
X82907065Y-80329571D01*
X82810466Y-80310356D01*
X82537483Y-80197283D01*
X82291806Y-80033126D01*
X82291803Y-80033124D01*
X82082876Y-79824197D01*
X81918716Y-79578515D01*
X81831518Y-79368000D01*
X81805644Y-79305534D01*
X81748000Y-79015737D01*
X81748000Y-78720263D01*
X81805644Y-78430466D01*
X81918717Y-78157483D01*
X82082874Y-77911806D01*
X82082876Y-77911803D01*
X82291803Y-77702876D01*
X82427808Y-77612000D01*
X82537483Y-77538717D01*
X82810466Y-77425644D01*
X82907065Y-77406429D01*
X83100261Y-77368000D01*
X83395739Y-77368000D01*
X83588935Y-77406429D01*
X83588935Y-77406429D01*
G37*
G36*
X71278000Y-79406000D02*
X70078000Y-79406000D01*
X70078000Y-78106000D01*
X71278000Y-78106000D01*
X71278000Y-79406000D01*
X71278000Y-79406000D01*
G37*
G36*
X88788000Y-77908886D02*
X88772614Y-77910402D01*
X88749165Y-77917515D01*
X88727554Y-77929066D01*
X88708612Y-77944612D01*
X88693066Y-77963554D01*
X88681515Y-77985165D01*
X88674402Y-78008614D01*
X88672000Y-78033000D01*
X88672000Y-79406000D01*
X87472000Y-79406000D01*
X87472000Y-78040968D01*
X87478485Y-78028835D01*
X87485598Y-78005386D01*
X87488000Y-77981000D01*
X87488000Y-77008000D01*
X88788000Y-77008000D01*
X88788000Y-77908886D01*
X88788000Y-77908886D01*
G37*
G36*
X73178000Y-79406000D02*
X71978000Y-79406000D01*
X71978000Y-78106000D01*
X73178000Y-78106000D01*
X73178000Y-79406000D01*
X73178000Y-79406000D01*
G37*
G36*
X86772000Y-79406000D02*
X85572000Y-79406000D01*
X85572000Y-78106000D01*
X86772000Y-78106000D01*
X86772000Y-79406000D01*
X86772000Y-79406000D01*
G37*
G36*
X79588935Y-76406429D02*
X79685534Y-76425644D01*
X79958517Y-76538717D01*
X80200920Y-76700687D01*
X80204197Y-76702876D01*
X80413124Y-76911803D01*
X80413126Y-76911806D01*
X80577283Y-77157483D01*
X80688359Y-77425644D01*
X80690356Y-77430467D01*
X80748000Y-77720261D01*
X80748000Y-78015739D01*
X80730046Y-78106000D01*
X80690356Y-78305534D01*
X80638607Y-78430467D01*
X80577284Y-78578515D01*
X80413124Y-78824197D01*
X80204197Y-79033124D01*
X80204194Y-79033126D01*
X79958517Y-79197283D01*
X79685534Y-79310356D01*
X79588935Y-79329571D01*
X79395739Y-79368000D01*
X79100261Y-79368000D01*
X78907065Y-79329571D01*
X78810466Y-79310356D01*
X78537483Y-79197283D01*
X78291806Y-79033126D01*
X78291803Y-79033124D01*
X78082876Y-78824197D01*
X77918716Y-78578515D01*
X77857393Y-78430467D01*
X77805644Y-78305534D01*
X77765954Y-78106000D01*
X77748000Y-78015739D01*
X77748000Y-77720261D01*
X77805644Y-77430467D01*
X77807642Y-77425644D01*
X77918717Y-77157483D01*
X78082874Y-76911806D01*
X78082876Y-76911803D01*
X78291803Y-76702876D01*
X78295080Y-76700687D01*
X78537483Y-76538717D01*
X78810466Y-76425644D01*
X78907065Y-76406429D01*
X79100261Y-76368000D01*
X79395739Y-76368000D01*
X79588935Y-76406429D01*
X79588935Y-76406429D01*
G37*
G36*
X73844000Y-77612000D02*
X72944000Y-77612000D01*
X72944000Y-76312000D01*
X73844000Y-76312000D01*
X73844000Y-77612000D01*
X73844000Y-77612000D01*
G37*
G36*
X72344000Y-77612000D02*
X71444000Y-77612000D01*
X71444000Y-76312000D01*
X72344000Y-76312000D01*
X72344000Y-77612000D01*
X72344000Y-77612000D01*
G37*
G36*
X88788000Y-76408000D02*
X87488000Y-76408000D01*
X87488000Y-75508000D01*
X88788000Y-75508000D01*
X88788000Y-76408000D01*
X88788000Y-76408000D01*
G37*
G36*
X72786000Y-75114000D02*
X71486000Y-75114000D01*
X71486000Y-74214000D01*
X72786000Y-74214000D01*
X72786000Y-75114000D01*
X72786000Y-75114000D01*
G37*
G36*
X71008000Y-75114000D02*
X69708000Y-75114000D01*
X69708000Y-74214000D01*
X71008000Y-74214000D01*
X71008000Y-75114000D01*
X71008000Y-75114000D01*
G37*
G36*
X84127000Y-74720000D02*
X74877000Y-74720000D01*
X74877000Y-73220000D01*
X84127000Y-73220000D01*
X84127000Y-74720000D01*
X84127000Y-74720000D01*
G37*
G36*
X70933000Y-72589000D02*
X70935402Y-72613386D01*
X70942515Y-72636835D01*
X70954066Y-72658446D01*
X70969612Y-72677388D01*
X70988554Y-72692934D01*
X71008000Y-72703328D01*
X71008000Y-73614000D01*
X69708000Y-73614000D01*
X69708000Y-72703328D01*
X69727446Y-72692934D01*
X69746388Y-72677388D01*
X69761934Y-72658446D01*
X69773485Y-72636835D01*
X69780598Y-72613386D01*
X69783000Y-72589000D01*
X69783000Y-71270000D01*
X70933000Y-71270000D01*
X70933000Y-72589000D01*
X70933000Y-72589000D01*
G37*
G36*
X72457000Y-72589000D02*
X72459402Y-72613386D01*
X72466515Y-72636835D01*
X72478066Y-72658446D01*
X72493612Y-72677388D01*
X72512554Y-72692934D01*
X72534165Y-72704485D01*
X72557614Y-72711598D01*
X72582000Y-72714000D01*
X72786000Y-72714000D01*
X72786000Y-73614000D01*
X71486000Y-73614000D01*
X71486000Y-72595000D01*
X71483598Y-72570614D01*
X71476485Y-72547165D01*
X71464934Y-72525554D01*
X71449388Y-72506612D01*
X71430446Y-72491066D01*
X71408835Y-72479515D01*
X71385386Y-72472402D01*
X71361000Y-72470000D01*
X71307000Y-72470000D01*
X71307000Y-71270000D01*
X72457000Y-71270000D01*
X72457000Y-72589000D01*
X72457000Y-72589000D01*
G37*
G36*
X74056000Y-72320000D02*
X72756000Y-72320000D01*
X72756000Y-71420000D01*
X74056000Y-71420000D01*
X74056000Y-72320000D01*
X74056000Y-72320000D01*
G37*
G36*
X72457000Y-70970000D02*
X71307000Y-70970000D01*
X71307000Y-69770000D01*
X72457000Y-69770000D01*
X72457000Y-70970000D01*
X72457000Y-70970000D01*
G37*
G36*
X70933000Y-70970000D02*
X69783000Y-70970000D01*
X69783000Y-69770000D01*
X70933000Y-69770000D01*
X70933000Y-70970000D01*
X70933000Y-70970000D01*
G37*
G36*
X74056000Y-70820000D02*
X72756000Y-70820000D01*
X72756000Y-69920000D01*
X74056000Y-69920000D01*
X74056000Y-70820000D01*
X74056000Y-70820000D01*
G37*
G36*
X74056000Y-69514000D02*
X69708000Y-69514000D01*
X69708000Y-68614000D01*
X74056000Y-68614000D01*
X74056000Y-69514000D01*
X74056000Y-69514000D01*
G37*
G36*
X84127000Y-69020000D02*
X74877000Y-69020000D01*
X74877000Y-67520000D01*
X84127000Y-67520000D01*
X84127000Y-69020000D01*
X84127000Y-69020000D01*
G37*
G36*
X86060000Y-68468000D02*
X85160000Y-68468000D01*
X85160000Y-67168000D01*
X86060000Y-67168000D01*
X86060000Y-68468000D01*
X86060000Y-68468000D01*
G37*
G36*
X87560000Y-68468000D02*
X86660000Y-68468000D01*
X86660000Y-67168000D01*
X87560000Y-67168000D01*
X87560000Y-68468000D01*
X87560000Y-68468000D01*
G37*
G36*
X74056000Y-68014000D02*
X69708000Y-68014000D01*
X69708000Y-67114000D01*
X74056000Y-67114000D01*
X74056000Y-68014000D01*
X74056000Y-68014000D01*
G37*
G36*
X87047507Y-63117996D02*
X87124636Y-63125593D01*
X87256587Y-63165620D01*
X87322563Y-63185633D01*
X87504972Y-63283133D01*
X87664854Y-63414346D01*
X87796067Y-63574228D01*
X87893567Y-63756637D01*
X87893567Y-63756638D01*
X87953607Y-63954564D01*
X87973880Y-64160400D01*
X87953607Y-64366236D01*
X87913580Y-64498187D01*
X87893567Y-64564163D01*
X87796067Y-64746572D01*
X87664854Y-64906454D01*
X87504972Y-65037667D01*
X87322563Y-65135167D01*
X87256587Y-65155180D01*
X87124636Y-65195207D01*
X87047507Y-65202803D01*
X86970380Y-65210400D01*
X86867220Y-65210400D01*
X86790093Y-65202803D01*
X86712964Y-65195207D01*
X86581013Y-65155180D01*
X86515037Y-65135167D01*
X86332628Y-65037667D01*
X86172746Y-64906454D01*
X86041533Y-64746572D01*
X85944033Y-64564163D01*
X85924020Y-64498187D01*
X85883993Y-64366236D01*
X85863720Y-64160400D01*
X85883993Y-63954564D01*
X85944033Y-63756638D01*
X85944033Y-63756637D01*
X86041533Y-63574228D01*
X86172746Y-63414346D01*
X86332628Y-63283133D01*
X86515037Y-63185633D01*
X86581013Y-63165620D01*
X86712964Y-63125593D01*
X86790093Y-63117996D01*
X86867220Y-63110400D01*
X86970380Y-63110400D01*
X87047507Y-63117996D01*
X87047507Y-63117996D01*
G37*
G36*
X84507507Y-63117996D02*
X84584636Y-63125593D01*
X84716587Y-63165620D01*
X84782563Y-63185633D01*
X84964972Y-63283133D01*
X85124854Y-63414346D01*
X85256067Y-63574228D01*
X85353567Y-63756637D01*
X85353567Y-63756638D01*
X85413607Y-63954564D01*
X85433880Y-64160400D01*
X85413607Y-64366236D01*
X85373580Y-64498187D01*
X85353567Y-64564163D01*
X85256067Y-64746572D01*
X85124854Y-64906454D01*
X84964972Y-65037667D01*
X84782563Y-65135167D01*
X84716587Y-65155180D01*
X84584636Y-65195207D01*
X84507507Y-65202803D01*
X84430380Y-65210400D01*
X84327220Y-65210400D01*
X84250093Y-65202803D01*
X84172964Y-65195207D01*
X84041013Y-65155180D01*
X83975037Y-65135167D01*
X83792628Y-65037667D01*
X83632746Y-64906454D01*
X83501533Y-64746572D01*
X83404033Y-64564163D01*
X83384020Y-64498187D01*
X83343993Y-64366236D01*
X83323720Y-64160400D01*
X83343993Y-63954564D01*
X83404033Y-63756638D01*
X83404033Y-63756637D01*
X83501533Y-63574228D01*
X83632746Y-63414346D01*
X83792628Y-63283133D01*
X83975037Y-63185633D01*
X84041013Y-63165620D01*
X84172964Y-63125593D01*
X84250093Y-63117996D01*
X84327220Y-63110400D01*
X84430380Y-63110400D01*
X84507507Y-63117996D01*
X84507507Y-63117996D01*
G37*
G36*
X81967507Y-63117996D02*
X82044636Y-63125593D01*
X82176587Y-63165620D01*
X82242563Y-63185633D01*
X82424972Y-63283133D01*
X82584854Y-63414346D01*
X82716067Y-63574228D01*
X82813567Y-63756637D01*
X82813567Y-63756638D01*
X82873607Y-63954564D01*
X82893880Y-64160400D01*
X82873607Y-64366236D01*
X82833580Y-64498187D01*
X82813567Y-64564163D01*
X82716067Y-64746572D01*
X82584854Y-64906454D01*
X82424972Y-65037667D01*
X82242563Y-65135167D01*
X82176587Y-65155180D01*
X82044636Y-65195207D01*
X81967507Y-65202803D01*
X81890380Y-65210400D01*
X81787220Y-65210400D01*
X81710093Y-65202803D01*
X81632964Y-65195207D01*
X81501013Y-65155180D01*
X81435037Y-65135167D01*
X81252628Y-65037667D01*
X81092746Y-64906454D01*
X80961533Y-64746572D01*
X80864033Y-64564163D01*
X80844020Y-64498187D01*
X80803993Y-64366236D01*
X80783720Y-64160400D01*
X80803993Y-63954564D01*
X80864033Y-63756638D01*
X80864033Y-63756637D01*
X80961533Y-63574228D01*
X81092746Y-63414346D01*
X81252628Y-63283133D01*
X81435037Y-63185633D01*
X81501013Y-63165620D01*
X81632964Y-63125593D01*
X81710093Y-63117996D01*
X81787220Y-63110400D01*
X81890380Y-63110400D01*
X81967507Y-63117996D01*
X81967507Y-63117996D01*
G37*
G36*
X79427507Y-63117996D02*
X79504636Y-63125593D01*
X79636587Y-63165620D01*
X79702563Y-63185633D01*
X79884972Y-63283133D01*
X80044854Y-63414346D01*
X80176067Y-63574228D01*
X80273567Y-63756637D01*
X80273567Y-63756638D01*
X80333607Y-63954564D01*
X80353880Y-64160400D01*
X80333607Y-64366236D01*
X80293580Y-64498187D01*
X80273567Y-64564163D01*
X80176067Y-64746572D01*
X80044854Y-64906454D01*
X79884972Y-65037667D01*
X79702563Y-65135167D01*
X79636587Y-65155180D01*
X79504636Y-65195207D01*
X79427507Y-65202803D01*
X79350380Y-65210400D01*
X79247220Y-65210400D01*
X79170093Y-65202803D01*
X79092964Y-65195207D01*
X78961013Y-65155180D01*
X78895037Y-65135167D01*
X78712628Y-65037667D01*
X78552746Y-64906454D01*
X78421533Y-64746572D01*
X78324033Y-64564163D01*
X78304020Y-64498187D01*
X78263993Y-64366236D01*
X78243720Y-64160400D01*
X78263993Y-63954564D01*
X78324033Y-63756638D01*
X78324033Y-63756637D01*
X78421533Y-63574228D01*
X78552746Y-63414346D01*
X78712628Y-63283133D01*
X78895037Y-63185633D01*
X78961013Y-63165620D01*
X79092964Y-63125593D01*
X79170093Y-63117996D01*
X79247220Y-63110400D01*
X79350380Y-63110400D01*
X79427507Y-63117996D01*
X79427507Y-63117996D01*
G37*
G36*
X76887507Y-63117996D02*
X76964636Y-63125593D01*
X77096587Y-63165620D01*
X77162563Y-63185633D01*
X77344972Y-63283133D01*
X77504854Y-63414346D01*
X77636067Y-63574228D01*
X77733567Y-63756637D01*
X77733567Y-63756638D01*
X77793607Y-63954564D01*
X77813880Y-64160400D01*
X77793607Y-64366236D01*
X77753580Y-64498187D01*
X77733567Y-64564163D01*
X77636067Y-64746572D01*
X77504854Y-64906454D01*
X77344972Y-65037667D01*
X77162563Y-65135167D01*
X77096587Y-65155180D01*
X76964636Y-65195207D01*
X76887507Y-65202803D01*
X76810380Y-65210400D01*
X76707220Y-65210400D01*
X76630093Y-65202803D01*
X76552964Y-65195207D01*
X76421013Y-65155180D01*
X76355037Y-65135167D01*
X76172628Y-65037667D01*
X76012746Y-64906454D01*
X75881533Y-64746572D01*
X75784033Y-64564163D01*
X75764020Y-64498187D01*
X75723993Y-64366236D01*
X75703720Y-64160400D01*
X75723993Y-63954564D01*
X75784033Y-63756638D01*
X75784033Y-63756637D01*
X75881533Y-63574228D01*
X76012746Y-63414346D01*
X76172628Y-63283133D01*
X76355037Y-63185633D01*
X76421013Y-63165620D01*
X76552964Y-63125593D01*
X76630093Y-63117996D01*
X76707220Y-63110400D01*
X76810380Y-63110400D01*
X76887507Y-63117996D01*
X76887507Y-63117996D01*
G37*
G36*
X74347507Y-63117996D02*
X74424636Y-63125593D01*
X74556587Y-63165620D01*
X74622563Y-63185633D01*
X74804972Y-63283133D01*
X74964854Y-63414346D01*
X75096067Y-63574228D01*
X75193567Y-63756637D01*
X75193567Y-63756638D01*
X75253607Y-63954564D01*
X75273880Y-64160400D01*
X75253607Y-64366236D01*
X75213580Y-64498187D01*
X75193567Y-64564163D01*
X75096067Y-64746572D01*
X74964854Y-64906454D01*
X74804972Y-65037667D01*
X74622563Y-65135167D01*
X74556587Y-65155180D01*
X74424636Y-65195207D01*
X74347507Y-65202803D01*
X74270380Y-65210400D01*
X74167220Y-65210400D01*
X74090093Y-65202803D01*
X74012964Y-65195207D01*
X73881013Y-65155180D01*
X73815037Y-65135167D01*
X73632628Y-65037667D01*
X73472746Y-64906454D01*
X73341533Y-64746572D01*
X73244033Y-64564163D01*
X73224020Y-64498187D01*
X73183993Y-64366236D01*
X73163720Y-64160400D01*
X73183993Y-63954564D01*
X73244033Y-63756638D01*
X73244033Y-63756637D01*
X73341533Y-63574228D01*
X73472746Y-63414346D01*
X73632628Y-63283133D01*
X73815037Y-63185633D01*
X73881013Y-63165620D01*
X74012964Y-63125593D01*
X74090093Y-63117996D01*
X74167220Y-63110400D01*
X74270380Y-63110400D01*
X74347507Y-63117996D01*
X74347507Y-63117996D01*
G37*
G36*
X72728800Y-65210400D02*
X70628800Y-65210400D01*
X70628800Y-63110400D01*
X72728800Y-63110400D01*
X72728800Y-65210400D01*
X72728800Y-65210400D01*
G37*
M02*
