G04 #@! TF.GenerationSoftware,KiCad,Pcbnew,(5.0.2)-1*
G04 #@! TF.CreationDate,2018-12-23T17:42:09+09:00*
G04 #@! TF.ProjectId,Nixie_Module_IN-12,4e697869-655f-44d6-9f64-756c655f494e,rev?*
G04 #@! TF.SameCoordinates,Original*
G04 #@! TF.FileFunction,Legend,Bot*
G04 #@! TF.FilePolarity,Positive*
%FSLAX46Y46*%
G04 Gerber Fmt 4.6, Leading zero omitted, Abs format (unit mm)*
G04 Created by KiCad (PCBNEW (5.0.2)-1) date 2018/12/23 17:42:09*
%MOMM*%
%LPD*%
G01*
G04 APERTURE LIST*
%ADD10C,0.180000*%
%ADD11C,0.120000*%
G04 APERTURE END LIST*
D10*
X76955428Y-75604666D02*
X76574476Y-75604666D01*
X77031619Y-75890380D02*
X76764952Y-74890380D01*
X76498285Y-75890380D01*
X76231619Y-75890380D02*
X76231619Y-74890380D01*
X76041142Y-74890380D01*
X75926857Y-74938000D01*
X75850666Y-75033238D01*
X75812571Y-75128476D01*
X75774476Y-75318952D01*
X75774476Y-75461809D01*
X75812571Y-75652285D01*
X75850666Y-75747523D01*
X75926857Y-75842761D01*
X76041142Y-75890380D01*
X76231619Y-75890380D01*
X75431619Y-75890380D02*
X75431619Y-74890380D01*
X75241142Y-74890380D01*
X75126857Y-74938000D01*
X75050666Y-75033238D01*
X75012571Y-75128476D01*
X74974476Y-75318952D01*
X74974476Y-75461809D01*
X75012571Y-75652285D01*
X75050666Y-75747523D01*
X75126857Y-75842761D01*
X75241142Y-75890380D01*
X75431619Y-75890380D01*
X74174476Y-75890380D02*
X74441142Y-75414190D01*
X74631619Y-75890380D02*
X74631619Y-74890380D01*
X74326857Y-74890380D01*
X74250666Y-74938000D01*
X74212571Y-74985619D01*
X74174476Y-75080857D01*
X74174476Y-75223714D01*
X74212571Y-75318952D01*
X74250666Y-75366571D01*
X74326857Y-75414190D01*
X74631619Y-75414190D01*
X73907809Y-74890380D02*
X73412571Y-74890380D01*
X73679238Y-75271333D01*
X73564952Y-75271333D01*
X73488761Y-75318952D01*
X73450666Y-75366571D01*
X73412571Y-75461809D01*
X73412571Y-75699904D01*
X73450666Y-75795142D01*
X73488761Y-75842761D01*
X73564952Y-75890380D01*
X73793523Y-75890380D01*
X73869714Y-75842761D01*
X73907809Y-75795142D01*
X76955428Y-72556666D02*
X76574476Y-72556666D01*
X77031619Y-72842380D02*
X76764952Y-71842380D01*
X76498285Y-72842380D01*
X76231619Y-72842380D02*
X76231619Y-71842380D01*
X76041142Y-71842380D01*
X75926857Y-71890000D01*
X75850666Y-71985238D01*
X75812571Y-72080476D01*
X75774476Y-72270952D01*
X75774476Y-72413809D01*
X75812571Y-72604285D01*
X75850666Y-72699523D01*
X75926857Y-72794761D01*
X76041142Y-72842380D01*
X76231619Y-72842380D01*
X75431619Y-72842380D02*
X75431619Y-71842380D01*
X75241142Y-71842380D01*
X75126857Y-71890000D01*
X75050666Y-71985238D01*
X75012571Y-72080476D01*
X74974476Y-72270952D01*
X74974476Y-72413809D01*
X75012571Y-72604285D01*
X75050666Y-72699523D01*
X75126857Y-72794761D01*
X75241142Y-72842380D01*
X75431619Y-72842380D01*
X74174476Y-72842380D02*
X74441142Y-72366190D01*
X74631619Y-72842380D02*
X74631619Y-71842380D01*
X74326857Y-71842380D01*
X74250666Y-71890000D01*
X74212571Y-71937619D01*
X74174476Y-72032857D01*
X74174476Y-72175714D01*
X74212571Y-72270952D01*
X74250666Y-72318571D01*
X74326857Y-72366190D01*
X74631619Y-72366190D01*
X73869714Y-71937619D02*
X73831619Y-71890000D01*
X73755428Y-71842380D01*
X73564952Y-71842380D01*
X73488761Y-71890000D01*
X73450666Y-71937619D01*
X73412571Y-72032857D01*
X73412571Y-72128095D01*
X73450666Y-72270952D01*
X73907809Y-72842380D01*
X73412571Y-72842380D01*
X76955428Y-69762666D02*
X76574476Y-69762666D01*
X77031619Y-70048380D02*
X76764952Y-69048380D01*
X76498285Y-70048380D01*
X76231619Y-70048380D02*
X76231619Y-69048380D01*
X76041142Y-69048380D01*
X75926857Y-69096000D01*
X75850666Y-69191238D01*
X75812571Y-69286476D01*
X75774476Y-69476952D01*
X75774476Y-69619809D01*
X75812571Y-69810285D01*
X75850666Y-69905523D01*
X75926857Y-70000761D01*
X76041142Y-70048380D01*
X76231619Y-70048380D01*
X75431619Y-70048380D02*
X75431619Y-69048380D01*
X75241142Y-69048380D01*
X75126857Y-69096000D01*
X75050666Y-69191238D01*
X75012571Y-69286476D01*
X74974476Y-69476952D01*
X74974476Y-69619809D01*
X75012571Y-69810285D01*
X75050666Y-69905523D01*
X75126857Y-70000761D01*
X75241142Y-70048380D01*
X75431619Y-70048380D01*
X74174476Y-70048380D02*
X74441142Y-69572190D01*
X74631619Y-70048380D02*
X74631619Y-69048380D01*
X74326857Y-69048380D01*
X74250666Y-69096000D01*
X74212571Y-69143619D01*
X74174476Y-69238857D01*
X74174476Y-69381714D01*
X74212571Y-69476952D01*
X74250666Y-69524571D01*
X74326857Y-69572190D01*
X74631619Y-69572190D01*
X73412571Y-70048380D02*
X73869714Y-70048380D01*
X73641142Y-70048380D02*
X73641142Y-69048380D01*
X73717333Y-69191238D01*
X73793523Y-69286476D01*
X73869714Y-69334095D01*
X76955428Y-66968666D02*
X76574476Y-66968666D01*
X77031619Y-67254380D02*
X76764952Y-66254380D01*
X76498285Y-67254380D01*
X76231619Y-67254380D02*
X76231619Y-66254380D01*
X76041142Y-66254380D01*
X75926857Y-66302000D01*
X75850666Y-66397238D01*
X75812571Y-66492476D01*
X75774476Y-66682952D01*
X75774476Y-66825809D01*
X75812571Y-67016285D01*
X75850666Y-67111523D01*
X75926857Y-67206761D01*
X76041142Y-67254380D01*
X76231619Y-67254380D01*
X75431619Y-67254380D02*
X75431619Y-66254380D01*
X75241142Y-66254380D01*
X75126857Y-66302000D01*
X75050666Y-66397238D01*
X75012571Y-66492476D01*
X74974476Y-66682952D01*
X74974476Y-66825809D01*
X75012571Y-67016285D01*
X75050666Y-67111523D01*
X75126857Y-67206761D01*
X75241142Y-67254380D01*
X75431619Y-67254380D01*
X74174476Y-67254380D02*
X74441142Y-66778190D01*
X74631619Y-67254380D02*
X74631619Y-66254380D01*
X74326857Y-66254380D01*
X74250666Y-66302000D01*
X74212571Y-66349619D01*
X74174476Y-66444857D01*
X74174476Y-66587714D01*
X74212571Y-66682952D01*
X74250666Y-66730571D01*
X74326857Y-66778190D01*
X74631619Y-66778190D01*
X73679238Y-66254380D02*
X73603047Y-66254380D01*
X73526857Y-66302000D01*
X73488761Y-66349619D01*
X73450666Y-66444857D01*
X73412571Y-66635333D01*
X73412571Y-66873428D01*
X73450666Y-67063904D01*
X73488761Y-67159142D01*
X73526857Y-67206761D01*
X73603047Y-67254380D01*
X73679238Y-67254380D01*
X73755428Y-67206761D01*
X73793523Y-67159142D01*
X73831619Y-67063904D01*
X73869714Y-66873428D01*
X73869714Y-66635333D01*
X73831619Y-66444857D01*
X73793523Y-66349619D01*
X73755428Y-66302000D01*
X73679238Y-66254380D01*
D11*
G04 #@! TO.C,JP1*
X72074000Y-65802000D02*
X70674000Y-65802000D01*
X69974000Y-66502000D02*
X69974000Y-67102000D01*
X70674000Y-67802000D02*
X72074000Y-67802000D01*
X72774000Y-67102000D02*
X72774000Y-66502000D01*
X72774000Y-66502000D02*
G75*
G03X72074000Y-65802000I-700000J0D01*
G01*
X72074000Y-67802000D02*
G75*
G03X72774000Y-67102000I0J700000D01*
G01*
X69974000Y-67102000D02*
G75*
G03X70674000Y-67802000I700000J0D01*
G01*
X70674000Y-65802000D02*
G75*
G03X69974000Y-66502000I0J-700000D01*
G01*
G04 #@! TO.C,JP2*
X70674000Y-68596000D02*
G75*
G03X69974000Y-69296000I0J-700000D01*
G01*
X69974000Y-69896000D02*
G75*
G03X70674000Y-70596000I700000J0D01*
G01*
X72074000Y-70596000D02*
G75*
G03X72774000Y-69896000I0J700000D01*
G01*
X72774000Y-69296000D02*
G75*
G03X72074000Y-68596000I-700000J0D01*
G01*
X72774000Y-69896000D02*
X72774000Y-69296000D01*
X70674000Y-70596000D02*
X72074000Y-70596000D01*
X69974000Y-69296000D02*
X69974000Y-69896000D01*
X72074000Y-68596000D02*
X70674000Y-68596000D01*
G04 #@! TO.C,JP4*
X72074000Y-74184000D02*
X70674000Y-74184000D01*
X69974000Y-74884000D02*
X69974000Y-75484000D01*
X70674000Y-76184000D02*
X72074000Y-76184000D01*
X72774000Y-75484000D02*
X72774000Y-74884000D01*
X72774000Y-74884000D02*
G75*
G03X72074000Y-74184000I-700000J0D01*
G01*
X72074000Y-76184000D02*
G75*
G03X72774000Y-75484000I0J700000D01*
G01*
X69974000Y-75484000D02*
G75*
G03X70674000Y-76184000I700000J0D01*
G01*
X70674000Y-74184000D02*
G75*
G03X69974000Y-74884000I0J-700000D01*
G01*
G04 #@! TO.C,JP3*
X70674000Y-71390000D02*
G75*
G03X69974000Y-72090000I0J-700000D01*
G01*
X69974000Y-72690000D02*
G75*
G03X70674000Y-73390000I700000J0D01*
G01*
X72074000Y-73390000D02*
G75*
G03X72774000Y-72690000I0J700000D01*
G01*
X72774000Y-72090000D02*
G75*
G03X72074000Y-71390000I-700000J0D01*
G01*
X72774000Y-72690000D02*
X72774000Y-72090000D01*
X70674000Y-73390000D02*
X72074000Y-73390000D01*
X69974000Y-72090000D02*
X69974000Y-72690000D01*
X72074000Y-71390000D02*
X70674000Y-71390000D01*
G04 #@! TD*
M02*
