G04 #@! TF.GenerationSoftware,KiCad,Pcbnew,(5.0.2)-1*
G04 #@! TF.CreationDate,2018-12-23T17:42:09+09:00*
G04 #@! TF.ProjectId,Nixie_Module_IN-12,4e697869-655f-44d6-9f64-756c655f494e,rev?*
G04 #@! TF.SameCoordinates,Original*
G04 #@! TF.FileFunction,Soldermask,Bot*
G04 #@! TF.FilePolarity,Negative*
%FSLAX46Y46*%
G04 Gerber Fmt 4.6, Leading zero omitted, Abs format (unit mm)*
G04 Created by KiCad (PCBNEW (5.0.2)-1) date 2018/12/23 17:42:09*
%MOMM*%
%LPD*%
G01*
G04 APERTURE LIST*
%ADD10C,0.100000*%
G04 APERTURE END LIST*
D10*
G36*
X74296707Y-98970097D02*
X74373836Y-98977693D01*
X74505787Y-99017720D01*
X74571763Y-99037733D01*
X74754172Y-99135233D01*
X74914054Y-99266446D01*
X75045267Y-99426328D01*
X75142767Y-99608737D01*
X75142767Y-99608738D01*
X75202807Y-99806664D01*
X75223080Y-100012500D01*
X75202807Y-100218336D01*
X75162780Y-100350287D01*
X75142767Y-100416263D01*
X75045267Y-100598672D01*
X74914054Y-100758554D01*
X74754172Y-100889767D01*
X74571763Y-100987267D01*
X74505787Y-101007280D01*
X74373836Y-101047307D01*
X74296707Y-101054904D01*
X74219580Y-101062500D01*
X74116420Y-101062500D01*
X74039293Y-101054904D01*
X73962164Y-101047307D01*
X73830213Y-101007280D01*
X73764237Y-100987267D01*
X73581828Y-100889767D01*
X73421946Y-100758554D01*
X73290733Y-100598672D01*
X73193233Y-100416263D01*
X73173220Y-100350287D01*
X73133193Y-100218336D01*
X73112920Y-100012500D01*
X73133193Y-99806664D01*
X73193233Y-99608738D01*
X73193233Y-99608737D01*
X73290733Y-99426328D01*
X73421946Y-99266446D01*
X73581828Y-99135233D01*
X73764237Y-99037733D01*
X73830213Y-99017720D01*
X73962164Y-98977693D01*
X74039293Y-98970097D01*
X74116420Y-98962500D01*
X74219580Y-98962500D01*
X74296707Y-98970097D01*
X74296707Y-98970097D01*
G37*
G36*
X85378000Y-101062500D02*
X83278000Y-101062500D01*
X83278000Y-98962500D01*
X85378000Y-98962500D01*
X85378000Y-101062500D01*
X85378000Y-101062500D01*
G37*
G36*
X86996707Y-98970097D02*
X87073836Y-98977693D01*
X87205787Y-99017720D01*
X87271763Y-99037733D01*
X87454172Y-99135233D01*
X87614054Y-99266446D01*
X87745267Y-99426328D01*
X87842767Y-99608737D01*
X87842767Y-99608738D01*
X87902807Y-99806664D01*
X87923080Y-100012500D01*
X87902807Y-100218336D01*
X87862780Y-100350287D01*
X87842767Y-100416263D01*
X87745267Y-100598672D01*
X87614054Y-100758554D01*
X87454172Y-100889767D01*
X87271763Y-100987267D01*
X87205787Y-101007280D01*
X87073836Y-101047307D01*
X86996707Y-101054904D01*
X86919580Y-101062500D01*
X86816420Y-101062500D01*
X86739293Y-101054904D01*
X86662164Y-101047307D01*
X86530213Y-101007280D01*
X86464237Y-100987267D01*
X86281828Y-100889767D01*
X86121946Y-100758554D01*
X85990733Y-100598672D01*
X85893233Y-100416263D01*
X85873220Y-100350287D01*
X85833193Y-100218336D01*
X85812920Y-100012500D01*
X85833193Y-99806664D01*
X85893233Y-99608738D01*
X85893233Y-99608737D01*
X85990733Y-99426328D01*
X86121946Y-99266446D01*
X86281828Y-99135233D01*
X86464237Y-99037733D01*
X86530213Y-99017720D01*
X86662164Y-98977693D01*
X86739293Y-98970097D01*
X86816420Y-98962500D01*
X86919580Y-98962500D01*
X86996707Y-98970097D01*
X86996707Y-98970097D01*
G37*
G36*
X72678000Y-101062500D02*
X70578000Y-101062500D01*
X70578000Y-98962500D01*
X72678000Y-98962500D01*
X72678000Y-101062500D01*
X72678000Y-101062500D01*
G37*
G36*
X79588935Y-94406429D02*
X79685534Y-94425644D01*
X79958517Y-94538717D01*
X80200920Y-94700687D01*
X80204197Y-94702876D01*
X80413124Y-94911803D01*
X80413126Y-94911806D01*
X80577283Y-95157483D01*
X80690356Y-95430466D01*
X80748000Y-95720263D01*
X80748000Y-96015737D01*
X80690356Y-96305534D01*
X80664482Y-96368000D01*
X80577284Y-96578515D01*
X80413124Y-96824197D01*
X80204197Y-97033124D01*
X80204194Y-97033126D01*
X79958517Y-97197283D01*
X79685534Y-97310356D01*
X79588935Y-97329571D01*
X79395739Y-97368000D01*
X79100261Y-97368000D01*
X78907065Y-97329571D01*
X78810466Y-97310356D01*
X78537483Y-97197283D01*
X78291806Y-97033126D01*
X78291803Y-97033124D01*
X78082876Y-96824197D01*
X77918716Y-96578515D01*
X77831518Y-96368000D01*
X77805644Y-96305534D01*
X77748000Y-96015737D01*
X77748000Y-95720263D01*
X77805644Y-95430466D01*
X77918717Y-95157483D01*
X78082874Y-94911806D01*
X78082876Y-94911803D01*
X78291803Y-94702876D01*
X78295080Y-94700687D01*
X78537483Y-94538717D01*
X78810466Y-94425644D01*
X78907065Y-94406429D01*
X79100261Y-94368000D01*
X79395739Y-94368000D01*
X79588935Y-94406429D01*
X79588935Y-94406429D01*
G37*
G36*
X83588935Y-93406429D02*
X83685534Y-93425644D01*
X83958517Y-93538717D01*
X84200920Y-93700687D01*
X84204197Y-93702876D01*
X84413124Y-93911803D01*
X84413126Y-93911806D01*
X84577283Y-94157483D01*
X84690356Y-94430466D01*
X84748000Y-94720263D01*
X84748000Y-95015737D01*
X84690356Y-95305534D01*
X84638607Y-95430467D01*
X84577284Y-95578515D01*
X84413124Y-95824197D01*
X84204197Y-96033124D01*
X84204194Y-96033126D01*
X83958517Y-96197283D01*
X83685534Y-96310356D01*
X83588935Y-96329571D01*
X83395739Y-96368000D01*
X83100261Y-96368000D01*
X82907065Y-96329571D01*
X82810466Y-96310356D01*
X82537483Y-96197283D01*
X82291806Y-96033126D01*
X82291803Y-96033124D01*
X82082876Y-95824197D01*
X81918716Y-95578515D01*
X81857393Y-95430467D01*
X81805644Y-95305534D01*
X81748000Y-95015737D01*
X81748000Y-94720263D01*
X81805644Y-94430466D01*
X81918717Y-94157483D01*
X82082874Y-93911806D01*
X82082876Y-93911803D01*
X82291803Y-93702876D01*
X82295080Y-93700687D01*
X82537483Y-93538717D01*
X82810466Y-93425644D01*
X82907065Y-93406429D01*
X83100261Y-93368000D01*
X83395739Y-93368000D01*
X83588935Y-93406429D01*
X83588935Y-93406429D01*
G37*
G36*
X75588935Y-93406429D02*
X75685534Y-93425644D01*
X75958517Y-93538717D01*
X76200920Y-93700687D01*
X76204197Y-93702876D01*
X76413124Y-93911803D01*
X76413126Y-93911806D01*
X76577283Y-94157483D01*
X76690356Y-94430466D01*
X76748000Y-94720263D01*
X76748000Y-95015737D01*
X76690356Y-95305534D01*
X76638607Y-95430467D01*
X76577284Y-95578515D01*
X76413124Y-95824197D01*
X76204197Y-96033124D01*
X76204194Y-96033126D01*
X75958517Y-96197283D01*
X75685534Y-96310356D01*
X75588935Y-96329571D01*
X75395739Y-96368000D01*
X75100261Y-96368000D01*
X74907065Y-96329571D01*
X74810466Y-96310356D01*
X74537483Y-96197283D01*
X74291806Y-96033126D01*
X74291803Y-96033124D01*
X74082876Y-95824197D01*
X73918716Y-95578515D01*
X73857393Y-95430467D01*
X73805644Y-95305534D01*
X73748000Y-95015737D01*
X73748000Y-94720263D01*
X73805644Y-94430466D01*
X73918717Y-94157483D01*
X74082874Y-93911806D01*
X74082876Y-93911803D01*
X74291803Y-93702876D01*
X74295080Y-93700687D01*
X74537483Y-93538717D01*
X74810466Y-93425644D01*
X74907065Y-93406429D01*
X75100261Y-93368000D01*
X75395739Y-93368000D01*
X75588935Y-93406429D01*
X75588935Y-93406429D01*
G37*
G36*
X85338935Y-89906429D02*
X85435534Y-89925644D01*
X85708517Y-90038717D01*
X85950920Y-90200687D01*
X85954197Y-90202876D01*
X86163124Y-90411803D01*
X86327284Y-90657485D01*
X86440356Y-90930467D01*
X86498000Y-91220261D01*
X86498000Y-91515739D01*
X86440356Y-91805533D01*
X86327284Y-92078515D01*
X86163124Y-92324197D01*
X85954197Y-92533124D01*
X85954194Y-92533126D01*
X85708517Y-92697283D01*
X85435534Y-92810356D01*
X85338935Y-92829571D01*
X85145739Y-92868000D01*
X84850261Y-92868000D01*
X84657065Y-92829571D01*
X84560466Y-92810356D01*
X84287483Y-92697283D01*
X84041806Y-92533126D01*
X84041803Y-92533124D01*
X83832876Y-92324197D01*
X83668716Y-92078515D01*
X83555644Y-91805533D01*
X83498000Y-91515739D01*
X83498000Y-91220261D01*
X83555644Y-90930467D01*
X83668716Y-90657485D01*
X83832876Y-90411803D01*
X84041803Y-90202876D01*
X84045080Y-90200687D01*
X84287483Y-90038717D01*
X84560466Y-89925644D01*
X84657065Y-89906429D01*
X84850261Y-89868000D01*
X85145739Y-89868000D01*
X85338935Y-89906429D01*
X85338935Y-89906429D01*
G37*
G36*
X73838935Y-89906429D02*
X73935534Y-89925644D01*
X74208517Y-90038717D01*
X74450920Y-90200687D01*
X74454197Y-90202876D01*
X74663124Y-90411803D01*
X74827284Y-90657485D01*
X74940356Y-90930467D01*
X74998000Y-91220261D01*
X74998000Y-91515739D01*
X74940356Y-91805533D01*
X74827284Y-92078515D01*
X74663124Y-92324197D01*
X74454197Y-92533124D01*
X74454194Y-92533126D01*
X74208517Y-92697283D01*
X73935534Y-92810356D01*
X73838935Y-92829571D01*
X73645739Y-92868000D01*
X73350261Y-92868000D01*
X73157065Y-92829571D01*
X73060466Y-92810356D01*
X72787483Y-92697283D01*
X72541806Y-92533126D01*
X72541803Y-92533124D01*
X72332876Y-92324197D01*
X72168716Y-92078515D01*
X72055644Y-91805533D01*
X71998000Y-91515739D01*
X71998000Y-91220261D01*
X72055644Y-90930467D01*
X72168716Y-90657485D01*
X72332876Y-90411803D01*
X72541803Y-90202876D01*
X72545080Y-90200687D01*
X72787483Y-90038717D01*
X73060466Y-89925644D01*
X73157065Y-89906429D01*
X73350261Y-89868000D01*
X73645739Y-89868000D01*
X73838935Y-89906429D01*
X73838935Y-89906429D01*
G37*
G36*
X80035560Y-84271759D02*
X80526928Y-84475290D01*
X80526930Y-84475291D01*
X80963268Y-84766843D01*
X80969153Y-84770775D01*
X81345225Y-85146847D01*
X81345227Y-85146850D01*
X81607064Y-85538716D01*
X81640710Y-85589072D01*
X81844241Y-86080440D01*
X81948000Y-86602072D01*
X81948000Y-87133928D01*
X81844241Y-87655560D01*
X81774389Y-87824197D01*
X81640709Y-88146930D01*
X81531511Y-88310356D01*
X81345225Y-88589153D01*
X80969153Y-88965225D01*
X80969150Y-88965227D01*
X80526930Y-89260709D01*
X80526929Y-89260710D01*
X80526928Y-89260710D01*
X80035560Y-89464241D01*
X79513928Y-89568000D01*
X78982072Y-89568000D01*
X78460440Y-89464241D01*
X77969072Y-89260710D01*
X77969071Y-89260710D01*
X77969070Y-89260709D01*
X77526850Y-88965227D01*
X77526847Y-88965225D01*
X77150775Y-88589153D01*
X76964489Y-88310356D01*
X76855291Y-88146930D01*
X76721611Y-87824197D01*
X76651759Y-87655560D01*
X76548000Y-87133928D01*
X76548000Y-86602072D01*
X76651759Y-86080440D01*
X76855290Y-85589072D01*
X76888937Y-85538716D01*
X77150773Y-85146850D01*
X77150775Y-85146847D01*
X77526847Y-84770775D01*
X77532732Y-84766843D01*
X77969070Y-84475291D01*
X77969072Y-84475290D01*
X78460440Y-84271759D01*
X78982072Y-84168000D01*
X79513928Y-84168000D01*
X80035560Y-84271759D01*
X80035560Y-84271759D01*
G37*
G36*
X85338935Y-85406429D02*
X85435534Y-85425644D01*
X85708517Y-85538717D01*
X85783875Y-85589070D01*
X85954197Y-85702876D01*
X86163124Y-85911803D01*
X86163126Y-85911806D01*
X86275804Y-86080439D01*
X86327284Y-86157485D01*
X86440356Y-86430467D01*
X86498000Y-86720261D01*
X86498000Y-87015739D01*
X86459571Y-87208935D01*
X86440356Y-87305534D01*
X86327283Y-87578517D01*
X86165313Y-87820920D01*
X86163124Y-87824197D01*
X85954197Y-88033124D01*
X85954194Y-88033126D01*
X85708517Y-88197283D01*
X85435534Y-88310356D01*
X85338935Y-88329571D01*
X85145739Y-88368000D01*
X84850261Y-88368000D01*
X84657065Y-88329571D01*
X84560466Y-88310356D01*
X84287483Y-88197283D01*
X84041806Y-88033126D01*
X84041803Y-88033124D01*
X83832876Y-87824197D01*
X83830687Y-87820920D01*
X83668717Y-87578517D01*
X83555644Y-87305534D01*
X83536429Y-87208935D01*
X83498000Y-87015739D01*
X83498000Y-86720261D01*
X83555644Y-86430467D01*
X83668716Y-86157485D01*
X83720197Y-86080439D01*
X83832874Y-85911806D01*
X83832876Y-85911803D01*
X84041803Y-85702876D01*
X84212125Y-85589070D01*
X84287483Y-85538717D01*
X84560466Y-85425644D01*
X84657065Y-85406429D01*
X84850261Y-85368000D01*
X85145739Y-85368000D01*
X85338935Y-85406429D01*
X85338935Y-85406429D01*
G37*
G36*
X73838935Y-85406429D02*
X73935534Y-85425644D01*
X74208517Y-85538717D01*
X74283875Y-85589070D01*
X74454197Y-85702876D01*
X74663124Y-85911803D01*
X74663126Y-85911806D01*
X74775804Y-86080439D01*
X74827284Y-86157485D01*
X74940356Y-86430467D01*
X74998000Y-86720261D01*
X74998000Y-87015739D01*
X74959571Y-87208935D01*
X74940356Y-87305534D01*
X74827283Y-87578517D01*
X74665313Y-87820920D01*
X74663124Y-87824197D01*
X74454197Y-88033124D01*
X74454194Y-88033126D01*
X74208517Y-88197283D01*
X73935534Y-88310356D01*
X73838935Y-88329571D01*
X73645739Y-88368000D01*
X73350261Y-88368000D01*
X73157065Y-88329571D01*
X73060466Y-88310356D01*
X72787483Y-88197283D01*
X72541806Y-88033126D01*
X72541803Y-88033124D01*
X72332876Y-87824197D01*
X72330687Y-87820920D01*
X72168717Y-87578517D01*
X72055644Y-87305534D01*
X72036429Y-87208935D01*
X71998000Y-87015739D01*
X71998000Y-86720261D01*
X72055644Y-86430467D01*
X72168716Y-86157485D01*
X72220197Y-86080439D01*
X72332874Y-85911806D01*
X72332876Y-85911803D01*
X72541803Y-85702876D01*
X72712125Y-85589070D01*
X72787483Y-85538717D01*
X73060466Y-85425644D01*
X73157065Y-85406429D01*
X73350261Y-85368000D01*
X73645739Y-85368000D01*
X73838935Y-85406429D01*
X73838935Y-85406429D01*
G37*
G36*
X85338935Y-80906429D02*
X85435534Y-80925644D01*
X85708517Y-81038717D01*
X85950920Y-81200687D01*
X85954197Y-81202876D01*
X86163124Y-81411803D01*
X86327284Y-81657485D01*
X86440356Y-81930467D01*
X86498000Y-82220261D01*
X86498000Y-82515739D01*
X86440356Y-82805533D01*
X86327284Y-83078515D01*
X86163124Y-83324197D01*
X85954197Y-83533124D01*
X85954194Y-83533126D01*
X85708517Y-83697283D01*
X85435534Y-83810356D01*
X85338935Y-83829571D01*
X85145739Y-83868000D01*
X84850261Y-83868000D01*
X84657065Y-83829571D01*
X84560466Y-83810356D01*
X84287483Y-83697283D01*
X84041806Y-83533126D01*
X84041803Y-83533124D01*
X83832876Y-83324197D01*
X83668716Y-83078515D01*
X83555644Y-82805533D01*
X83498000Y-82515739D01*
X83498000Y-82220261D01*
X83555644Y-81930467D01*
X83668716Y-81657485D01*
X83832876Y-81411803D01*
X84041803Y-81202876D01*
X84045080Y-81200687D01*
X84287483Y-81038717D01*
X84560466Y-80925644D01*
X84657065Y-80906429D01*
X84850261Y-80868000D01*
X85145739Y-80868000D01*
X85338935Y-80906429D01*
X85338935Y-80906429D01*
G37*
G36*
X73838935Y-80906429D02*
X73935534Y-80925644D01*
X74208517Y-81038717D01*
X74450920Y-81200687D01*
X74454197Y-81202876D01*
X74663124Y-81411803D01*
X74827284Y-81657485D01*
X74940356Y-81930467D01*
X74998000Y-82220261D01*
X74998000Y-82515739D01*
X74940356Y-82805533D01*
X74827284Y-83078515D01*
X74663124Y-83324197D01*
X74454197Y-83533124D01*
X74454194Y-83533126D01*
X74208517Y-83697283D01*
X73935534Y-83810356D01*
X73838935Y-83829571D01*
X73645739Y-83868000D01*
X73350261Y-83868000D01*
X73157065Y-83829571D01*
X73060466Y-83810356D01*
X72787483Y-83697283D01*
X72541806Y-83533126D01*
X72541803Y-83533124D01*
X72332876Y-83324197D01*
X72168716Y-83078515D01*
X72055644Y-82805533D01*
X71998000Y-82515739D01*
X71998000Y-82220261D01*
X72055644Y-81930467D01*
X72168716Y-81657485D01*
X72332876Y-81411803D01*
X72541803Y-81202876D01*
X72545080Y-81200687D01*
X72787483Y-81038717D01*
X73060466Y-80925644D01*
X73157065Y-80906429D01*
X73350261Y-80868000D01*
X73645739Y-80868000D01*
X73838935Y-80906429D01*
X73838935Y-80906429D01*
G37*
G36*
X83588935Y-77406429D02*
X83685534Y-77425644D01*
X83958517Y-77538717D01*
X84200920Y-77700687D01*
X84204197Y-77702876D01*
X84413124Y-77911803D01*
X84413126Y-77911806D01*
X84577283Y-78157483D01*
X84690356Y-78430466D01*
X84748000Y-78720263D01*
X84748000Y-79015737D01*
X84690356Y-79305534D01*
X84664482Y-79368000D01*
X84577284Y-79578515D01*
X84413124Y-79824197D01*
X84204197Y-80033124D01*
X84204194Y-80033126D01*
X83958517Y-80197283D01*
X83685534Y-80310356D01*
X83588935Y-80329571D01*
X83395739Y-80368000D01*
X83100261Y-80368000D01*
X82907065Y-80329571D01*
X82810466Y-80310356D01*
X82537483Y-80197283D01*
X82291806Y-80033126D01*
X82291803Y-80033124D01*
X82082876Y-79824197D01*
X81918716Y-79578515D01*
X81831518Y-79368000D01*
X81805644Y-79305534D01*
X81748000Y-79015737D01*
X81748000Y-78720263D01*
X81805644Y-78430466D01*
X81918717Y-78157483D01*
X82082874Y-77911806D01*
X82082876Y-77911803D01*
X82291803Y-77702876D01*
X82295080Y-77700687D01*
X82537483Y-77538717D01*
X82810466Y-77425644D01*
X82907065Y-77406429D01*
X83100261Y-77368000D01*
X83395739Y-77368000D01*
X83588935Y-77406429D01*
X83588935Y-77406429D01*
G37*
G36*
X75588935Y-77406429D02*
X75685534Y-77425644D01*
X75958517Y-77538717D01*
X76200920Y-77700687D01*
X76204197Y-77702876D01*
X76413124Y-77911803D01*
X76413126Y-77911806D01*
X76577283Y-78157483D01*
X76690356Y-78430466D01*
X76748000Y-78720263D01*
X76748000Y-79015737D01*
X76690356Y-79305534D01*
X76664482Y-79368000D01*
X76577284Y-79578515D01*
X76413124Y-79824197D01*
X76204197Y-80033124D01*
X76204194Y-80033126D01*
X75958517Y-80197283D01*
X75685534Y-80310356D01*
X75588935Y-80329571D01*
X75395739Y-80368000D01*
X75100261Y-80368000D01*
X74907065Y-80329571D01*
X74810466Y-80310356D01*
X74537483Y-80197283D01*
X74291806Y-80033126D01*
X74291803Y-80033124D01*
X74082876Y-79824197D01*
X73918716Y-79578515D01*
X73831518Y-79368000D01*
X73805644Y-79305534D01*
X73748000Y-79015737D01*
X73748000Y-78720263D01*
X73805644Y-78430466D01*
X73918717Y-78157483D01*
X74082874Y-77911806D01*
X74082876Y-77911803D01*
X74291803Y-77702876D01*
X74295080Y-77700687D01*
X74537483Y-77538717D01*
X74810466Y-77425644D01*
X74907065Y-77406429D01*
X75100261Y-77368000D01*
X75395739Y-77368000D01*
X75588935Y-77406429D01*
X75588935Y-77406429D01*
G37*
G36*
X79588935Y-76406429D02*
X79685534Y-76425644D01*
X79958517Y-76538717D01*
X80200920Y-76700687D01*
X80204197Y-76702876D01*
X80413124Y-76911803D01*
X80413126Y-76911806D01*
X80577283Y-77157483D01*
X80690356Y-77430466D01*
X80748000Y-77720263D01*
X80748000Y-78015737D01*
X80690356Y-78305534D01*
X80638607Y-78430467D01*
X80577284Y-78578515D01*
X80413124Y-78824197D01*
X80204197Y-79033124D01*
X80204194Y-79033126D01*
X79958517Y-79197283D01*
X79685534Y-79310356D01*
X79588935Y-79329571D01*
X79395739Y-79368000D01*
X79100261Y-79368000D01*
X78907065Y-79329571D01*
X78810466Y-79310356D01*
X78537483Y-79197283D01*
X78291806Y-79033126D01*
X78291803Y-79033124D01*
X78082876Y-78824197D01*
X77918716Y-78578515D01*
X77857393Y-78430467D01*
X77805644Y-78305534D01*
X77748000Y-78015737D01*
X77748000Y-77720263D01*
X77805644Y-77430466D01*
X77918717Y-77157483D01*
X78082874Y-76911806D01*
X78082876Y-76911803D01*
X78291803Y-76702876D01*
X78295080Y-76700687D01*
X78537483Y-76538717D01*
X78810466Y-76425644D01*
X78907065Y-76406429D01*
X79100261Y-76368000D01*
X79395739Y-76368000D01*
X79588935Y-76406429D01*
X79588935Y-76406429D01*
G37*
G36*
X71263203Y-74236893D02*
X71263206Y-74236894D01*
X71263207Y-74236894D01*
X71300907Y-74248330D01*
X71300908Y-74248330D01*
X71300913Y-74248332D01*
X71315078Y-74255903D01*
X71337717Y-74265280D01*
X71361750Y-74270060D01*
X71386255Y-74270060D01*
X71410288Y-74265279D01*
X71432922Y-74255903D01*
X71447087Y-74248332D01*
X71447092Y-74248330D01*
X71447093Y-74248330D01*
X71484793Y-74236894D01*
X71484794Y-74236894D01*
X71484797Y-74236893D01*
X71530140Y-74232427D01*
X72017860Y-74232427D01*
X72036197Y-74234233D01*
X72048449Y-74234835D01*
X72066869Y-74234835D01*
X72118358Y-74239906D01*
X72202443Y-74256632D01*
X72230949Y-74265279D01*
X72246048Y-74269859D01*
X72246050Y-74269860D01*
X72251955Y-74271651D01*
X72331164Y-74304460D01*
X72376787Y-74328846D01*
X72448082Y-74376484D01*
X72488076Y-74409306D01*
X72548694Y-74469924D01*
X72581516Y-74509918D01*
X72629154Y-74581213D01*
X72653540Y-74626836D01*
X72686349Y-74706045D01*
X72701368Y-74755557D01*
X72718094Y-74839642D01*
X72723165Y-74891131D01*
X72723165Y-74909551D01*
X72723767Y-74921803D01*
X72725573Y-74940140D01*
X72725573Y-75427860D01*
X72723767Y-75446197D01*
X72723165Y-75458449D01*
X72723165Y-75476869D01*
X72718094Y-75528358D01*
X72701368Y-75612443D01*
X72686349Y-75661955D01*
X72653540Y-75741164D01*
X72629154Y-75786787D01*
X72581516Y-75858082D01*
X72548694Y-75898076D01*
X72488076Y-75958694D01*
X72448082Y-75991516D01*
X72376787Y-76039154D01*
X72331164Y-76063540D01*
X72251955Y-76096349D01*
X72246050Y-76098140D01*
X72246048Y-76098141D01*
X72236296Y-76101099D01*
X72202443Y-76111368D01*
X72118358Y-76128094D01*
X72066869Y-76133165D01*
X72048449Y-76133165D01*
X72036197Y-76133767D01*
X72017860Y-76135573D01*
X71530140Y-76135573D01*
X71484797Y-76131107D01*
X71484794Y-76131106D01*
X71484793Y-76131106D01*
X71447093Y-76119670D01*
X71447092Y-76119670D01*
X71447087Y-76119668D01*
X71432922Y-76112097D01*
X71410283Y-76102720D01*
X71386250Y-76097940D01*
X71361745Y-76097940D01*
X71337712Y-76102721D01*
X71315078Y-76112097D01*
X71300913Y-76119668D01*
X71300908Y-76119670D01*
X71300907Y-76119670D01*
X71263207Y-76131106D01*
X71263206Y-76131106D01*
X71263203Y-76131107D01*
X71217860Y-76135573D01*
X70730140Y-76135573D01*
X70711803Y-76133767D01*
X70699551Y-76133165D01*
X70681131Y-76133165D01*
X70629642Y-76128094D01*
X70545557Y-76111368D01*
X70511704Y-76101099D01*
X70501952Y-76098141D01*
X70501950Y-76098140D01*
X70496045Y-76096349D01*
X70416836Y-76063540D01*
X70371213Y-76039154D01*
X70299918Y-75991516D01*
X70259924Y-75958694D01*
X70199306Y-75898076D01*
X70166484Y-75858082D01*
X70118846Y-75786787D01*
X70094460Y-75741164D01*
X70061651Y-75661955D01*
X70046632Y-75612443D01*
X70029906Y-75528358D01*
X70024835Y-75476869D01*
X70024835Y-75458449D01*
X70024233Y-75446197D01*
X70022427Y-75427860D01*
X70022427Y-74940140D01*
X70024233Y-74921803D01*
X70024835Y-74909551D01*
X70024835Y-74891131D01*
X70029906Y-74839642D01*
X70046632Y-74755557D01*
X70061651Y-74706045D01*
X70094460Y-74626836D01*
X70118846Y-74581213D01*
X70166484Y-74509918D01*
X70199306Y-74469924D01*
X70259924Y-74409306D01*
X70299918Y-74376484D01*
X70371213Y-74328846D01*
X70416836Y-74304460D01*
X70496045Y-74271651D01*
X70501950Y-74269860D01*
X70501952Y-74269859D01*
X70517051Y-74265279D01*
X70545557Y-74256632D01*
X70629642Y-74239906D01*
X70681131Y-74234835D01*
X70699551Y-74234835D01*
X70711803Y-74234233D01*
X70730140Y-74232427D01*
X71217860Y-74232427D01*
X71263203Y-74236893D01*
X71263203Y-74236893D01*
G37*
G36*
X71263203Y-71442893D02*
X71263206Y-71442894D01*
X71263207Y-71442894D01*
X71300907Y-71454330D01*
X71300908Y-71454330D01*
X71300913Y-71454332D01*
X71315078Y-71461903D01*
X71337717Y-71471280D01*
X71361750Y-71476060D01*
X71386255Y-71476060D01*
X71410288Y-71471279D01*
X71432922Y-71461903D01*
X71447087Y-71454332D01*
X71447092Y-71454330D01*
X71447093Y-71454330D01*
X71484793Y-71442894D01*
X71484794Y-71442894D01*
X71484797Y-71442893D01*
X71530140Y-71438427D01*
X72017860Y-71438427D01*
X72036197Y-71440233D01*
X72048449Y-71440835D01*
X72066869Y-71440835D01*
X72118358Y-71445906D01*
X72202443Y-71462632D01*
X72230949Y-71471279D01*
X72246048Y-71475859D01*
X72246050Y-71475860D01*
X72251955Y-71477651D01*
X72331164Y-71510460D01*
X72376787Y-71534846D01*
X72448082Y-71582484D01*
X72488076Y-71615306D01*
X72548694Y-71675924D01*
X72581516Y-71715918D01*
X72629154Y-71787213D01*
X72653540Y-71832836D01*
X72686349Y-71912045D01*
X72701368Y-71961557D01*
X72718094Y-72045642D01*
X72723165Y-72097131D01*
X72723165Y-72115551D01*
X72723767Y-72127803D01*
X72725573Y-72146140D01*
X72725573Y-72633860D01*
X72723767Y-72652197D01*
X72723165Y-72664449D01*
X72723165Y-72682869D01*
X72718094Y-72734358D01*
X72701368Y-72818443D01*
X72686349Y-72867955D01*
X72653540Y-72947164D01*
X72629154Y-72992787D01*
X72581516Y-73064082D01*
X72548694Y-73104076D01*
X72488076Y-73164694D01*
X72448082Y-73197516D01*
X72376787Y-73245154D01*
X72331164Y-73269540D01*
X72251955Y-73302349D01*
X72246050Y-73304140D01*
X72246048Y-73304141D01*
X72236296Y-73307099D01*
X72202443Y-73317368D01*
X72118358Y-73334094D01*
X72066869Y-73339165D01*
X72048449Y-73339165D01*
X72036197Y-73339767D01*
X72017860Y-73341573D01*
X71530140Y-73341573D01*
X71484797Y-73337107D01*
X71484794Y-73337106D01*
X71484793Y-73337106D01*
X71447093Y-73325670D01*
X71447092Y-73325670D01*
X71447087Y-73325668D01*
X71432922Y-73318097D01*
X71410283Y-73308720D01*
X71386250Y-73303940D01*
X71361745Y-73303940D01*
X71337712Y-73308721D01*
X71315078Y-73318097D01*
X71300913Y-73325668D01*
X71300908Y-73325670D01*
X71300907Y-73325670D01*
X71263207Y-73337106D01*
X71263206Y-73337106D01*
X71263203Y-73337107D01*
X71217860Y-73341573D01*
X70730140Y-73341573D01*
X70711803Y-73339767D01*
X70699551Y-73339165D01*
X70681131Y-73339165D01*
X70629642Y-73334094D01*
X70545557Y-73317368D01*
X70511704Y-73307099D01*
X70501952Y-73304141D01*
X70501950Y-73304140D01*
X70496045Y-73302349D01*
X70416836Y-73269540D01*
X70371213Y-73245154D01*
X70299918Y-73197516D01*
X70259924Y-73164694D01*
X70199306Y-73104076D01*
X70166484Y-73064082D01*
X70118846Y-72992787D01*
X70094460Y-72947164D01*
X70061651Y-72867955D01*
X70046632Y-72818443D01*
X70029906Y-72734358D01*
X70024835Y-72682869D01*
X70024835Y-72664449D01*
X70024233Y-72652197D01*
X70022427Y-72633860D01*
X70022427Y-72146140D01*
X70024233Y-72127803D01*
X70024835Y-72115551D01*
X70024835Y-72097131D01*
X70029906Y-72045642D01*
X70046632Y-71961557D01*
X70061651Y-71912045D01*
X70094460Y-71832836D01*
X70118846Y-71787213D01*
X70166484Y-71715918D01*
X70199306Y-71675924D01*
X70259924Y-71615306D01*
X70299918Y-71582484D01*
X70371213Y-71534846D01*
X70416836Y-71510460D01*
X70496045Y-71477651D01*
X70501950Y-71475860D01*
X70501952Y-71475859D01*
X70517051Y-71471279D01*
X70545557Y-71462632D01*
X70629642Y-71445906D01*
X70681131Y-71440835D01*
X70699551Y-71440835D01*
X70711803Y-71440233D01*
X70730140Y-71438427D01*
X71217860Y-71438427D01*
X71263203Y-71442893D01*
X71263203Y-71442893D01*
G37*
G36*
X71263203Y-68648893D02*
X71263206Y-68648894D01*
X71263207Y-68648894D01*
X71300907Y-68660330D01*
X71300908Y-68660330D01*
X71300913Y-68660332D01*
X71315078Y-68667903D01*
X71337717Y-68677280D01*
X71361750Y-68682060D01*
X71386255Y-68682060D01*
X71410288Y-68677279D01*
X71432922Y-68667903D01*
X71447087Y-68660332D01*
X71447092Y-68660330D01*
X71447093Y-68660330D01*
X71484793Y-68648894D01*
X71484794Y-68648894D01*
X71484797Y-68648893D01*
X71530140Y-68644427D01*
X72017860Y-68644427D01*
X72036197Y-68646233D01*
X72048449Y-68646835D01*
X72066869Y-68646835D01*
X72118358Y-68651906D01*
X72202443Y-68668632D01*
X72230949Y-68677279D01*
X72246048Y-68681859D01*
X72246050Y-68681860D01*
X72251955Y-68683651D01*
X72331164Y-68716460D01*
X72376787Y-68740846D01*
X72448082Y-68788484D01*
X72488076Y-68821306D01*
X72548694Y-68881924D01*
X72581516Y-68921918D01*
X72629154Y-68993213D01*
X72653540Y-69038836D01*
X72686349Y-69118045D01*
X72701368Y-69167557D01*
X72718094Y-69251642D01*
X72723165Y-69303131D01*
X72723165Y-69321551D01*
X72723767Y-69333803D01*
X72725573Y-69352140D01*
X72725573Y-69839860D01*
X72723767Y-69858197D01*
X72723165Y-69870449D01*
X72723165Y-69888869D01*
X72718094Y-69940358D01*
X72701368Y-70024443D01*
X72686349Y-70073955D01*
X72653540Y-70153164D01*
X72629154Y-70198787D01*
X72581516Y-70270082D01*
X72548694Y-70310076D01*
X72488076Y-70370694D01*
X72448082Y-70403516D01*
X72376787Y-70451154D01*
X72331164Y-70475540D01*
X72251955Y-70508349D01*
X72246050Y-70510140D01*
X72246048Y-70510141D01*
X72236296Y-70513099D01*
X72202443Y-70523368D01*
X72118358Y-70540094D01*
X72066869Y-70545165D01*
X72048449Y-70545165D01*
X72036197Y-70545767D01*
X72017860Y-70547573D01*
X71530140Y-70547573D01*
X71484797Y-70543107D01*
X71484794Y-70543106D01*
X71484793Y-70543106D01*
X71447093Y-70531670D01*
X71447092Y-70531670D01*
X71447087Y-70531668D01*
X71432922Y-70524097D01*
X71410283Y-70514720D01*
X71386250Y-70509940D01*
X71361745Y-70509940D01*
X71337712Y-70514721D01*
X71315078Y-70524097D01*
X71300913Y-70531668D01*
X71300908Y-70531670D01*
X71300907Y-70531670D01*
X71263207Y-70543106D01*
X71263206Y-70543106D01*
X71263203Y-70543107D01*
X71217860Y-70547573D01*
X70730140Y-70547573D01*
X70711803Y-70545767D01*
X70699551Y-70545165D01*
X70681131Y-70545165D01*
X70629642Y-70540094D01*
X70545557Y-70523368D01*
X70511704Y-70513099D01*
X70501952Y-70510141D01*
X70501950Y-70510140D01*
X70496045Y-70508349D01*
X70416836Y-70475540D01*
X70371213Y-70451154D01*
X70299918Y-70403516D01*
X70259924Y-70370694D01*
X70199306Y-70310076D01*
X70166484Y-70270082D01*
X70118846Y-70198787D01*
X70094460Y-70153164D01*
X70061651Y-70073955D01*
X70046632Y-70024443D01*
X70029906Y-69940358D01*
X70024835Y-69888869D01*
X70024835Y-69870449D01*
X70024233Y-69858197D01*
X70022427Y-69839860D01*
X70022427Y-69352140D01*
X70024233Y-69333803D01*
X70024835Y-69321551D01*
X70024835Y-69303131D01*
X70029906Y-69251642D01*
X70046632Y-69167557D01*
X70061651Y-69118045D01*
X70094460Y-69038836D01*
X70118846Y-68993213D01*
X70166484Y-68921918D01*
X70199306Y-68881924D01*
X70259924Y-68821306D01*
X70299918Y-68788484D01*
X70371213Y-68740846D01*
X70416836Y-68716460D01*
X70496045Y-68683651D01*
X70501950Y-68681860D01*
X70501952Y-68681859D01*
X70517051Y-68677279D01*
X70545557Y-68668632D01*
X70629642Y-68651906D01*
X70681131Y-68646835D01*
X70699551Y-68646835D01*
X70711803Y-68646233D01*
X70730140Y-68644427D01*
X71217860Y-68644427D01*
X71263203Y-68648893D01*
X71263203Y-68648893D01*
G37*
G36*
X71263203Y-65854893D02*
X71263206Y-65854894D01*
X71263207Y-65854894D01*
X71300907Y-65866330D01*
X71300908Y-65866330D01*
X71300913Y-65866332D01*
X71315078Y-65873903D01*
X71337717Y-65883280D01*
X71361750Y-65888060D01*
X71386255Y-65888060D01*
X71410288Y-65883279D01*
X71432922Y-65873903D01*
X71447087Y-65866332D01*
X71447092Y-65866330D01*
X71447093Y-65866330D01*
X71484793Y-65854894D01*
X71484794Y-65854894D01*
X71484797Y-65854893D01*
X71530140Y-65850427D01*
X72017860Y-65850427D01*
X72036197Y-65852233D01*
X72048449Y-65852835D01*
X72066869Y-65852835D01*
X72118358Y-65857906D01*
X72202443Y-65874632D01*
X72230949Y-65883279D01*
X72246048Y-65887859D01*
X72246050Y-65887860D01*
X72251955Y-65889651D01*
X72331164Y-65922460D01*
X72376787Y-65946846D01*
X72448082Y-65994484D01*
X72488076Y-66027306D01*
X72548694Y-66087924D01*
X72581516Y-66127918D01*
X72629154Y-66199213D01*
X72653540Y-66244836D01*
X72686349Y-66324045D01*
X72701368Y-66373557D01*
X72718094Y-66457642D01*
X72723165Y-66509131D01*
X72723165Y-66527551D01*
X72723767Y-66539803D01*
X72725573Y-66558140D01*
X72725573Y-67045860D01*
X72723767Y-67064197D01*
X72723165Y-67076449D01*
X72723165Y-67094869D01*
X72718094Y-67146358D01*
X72701368Y-67230443D01*
X72686349Y-67279955D01*
X72653540Y-67359164D01*
X72629154Y-67404787D01*
X72581516Y-67476082D01*
X72548694Y-67516076D01*
X72488076Y-67576694D01*
X72448082Y-67609516D01*
X72376787Y-67657154D01*
X72331164Y-67681540D01*
X72251955Y-67714349D01*
X72246050Y-67716140D01*
X72246048Y-67716141D01*
X72236296Y-67719099D01*
X72202443Y-67729368D01*
X72118358Y-67746094D01*
X72066869Y-67751165D01*
X72048449Y-67751165D01*
X72036197Y-67751767D01*
X72017860Y-67753573D01*
X71530140Y-67753573D01*
X71484797Y-67749107D01*
X71484794Y-67749106D01*
X71484793Y-67749106D01*
X71447093Y-67737670D01*
X71447092Y-67737670D01*
X71447087Y-67737668D01*
X71432922Y-67730097D01*
X71410283Y-67720720D01*
X71386250Y-67715940D01*
X71361745Y-67715940D01*
X71337712Y-67720721D01*
X71315078Y-67730097D01*
X71300913Y-67737668D01*
X71300908Y-67737670D01*
X71300907Y-67737670D01*
X71263207Y-67749106D01*
X71263206Y-67749106D01*
X71263203Y-67749107D01*
X71217860Y-67753573D01*
X70730140Y-67753573D01*
X70711803Y-67751767D01*
X70699551Y-67751165D01*
X70681131Y-67751165D01*
X70629642Y-67746094D01*
X70545557Y-67729368D01*
X70511704Y-67719099D01*
X70501952Y-67716141D01*
X70501950Y-67716140D01*
X70496045Y-67714349D01*
X70416836Y-67681540D01*
X70371213Y-67657154D01*
X70299918Y-67609516D01*
X70259924Y-67576694D01*
X70199306Y-67516076D01*
X70166484Y-67476082D01*
X70118846Y-67404787D01*
X70094460Y-67359164D01*
X70061651Y-67279955D01*
X70046632Y-67230443D01*
X70029906Y-67146358D01*
X70024835Y-67094869D01*
X70024835Y-67076449D01*
X70024233Y-67064197D01*
X70022427Y-67045860D01*
X70022427Y-66558140D01*
X70024233Y-66539803D01*
X70024835Y-66527551D01*
X70024835Y-66509131D01*
X70029906Y-66457642D01*
X70046632Y-66373557D01*
X70061651Y-66324045D01*
X70094460Y-66244836D01*
X70118846Y-66199213D01*
X70166484Y-66127918D01*
X70199306Y-66087924D01*
X70259924Y-66027306D01*
X70299918Y-65994484D01*
X70371213Y-65946846D01*
X70416836Y-65922460D01*
X70496045Y-65889651D01*
X70501950Y-65887860D01*
X70501952Y-65887859D01*
X70517051Y-65883279D01*
X70545557Y-65874632D01*
X70629642Y-65857906D01*
X70681131Y-65852835D01*
X70699551Y-65852835D01*
X70711803Y-65852233D01*
X70730140Y-65850427D01*
X71217860Y-65850427D01*
X71263203Y-65854893D01*
X71263203Y-65854893D01*
G37*
G36*
X76887507Y-63117996D02*
X76964636Y-63125593D01*
X77096587Y-63165620D01*
X77162563Y-63185633D01*
X77344972Y-63283133D01*
X77504854Y-63414346D01*
X77636067Y-63574228D01*
X77733567Y-63756637D01*
X77733567Y-63756638D01*
X77793607Y-63954564D01*
X77813880Y-64160400D01*
X77793607Y-64366236D01*
X77753580Y-64498187D01*
X77733567Y-64564163D01*
X77636067Y-64746572D01*
X77504854Y-64906454D01*
X77344972Y-65037667D01*
X77162563Y-65135167D01*
X77096587Y-65155180D01*
X76964636Y-65195207D01*
X76887507Y-65202803D01*
X76810380Y-65210400D01*
X76707220Y-65210400D01*
X76630093Y-65202803D01*
X76552964Y-65195207D01*
X76421013Y-65155180D01*
X76355037Y-65135167D01*
X76172628Y-65037667D01*
X76012746Y-64906454D01*
X75881533Y-64746572D01*
X75784033Y-64564163D01*
X75764020Y-64498187D01*
X75723993Y-64366236D01*
X75703720Y-64160400D01*
X75723993Y-63954564D01*
X75784033Y-63756638D01*
X75784033Y-63756637D01*
X75881533Y-63574228D01*
X76012746Y-63414346D01*
X76172628Y-63283133D01*
X76355037Y-63185633D01*
X76421013Y-63165620D01*
X76552964Y-63125593D01*
X76630093Y-63117996D01*
X76707220Y-63110400D01*
X76810380Y-63110400D01*
X76887507Y-63117996D01*
X76887507Y-63117996D01*
G37*
G36*
X87047507Y-63117996D02*
X87124636Y-63125593D01*
X87256587Y-63165620D01*
X87322563Y-63185633D01*
X87504972Y-63283133D01*
X87664854Y-63414346D01*
X87796067Y-63574228D01*
X87893567Y-63756637D01*
X87893567Y-63756638D01*
X87953607Y-63954564D01*
X87973880Y-64160400D01*
X87953607Y-64366236D01*
X87913580Y-64498187D01*
X87893567Y-64564163D01*
X87796067Y-64746572D01*
X87664854Y-64906454D01*
X87504972Y-65037667D01*
X87322563Y-65135167D01*
X87256587Y-65155180D01*
X87124636Y-65195207D01*
X87047507Y-65202803D01*
X86970380Y-65210400D01*
X86867220Y-65210400D01*
X86790093Y-65202803D01*
X86712964Y-65195207D01*
X86581013Y-65155180D01*
X86515037Y-65135167D01*
X86332628Y-65037667D01*
X86172746Y-64906454D01*
X86041533Y-64746572D01*
X85944033Y-64564163D01*
X85924020Y-64498187D01*
X85883993Y-64366236D01*
X85863720Y-64160400D01*
X85883993Y-63954564D01*
X85944033Y-63756638D01*
X85944033Y-63756637D01*
X86041533Y-63574228D01*
X86172746Y-63414346D01*
X86332628Y-63283133D01*
X86515037Y-63185633D01*
X86581013Y-63165620D01*
X86712964Y-63125593D01*
X86790093Y-63117996D01*
X86867220Y-63110400D01*
X86970380Y-63110400D01*
X87047507Y-63117996D01*
X87047507Y-63117996D01*
G37*
G36*
X84507507Y-63117996D02*
X84584636Y-63125593D01*
X84716587Y-63165620D01*
X84782563Y-63185633D01*
X84964972Y-63283133D01*
X85124854Y-63414346D01*
X85256067Y-63574228D01*
X85353567Y-63756637D01*
X85353567Y-63756638D01*
X85413607Y-63954564D01*
X85433880Y-64160400D01*
X85413607Y-64366236D01*
X85373580Y-64498187D01*
X85353567Y-64564163D01*
X85256067Y-64746572D01*
X85124854Y-64906454D01*
X84964972Y-65037667D01*
X84782563Y-65135167D01*
X84716587Y-65155180D01*
X84584636Y-65195207D01*
X84507507Y-65202803D01*
X84430380Y-65210400D01*
X84327220Y-65210400D01*
X84250093Y-65202803D01*
X84172964Y-65195207D01*
X84041013Y-65155180D01*
X83975037Y-65135167D01*
X83792628Y-65037667D01*
X83632746Y-64906454D01*
X83501533Y-64746572D01*
X83404033Y-64564163D01*
X83384020Y-64498187D01*
X83343993Y-64366236D01*
X83323720Y-64160400D01*
X83343993Y-63954564D01*
X83404033Y-63756638D01*
X83404033Y-63756637D01*
X83501533Y-63574228D01*
X83632746Y-63414346D01*
X83792628Y-63283133D01*
X83975037Y-63185633D01*
X84041013Y-63165620D01*
X84172964Y-63125593D01*
X84250093Y-63117996D01*
X84327220Y-63110400D01*
X84430380Y-63110400D01*
X84507507Y-63117996D01*
X84507507Y-63117996D01*
G37*
G36*
X81967507Y-63117996D02*
X82044636Y-63125593D01*
X82176587Y-63165620D01*
X82242563Y-63185633D01*
X82424972Y-63283133D01*
X82584854Y-63414346D01*
X82716067Y-63574228D01*
X82813567Y-63756637D01*
X82813567Y-63756638D01*
X82873607Y-63954564D01*
X82893880Y-64160400D01*
X82873607Y-64366236D01*
X82833580Y-64498187D01*
X82813567Y-64564163D01*
X82716067Y-64746572D01*
X82584854Y-64906454D01*
X82424972Y-65037667D01*
X82242563Y-65135167D01*
X82176587Y-65155180D01*
X82044636Y-65195207D01*
X81967507Y-65202803D01*
X81890380Y-65210400D01*
X81787220Y-65210400D01*
X81710093Y-65202803D01*
X81632964Y-65195207D01*
X81501013Y-65155180D01*
X81435037Y-65135167D01*
X81252628Y-65037667D01*
X81092746Y-64906454D01*
X80961533Y-64746572D01*
X80864033Y-64564163D01*
X80844020Y-64498187D01*
X80803993Y-64366236D01*
X80783720Y-64160400D01*
X80803993Y-63954564D01*
X80864033Y-63756638D01*
X80864033Y-63756637D01*
X80961533Y-63574228D01*
X81092746Y-63414346D01*
X81252628Y-63283133D01*
X81435037Y-63185633D01*
X81501013Y-63165620D01*
X81632964Y-63125593D01*
X81710093Y-63117996D01*
X81787220Y-63110400D01*
X81890380Y-63110400D01*
X81967507Y-63117996D01*
X81967507Y-63117996D01*
G37*
G36*
X79427507Y-63117996D02*
X79504636Y-63125593D01*
X79636587Y-63165620D01*
X79702563Y-63185633D01*
X79884972Y-63283133D01*
X80044854Y-63414346D01*
X80176067Y-63574228D01*
X80273567Y-63756637D01*
X80273567Y-63756638D01*
X80333607Y-63954564D01*
X80353880Y-64160400D01*
X80333607Y-64366236D01*
X80293580Y-64498187D01*
X80273567Y-64564163D01*
X80176067Y-64746572D01*
X80044854Y-64906454D01*
X79884972Y-65037667D01*
X79702563Y-65135167D01*
X79636587Y-65155180D01*
X79504636Y-65195207D01*
X79427507Y-65202803D01*
X79350380Y-65210400D01*
X79247220Y-65210400D01*
X79170093Y-65202803D01*
X79092964Y-65195207D01*
X78961013Y-65155180D01*
X78895037Y-65135167D01*
X78712628Y-65037667D01*
X78552746Y-64906454D01*
X78421533Y-64746572D01*
X78324033Y-64564163D01*
X78304020Y-64498187D01*
X78263993Y-64366236D01*
X78243720Y-64160400D01*
X78263993Y-63954564D01*
X78324033Y-63756638D01*
X78324033Y-63756637D01*
X78421533Y-63574228D01*
X78552746Y-63414346D01*
X78712628Y-63283133D01*
X78895037Y-63185633D01*
X78961013Y-63165620D01*
X79092964Y-63125593D01*
X79170093Y-63117996D01*
X79247220Y-63110400D01*
X79350380Y-63110400D01*
X79427507Y-63117996D01*
X79427507Y-63117996D01*
G37*
G36*
X72728800Y-65210400D02*
X70628800Y-65210400D01*
X70628800Y-63110400D01*
X72728800Y-63110400D01*
X72728800Y-65210400D01*
X72728800Y-65210400D01*
G37*
G36*
X74347507Y-63117996D02*
X74424636Y-63125593D01*
X74556587Y-63165620D01*
X74622563Y-63185633D01*
X74804972Y-63283133D01*
X74964854Y-63414346D01*
X75096067Y-63574228D01*
X75193567Y-63756637D01*
X75193567Y-63756638D01*
X75253607Y-63954564D01*
X75273880Y-64160400D01*
X75253607Y-64366236D01*
X75213580Y-64498187D01*
X75193567Y-64564163D01*
X75096067Y-64746572D01*
X74964854Y-64906454D01*
X74804972Y-65037667D01*
X74622563Y-65135167D01*
X74556587Y-65155180D01*
X74424636Y-65195207D01*
X74347507Y-65202803D01*
X74270380Y-65210400D01*
X74167220Y-65210400D01*
X74090093Y-65202803D01*
X74012964Y-65195207D01*
X73881013Y-65155180D01*
X73815037Y-65135167D01*
X73632628Y-65037667D01*
X73472746Y-64906454D01*
X73341533Y-64746572D01*
X73244033Y-64564163D01*
X73224020Y-64498187D01*
X73183993Y-64366236D01*
X73163720Y-64160400D01*
X73183993Y-63954564D01*
X73244033Y-63756638D01*
X73244033Y-63756637D01*
X73341533Y-63574228D01*
X73472746Y-63414346D01*
X73632628Y-63283133D01*
X73815037Y-63185633D01*
X73881013Y-63165620D01*
X74012964Y-63125593D01*
X74090093Y-63117996D01*
X74167220Y-63110400D01*
X74270380Y-63110400D01*
X74347507Y-63117996D01*
X74347507Y-63117996D01*
G37*
M02*
