  0
SECTION
  2
HEADER
  9
$ACADVER
  1
AC1014
  9
$HANDSEED
  5
FFFF
  9
$MEASUREMENT
 70
     1
  0
ENDSEC
  0
SECTION
  2
TABLES
  0
TABLE
  2
VPORT
  5
8
330
0
100
AcDbSymbolTable
 70
     4
  0
VPORT
  5
2E
330
8
100
AcDbSymbolTableRecord
100
AcDbViewportTableRecord
  2
*ACTIVE
 70
     0
 10
0.0
 20
0.0
 11
1.0
 21
1.0
 12
210.0
 22
148.5
 13
0.0
 23
0.0
 14
10.0
 24
10.0
 15
10.0
 25
10.0
 16
0.0
 26
0.0
 36
1.0
 17
0.0
 27
0.0
 37
0.0
 40
341.0
 41
1.24
 42
50.0
 43
0.0
 44
0.0
 50
0.0
 51
0.0
 71
     0
 72
   100
 73
     1
 74
     3
 75
     0
 76
     0
 77
     0
 78
     0
  0
ENDTAB
  0
TABLE
  2
LTYPE
  5
5
330
0
100
AcDbSymbolTable
 70
     1
  0
LTYPE
  5
14
330
5
100
AcDbSymbolTableRecord
100
AcDbLinetypeTableRecord
  2
BYBLOCK
 70
     0
  3

 72
    65
 73
     0
 40
0.0
  0
LTYPE
  5
15
330
5
100
AcDbSymbolTableRecord
100
AcDbLinetypeTableRecord
  2
BYLAYER
 70
     0
  3

 72
    65
 73
     0
 40
0.0
  0
LTYPE
  5
16
330
5
100
AcDbSymbolTableRecord
100
AcDbLinetypeTableRecord
  2
CONTINUOUS
 70
     0
  3
Solid line
 72
    65
 73
     0
 40
0.0
  0
ENDTAB
  0
TABLE
  2
LAYER
  5
2
100
AcDbSymbolTable
 70
4
  0
LAYER
  5
50
100
AcDbSymbolTableRecord
100
AcDbLayerTableRecord
  2
0
 70
0
  6
CONTINUOUS
  0
LAYER
  5
51
100
AcDbSymbolTableRecord
100
AcDbLayerTableRecord
  2
Courtyard
 70
0
  6
CONTINUOUS
  0
LAYER
  5
52
100
AcDbSymbolTableRecord
100
AcDbLayerTableRecord
  2
Frame
 70
0
  6
CONTINUOUS
  0
LAYER
  5
53
100
AcDbSymbolTableRecord
100
AcDbLayerTableRecord
  2
Outline
 70
0
  6
CONTINUOUS
  0
ENDTAB
  0
TABLE
  2
STYLE
  5
3
330
0
100
AcDbSymbolTable
 70
     1
  0
STYLE
  5
11
330
3
100
AcDbSymbolTableRecord
100
AcDbTextStyleTableRecord
  2
STANDARD
 70
     0
 40
0.0
 41
1.0
 50
0.0
 71
     0
 42
2.5
  3
txt
  4

  0
ENDTAB
  0
TABLE
  2
VIEW
  5
6
330
0
100
AcDbSymbolTable
 70
     0
  0
ENDTAB
  0
TABLE
  2
UCS
  5
7
330
0
100
AcDbSymbolTable
 70
     0
  0
ENDTAB
  0
TABLE
  2
APPID
  5
9
330
0
100
AcDbSymbolTable
 70
     2
  0
APPID
  5
12
330
9
100
AcDbSymbolTableRecord
100
AcDbRegAppTableRecord
  2
ACAD
 70
     0
  0
ENDTAB
  0
TABLE
  2
DIMSTYLE
  5
A
330
0
100
AcDbSymbolTable
 70
     1
  0
DIMSTYLE
105
27
330
A
100
AcDbSymbolTableRecord
100
AcDbDimStyleTableRecord
  2
ISO-25
 70
     0
  3

  4

  5

  6

  7

 40
1.0
 41
2.5
 42
0.625
 43
3.75
 44
1.25
 45
0.0
 46
0.0
 47
0.0
 48
0.0
140
2.5
141
2.5
142
0.0
143
0.03937007874016
144
1.0
145
0.0
146
1.0
147
0.625
 71
     0
 72
     0
 73
     0
 74
     0
 75
     0
 76
     0
 77
     1
 78
     8
170
     0
171
     3
172
     1
173
     0
174
     0
175
     0
176
     0
177
     0
178
     0
270
     2
271
     2
272
     2
273
     2
274
     3
340
11
275
     0
280
     0
281
     0
282
     0
283
     0
284
     8
285
     0
286
     0
287
     3
288
     0
  0
ENDTAB
  0
TABLE
  2
BLOCK_RECORD
  5
1
330
0
100
AcDbSymbolTable
 70
     1
  0
BLOCK_RECORD
  5
1F
330
1
100
AcDbSymbolTableRecord
100
AcDbBlockTableRecord
  2
*MODEL_SPACE
  0
BLOCK_RECORD
  5
1B
330
1
100
AcDbSymbolTableRecord
100
AcDbBlockTableRecord
  2
*PAPER_SPACE
  0
ENDTAB
  0
ENDSEC
  0
SECTION
  2
BLOCKS
  0
BLOCK
  5
20
330
1F
100
AcDbEntity
  8
0
100
AcDbBlockBegin
  2
*MODEL_SPACE
 70
     0
 10
0.0
 20
0.0
 30
0.0
  3
*MODEL_SPACE
  1

  0
ENDBLK
  5
21
330
1F
100
AcDbEntity
  8
0
100
AcDbBlockEnd
  0
BLOCK
  5
1C
330
1B
100
AcDbEntity
 67
     1
  8
0
100
AcDbBlockBegin
  2
*PAPER_SPACE
  1

  0
ENDBLK
  5
1D
330
1B
100
AcDbEntity
 67
     1
  8
0
100
AcDbBlockEnd
  0
ENDSEC
  0
SECTION
  2
ENTITIES
  0
LWPOLYLINE
  5
100
100
AcDbEntity
  8
Frame
 62
1
100
AcDbPolyline
 90
4
 70
1
 10
838.829497
 20
-251.567820
 30
0.0
 10
4369.504056
 20
-251.567820
 30
0.0
 10
4369.504056
 20
-5761.409242
 30
0.0
 10
838.829497
 20
-5761.409242
 30
0.0
  0
SPLINE
  5
101
100
AcDbEntity
  8
Frame
 62
1
100
AcDbSpline
 70
0
 71
3
 72
19
 73
15
 74
13
 40
0.000000
 40
0.000000
 40
0.000000
 40
0.000000
 40
79.061562
 40
155.778182
 40
234.839743
 40
313.901305
 40
390.617925
 40
469.679486
 40
548.741048
 40
625.457668
 40
704.519229
 40
783.580791
 40
860.297411
 40
939.358972
 40
939.358972
 40
939.358972
 40
939.358972
 10
1349.126741
 20
-610.655028
 30
0.0
 10
1344.970760
 20
-637.310866
 30
0.0
 10
1336.782063
 20
-689.831940
 30
0.0
 10
1276.582795
 20
-747.653351
 30
0.0
 10
1198.055461
 20
-769.077926
 30
0.0
 10
1118.703667
 20
-747.653351
 30
0.0
 10
1060.928871
 20
-689.831940
 30
0.0
 10
1039.488444
 20
-610.655028
 30
0.0
 10
1060.928871
 20
-531.478116
 30
0.0
 10
1118.703667
 20
-473.656705
 30
0.0
 10
1198.055461
 20
-452.232130
 30
0.0
 10
1276.582795
 20
-473.656705
 30
0.0
 10
1336.782063
 20
-531.478116
 30
0.0
 10
1344.970760
 20
-583.999190
 30
0.0
 10
1349.126741
 20
-610.655028
 30
0.0
 11
1349.126741
 21
-610.655028
 31
0.0
 11
1328.482134
 21
-686.973641
 31
0.0
 11
1274.235292
 21
-741.220483
 31
0.0
 11
1197.916679
 21
-761.865091
 31
0.0
 11
1121.598066
 21
-741.220483
 31
0.0
 11
1067.351223
 21
-686.973641
 31
0.0
 11
1046.706616
 21
-610.655028
 31
0.0
 11
1067.351224
 21
-534.336415
 31
0.0
 11
1121.598066
 21
-480.089573
 31
0.0
 11
1197.916679
 21
-459.444965
 31
0.0
 11
1274.235292
 21
-480.089573
 31
0.0
 11
1328.482134
 21
-534.336415
 31
0.0
 11
1349.126741
 21
-610.655028
 31
0.0
  0
SPLINE
  5
102
100
AcDbEntity
  8
Frame
 62
1
100
AcDbSpline
 70
0
 71
3
 72
13
 73
9
 74
7
 40
0.000000
 40
0.000000
 40
0.000000
 40
0.000000
 40
39.583013
 40
78.838463
 40
118.421477
 40
158.004490
 40
197.259940
 40
236.842953
 40
236.842953
 40
236.842953
 40
236.842953
 10
4161.627017
 20
-610.655028
 30
0.0
 10
4160.619012
 20
-623.887916
 30
0.0
 10
4158.611344
 20
-650.244186
 30
0.0
 10
4142.745584
 20
-687.115435
 30
0.0
 10
4118.607400
 20
-718.845550
 30
0.0
 10
4086.877269
 20
-742.983712
 30
0.0
 10
4050.006008
 20
-758.849446
 30
0.0
 10
4023.649737
 20
-760.857096
 30
0.0
 10
4010.416848
 20
-761.865091
 30
0.0
 11
4161.627017
 21
-610.655028
 31
0.0
 11
4156.446474
 21
-649.897568
 31
0.0
 11
4141.424057
 21
-686.164871
 31
0.0
 11
4117.338576
 21
-717.576725
 31
0.0
 11
4085.926706
 21
-741.662184
 31
0.0
 11
4049.659391
 21
-756.684576
 31
0.0
 11
4010.416848
 21
-761.865091
 31
0.0
  0
SPLINE
  5
103
100
AcDbEntity
  8
Frame
 62
1
100
AcDbSpline
 70
0
 71
3
 72
13
 73
9
 74
7
 40
0.000000
 40
0.000000
 40
0.000000
 40
0.000000
 40
79.061509
 40
155.778080
 40
234.839589
 40
313.901098
 40
390.617670
 40
469.679179
 40
469.679179
 40
469.679179
 40
469.679179
 10
4010.416848
 20
-761.865091
 30
0.0
 10
3983.761032
 20
-757.706010
 30
0.0
 10
3931.240002
 20
-749.511206
 30
0.0
 10
3873.418665
 20
-689.356841
 30
0.0
 10
3851.994118
 20
-610.655029
 30
0.0
 10
3873.418665
 20
-531.953216
 30
0.0
 10
3931.240002
 20
-471.798851
 30
0.0
 10
3983.761032
 20
-463.604046
 30
0.0
 10
4010.416848
 20
-459.444965
 30
0.0
 11
4010.416848
 21
-761.865091
 31
0.0
 11
3934.098304
 21
-741.220430
 31
0.0
 11
3879.851524
 21
-686.973594
 31
0.0
 11
3859.206944
 21
-610.655029
 31
0.0
 11
3879.851524
 21
-534.336463
 31
0.0
 11
3934.098303
 21
-480.089626
 31
0.0
 11
4010.416848
 21
-459.444965
 31
0.0
  0
LWPOLYLINE
  5
104
100
AcDbEntity
  8
Frame
 62
1
100
AcDbPolyline
 90
1
 70
1
 10
1349.126741
 20
-610.655028
 30
0.0
  0
SPLINE
  5
105
100
AcDbEntity
  8
Frame
 62
1
100
AcDbSpline
 70
0
 71
3
 72
13
 73
9
 74
7
 40
0.000000
 40
0.000000
 40
0.000000
 40
0.000000
 40
39.583013
 40
78.838463
 40
118.421477
 40
158.004490
 40
197.259940
 40
236.842953
 40
236.842953
 40
236.842953
 40
236.842953
 10
4010.416848
 20
-459.444965
 30
0.0
 10
4023.649737
 20
-460.452961
 30
0.0
 10
4050.006008
 20
-462.460610
 30
0.0
 10
4086.877269
 20
-478.326344
 30
0.0
 10
4118.607400
 20
-502.464506
 30
0.0
 10
4142.745584
 20
-534.194621
 30
0.0
 10
4158.611344
 20
-571.065870
 30
0.0
 10
4160.619012
 20
-597.422140
 30
0.0
 10
4161.627017
 20
-610.655028
 30
0.0
 11
4010.416848
 21
-459.444965
 31
0.0
 11
4049.659391
 21
-464.625480
 31
0.0
 11
4085.926706
 21
-479.647872
 31
0.0
 11
4117.338576
 21
-503.733331
 31
0.0
 11
4141.424057
 21
-535.145185
 31
0.0
 11
4156.446474
 21
-571.412488
 31
0.0
 11
4161.627017
 21
-610.655028
 31
0.0
  0
SPLINE
  5
106
100
AcDbEntity
  8
Frame
 62
1
100
AcDbSpline
 70
0
 71
3
 72
19
 73
15
 74
13
 40
0.000000
 40
0.000000
 40
0.000000
 40
0.000000
 40
39.583013
 40
78.838463
 40
118.421476
 40
158.004490
 40
197.259939
 40
236.842953
 40
276.425966
 40
315.681416
 40
355.264429
 40
394.847443
 40
434.102892
 40
473.685906
 40
473.685906
 40
473.685906
 40
473.685906
 10
1349.126741
 20
-5402.322033
 30
0.0
 10
1348.118746
 20
-5415.554176
 30
0.0
 10
1346.111097
 20
-5441.908961
 30
0.0
 10
1330.245363
 20
-5478.791327
 30
0.0
 10
1306.107201
 20
-5510.478992
 30
0.0
 10
1274.377086
 20
-5534.775714
 30
0.0
 10
1237.505836
 20
-5550.052894
 30
0.0
 10
1197.916679
 20
-5555.279084
 30
0.0
 10
1158.327521
 20
-5550.052894
 30
0.0
 10
1121.456271
 20
-5534.775714
 30
0.0
 10
1089.726156
 20
-5510.478992
 30
0.0
 10
1065.587995
 20
-5478.791327
 30
0.0
 10
1049.722260
 20
-5441.908961
 30
0.0
 10
1047.714611
 20
-5415.554176
 30
0.0
 10
1046.706616
 20
-5402.322033
 30
0.0
 11
1349.126741
 21
-5402.322033
 31
0.0
 11
1343.946227
 21
-5441.564577
 31
0.0
 11
1328.923835
 21
-5477.831891
 31
0.0
 11
1304.838375
 21
-5509.243761
 31
0.0
 11
1273.426522
 21
-5533.329242
 31
0.0
 11
1237.159218
 21
-5548.351660
 31
0.0
 11
1197.916679
 21
-5553.532202
 31
0.0
 11
1158.674139
 21
-5548.351660
 31
0.0
 11
1122.406835
 21
-5533.329242
 31
0.0
 11
1090.994982
 21
-5509.243761
 31
0.0
 11
1066.909522
 21
-5477.831891
 31
0.0
 11
1051.887130
 21
-5441.564577
 31
0.0
 11
1046.706616
 21
-5402.322033
 31
0.0
  0
LWPOLYLINE
  5
107
100
AcDbEntity
  8
Frame
 62
1
100
AcDbPolyline
 90
1
 70
1
 10
4161.627017
 20
-610.655028
 30
0.0
  0
SPLINE
  5
108
100
AcDbEntity
  8
Frame
 62
1
100
AcDbSpline
 70
0
 71
3
 72
13
 73
9
 74
7
 40
0.000000
 40
0.000000
 40
0.000000
 40
0.000000
 40
79.061509
 40
155.778080
 40
234.839589
 40
313.901099
 40
390.617670
 40
469.679179
 40
469.679179
 40
469.679179
 40
469.679179
 10
1046.706616
 20
-5402.322033
 30
0.0
 10
1050.865696
 20
-5375.666217
 30
0.0
 10
1059.060501
 20
-5323.145187
 30
0.0
 10
1119.214866
 20
-5265.323850
 30
0.0
 10
1197.916679
 20
-5243.899304
 30
0.0
 10
1276.618491
 20
-5265.323850
 30
0.0
 10
1336.772856
 20
-5323.145187
 30
0.0
 10
1344.967661
 20
-5375.666217
 30
0.0
 10
1349.126741
 20
-5402.322033
 30
0.0
 11
1046.706616
 21
-5402.322033
 31
0.0
 11
1067.351276
 21
-5326.003489
 31
0.0
 11
1121.598113
 21
-5271.756710
 31
0.0
 11
1197.916679
 21
-5251.112129
 31
0.0
 11
1274.235244
 21
-5271.756710
 31
0.0
 11
1328.482081
 21
-5326.003489
 31
0.0
 11
1349.126741
 21
-5402.322033
 31
0.0
  0
SPLINE
  5
109
100
AcDbEntity
  8
Frame
 62
1
100
AcDbSpline
 70
0
 71
3
 72
13
 73
9
 74
7
 40
0.000000
 40
0.000000
 40
0.000000
 40
0.000000
 40
39.583031
 40
78.838498
 40
118.421529
 40
158.004560
 40
197.260027
 40
236.843058
 40
236.843058
 40
236.843058
 40
236.843058
 10
4161.627017
 20
-5402.322033
 30
0.0
 10
4160.619020
 20
-5415.554928
 30
0.0
 10
4158.611369
 20
-5441.911211
 30
0.0
 10
4142.745621
 20
-5478.782486
 30
0.0
 10
4118.607439
 20
-5510.512625
 30
0.0
 10
4086.877300
 20
-5534.650806
 30
0.0
 10
4050.006026
 20
-5550.516555
 30
0.0
 10
4023.649743
 20
-5552.524206
 30
0.0
 10
4010.416848
 20
-5553.532202
 30
0.0
 11
4161.627017
 21
-5402.322033
 31
0.0
 11
4156.446497
 21
-5441.564594
 31
0.0
 11
4141.424092
 21
-5477.831921
 31
0.0
 11
4117.338613
 21
-5509.243798
 31
0.0
 11
4085.926736
 21
-5533.329278
 31
0.0
 11
4049.659409
 21
-5548.351683
 31
0.0
 11
4010.416848
 21
-5553.532202
 31
0.0
  0
SPLINE
  5
10a
100
AcDbEntity
  8
Frame
 62
1
100
AcDbSpline
 70
0
 71
3
 72
10
 73
6
 74
4
 40
0.000000
 40
0.000000
 40
0.000000
 40
0.000000
 40
79.061544
 40
155.778148
 40
234.839692
 40
234.839692
 40
234.839692
 40
234.839692
 10
4010.416848
 20
-5553.532202
 30
0.0
 10
3983.920950
 20
-5549.373117
 30
0.0
 10
3931.715014
 20
-5541.178306
 30
0.0
 10
3871.560703
 20
-5481.023889
 30
0.0
 10
3863.365982
 20
-5428.817939
 30
0.0
 10
3859.206944
 20
-5402.322033
 30
0.0
 11
4010.416848
 21
-5553.532202
 31
0.0
 11
3934.098272
 21
-5532.887523
 31
0.0
 11
3879.851489
 21
-5478.640645
 31
0.0
 11
3859.206944
 21
-5402.322033
 31
0.0
  0
SPLINE
  5
10b
100
AcDbEntity
  8
Frame
 62
1
100
AcDbSpline
 70
0
 71
3
 72
10
 73
6
 74
4
 40
0.000000
 40
0.000000
 40
0.000000
 40
0.000000
 40
79.061456
 40
155.777980
 40
234.839436
 40
234.839436
 40
234.839436
 40
234.839436
 10
3859.206944
 20
-5402.322033
 30
0.0
 10
3863.366019
 20
-5375.826165
 30
0.0
 10
3871.560813
 20
-5323.620286
 30
0.0
 10
3931.715101
 20
-5263.465998
 30
0.0
 10
3983.920980
 20
-5255.271204
 30
0.0
 10
4010.416848
 20
-5251.112129
 30
0.0
 11
3859.206944
 21
-5402.322033
 31
0.0
 11
3879.851577
 21
-5326.003536
 31
0.0
 11
3934.098351
 21
-5271.756762
 31
0.0
 11
4010.416848
 21
-5251.112129
 31
0.0
  0
LWPOLYLINE
  5
10c
100
AcDbEntity
  8
Frame
 62
1
100
AcDbPolyline
 90
1
 70
1
 10
1349.126741
 20
-5402.322033
 30
0.0
  0
LWPOLYLINE
  5
10d
100
AcDbEntity
  8
Frame
 62
1
100
AcDbPolyline
 90
1
 70
1
 10
4161.627017
 20
-5402.322033
 30
0.0
  0
SPLINE
  5
10e
100
AcDbEntity
  8
Frame
 62
1
100
AcDbSpline
 70
0
 71
3
 72
10
 73
6
 74
4
 40
0.000000
 40
0.000000
 40
0.000000
 40
0.000000
 40
79.061544
 40
155.778148
 40
234.839692
 40
234.839692
 40
234.839692
 40
234.839692
 10
4010.416848
 20
-5251.112129
 30
0.0
 10
4036.912753
 20
-5255.271167
 30
0.0
 10
4089.118704
 20
-5263.465888
 30
0.0
 10
4149.273120
 20
-5323.620199
 30
0.0
 10
4157.467932
 20
-5375.826135
 30
0.0
 10
4161.627017
 20
-5402.322033
 30
0.0
 11
4010.416848
 21
-5251.112129
 31
0.0
 11
4086.735460
 21
-5271.756674
 31
0.0
 11
4140.982338
 21
-5326.003458
 31
0.0
 11
4161.627017
 21
-5402.322033
 31
0.0
  0
LWPOLYLINE
  5
10f
100
AcDbEntity
  8
Outline
 62
1
100
AcDbPolyline
 90
2
 70
0
 10
3651.038122
 20
-1188.674359
 30
0.0
 10
3651.038122
 20
-4938.878525
 30
0.0
  0
LWPOLYLINE
  5
110
100
AcDbEntity
  8
Outline
 62
1
100
AcDbPolyline
 90
2
 70
0
 10
3442.811038
 20
-5147.105609
 30
0.0
 10
1775.936038
 20
-5147.105609
 30
0.0
  0
SPLINE
  5
111
100
AcDbEntity
  8
Outline
 62
1
100
AcDbSpline
 70
0
 71
3
 72
13
 73
9
 74
7
 40
0.000000
 40
0.000000
 40
0.000000
 40
0.000000
 40
54.536727
 40
108.622140
 40
163.158867
 40
217.695594
 40
271.781007
 40
326.317734
 40
326.317734
 40
326.317734
 40
326.317734
 10
1567.841247
 20
-4938.904984
 30
0.0
 10
1569.230108
 20
-4957.137004
 30
0.0
 10
1571.996338
 20
-4993.450167
 30
0.0
 10
1593.856104
 20
-5044.250589
 30
0.0
 10
1627.113476
 20
-5087.967564
 30
0.0
 10
1670.830873
 20
-5121.224381
 30
0.0
 10
1721.631574
 20
-5143.083501
 30
0.0
 10
1757.944771
 20
-5145.849270
 30
0.0
 10
1776.176809
 20
-5147.237900
 30
0.0
 11
1567.841247
 21
-4938.904984
 31
0.0
 11
1574.979067
 21
-4992.972591
 31
0.0
 11
1595.676880
 21
-5042.940904
 31
0.0
 11
1628.861636
 21
-5086.219382
 31
0.0
 11
1672.140535
 21
-5119.403588
 31
0.0
 11
1722.109111
 21
-5140.100767
 31
0.0
 11
1776.176809
 21
-5147.237900
 31
0.0
  0
SPLINE
  5
112
100
AcDbEntity
  8
Outline
 62
1
100
AcDbSpline
 70
0
 71
3
 72
10
 73
6
 74
4
 40
0.000000
 40
0.000000
 40
0.000000
 40
0.000000
 40
108.928694
 40
214.626614
 40
323.555309
 40
323.555309
 40
323.555309
 40
323.555309
 10
3442.837497
 20
-5147.237900
 30
0.0
 10
3479.342764
 20
-5141.507599
 30
0.0
 10
3551.270568
 20
-5130.216954
 30
0.0
 10
3634.149467
 20
-5047.338056
 30
0.0
 10
3645.440112
 20
-4975.410251
 30
0.0
 10
3651.170413
 20
-4938.904984
 30
0.0
 11
3442.837497
 21
-5147.237900
 31
0.0
 11
3547.986990
 21
-5118.794193
 31
0.0
 11
3622.726706
 21
-5044.054477
 31
0.0
 11
3651.170413
 21
-4938.904984
 31
0.0
  0
LWPOLYLINE
  5
113
100
AcDbEntity
  8
Outline
 62
1
100
AcDbPolyline
 90
2
 70
0
 10
1567.708955
 20
-4938.878525
 30
0.0
 10
1567.708955
 20
-1188.674359
 30
0.0
  0
SPLINE
  5
114
100
AcDbEntity
  8
Outline
 62
1
100
AcDbSpline
 70
0
 71
3
 72
13
 73
9
 74
7
 40
0.000000
 40
0.000000
 40
0.000000
 40
0.000000
 40
54.536727
 40
108.622140
 40
163.158867
 40
217.695594
 40
271.781007
 40
326.317734
 40
326.317734
 40
326.317734
 40
326.317734
 10
3651.170413
 20
-1188.904546
 30
0.0
 10
3649.781783
 20
-1170.672508
 30
0.0
 10
3647.016014
 20
-1134.359311
 30
0.0
 10
3625.156894
 20
-1083.558610
 30
0.0
 10
3591.900077
 20
-1039.841213
 30
0.0
 10
3548.183102
 20
-1006.583841
 30
0.0
 10
3497.382679
 20
-984.724075
 30
0.0
 10
3461.069517
 20
-981.957845
 30
0.0
 10
3442.837497
 20
-980.568984
 30
0.0
 11
3651.170413
 21
-1188.904546
 31
0.0
 11
3644.033280
 21
-1134.836848
 31
0.0
 11
3623.336101
 21
-1084.868272
 31
0.0
 11
3590.151895
 21
-1041.589373
 31
0.0
 11
3546.873417
 21
-1008.404617
 31
0.0
 11
3496.905104
 21
-987.706804
 31
0.0
 11
3442.837497
 21
-980.568984
 31
0.0
  0
SPLINE
  5
115
100
AcDbEntity
  8
Outline
 62
1
100
AcDbSpline
 70
0
 71
3
 72
13
 73
9
 74
7
 40
0.000000
 40
0.000000
 40
0.000000
 40
0.000000
 40
54.537168
 40
108.623010
 40
163.160179
 40
217.697347
 40
271.783189
 40
326.320357
 40
326.320357
 40
326.320357
 40
326.320357
 10
1776.176809
 20
-980.568984
 30
0.0
 10
1757.944623
 20
-981.957637
 30
0.0
 10
1721.631133
 20
-984.723451
 30
0.0
 10
1670.830082
 20
-1006.582918
 30
0.0
 10
1627.112501
 20
-1039.840238
 30
0.0
 10
1593.855181
 20
-1083.557819
 30
0.0
 10
1571.995713
 20
-1134.358870
 30
0.0
 10
1569.229900
 20
-1170.672360
 30
0.0
 10
1567.841247
 20
-1188.904546
 30
0.0
 11
1776.176809
 21
-980.568984
 31
0.0
 11
1722.108682
 21
-987.706233
 31
0.0
 11
1672.139774
 21
-1008.403735
 31
0.0
 11
1628.860700
 21
-1041.588437
 31
0.0
 11
1595.675998
 21
-1084.867511
 31
0.0
 11
1574.978496
 21
-1134.836419
 31
0.0
 11
1567.841247
 21
-1188.904546
 31
0.0
  0
LWPOLYLINE
  5
116
100
AcDbEntity
  8
Outline
 62
1
100
AcDbPolyline
 90
2
 70
0
 10
1775.936038
 20
-980.447275
 30
0.0
 10
3442.811038
 20
-980.447275
 30
0.0
  0
ENDSEC
  0
SECTION
  2
OBJECTS
  0
DICTIONARY
  5
C
330
0
100
AcDbDictionary
  3
ACAD_GROUP
350
D
  3
ACAD_MLINESTYLE
350
17
  0
DICTIONARY
  5
D
330
C
100
AcDbDictionary
  0
DICTIONARY
  5
1A
330
C
100
AcDbDictionary
  0
DICTIONARY
  5
17
330
C
100
AcDbDictionary
  3
STANDARD
350
18
  0
DICTIONARY
  5
19
330
C
100
AcDbDictionary
  0
ENDSEC
  0
EOF
