  0
SECTION
  2
HEADER
  9
$ACADVER
  1
AC1014
  9
$HANDSEED
  5
FFFF
  9
$MEASUREMENT
 70
     1
  0
ENDSEC
  0
SECTION
  2
TABLES
  0
TABLE
  2
VPORT
  5
8
330
0
100
AcDbSymbolTable
 70
     4
  0
VPORT
  5
2E
330
8
100
AcDbSymbolTableRecord
100
AcDbViewportTableRecord
  2
*ACTIVE
 70
     0
 10
0.0
 20
0.0
 11
1.0
 21
1.0
 12
210.0
 22
148.5
 13
0.0
 23
0.0
 14
10.0
 24
10.0
 15
10.0
 25
10.0
 16
0.0
 26
0.0
 36
1.0
 17
0.0
 27
0.0
 37
0.0
 40
341.0
 41
1.24
 42
50.0
 43
0.0
 44
0.0
 50
0.0
 51
0.0
 71
     0
 72
   100
 73
     1
 74
     3
 75
     0
 76
     0
 77
     0
 78
     0
  0
ENDTAB
  0
TABLE
  2
LTYPE
  5
5
330
0
100
AcDbSymbolTable
 70
     1
  0
LTYPE
  5
14
330
5
100
AcDbSymbolTableRecord
100
AcDbLinetypeTableRecord
  2
BYBLOCK
 70
     0
  3

 72
    65
 73
     0
 40
0.0
  0
LTYPE
  5
15
330
5
100
AcDbSymbolTableRecord
100
AcDbLinetypeTableRecord
  2
BYLAYER
 70
     0
  3

 72
    65
 73
     0
 40
0.0
  0
LTYPE
  5
16
330
5
100
AcDbSymbolTableRecord
100
AcDbLinetypeTableRecord
  2
CONTINUOUS
 70
     0
  3
Solid line
 72
    65
 73
     0
 40
0.0
  0
ENDTAB
  0
TABLE
  2
LAYER
  5
2
100
AcDbSymbolTable
 70
5
  0
LAYER
  5
50
100
AcDbSymbolTableRecord
100
AcDbLayerTableRecord
  2
0
 70
0
  6
CONTINUOUS
  0
LAYER
  5
51
100
AcDbSymbolTableRecord
100
AcDbLayerTableRecord
  2
placement_PCA9685
 70
0
  6
CONTINUOUS
  0
LAYER
  5
52
100
AcDbSymbolTableRecord
100
AcDbLayerTableRecord
  2
silkscreen
 70
0
  6
CONTINUOUS
  0
LAYER
  5
53
100
AcDbSymbolTableRecord
100
AcDbLayerTableRecord
  2
frame
 70
0
  6
CONTINUOUS
  0
LAYER
  5
54
100
AcDbSymbolTableRecord
100
AcDbLayerTableRecord
  2
base
 70
0
  6
CONTINUOUS
  0
ENDTAB
  0
TABLE
  2
STYLE
  5
3
330
0
100
AcDbSymbolTable
 70
     1
  0
STYLE
  5
11
330
3
100
AcDbSymbolTableRecord
100
AcDbTextStyleTableRecord
  2
STANDARD
 70
     0
 40
0.0
 41
1.0
 50
0.0
 71
     0
 42
2.5
  3
txt
  4

  0
ENDTAB
  0
TABLE
  2
VIEW
  5
6
330
0
100
AcDbSymbolTable
 70
     0
  0
ENDTAB
  0
TABLE
  2
UCS
  5
7
330
0
100
AcDbSymbolTable
 70
     0
  0
ENDTAB
  0
TABLE
  2
APPID
  5
9
330
0
100
AcDbSymbolTable
 70
     2
  0
APPID
  5
12
330
9
100
AcDbSymbolTableRecord
100
AcDbRegAppTableRecord
  2
ACAD
 70
     0
  0
ENDTAB
  0
TABLE
  2
DIMSTYLE
  5
A
330
0
100
AcDbSymbolTable
 70
     1
  0
DIMSTYLE
105
27
330
A
100
AcDbSymbolTableRecord
100
AcDbDimStyleTableRecord
  2
ISO-25
 70
     0
  3

  4

  5

  6

  7

 40
1.0
 41
2.5
 42
0.625
 43
3.75
 44
1.25
 45
0.0
 46
0.0
 47
0.0
 48
0.0
140
2.5
141
2.5
142
0.0
143
0.03937007874016
144
1.0
145
0.0
146
1.0
147
0.625
 71
     0
 72
     0
 73
     0
 74
     0
 75
     0
 76
     0
 77
     1
 78
     8
170
     0
171
     3
172
     1
173
     0
174
     0
175
     0
176
     0
177
     0
178
     0
270
     2
271
     2
272
     2
273
     2
274
     3
340
11
275
     0
280
     0
281
     0
282
     0
283
     0
284
     8
285
     0
286
     0
287
     3
288
     0
  0
ENDTAB
  0
TABLE
  2
BLOCK_RECORD
  5
1
330
0
100
AcDbSymbolTable
 70
     1
  0
BLOCK_RECORD
  5
1F
330
1
100
AcDbSymbolTableRecord
100
AcDbBlockTableRecord
  2
*MODEL_SPACE
  0
BLOCK_RECORD
  5
1B
330
1
100
AcDbSymbolTableRecord
100
AcDbBlockTableRecord
  2
*PAPER_SPACE
  0
ENDTAB
  0
ENDSEC
  0
SECTION
  2
BLOCKS
  0
BLOCK
  5
20
330
1F
100
AcDbEntity
  8
0
100
AcDbBlockBegin
  2
*MODEL_SPACE
 70
     0
 10
0.0
 20
0.0
 30
0.0
  3
*MODEL_SPACE
  1

  0
ENDBLK
  5
21
330
1F
100
AcDbEntity
  8
0
100
AcDbBlockEnd
  0
BLOCK
  5
1C
330
1B
100
AcDbEntity
 67
     1
  8
0
100
AcDbBlockBegin
  2
*PAPER_SPACE
  1

  0
ENDBLK
  5
1D
330
1B
100
AcDbEntity
 67
     1
  8
0
100
AcDbBlockEnd
  0
ENDSEC
  0
SECTION
  2
ENTITIES
  0
LINE
  5
100
100
AcDbEntity
  8
silkscreen
 62
1
100
AcDbLine
 10
16.428937
 20
-32.448214
 30
0.0
 11
17.038956
 21
-32.448214
 31
0.0
  0
LINE
  5
101
100
AcDbEntity
  8
silkscreen
 62
1
100
AcDbLine
 10
17.038956
 20
-32.448214
 30
0.0
 11
17.038956
 21
-32.786079
 31
0.0
  0
LINE
  5
102
100
AcDbEntity
  8
silkscreen
 62
1
100
AcDbLine
 10
17.038956
 20
-32.786079
 30
0.0
 11
16.428937
 21
-32.786079
 31
0.0
  0
LINE
  5
103
100
AcDbEntity
  8
silkscreen
 62
1
100
AcDbLine
 10
16.428937
 20
-32.786079
 30
0.0
 11
16.428937
 21
-32.448214
 31
0.0
  0
LINE
  5
104
100
AcDbEntity
  8
silkscreen
 62
1
100
AcDbLine
 10
16.428937
 20
-30.949614
 30
0.0
 11
17.038956
 21
-30.949614
 31
0.0
  0
LINE
  5
105
100
AcDbEntity
  8
silkscreen
 62
1
100
AcDbLine
 10
17.038956
 20
-30.949614
 30
0.0
 11
17.038956
 21
-31.287482
 31
0.0
  0
LINE
  5
106
100
AcDbEntity
  8
silkscreen
 62
1
100
AcDbLine
 10
17.038956
 20
-31.287482
 30
0.0
 11
16.428937
 21
-31.287482
 31
0.0
  0
LINE
  5
107
100
AcDbEntity
  8
silkscreen
 62
1
100
AcDbLine
 10
16.428937
 20
-31.287482
 30
0.0
 11
16.428937
 21
-30.949614
 31
0.0
  0
LINE
  5
108
100
AcDbEntity
  8
silkscreen
 62
1
100
AcDbLine
 10
18.086683
 20
-48.411623
 30
0.0
 11
17.545562
 21
-48.411623
 31
0.0
  0
LINE
  5
109
100
AcDbEntity
  8
silkscreen
 62
1
100
AcDbLine
 10
17.545562
 20
-48.411623
 30
0.0
 11
17.545562
 21
-47.803323
 31
0.0
  0
LINE
  5
10a
100
AcDbEntity
  8
silkscreen
 62
1
100
AcDbLine
 10
17.545562
 20
-47.803323
 30
0.0
 11
18.086683
 21
-47.803323
 31
0.0
  0
LINE
  5
10b
100
AcDbEntity
  8
silkscreen
 62
1
100
AcDbLine
 10
18.086683
 20
-47.803323
 30
0.0
 11
18.086683
 21
-48.411623
 31
0.0
  0
LINE
  5
10c
100
AcDbEntity
  8
silkscreen
 62
1
100
AcDbLine
 10
19.986603
 20
-48.411623
 30
0.0
 11
19.445482
 21
-48.411623
 31
0.0
  0
LINE
  5
10d
100
AcDbEntity
  8
silkscreen
 62
1
100
AcDbLine
 10
19.445482
 20
-48.411623
 30
0.0
 11
19.445482
 21
-47.803323
 31
0.0
  0
LINE
  5
10e
100
AcDbEntity
  8
silkscreen
 62
1
100
AcDbLine
 10
19.445482
 20
-47.803323
 30
0.0
 11
19.986603
 21
-47.803323
 31
0.0
  0
LINE
  5
10f
100
AcDbEntity
  8
silkscreen
 62
1
100
AcDbLine
 10
19.986603
 20
-47.803323
 30
0.0
 11
19.986603
 21
-48.411623
 31
0.0
  0
LINE
  5
110
100
AcDbEntity
  8
silkscreen
 62
1
100
AcDbLine
 10
19.036643
 20
-46.412643
 30
0.0
 11
18.495522
 21
-46.412643
 31
0.0
  0
LINE
  5
111
100
AcDbEntity
  8
silkscreen
 62
1
100
AcDbLine
 10
18.495522
 20
-46.412643
 30
0.0
 11
18.495522
 21
-45.804343
 31
0.0
  0
LINE
  5
112
100
AcDbEntity
  8
silkscreen
 62
1
100
AcDbLine
 10
18.495522
 20
-45.804343
 30
0.0
 11
19.036643
 21
-45.804343
 31
0.0
  0
LINE
  5
113
100
AcDbEntity
  8
silkscreen
 62
1
100
AcDbLine
 10
19.036643
 20
-45.804343
 30
0.0
 11
19.036643
 21
-46.412643
 31
0.0
  0
LINE
  5
114
100
AcDbEntity
  8
silkscreen
 62
1
100
AcDbLine
 10
21.339332
 20
-40.395937
 30
0.0
 11
21.339332
 21
-39.822085
 31
0.0
  0
LINE
  5
115
100
AcDbEntity
  8
silkscreen
 62
1
100
AcDbLine
 10
21.339332
 20
-39.822085
 30
0.0
 11
23.032786
 21
-39.822085
 31
0.0
  0
LINE
  5
116
100
AcDbEntity
  8
silkscreen
 62
1
100
AcDbLine
 10
23.032786
 20
-39.822085
 30
0.0
 11
23.032786
 21
-40.395937
 31
0.0
  0
LINE
  5
117
100
AcDbEntity
  8
silkscreen
 62
1
100
AcDbLine
 10
23.032786
 20
-40.395937
 30
0.0
 11
21.339332
 21
-40.395937
 31
0.0
  0
LINE
  5
118
100
AcDbEntity
  8
silkscreen
 62
1
100
AcDbLine
 10
21.339332
 20
-38.645877
 30
0.0
 11
21.339332
 21
-38.072025
 31
0.0
  0
LINE
  5
119
100
AcDbEntity
  8
silkscreen
 62
1
100
AcDbLine
 10
21.339332
 20
-38.072025
 30
0.0
 11
23.032786
 21
-38.072025
 31
0.0
  0
LINE
  5
11a
100
AcDbEntity
  8
silkscreen
 62
1
100
AcDbLine
 10
23.032786
 20
-38.072025
 30
0.0
 11
23.032786
 21
-38.645877
 31
0.0
  0
LINE
  5
11b
100
AcDbEntity
  8
silkscreen
 62
1
100
AcDbLine
 10
23.032786
 20
-38.645877
 30
0.0
 11
21.339332
 21
-38.645877
 31
0.0
  0
LINE
  5
11c
100
AcDbEntity
  8
silkscreen
 62
1
100
AcDbLine
 10
17.039112
 20
-40.395937
 30
0.0
 11
17.039112
 21
-39.822085
 31
0.0
  0
LINE
  5
11d
100
AcDbEntity
  8
silkscreen
 62
1
100
AcDbLine
 10
17.039112
 20
-39.822085
 30
0.0
 11
18.732566
 21
-39.822085
 31
0.0
  0
LINE
  5
11e
100
AcDbEntity
  8
silkscreen
 62
1
100
AcDbLine
 10
18.732566
 20
-39.822085
 30
0.0
 11
18.732566
 21
-40.395937
 31
0.0
  0
LINE
  5
11f
100
AcDbEntity
  8
silkscreen
 62
1
100
AcDbLine
 10
18.732566
 20
-40.395937
 30
0.0
 11
17.039112
 21
-40.395937
 31
0.0
  0
LINE
  5
120
100
AcDbEntity
  8
silkscreen
 62
1
100
AcDbLine
 10
17.039112
 20
-38.645877
 30
0.0
 11
17.039112
 21
-38.072025
 31
0.0
  0
LINE
  5
121
100
AcDbEntity
  8
silkscreen
 62
1
100
AcDbLine
 10
17.039112
 20
-38.072025
 30
0.0
 11
18.732566
 21
-38.072025
 31
0.0
  0
LINE
  5
122
100
AcDbEntity
  8
silkscreen
 62
1
100
AcDbLine
 10
18.732566
 20
-38.072025
 30
0.0
 11
18.732566
 21
-38.645877
 31
0.0
  0
LINE
  5
123
100
AcDbEntity
  8
silkscreen
 62
1
100
AcDbLine
 10
18.732566
 20
-38.645877
 30
0.0
 11
17.039112
 21
-38.645877
 31
0.0
  0
LINE
  5
124
100
AcDbEntity
  8
silkscreen
 62
1
100
AcDbLine
 10
17.578683
 20
-30.123621
 30
0.0
 11
17.037562
 21
-30.123621
 31
0.0
  0
LINE
  5
125
100
AcDbEntity
  8
silkscreen
 62
1
100
AcDbLine
 10
17.037562
 20
-30.123621
 30
0.0
 11
17.037562
 21
-29.515319
 31
0.0
  0
LINE
  5
126
100
AcDbEntity
  8
silkscreen
 62
1
100
AcDbLine
 10
17.037562
 20
-29.515319
 30
0.0
 11
17.578683
 21
-29.515319
 31
0.0
  0
LINE
  5
127
100
AcDbEntity
  8
silkscreen
 62
1
100
AcDbLine
 10
17.578683
 20
-29.515319
 30
0.0
 11
17.578683
 21
-30.123621
 31
0.0
  0
LINE
  5
128
100
AcDbEntity
  8
silkscreen
 62
1
100
AcDbLine
 10
19.478603
 20
-30.123621
 30
0.0
 11
18.937482
 21
-30.123621
 31
0.0
  0
LINE
  5
129
100
AcDbEntity
  8
silkscreen
 62
1
100
AcDbLine
 10
18.937482
 20
-30.123621
 30
0.0
 11
18.937482
 21
-29.515319
 31
0.0
  0
LINE
  5
12a
100
AcDbEntity
  8
silkscreen
 62
1
100
AcDbLine
 10
18.937482
 20
-29.515319
 30
0.0
 11
19.478603
 21
-29.515319
 31
0.0
  0
LINE
  5
12b
100
AcDbEntity
  8
silkscreen
 62
1
100
AcDbLine
 10
19.478603
 20
-29.515319
 30
0.0
 11
19.478603
 21
-30.123621
 31
0.0
  0
LINE
  5
12c
100
AcDbEntity
  8
silkscreen
 62
1
100
AcDbLine
 10
18.528643
 20
-28.124641
 30
0.0
 11
17.987522
 21
-28.124641
 31
0.0
  0
LINE
  5
12d
100
AcDbEntity
  8
silkscreen
 62
1
100
AcDbLine
 10
17.987522
 20
-28.124641
 30
0.0
 11
17.987522
 21
-27.516339
 31
0.0
  0
LINE
  5
12e
100
AcDbEntity
  8
silkscreen
 62
1
100
AcDbLine
 10
17.987522
 20
-27.516339
 30
0.0
 11
18.528643
 21
-27.516339
 31
0.0
  0
LINE
  5
12f
100
AcDbEntity
  8
silkscreen
 62
1
100
AcDbLine
 10
18.528643
 20
-27.516339
 30
0.0
 11
18.528643
 21
-28.124641
 31
0.0
  0
LINE
  5
130
100
AcDbEntity
  8
silkscreen
 62
1
100
AcDbLine
 10
27.230686
 20
-45.363615
 30
0.0
 11
26.689562
 21
-45.363615
 31
0.0
  0
LINE
  5
131
100
AcDbEntity
  8
silkscreen
 62
1
100
AcDbLine
 10
26.689562
 20
-45.363615
 30
0.0
 11
26.689562
 21
-44.755324
 31
0.0
  0
LINE
  5
132
100
AcDbEntity
  8
silkscreen
 62
1
100
AcDbLine
 10
26.689562
 20
-44.755324
 30
0.0
 11
27.230686
 21
-44.755324
 31
0.0
  0
LINE
  5
133
100
AcDbEntity
  8
silkscreen
 62
1
100
AcDbLine
 10
27.230686
 20
-44.755324
 30
0.0
 11
27.230686
 21
-45.363615
 31
0.0
  0
LINE
  5
134
100
AcDbEntity
  8
silkscreen
 62
1
100
AcDbLine
 10
29.130609
 20
-45.363615
 30
0.0
 11
28.589482
 21
-45.363615
 31
0.0
  0
LINE
  5
135
100
AcDbEntity
  8
silkscreen
 62
1
100
AcDbLine
 10
28.589482
 20
-45.363615
 30
0.0
 11
28.589482
 21
-44.755324
 31
0.0
  0
LINE
  5
136
100
AcDbEntity
  8
silkscreen
 62
1
100
AcDbLine
 10
28.589482
 20
-44.755324
 30
0.0
 11
29.130609
 21
-44.755324
 31
0.0
  0
LINE
  5
137
100
AcDbEntity
  8
silkscreen
 62
1
100
AcDbLine
 10
29.130609
 20
-44.755324
 30
0.0
 11
29.130609
 21
-45.363615
 31
0.0
  0
LINE
  5
138
100
AcDbEntity
  8
silkscreen
 62
1
100
AcDbLine
 10
28.180644
 20
-43.364643
 30
0.0
 11
27.639520
 21
-43.364643
 31
0.0
  0
LINE
  5
139
100
AcDbEntity
  8
silkscreen
 62
1
100
AcDbLine
 10
27.639520
 20
-43.364643
 30
0.0
 11
27.639520
 21
-42.756344
 31
0.0
  0
LINE
  5
13a
100
AcDbEntity
  8
silkscreen
 62
1
100
AcDbLine
 10
27.639520
 20
-42.756344
 30
0.0
 11
28.180644
 21
-42.756344
 31
0.0
  0
LINE
  5
13b
100
AcDbEntity
  8
silkscreen
 62
1
100
AcDbLine
 10
28.180644
 20
-42.756344
 30
0.0
 11
28.180644
 21
-43.364643
 31
0.0
  0
LINE
  5
13c
100
AcDbEntity
  8
silkscreen
 62
1
100
AcDbLine
 10
10.604309
 20
-30.934587
 30
0.0
 11
10.604309
 21
-30.393460
 31
0.0
  0
LINE
  5
13d
100
AcDbEntity
  8
silkscreen
 62
1
100
AcDbLine
 10
10.604309
 20
-30.393460
 30
0.0
 11
11.212606
 21
-30.393460
 31
0.0
  0
LINE
  5
13e
100
AcDbEntity
  8
silkscreen
 62
1
100
AcDbLine
 10
11.212606
 20
-30.393460
 30
0.0
 11
11.212606
 21
-30.934587
 31
0.0
  0
LINE
  5
13f
100
AcDbEntity
  8
silkscreen
 62
1
100
AcDbLine
 10
11.212606
 20
-30.934587
 30
0.0
 11
10.604309
 21
-30.934587
 31
0.0
  0
LINE
  5
140
100
AcDbEntity
  8
silkscreen
 62
1
100
AcDbLine
 10
10.604309
 20
-32.834507
 30
0.0
 11
10.604309
 21
-32.293380
 31
0.0
  0
LINE
  5
141
100
AcDbEntity
  8
silkscreen
 62
1
100
AcDbLine
 10
10.604309
 20
-32.293380
 30
0.0
 11
11.212606
 21
-32.293380
 31
0.0
  0
LINE
  5
142
100
AcDbEntity
  8
silkscreen
 62
1
100
AcDbLine
 10
11.212606
 20
-32.293380
 30
0.0
 11
11.212606
 21
-32.834507
 31
0.0
  0
LINE
  5
143
100
AcDbEntity
  8
silkscreen
 62
1
100
AcDbLine
 10
11.212606
 20
-32.834507
 30
0.0
 11
10.604309
 21
-32.834507
 31
0.0
  0
LINE
  5
144
100
AcDbEntity
  8
silkscreen
 62
1
100
AcDbLine
 10
12.603289
 20
-31.884547
 30
0.0
 11
12.603289
 21
-31.343420
 31
0.0
  0
LINE
  5
145
100
AcDbEntity
  8
silkscreen
 62
1
100
AcDbLine
 10
12.603289
 20
-31.343420
 30
0.0
 11
13.211586
 21
-31.343420
 31
0.0
  0
LINE
  5
146
100
AcDbEntity
  8
silkscreen
 62
1
100
AcDbLine
 10
13.211586
 20
-31.343420
 30
0.0
 11
13.211586
 21
-31.884547
 31
0.0
  0
LINE
  5
147
100
AcDbEntity
  8
silkscreen
 62
1
100
AcDbLine
 10
13.211586
 20
-31.884547
 30
0.0
 11
12.603289
 21
-31.884547
 31
0.0
  0
LINE
  5
148
100
AcDbEntity
  8
silkscreen
 62
1
100
AcDbLine
 10
29.467720
 20
-41.437248
 30
0.0
 11
29.467720
 21
-41.978375
 31
0.0
  0
LINE
  5
149
100
AcDbEntity
  8
silkscreen
 62
1
100
AcDbLine
 10
29.467720
 20
-41.978375
 30
0.0
 11
28.859421
 21
-41.978375
 31
0.0
  0
LINE
  5
14a
100
AcDbEntity
  8
silkscreen
 62
1
100
AcDbLine
 10
28.859421
 20
-41.978375
 30
0.0
 11
28.859421
 21
-41.437248
 31
0.0
  0
LINE
  5
14b
100
AcDbEntity
  8
silkscreen
 62
1
100
AcDbLine
 10
28.859421
 20
-41.437248
 30
0.0
 11
29.467720
 21
-41.437248
 31
0.0
  0
LINE
  5
14c
100
AcDbEntity
  8
silkscreen
 62
1
100
AcDbLine
 10
29.467720
 20
-39.537328
 30
0.0
 11
29.467720
 21
-40.078455
 31
0.0
  0
LINE
  5
14d
100
AcDbEntity
  8
silkscreen
 62
1
100
AcDbLine
 10
29.467720
 20
-40.078455
 30
0.0
 11
28.859421
 21
-40.078455
 31
0.0
  0
LINE
  5
14e
100
AcDbEntity
  8
silkscreen
 62
1
100
AcDbLine
 10
28.859421
 20
-40.078455
 30
0.0
 11
28.859421
 21
-39.537328
 31
0.0
  0
LINE
  5
14f
100
AcDbEntity
  8
silkscreen
 62
1
100
AcDbLine
 10
28.859421
 20
-39.537328
 30
0.0
 11
29.467720
 21
-39.537328
 31
0.0
  0
LINE
  5
150
100
AcDbEntity
  8
silkscreen
 62
1
100
AcDbLine
 10
27.468738
 20
-40.487285
 30
0.0
 11
27.468738
 21
-41.028412
 31
0.0
  0
LINE
  5
151
100
AcDbEntity
  8
silkscreen
 62
1
100
AcDbLine
 10
27.468738
 20
-41.028412
 30
0.0
 11
26.860438
 21
-41.028412
 31
0.0
  0
LINE
  5
152
100
AcDbEntity
  8
silkscreen
 62
1
100
AcDbLine
 10
26.860438
 20
-41.028412
 30
0.0
 11
26.860438
 21
-40.487285
 31
0.0
  0
LINE
  5
153
100
AcDbEntity
  8
silkscreen
 62
1
100
AcDbLine
 10
26.860438
 20
-40.487285
 30
0.0
 11
27.468738
 21
-40.487285
 31
0.0
  0
LINE
  5
154
100
AcDbEntity
  8
silkscreen
 62
1
100
AcDbLine
 10
10.604309
 20
-36.014587
 30
0.0
 11
10.604309
 21
-35.473460
 31
0.0
  0
LINE
  5
155
100
AcDbEntity
  8
silkscreen
 62
1
100
AcDbLine
 10
10.604309
 20
-35.473460
 30
0.0
 11
11.212606
 21
-35.473460
 31
0.0
  0
LINE
  5
156
100
AcDbEntity
  8
silkscreen
 62
1
100
AcDbLine
 10
11.212606
 20
-35.473460
 30
0.0
 11
11.212606
 21
-36.014587
 31
0.0
  0
LINE
  5
157
100
AcDbEntity
  8
silkscreen
 62
1
100
AcDbLine
 10
11.212606
 20
-36.014587
 30
0.0
 11
10.604309
 21
-36.014587
 31
0.0
  0
LINE
  5
158
100
AcDbEntity
  8
silkscreen
 62
1
100
AcDbLine
 10
10.604309
 20
-37.914507
 30
0.0
 11
10.604309
 21
-37.373380
 31
0.0
  0
LINE
  5
159
100
AcDbEntity
  8
silkscreen
 62
1
100
AcDbLine
 10
10.604309
 20
-37.373380
 30
0.0
 11
11.212606
 21
-37.373380
 31
0.0
  0
LINE
  5
15a
100
AcDbEntity
  8
silkscreen
 62
1
100
AcDbLine
 10
11.212606
 20
-37.373380
 30
0.0
 11
11.212606
 21
-37.914507
 31
0.0
  0
LINE
  5
15b
100
AcDbEntity
  8
silkscreen
 62
1
100
AcDbLine
 10
11.212606
 20
-37.914507
 30
0.0
 11
10.604309
 21
-37.914507
 31
0.0
  0
LINE
  5
15c
100
AcDbEntity
  8
silkscreen
 62
1
100
AcDbLine
 10
12.603289
 20
-36.964547
 30
0.0
 11
12.603289
 21
-36.423420
 31
0.0
  0
LINE
  5
15d
100
AcDbEntity
  8
silkscreen
 62
1
100
AcDbLine
 10
12.603289
 20
-36.423420
 30
0.0
 11
13.211586
 21
-36.423420
 31
0.0
  0
LINE
  5
15e
100
AcDbEntity
  8
silkscreen
 62
1
100
AcDbLine
 10
13.211586
 20
-36.423420
 30
0.0
 11
13.211586
 21
-36.964547
 31
0.0
  0
LINE
  5
15f
100
AcDbEntity
  8
silkscreen
 62
1
100
AcDbLine
 10
13.211586
 20
-36.964547
 30
0.0
 11
12.603289
 21
-36.964547
 31
0.0
  0
LINE
  5
160
100
AcDbEntity
  8
silkscreen
 62
1
100
AcDbLine
 10
29.467720
 20
-32.293246
 30
0.0
 11
29.467720
 21
-32.834372
 31
0.0
  0
LINE
  5
161
100
AcDbEntity
  8
silkscreen
 62
1
100
AcDbLine
 10
29.467720
 20
-32.834372
 30
0.0
 11
28.859421
 21
-32.834372
 31
0.0
  0
LINE
  5
162
100
AcDbEntity
  8
silkscreen
 62
1
100
AcDbLine
 10
28.859421
 20
-32.834372
 30
0.0
 11
28.859421
 21
-32.293246
 31
0.0
  0
LINE
  5
163
100
AcDbEntity
  8
silkscreen
 62
1
100
AcDbLine
 10
28.859421
 20
-32.293246
 30
0.0
 11
29.467720
 21
-32.293246
 31
0.0
  0
LINE
  5
164
100
AcDbEntity
  8
silkscreen
 62
1
100
AcDbLine
 10
29.467720
 20
-30.393328
 30
0.0
 11
29.467720
 21
-30.934455
 31
0.0
  0
LINE
  5
165
100
AcDbEntity
  8
silkscreen
 62
1
100
AcDbLine
 10
29.467720
 20
-30.934455
 30
0.0
 11
28.859421
 21
-30.934455
 31
0.0
  0
LINE
  5
166
100
AcDbEntity
  8
silkscreen
 62
1
100
AcDbLine
 10
28.859421
 20
-30.934455
 30
0.0
 11
28.859421
 21
-30.393328
 31
0.0
  0
LINE
  5
167
100
AcDbEntity
  8
silkscreen
 62
1
100
AcDbLine
 10
28.859421
 20
-30.393328
 30
0.0
 11
29.467720
 21
-30.393328
 31
0.0
  0
LINE
  5
168
100
AcDbEntity
  8
silkscreen
 62
1
100
AcDbLine
 10
27.468738
 20
-31.343286
 30
0.0
 11
27.468738
 21
-31.884412
 31
0.0
  0
LINE
  5
169
100
AcDbEntity
  8
silkscreen
 62
1
100
AcDbLine
 10
27.468738
 20
-31.884412
 30
0.0
 11
26.860438
 21
-31.884412
 31
0.0
  0
LINE
  5
16a
100
AcDbEntity
  8
silkscreen
 62
1
100
AcDbLine
 10
26.860438
 20
-31.884412
 30
0.0
 11
26.860438
 21
-31.343286
 31
0.0
  0
LINE
  5
16b
100
AcDbEntity
  8
silkscreen
 62
1
100
AcDbLine
 10
26.860438
 20
-31.343286
 30
0.0
 11
27.468738
 21
-31.343286
 31
0.0
  0
LINE
  5
16c
100
AcDbEntity
  8
silkscreen
 62
1
100
AcDbLine
 10
11.366309
 20
-43.380587
 30
0.0
 11
11.366309
 21
-42.839460
 31
0.0
  0
LINE
  5
16d
100
AcDbEntity
  8
silkscreen
 62
1
100
AcDbLine
 10
11.366309
 20
-42.839460
 30
0.0
 11
11.974606
 21
-42.839460
 31
0.0
  0
LINE
  5
16e
100
AcDbEntity
  8
silkscreen
 62
1
100
AcDbLine
 10
11.974606
 20
-42.839460
 30
0.0
 11
11.974606
 21
-43.380587
 31
0.0
  0
LINE
  5
16f
100
AcDbEntity
  8
silkscreen
 62
1
100
AcDbLine
 10
11.974606
 20
-43.380587
 30
0.0
 11
11.366309
 21
-43.380587
 31
0.0
  0
LINE
  5
170
100
AcDbEntity
  8
silkscreen
 62
1
100
AcDbLine
 10
11.366309
 20
-45.280504
 30
0.0
 11
11.366309
 21
-44.739380
 31
0.0
  0
LINE
  5
171
100
AcDbEntity
  8
silkscreen
 62
1
100
AcDbLine
 10
11.366309
 20
-44.739380
 30
0.0
 11
11.974606
 21
-44.739380
 31
0.0
  0
LINE
  5
172
100
AcDbEntity
  8
silkscreen
 62
1
100
AcDbLine
 10
11.974606
 20
-44.739380
 30
0.0
 11
11.974606
 21
-45.280504
 31
0.0
  0
LINE
  5
173
100
AcDbEntity
  8
silkscreen
 62
1
100
AcDbLine
 10
11.974606
 20
-45.280504
 30
0.0
 11
11.366309
 21
-45.280504
 31
0.0
  0
LINE
  5
174
100
AcDbEntity
  8
silkscreen
 62
1
100
AcDbLine
 10
13.365289
 20
-44.330547
 30
0.0
 11
13.365289
 21
-43.789420
 31
0.0
  0
LINE
  5
175
100
AcDbEntity
  8
silkscreen
 62
1
100
AcDbLine
 10
13.365289
 20
-43.789420
 30
0.0
 11
13.973586
 21
-43.789420
 31
0.0
  0
LINE
  5
176
100
AcDbEntity
  8
silkscreen
 62
1
100
AcDbLine
 10
13.973586
 20
-43.789420
 30
0.0
 11
13.973586
 21
-44.330547
 31
0.0
  0
LINE
  5
177
100
AcDbEntity
  8
silkscreen
 62
1
100
AcDbLine
 10
13.973586
 20
-44.330547
 30
0.0
 11
13.365289
 21
-44.330547
 31
0.0
  0
LINE
  5
178
100
AcDbEntity
  8
silkscreen
 62
1
100
AcDbLine
 10
28.589348
 20
-25.738206
 30
0.0
 11
29.130474
 21
-25.738206
 31
0.0
  0
LINE
  5
179
100
AcDbEntity
  8
silkscreen
 62
1
100
AcDbLine
 10
29.130474
 20
-25.738206
 30
0.0
 11
29.130474
 21
-26.346504
 31
0.0
  0
LINE
  5
17a
100
AcDbEntity
  8
silkscreen
 62
1
100
AcDbLine
 10
29.130474
 20
-26.346504
 30
0.0
 11
28.589348
 21
-26.346504
 31
0.0
  0
LINE
  5
17b
100
AcDbEntity
  8
silkscreen
 62
1
100
AcDbLine
 10
28.589348
 20
-26.346504
 30
0.0
 11
28.589348
 21
-25.738206
 31
0.0
  0
LINE
  5
17c
100
AcDbEntity
  8
silkscreen
 62
1
100
AcDbLine
 10
26.689428
 20
-25.738206
 30
0.0
 11
27.230554
 21
-25.738206
 31
0.0
  0
LINE
  5
17d
100
AcDbEntity
  8
silkscreen
 62
1
100
AcDbLine
 10
27.230554
 20
-25.738206
 30
0.0
 11
27.230554
 21
-26.346504
 31
0.0
  0
LINE
  5
17e
100
AcDbEntity
  8
silkscreen
 62
1
100
AcDbLine
 10
27.230554
 20
-26.346504
 30
0.0
 11
26.689428
 21
-26.346504
 31
0.0
  0
LINE
  5
17f
100
AcDbEntity
  8
silkscreen
 62
1
100
AcDbLine
 10
26.689428
 20
-26.346504
 30
0.0
 11
26.689428
 21
-25.738206
 31
0.0
  0
LINE
  5
180
100
AcDbEntity
  8
silkscreen
 62
1
100
AcDbLine
 10
27.639388
 20
-27.737184
 30
0.0
 11
28.180512
 21
-27.737184
 31
0.0
  0
LINE
  5
181
100
AcDbEntity
  8
silkscreen
 62
1
100
AcDbLine
 10
28.180512
 20
-27.737184
 30
0.0
 11
28.180512
 21
-28.345484
 31
0.0
  0
LINE
  5
182
100
AcDbEntity
  8
silkscreen
 62
1
100
AcDbLine
 10
28.180512
 20
-28.345484
 30
0.0
 11
27.639388
 21
-28.345484
 31
0.0
  0
LINE
  5
183
100
AcDbEntity
  8
silkscreen
 62
1
100
AcDbLine
 10
27.639388
 20
-28.345484
 30
0.0
 11
27.639388
 21
-27.737184
 31
0.0
  0
LINE
  5
184
100
AcDbEntity
  8
silkscreen
 62
1
100
AcDbLine
 10
13.095348
 20
-25.738206
 30
0.0
 11
13.636469
 21
-25.738206
 31
0.0
  0
LINE
  5
185
100
AcDbEntity
  8
silkscreen
 62
1
100
AcDbLine
 10
13.636469
 20
-25.738206
 30
0.0
 11
13.636469
 21
-26.346504
 31
0.0
  0
LINE
  5
186
100
AcDbEntity
  8
silkscreen
 62
1
100
AcDbLine
 10
13.636469
 20
-26.346504
 30
0.0
 11
13.095348
 21
-26.346504
 31
0.0
  0
LINE
  5
187
100
AcDbEntity
  8
silkscreen
 62
1
100
AcDbLine
 10
13.095348
 20
-26.346504
 30
0.0
 11
13.095348
 21
-25.738206
 31
0.0
  0
LINE
  5
188
100
AcDbEntity
  8
silkscreen
 62
1
100
AcDbLine
 10
11.195428
 20
-25.738206
 30
0.0
 11
11.736550
 21
-25.738206
 31
0.0
  0
LINE
  5
189
100
AcDbEntity
  8
silkscreen
 62
1
100
AcDbLine
 10
11.736550
 20
-25.738206
 30
0.0
 11
11.736550
 21
-26.346504
 31
0.0
  0
LINE
  5
18a
100
AcDbEntity
  8
silkscreen
 62
1
100
AcDbLine
 10
11.736550
 20
-26.346504
 30
0.0
 11
11.195428
 21
-26.346504
 31
0.0
  0
LINE
  5
18b
100
AcDbEntity
  8
silkscreen
 62
1
100
AcDbLine
 10
11.195428
 20
-26.346504
 30
0.0
 11
11.195428
 21
-25.738206
 31
0.0
  0
LINE
  5
18c
100
AcDbEntity
  8
silkscreen
 62
1
100
AcDbLine
 10
12.145389
 20
-27.737184
 30
0.0
 11
12.686509
 21
-27.737184
 31
0.0
  0
LINE
  5
18d
100
AcDbEntity
  8
silkscreen
 62
1
100
AcDbLine
 10
12.686509
 20
-27.737184
 30
0.0
 11
12.686509
 21
-28.345484
 31
0.0
  0
LINE
  5
18e
100
AcDbEntity
  8
silkscreen
 62
1
100
AcDbLine
 10
12.686509
 20
-28.345484
 30
0.0
 11
12.145389
 21
-28.345484
 31
0.0
  0
LINE
  5
18f
100
AcDbEntity
  8
silkscreen
 62
1
100
AcDbLine
 10
12.145389
 20
-28.345484
 30
0.0
 11
12.145389
 21
-27.737184
 31
0.0
  0
LINE
  5
190
100
AcDbEntity
  8
silkscreen
 62
1
100
AcDbLine
 10
21.134683
 20
-30.123621
 30
0.0
 11
20.593562
 21
-30.123621
 31
0.0
  0
LINE
  5
191
100
AcDbEntity
  8
silkscreen
 62
1
100
AcDbLine
 10
20.593562
 20
-30.123621
 30
0.0
 11
20.593562
 21
-29.515319
 31
0.0
  0
LINE
  5
192
100
AcDbEntity
  8
silkscreen
 62
1
100
AcDbLine
 10
20.593562
 20
-29.515319
 30
0.0
 11
21.134683
 21
-29.515319
 31
0.0
  0
LINE
  5
193
100
AcDbEntity
  8
silkscreen
 62
1
100
AcDbLine
 10
21.134683
 20
-29.515319
 30
0.0
 11
21.134683
 21
-30.123621
 31
0.0
  0
LINE
  5
194
100
AcDbEntity
  8
silkscreen
 62
1
100
AcDbLine
 10
23.034603
 20
-30.123621
 30
0.0
 11
22.493482
 21
-30.123621
 31
0.0
  0
LINE
  5
195
100
AcDbEntity
  8
silkscreen
 62
1
100
AcDbLine
 10
22.493482
 20
-30.123621
 30
0.0
 11
22.493482
 21
-29.515319
 31
0.0
  0
LINE
  5
196
100
AcDbEntity
  8
silkscreen
 62
1
100
AcDbLine
 10
22.493482
 20
-29.515319
 30
0.0
 11
23.034603
 21
-29.515319
 31
0.0
  0
LINE
  5
197
100
AcDbEntity
  8
silkscreen
 62
1
100
AcDbLine
 10
23.034603
 20
-29.515319
 30
0.0
 11
23.034603
 21
-30.123621
 31
0.0
  0
LINE
  5
198
100
AcDbEntity
  8
silkscreen
 62
1
100
AcDbLine
 10
22.084643
 20
-28.124641
 30
0.0
 11
21.543522
 21
-28.124641
 31
0.0
  0
LINE
  5
199
100
AcDbEntity
  8
silkscreen
 62
1
100
AcDbLine
 10
21.543522
 20
-28.124641
 30
0.0
 11
21.543522
 21
-27.516339
 31
0.0
  0
LINE
  5
19a
100
AcDbEntity
  8
silkscreen
 62
1
100
AcDbLine
 10
21.543522
 20
-27.516339
 30
0.0
 11
22.084643
 21
-27.516339
 31
0.0
  0
LINE
  5
19b
100
AcDbEntity
  8
silkscreen
 62
1
100
AcDbLine
 10
22.084643
 20
-27.516339
 30
0.0
 11
22.084643
 21
-28.124641
 31
0.0
  0
LINE
  5
19c
100
AcDbEntity
  8
silkscreen
 62
1
100
AcDbLine
 10
16.147078
 20
-21.628048
 30
0.0
 11
15.982509
 21
-21.628048
 31
0.0
  0
LINE
  5
19d
100
AcDbEntity
  8
silkscreen
 62
1
100
AcDbLine
 10
15.982509
 20
-21.628048
 30
0.0
 11
15.982509
 21
-20.883676
 31
0.0
  0
LINE
  5
19e
100
AcDbEntity
  8
silkscreen
 62
1
100
AcDbLine
 10
15.982509
 20
-20.883676
 30
0.0
 11
16.147078
 21
-20.883676
 31
0.0
  0
LINE
  5
19f
100
AcDbEntity
  8
silkscreen
 62
1
100
AcDbLine
 10
16.147078
 20
-20.883676
 30
0.0
 11
16.147078
 21
-21.628048
 31
0.0
  0
LINE
  5
1a0
100
AcDbEntity
  8
silkscreen
 62
1
100
AcDbLine
 10
16.797319
 20
-21.628048
 30
0.0
 11
16.632751
 21
-21.628048
 31
0.0
  0
LINE
  5
1a1
100
AcDbEntity
  8
silkscreen
 62
1
100
AcDbLine
 10
16.632751
 20
-21.628048
 30
0.0
 11
16.632751
 21
-20.883676
 31
0.0
  0
LINE
  5
1a2
100
AcDbEntity
  8
silkscreen
 62
1
100
AcDbLine
 10
16.632751
 20
-20.883676
 30
0.0
 11
16.797319
 21
-20.883676
 31
0.0
  0
LINE
  5
1a3
100
AcDbEntity
  8
silkscreen
 62
1
100
AcDbLine
 10
16.797319
 20
-20.883676
 30
0.0
 11
16.797319
 21
-21.628048
 31
0.0
  0
LINE
  5
1a4
100
AcDbEntity
  8
silkscreen
 62
1
100
AcDbLine
 10
17.447557
 20
-21.628048
 30
0.0
 11
17.282989
 21
-21.628048
 31
0.0
  0
LINE
  5
1a5
100
AcDbEntity
  8
silkscreen
 62
1
100
AcDbLine
 10
17.282989
 20
-21.628048
 30
0.0
 11
17.282989
 21
-20.883676
 31
0.0
  0
LINE
  5
1a6
100
AcDbEntity
  8
silkscreen
 62
1
100
AcDbLine
 10
17.282989
 20
-20.883676
 30
0.0
 11
17.447557
 21
-20.883676
 31
0.0
  0
LINE
  5
1a7
100
AcDbEntity
  8
silkscreen
 62
1
100
AcDbLine
 10
17.447557
 20
-20.883676
 30
0.0
 11
17.447557
 21
-21.628048
 31
0.0
  0
LINE
  5
1a8
100
AcDbEntity
  8
silkscreen
 62
1
100
AcDbLine
 10
18.097799
 20
-21.628048
 30
0.0
 11
17.933230
 21
-21.628048
 31
0.0
  0
LINE
  5
1a9
100
AcDbEntity
  8
silkscreen
 62
1
100
AcDbLine
 10
17.933230
 20
-21.628048
 30
0.0
 11
17.933230
 21
-20.883676
 31
0.0
  0
LINE
  5
1aa
100
AcDbEntity
  8
silkscreen
 62
1
100
AcDbLine
 10
17.933230
 20
-20.883676
 30
0.0
 11
18.097799
 21
-20.883676
 31
0.0
  0
LINE
  5
1ab
100
AcDbEntity
  8
silkscreen
 62
1
100
AcDbLine
 10
18.097799
 20
-20.883676
 30
0.0
 11
18.097799
 21
-21.628048
 31
0.0
  0
LINE
  5
1ac
100
AcDbEntity
  8
silkscreen
 62
1
100
AcDbLine
 10
18.746220
 20
-21.628048
 30
0.0
 11
18.582746
 21
-21.628048
 31
0.0
  0
LINE
  5
1ad
100
AcDbEntity
  8
silkscreen
 62
1
100
AcDbLine
 10
18.582746
 20
-21.628048
 30
0.0
 11
18.582746
 21
-20.883675
 31
0.0
  0
LINE
  5
1ae
100
AcDbEntity
  8
silkscreen
 62
1
100
AcDbLine
 10
18.582746
 20
-20.883675
 30
0.0
 11
18.746220
 21
-20.883675
 31
0.0
  0
LINE
  5
1af
100
AcDbEntity
  8
silkscreen
 62
1
100
AcDbLine
 10
18.746220
 20
-20.883675
 30
0.0
 11
18.746220
 21
-21.628048
 31
0.0
  0
LINE
  5
1b0
100
AcDbEntity
  8
silkscreen
 62
1
100
AcDbLine
 10
19.396461
 20
-21.628048
 30
0.0
 11
19.232987
 21
-21.628048
 31
0.0
  0
LINE
  5
1b1
100
AcDbEntity
  8
silkscreen
 62
1
100
AcDbLine
 10
19.232987
 20
-21.628048
 30
0.0
 11
19.232987
 21
-20.883675
 31
0.0
  0
LINE
  5
1b2
100
AcDbEntity
  8
silkscreen
 62
1
100
AcDbLine
 10
19.232987
 20
-20.883675
 30
0.0
 11
19.396461
 21
-20.883675
 31
0.0
  0
LINE
  5
1b3
100
AcDbEntity
  8
silkscreen
 62
1
100
AcDbLine
 10
19.396461
 20
-20.883675
 30
0.0
 11
19.396461
 21
-21.628048
 31
0.0
  0
LINE
  5
1b4
100
AcDbEntity
  8
silkscreen
 62
1
100
AcDbLine
 10
20.046701
 20
-21.628048
 30
0.0
 11
19.883226
 21
-21.628048
 31
0.0
  0
LINE
  5
1b5
100
AcDbEntity
  8
silkscreen
 62
1
100
AcDbLine
 10
19.883226
 20
-21.628048
 30
0.0
 11
19.883226
 21
-20.883675
 31
0.0
  0
LINE
  5
1b6
100
AcDbEntity
  8
silkscreen
 62
1
100
AcDbLine
 10
19.883226
 20
-20.883675
 30
0.0
 11
20.046701
 21
-20.883675
 31
0.0
  0
LINE
  5
1b7
100
AcDbEntity
  8
silkscreen
 62
1
100
AcDbLine
 10
20.046701
 20
-20.883675
 30
0.0
 11
20.046701
 21
-21.628048
 31
0.0
  0
LINE
  5
1b8
100
AcDbEntity
  8
silkscreen
 62
1
100
AcDbLine
 10
20.696940
 20
-21.628048
 30
0.0
 11
20.533465
 21
-21.628048
 31
0.0
  0
LINE
  5
1b9
100
AcDbEntity
  8
silkscreen
 62
1
100
AcDbLine
 10
20.533465
 20
-21.628048
 30
0.0
 11
20.533465
 21
-20.883675
 31
0.0
  0
LINE
  5
1ba
100
AcDbEntity
  8
silkscreen
 62
1
100
AcDbLine
 10
20.533465
 20
-20.883675
 30
0.0
 11
20.696940
 21
-20.883675
 31
0.0
  0
LINE
  5
1bb
100
AcDbEntity
  8
silkscreen
 62
1
100
AcDbLine
 10
20.696940
 20
-20.883675
 30
0.0
 11
20.696940
 21
-21.628048
 31
0.0
  0
LINE
  5
1bc
100
AcDbEntity
  8
silkscreen
 62
1
100
AcDbLine
 10
21.347182
 20
-21.628048
 30
0.0
 11
21.183708
 21
-21.628048
 31
0.0
  0
LINE
  5
1bd
100
AcDbEntity
  8
silkscreen
 62
1
100
AcDbLine
 10
21.183708
 20
-21.628048
 30
0.0
 11
21.183708
 21
-20.883675
 31
0.0
  0
LINE
  5
1be
100
AcDbEntity
  8
silkscreen
 62
1
100
AcDbLine
 10
21.183708
 20
-20.883675
 30
0.0
 11
21.347182
 21
-20.883675
 31
0.0
  0
LINE
  5
1bf
100
AcDbEntity
  8
silkscreen
 62
1
100
AcDbLine
 10
21.347182
 20
-20.883675
 30
0.0
 11
21.347182
 21
-21.628048
 31
0.0
  0
LINE
  5
1c0
100
AcDbEntity
  8
silkscreen
 62
1
100
AcDbLine
 10
21.997419
 20
-21.628048
 30
0.0
 11
21.833945
 21
-21.628048
 31
0.0
  0
LINE
  5
1c1
100
AcDbEntity
  8
silkscreen
 62
1
100
AcDbLine
 10
21.833945
 20
-21.628048
 30
0.0
 11
21.833945
 21
-20.883675
 31
0.0
  0
LINE
  5
1c2
100
AcDbEntity
  8
silkscreen
 62
1
100
AcDbLine
 10
21.833945
 20
-20.883675
 30
0.0
 11
21.997419
 21
-20.883675
 31
0.0
  0
LINE
  5
1c3
100
AcDbEntity
  8
silkscreen
 62
1
100
AcDbLine
 10
21.997419
 20
-20.883675
 30
0.0
 11
21.997419
 21
-21.628048
 31
0.0
  0
LINE
  5
1c4
100
AcDbEntity
  8
silkscreen
 62
1
100
AcDbLine
 10
22.646938
 20
-21.628048
 30
0.0
 11
22.482370
 21
-21.628048
 31
0.0
  0
LINE
  5
1c5
100
AcDbEntity
  8
silkscreen
 62
1
100
AcDbLine
 10
22.482370
 20
-21.628048
 30
0.0
 11
22.482370
 21
-20.883676
 31
0.0
  0
LINE
  5
1c6
100
AcDbEntity
  8
silkscreen
 62
1
100
AcDbLine
 10
22.482370
 20
-20.883676
 30
0.0
 11
22.646938
 21
-20.883676
 31
0.0
  0
LINE
  5
1c7
100
AcDbEntity
  8
silkscreen
 62
1
100
AcDbLine
 10
22.646938
 20
-20.883676
 30
0.0
 11
22.646938
 21
-21.628048
 31
0.0
  0
LINE
  5
1c8
100
AcDbEntity
  8
silkscreen
 62
1
100
AcDbLine
 10
23.297179
 20
-21.628048
 30
0.0
 11
23.132610
 21
-21.628048
 31
0.0
  0
LINE
  5
1c9
100
AcDbEntity
  8
silkscreen
 62
1
100
AcDbLine
 10
23.132610
 20
-21.628048
 30
0.0
 11
23.132610
 21
-20.883676
 31
0.0
  0
LINE
  5
1ca
100
AcDbEntity
  8
silkscreen
 62
1
100
AcDbLine
 10
23.132610
 20
-20.883676
 30
0.0
 11
23.297179
 21
-20.883676
 31
0.0
  0
LINE
  5
1cb
100
AcDbEntity
  8
silkscreen
 62
1
100
AcDbLine
 10
23.297179
 20
-20.883676
 30
0.0
 11
23.297179
 21
-21.628048
 31
0.0
  0
LINE
  5
1cc
100
AcDbEntity
  8
silkscreen
 62
1
100
AcDbLine
 10
23.947419
 20
-21.628048
 30
0.0
 11
23.782851
 21
-21.628048
 31
0.0
  0
LINE
  5
1cd
100
AcDbEntity
  8
silkscreen
 62
1
100
AcDbLine
 10
23.782851
 20
-21.628048
 30
0.0
 11
23.782851
 21
-20.883676
 31
0.0
  0
LINE
  5
1ce
100
AcDbEntity
  8
silkscreen
 62
1
100
AcDbLine
 10
23.782851
 20
-20.883676
 30
0.0
 11
23.947419
 21
-20.883676
 31
0.0
  0
LINE
  5
1cf
100
AcDbEntity
  8
silkscreen
 62
1
100
AcDbLine
 10
23.947419
 20
-20.883676
 30
0.0
 11
23.947419
 21
-21.628048
 31
0.0
  0
LINE
  5
1d0
100
AcDbEntity
  8
silkscreen
 62
1
100
AcDbLine
 10
24.597655
 20
-21.628048
 30
0.0
 11
24.433086
 21
-21.628048
 31
0.0
  0
LINE
  5
1d1
100
AcDbEntity
  8
silkscreen
 62
1
100
AcDbLine
 10
24.433086
 20
-21.628048
 30
0.0
 11
24.433086
 21
-20.883676
 31
0.0
  0
LINE
  5
1d2
100
AcDbEntity
  8
silkscreen
 62
1
100
AcDbLine
 10
24.433086
 20
-20.883676
 30
0.0
 11
24.597655
 21
-20.883676
 31
0.0
  0
LINE
  5
1d3
100
AcDbEntity
  8
silkscreen
 62
1
100
AcDbLine
 10
24.597655
 20
-20.883676
 30
0.0
 11
24.597655
 21
-21.628048
 31
0.0
  0
LINE
  5
1d4
100
AcDbEntity
  8
silkscreen
 62
1
100
AcDbLine
 10
24.597655
 20
-15.928288
 30
0.0
 11
24.433086
 21
-15.928288
 31
0.0
  0
LINE
  5
1d5
100
AcDbEntity
  8
silkscreen
 62
1
100
AcDbLine
 10
24.433086
 20
-15.928288
 30
0.0
 11
24.433086
 21
-15.183915
 31
0.0
  0
LINE
  5
1d6
100
AcDbEntity
  8
silkscreen
 62
1
100
AcDbLine
 10
24.433086
 20
-15.183915
 30
0.0
 11
24.597655
 21
-15.183915
 31
0.0
  0
LINE
  5
1d7
100
AcDbEntity
  8
silkscreen
 62
1
100
AcDbLine
 10
24.597655
 20
-15.183915
 30
0.0
 11
24.597655
 21
-15.928288
 31
0.0
  0
LINE
  5
1d8
100
AcDbEntity
  8
silkscreen
 62
1
100
AcDbLine
 10
23.947419
 20
-15.928288
 30
0.0
 11
23.782851
 21
-15.928288
 31
0.0
  0
LINE
  5
1d9
100
AcDbEntity
  8
silkscreen
 62
1
100
AcDbLine
 10
23.782851
 20
-15.928288
 30
0.0
 11
23.782851
 21
-15.183915
 31
0.0
  0
LINE
  5
1da
100
AcDbEntity
  8
silkscreen
 62
1
100
AcDbLine
 10
23.782851
 20
-15.183915
 30
0.0
 11
23.947419
 21
-15.183915
 31
0.0
  0
LINE
  5
1db
100
AcDbEntity
  8
silkscreen
 62
1
100
AcDbLine
 10
23.947419
 20
-15.183915
 30
0.0
 11
23.947419
 21
-15.928288
 31
0.0
  0
LINE
  5
1dc
100
AcDbEntity
  8
silkscreen
 62
1
100
AcDbLine
 10
23.297179
 20
-15.928288
 30
0.0
 11
23.132610
 21
-15.928288
 31
0.0
  0
LINE
  5
1dd
100
AcDbEntity
  8
silkscreen
 62
1
100
AcDbLine
 10
23.132610
 20
-15.928288
 30
0.0
 11
23.132610
 21
-15.183915
 31
0.0
  0
LINE
  5
1de
100
AcDbEntity
  8
silkscreen
 62
1
100
AcDbLine
 10
23.132610
 20
-15.183915
 30
0.0
 11
23.297179
 21
-15.183915
 31
0.0
  0
LINE
  5
1df
100
AcDbEntity
  8
silkscreen
 62
1
100
AcDbLine
 10
23.297179
 20
-15.183915
 30
0.0
 11
23.297179
 21
-15.928288
 31
0.0
  0
LINE
  5
1e0
100
AcDbEntity
  8
silkscreen
 62
1
100
AcDbLine
 10
22.646938
 20
-15.928288
 30
0.0
 11
22.482370
 21
-15.928288
 31
0.0
  0
LINE
  5
1e1
100
AcDbEntity
  8
silkscreen
 62
1
100
AcDbLine
 10
22.482370
 20
-15.928288
 30
0.0
 11
22.482370
 21
-15.183915
 31
0.0
  0
LINE
  5
1e2
100
AcDbEntity
  8
silkscreen
 62
1
100
AcDbLine
 10
22.482370
 20
-15.183915
 30
0.0
 11
22.646938
 21
-15.183915
 31
0.0
  0
LINE
  5
1e3
100
AcDbEntity
  8
silkscreen
 62
1
100
AcDbLine
 10
22.646938
 20
-15.183915
 30
0.0
 11
22.646938
 21
-15.928288
 31
0.0
  0
LINE
  5
1e4
100
AcDbEntity
  8
silkscreen
 62
1
100
AcDbLine
 10
21.997419
 20
-15.928288
 30
0.0
 11
21.833945
 21
-15.928288
 31
0.0
  0
LINE
  5
1e5
100
AcDbEntity
  8
silkscreen
 62
1
100
AcDbLine
 10
21.833945
 20
-15.928288
 30
0.0
 11
21.833945
 21
-15.183915
 31
0.0
  0
LINE
  5
1e6
100
AcDbEntity
  8
silkscreen
 62
1
100
AcDbLine
 10
21.833945
 20
-15.183915
 30
0.0
 11
21.997419
 21
-15.183915
 31
0.0
  0
LINE
  5
1e7
100
AcDbEntity
  8
silkscreen
 62
1
100
AcDbLine
 10
21.997419
 20
-15.183915
 30
0.0
 11
21.997419
 21
-15.928288
 31
0.0
  0
LINE
  5
1e8
100
AcDbEntity
  8
silkscreen
 62
1
100
AcDbLine
 10
21.347182
 20
-15.928288
 30
0.0
 11
21.183708
 21
-15.928288
 31
0.0
  0
LINE
  5
1e9
100
AcDbEntity
  8
silkscreen
 62
1
100
AcDbLine
 10
21.183708
 20
-15.928288
 30
0.0
 11
21.183708
 21
-15.183915
 31
0.0
  0
LINE
  5
1ea
100
AcDbEntity
  8
silkscreen
 62
1
100
AcDbLine
 10
21.183708
 20
-15.183915
 30
0.0
 11
21.347182
 21
-15.183915
 31
0.0
  0
LINE
  5
1eb
100
AcDbEntity
  8
silkscreen
 62
1
100
AcDbLine
 10
21.347182
 20
-15.183915
 30
0.0
 11
21.347182
 21
-15.928288
 31
0.0
  0
LINE
  5
1ec
100
AcDbEntity
  8
silkscreen
 62
1
100
AcDbLine
 10
20.696940
 20
-15.928288
 30
0.0
 11
20.533465
 21
-15.928288
 31
0.0
  0
LINE
  5
1ed
100
AcDbEntity
  8
silkscreen
 62
1
100
AcDbLine
 10
20.533465
 20
-15.928288
 30
0.0
 11
20.533465
 21
-15.183915
 31
0.0
  0
LINE
  5
1ee
100
AcDbEntity
  8
silkscreen
 62
1
100
AcDbLine
 10
20.533465
 20
-15.183915
 30
0.0
 11
20.696940
 21
-15.183915
 31
0.0
  0
LINE
  5
1ef
100
AcDbEntity
  8
silkscreen
 62
1
100
AcDbLine
 10
20.696940
 20
-15.183915
 30
0.0
 11
20.696940
 21
-15.928288
 31
0.0
  0
LINE
  5
1f0
100
AcDbEntity
  8
silkscreen
 62
1
100
AcDbLine
 10
20.046701
 20
-15.928288
 30
0.0
 11
19.883226
 21
-15.928288
 31
0.0
  0
LINE
  5
1f1
100
AcDbEntity
  8
silkscreen
 62
1
100
AcDbLine
 10
19.883226
 20
-15.928288
 30
0.0
 11
19.883226
 21
-15.183915
 31
0.0
  0
LINE
  5
1f2
100
AcDbEntity
  8
silkscreen
 62
1
100
AcDbLine
 10
19.883226
 20
-15.183915
 30
0.0
 11
20.046701
 21
-15.183915
 31
0.0
  0
LINE
  5
1f3
100
AcDbEntity
  8
silkscreen
 62
1
100
AcDbLine
 10
20.046701
 20
-15.183915
 30
0.0
 11
20.046701
 21
-15.928288
 31
0.0
  0
LINE
  5
1f4
100
AcDbEntity
  8
silkscreen
 62
1
100
AcDbLine
 10
19.396461
 20
-15.928288
 30
0.0
 11
19.232987
 21
-15.928288
 31
0.0
  0
LINE
  5
1f5
100
AcDbEntity
  8
silkscreen
 62
1
100
AcDbLine
 10
19.232987
 20
-15.928288
 30
0.0
 11
19.232987
 21
-15.183915
 31
0.0
  0
LINE
  5
1f6
100
AcDbEntity
  8
silkscreen
 62
1
100
AcDbLine
 10
19.232987
 20
-15.183915
 30
0.0
 11
19.396461
 21
-15.183915
 31
0.0
  0
LINE
  5
1f7
100
AcDbEntity
  8
silkscreen
 62
1
100
AcDbLine
 10
19.396461
 20
-15.183915
 30
0.0
 11
19.396461
 21
-15.928288
 31
0.0
  0
LINE
  5
1f8
100
AcDbEntity
  8
silkscreen
 62
1
100
AcDbLine
 10
18.746220
 20
-15.928288
 30
0.0
 11
18.582746
 21
-15.928288
 31
0.0
  0
LINE
  5
1f9
100
AcDbEntity
  8
silkscreen
 62
1
100
AcDbLine
 10
18.582746
 20
-15.928288
 30
0.0
 11
18.582746
 21
-15.183915
 31
0.0
  0
LINE
  5
1fa
100
AcDbEntity
  8
silkscreen
 62
1
100
AcDbLine
 10
18.582746
 20
-15.183915
 30
0.0
 11
18.746220
 21
-15.183915
 31
0.0
  0
LINE
  5
1fb
100
AcDbEntity
  8
silkscreen
 62
1
100
AcDbLine
 10
18.746220
 20
-15.183915
 30
0.0
 11
18.746220
 21
-15.928288
 31
0.0
  0
LINE
  5
1fc
100
AcDbEntity
  8
silkscreen
 62
1
100
AcDbLine
 10
18.097799
 20
-15.928288
 30
0.0
 11
17.933230
 21
-15.928288
 31
0.0
  0
LINE
  5
1fd
100
AcDbEntity
  8
silkscreen
 62
1
100
AcDbLine
 10
17.933230
 20
-15.928288
 30
0.0
 11
17.933230
 21
-15.183915
 31
0.0
  0
LINE
  5
1fe
100
AcDbEntity
  8
silkscreen
 62
1
100
AcDbLine
 10
17.933230
 20
-15.183915
 30
0.0
 11
18.097799
 21
-15.183915
 31
0.0
  0
LINE
  5
1ff
100
AcDbEntity
  8
silkscreen
 62
1
100
AcDbLine
 10
18.097799
 20
-15.183915
 30
0.0
 11
18.097799
 21
-15.928288
 31
0.0
  0
LINE
  5
200
100
AcDbEntity
  8
silkscreen
 62
1
100
AcDbLine
 10
17.447557
 20
-15.928288
 30
0.0
 11
17.282989
 21
-15.928288
 31
0.0
  0
LINE
  5
201
100
AcDbEntity
  8
silkscreen
 62
1
100
AcDbLine
 10
17.282989
 20
-15.928288
 30
0.0
 11
17.282989
 21
-15.183915
 31
0.0
  0
LINE
  5
202
100
AcDbEntity
  8
silkscreen
 62
1
100
AcDbLine
 10
17.282989
 20
-15.183915
 30
0.0
 11
17.447557
 21
-15.183915
 31
0.0
  0
LINE
  5
203
100
AcDbEntity
  8
silkscreen
 62
1
100
AcDbLine
 10
17.447557
 20
-15.183915
 30
0.0
 11
17.447557
 21
-15.928288
 31
0.0
  0
LINE
  5
204
100
AcDbEntity
  8
silkscreen
 62
1
100
AcDbLine
 10
16.797319
 20
-15.928288
 30
0.0
 11
16.632751
 21
-15.928288
 31
0.0
  0
LINE
  5
205
100
AcDbEntity
  8
silkscreen
 62
1
100
AcDbLine
 10
16.632751
 20
-15.928288
 30
0.0
 11
16.632751
 21
-15.183915
 31
0.0
  0
LINE
  5
206
100
AcDbEntity
  8
silkscreen
 62
1
100
AcDbLine
 10
16.632751
 20
-15.183915
 30
0.0
 11
16.797319
 21
-15.183915
 31
0.0
  0
LINE
  5
207
100
AcDbEntity
  8
silkscreen
 62
1
100
AcDbLine
 10
16.797319
 20
-15.183915
 30
0.0
 11
16.797319
 21
-15.928288
 31
0.0
  0
LINE
  5
208
100
AcDbEntity
  8
silkscreen
 62
1
100
AcDbLine
 10
16.147078
 20
-15.928288
 30
0.0
 11
15.982509
 21
-15.928288
 31
0.0
  0
LINE
  5
209
100
AcDbEntity
  8
silkscreen
 62
1
100
AcDbLine
 10
15.982509
 20
-15.928288
 30
0.0
 11
15.982509
 21
-15.183915
 31
0.0
  0
LINE
  5
20a
100
AcDbEntity
  8
silkscreen
 62
1
100
AcDbLine
 10
15.982509
 20
-15.183915
 30
0.0
 11
16.147078
 21
-15.183915
 31
0.0
  0
LINE
  5
20b
100
AcDbEntity
  8
silkscreen
 62
1
100
AcDbLine
 10
16.147078
 20
-15.183915
 30
0.0
 11
16.147078
 21
-15.928288
 31
0.0
  0
LINE
  5
20c
100
AcDbEntity
  8
silkscreen
 62
1
100
AcDbLine
 10
10.892612
 20
-17.385988
 30
0.0
 11
11.399284
 21
-17.385988
 31
0.0
  0
LINE
  5
20d
100
AcDbEntity
  8
silkscreen
 62
1
100
AcDbLine
 10
11.399284
 20
-17.385988
 30
0.0
 11
11.399284
 21
-17.927109
 31
0.0
  0
LINE
  5
20e
100
AcDbEntity
  8
silkscreen
 62
1
100
AcDbLine
 10
11.399284
 20
-17.927109
 30
0.0
 11
10.892612
 21
-17.927109
 31
0.0
  0
LINE
  5
20f
100
AcDbEntity
  8
silkscreen
 62
1
100
AcDbLine
 10
10.892612
 20
-17.927109
 30
0.0
 11
10.892612
 21
-17.385988
 31
0.0
  0
LINE
  5
210
100
AcDbEntity
  8
silkscreen
 62
1
100
AcDbLine
 10
10.892612
 20
-18.884588
 30
0.0
 11
11.399284
 21
-18.884588
 31
0.0
  0
LINE
  5
211
100
AcDbEntity
  8
silkscreen
 62
1
100
AcDbLine
 10
11.399284
 20
-18.884588
 30
0.0
 11
11.399284
 21
-19.425709
 31
0.0
  0
LINE
  5
212
100
AcDbEntity
  8
silkscreen
 62
1
100
AcDbLine
 10
11.399284
 20
-19.425709
 30
0.0
 11
10.892612
 21
-19.425709
 31
0.0
  0
LINE
  5
213
100
AcDbEntity
  8
silkscreen
 62
1
100
AcDbLine
 10
10.892612
 20
-19.425709
 30
0.0
 11
10.892612
 21
-18.884588
 31
0.0
  0
LINE
  5
214
100
AcDbEntity
  8
silkscreen
 62
1
100
AcDbLine
 10
12.416612
 20
-18.884588
 30
0.0
 11
12.923284
 21
-18.884588
 31
0.0
  0
LINE
  5
215
100
AcDbEntity
  8
silkscreen
 62
1
100
AcDbLine
 10
12.923284
 20
-18.884588
 30
0.0
 11
12.923284
 21
-19.425709
 31
0.0
  0
LINE
  5
216
100
AcDbEntity
  8
silkscreen
 62
1
100
AcDbLine
 10
12.923284
 20
-19.425709
 30
0.0
 11
12.416612
 21
-19.425709
 31
0.0
  0
LINE
  5
217
100
AcDbEntity
  8
silkscreen
 62
1
100
AcDbLine
 10
12.416612
 20
-19.425709
 30
0.0
 11
12.416612
 21
-18.884588
 31
0.0
  0
LINE
  5
218
100
AcDbEntity
  8
silkscreen
 62
1
100
AcDbLine
 10
12.416612
 20
-17.385988
 30
0.0
 11
12.923284
 21
-17.385988
 31
0.0
  0
LINE
  5
219
100
AcDbEntity
  8
silkscreen
 62
1
100
AcDbLine
 10
12.923284
 20
-17.385988
 30
0.0
 11
12.923284
 21
-17.927109
 31
0.0
  0
LINE
  5
21a
100
AcDbEntity
  8
silkscreen
 62
1
100
AcDbLine
 10
12.923284
 20
-17.927109
 30
0.0
 11
12.416612
 21
-17.927109
 31
0.0
  0
LINE
  5
21b
100
AcDbEntity
  8
silkscreen
 62
1
100
AcDbLine
 10
12.416612
 20
-17.927109
 30
0.0
 11
12.416612
 21
-17.385988
 31
0.0
  0
LINE
  5
21c
100
AcDbEntity
  8
silkscreen
 62
1
100
AcDbLine
 10
22.826088
 20
-36.693308
 30
0.0
 11
22.826088
 21
-36.186641
 31
0.0
  0
LINE
  5
21d
100
AcDbEntity
  8
silkscreen
 62
1
100
AcDbLine
 10
22.826088
 20
-36.186641
 30
0.0
 11
23.367209
 21
-36.186641
 31
0.0
  0
LINE
  5
21e
100
AcDbEntity
  8
silkscreen
 62
1
100
AcDbLine
 10
23.367209
 20
-36.186641
 30
0.0
 11
23.367209
 21
-36.693308
 31
0.0
  0
LINE
  5
21f
100
AcDbEntity
  8
silkscreen
 62
1
100
AcDbLine
 10
23.367209
 20
-36.693308
 30
0.0
 11
22.826088
 21
-36.693308
 31
0.0
  0
LINE
  5
220
100
AcDbEntity
  8
silkscreen
 62
1
100
AcDbLine
 10
24.324688
 20
-36.693308
 30
0.0
 11
24.324688
 21
-36.186641
 31
0.0
  0
LINE
  5
221
100
AcDbEntity
  8
silkscreen
 62
1
100
AcDbLine
 10
24.324688
 20
-36.186641
 30
0.0
 11
24.865809
 21
-36.186641
 31
0.0
  0
LINE
  5
222
100
AcDbEntity
  8
silkscreen
 62
1
100
AcDbLine
 10
24.865809
 20
-36.186641
 30
0.0
 11
24.865809
 21
-36.693308
 31
0.0
  0
LINE
  5
223
100
AcDbEntity
  8
silkscreen
 62
1
100
AcDbLine
 10
24.865809
 20
-36.693308
 30
0.0
 11
24.324688
 21
-36.693308
 31
0.0
  0
LINE
  5
224
100
AcDbEntity
  8
silkscreen
 62
1
100
AcDbLine
 10
22.373089
 20
-48.026216
 30
0.0
 11
21.763070
 21
-48.026216
 31
0.0
  0
LINE
  5
225
100
AcDbEntity
  8
silkscreen
 62
1
100
AcDbLine
 10
21.763070
 20
-48.026216
 30
0.0
 11
21.763070
 21
-47.688343
 31
0.0
  0
LINE
  5
226
100
AcDbEntity
  8
silkscreen
 62
1
100
AcDbLine
 10
21.763070
 20
-47.688343
 30
0.0
 11
22.373089
 21
-47.688343
 31
0.0
  0
LINE
  5
227
100
AcDbEntity
  8
silkscreen
 62
1
100
AcDbLine
 10
22.373089
 20
-47.688343
 30
0.0
 11
22.373089
 21
-48.026216
 31
0.0
  0
LINE
  5
228
100
AcDbEntity
  8
silkscreen
 62
1
100
AcDbLine
 10
22.373089
 20
-46.527616
 30
0.0
 11
21.763070
 21
-46.527616
 31
0.0
  0
LINE
  5
229
100
AcDbEntity
  8
silkscreen
 62
1
100
AcDbLine
 10
21.763070
 20
-46.527616
 30
0.0
 11
21.763070
 21
-46.189743
 31
0.0
  0
LINE
  5
22a
100
AcDbEntity
  8
silkscreen
 62
1
100
AcDbLine
 10
21.763070
 20
-46.189743
 30
0.0
 11
22.373089
 21
-46.189743
 31
0.0
  0
LINE
  5
22b
100
AcDbEntity
  8
silkscreen
 62
1
100
AcDbLine
 10
22.373089
 20
-46.189743
 30
0.0
 11
22.373089
 21
-46.527616
 31
0.0
  0
LINE
  5
22c
100
AcDbEntity
  8
silkscreen
 62
1
100
AcDbLine
 10
28.066313
 20
-14.798837
 30
0.0
 11
28.066313
 21
-15.408857
 31
0.0
  0
LINE
  5
22d
100
AcDbEntity
  8
silkscreen
 62
1
100
AcDbLine
 10
28.066313
 20
-15.408857
 30
0.0
 11
27.728448
 21
-15.408857
 31
0.0
  0
LINE
  5
22e
100
AcDbEntity
  8
silkscreen
 62
1
100
AcDbLine
 10
27.728448
 20
-15.408857
 30
0.0
 11
27.728448
 21
-14.798837
 31
0.0
  0
LINE
  5
22f
100
AcDbEntity
  8
silkscreen
 62
1
100
AcDbLine
 10
27.728448
 20
-14.798837
 30
0.0
 11
28.066313
 21
-14.798837
 31
0.0
  0
LINE
  5
230
100
AcDbEntity
  8
silkscreen
 62
1
100
AcDbLine
 10
26.567716
 20
-14.798837
 30
0.0
 11
26.567716
 21
-15.408857
 31
0.0
  0
LINE
  5
231
100
AcDbEntity
  8
silkscreen
 62
1
100
AcDbLine
 10
26.567716
 20
-15.408857
 30
0.0
 11
26.229848
 21
-15.408857
 31
0.0
  0
LINE
  5
232
100
AcDbEntity
  8
silkscreen
 62
1
100
AcDbLine
 10
26.229848
 20
-15.408857
 30
0.0
 11
26.229848
 21
-14.798837
 31
0.0
  0
LINE
  5
233
100
AcDbEntity
  8
silkscreen
 62
1
100
AcDbLine
 10
26.229848
 20
-14.798837
 30
0.0
 11
26.567716
 21
-14.798837
 31
0.0
  0
LINE
  5
234
100
AcDbEntity
  8
silkscreen
 62
1
100
AcDbLine
 10
14.012314
 20
-24.552989
 30
0.0
 11
14.012314
 21
-23.942969
 31
0.0
  0
LINE
  5
235
100
AcDbEntity
  8
silkscreen
 62
1
100
AcDbLine
 10
14.012314
 20
-23.942969
 30
0.0
 11
14.350184
 21
-23.942969
 31
0.0
  0
LINE
  5
236
100
AcDbEntity
  8
silkscreen
 62
1
100
AcDbLine
 10
14.350184
 20
-23.942969
 30
0.0
 11
14.350184
 21
-24.552989
 31
0.0
  0
LINE
  5
237
100
AcDbEntity
  8
silkscreen
 62
1
100
AcDbLine
 10
14.350184
 20
-24.552989
 30
0.0
 11
14.012314
 21
-24.552989
 31
0.0
  0
LINE
  5
238
100
AcDbEntity
  8
silkscreen
 62
1
100
AcDbLine
 10
12.513714
 20
-24.552989
 30
0.0
 11
12.513714
 21
-23.942969
 31
0.0
  0
LINE
  5
239
100
AcDbEntity
  8
silkscreen
 62
1
100
AcDbLine
 10
12.513714
 20
-23.942969
 30
0.0
 11
12.851584
 21
-23.942969
 31
0.0
  0
LINE
  5
23a
100
AcDbEntity
  8
silkscreen
 62
1
100
AcDbLine
 10
12.851584
 20
-23.942969
 30
0.0
 11
12.851584
 21
-24.552989
 31
0.0
  0
LINE
  5
23b
100
AcDbEntity
  8
silkscreen
 62
1
100
AcDbLine
 10
12.851584
 20
-24.552989
 30
0.0
 11
12.513714
 21
-24.552989
 31
0.0
  0
LINE
  5
23c
100
AcDbEntity
  8
silkscreen
 62
1
100
AcDbLine
 10
24.027719
 20
-44.516838
 30
0.0
 11
24.027719
 21
-45.126857
 31
0.0
  0
LINE
  5
23d
100
AcDbEntity
  8
silkscreen
 62
1
100
AcDbLine
 10
24.027719
 20
-45.126857
 30
0.0
 11
23.689850
 21
-45.126857
 31
0.0
  0
LINE
  5
23e
100
AcDbEntity
  8
silkscreen
 62
1
100
AcDbLine
 10
23.689850
 20
-45.126857
 30
0.0
 11
23.689850
 21
-44.516838
 31
0.0
  0
LINE
  5
23f
100
AcDbEntity
  8
silkscreen
 62
1
100
AcDbLine
 10
23.689850
 20
-44.516838
 30
0.0
 11
24.027719
 21
-44.516838
 31
0.0
  0
LINE
  5
240
100
AcDbEntity
  8
silkscreen
 62
1
100
AcDbLine
 10
25.526316
 20
-44.516838
 30
0.0
 11
25.526316
 21
-45.126857
 31
0.0
  0
LINE
  5
241
100
AcDbEntity
  8
silkscreen
 62
1
100
AcDbLine
 10
25.526316
 20
-45.126857
 30
0.0
 11
25.188449
 21
-45.126857
 31
0.0
  0
LINE
  5
242
100
AcDbEntity
  8
silkscreen
 62
1
100
AcDbLine
 10
25.188449
 20
-45.126857
 30
0.0
 11
25.188449
 21
-44.516838
 31
0.0
  0
LINE
  5
243
100
AcDbEntity
  8
silkscreen
 62
1
100
AcDbLine
 10
25.188449
 20
-44.516838
 30
0.0
 11
25.526316
 21
-44.516838
 31
0.0
  0
LINE
  5
244
100
AcDbEntity
  8
silkscreen
 62
1
100
AcDbLine
 10
11.197091
 20
-29.738217
 30
0.0
 11
10.587071
 21
-29.738217
 31
0.0
  0
LINE
  5
245
100
AcDbEntity
  8
silkscreen
 62
1
100
AcDbLine
 10
10.587071
 20
-29.738217
 30
0.0
 11
10.587071
 21
-29.400343
 31
0.0
  0
LINE
  5
246
100
AcDbEntity
  8
silkscreen
 62
1
100
AcDbLine
 10
10.587071
 20
-29.400343
 30
0.0
 11
11.197091
 21
-29.400343
 31
0.0
  0
LINE
  5
247
100
AcDbEntity
  8
silkscreen
 62
1
100
AcDbLine
 10
11.197091
 20
-29.400343
 30
0.0
 11
11.197091
 21
-29.738217
 31
0.0
  0
LINE
  5
248
100
AcDbEntity
  8
silkscreen
 62
1
100
AcDbLine
 10
11.197091
 20
-28.239614
 30
0.0
 11
10.587071
 21
-28.239614
 31
0.0
  0
LINE
  5
249
100
AcDbEntity
  8
silkscreen
 62
1
100
AcDbLine
 10
10.587071
 20
-28.239614
 30
0.0
 11
10.587071
 21
-27.901743
 31
0.0
  0
LINE
  5
24a
100
AcDbEntity
  8
silkscreen
 62
1
100
AcDbLine
 10
10.587071
 20
-27.901743
 30
0.0
 11
11.197091
 21
-27.901743
 31
0.0
  0
LINE
  5
24b
100
AcDbEntity
  8
silkscreen
 62
1
100
AcDbLine
 10
11.197091
 20
-27.901743
 30
0.0
 11
11.197091
 21
-28.239614
 31
0.0
  0
LINE
  5
24c
100
AcDbEntity
  8
silkscreen
 62
1
100
AcDbLine
 10
28.723094
 20
-38.374216
 30
0.0
 11
28.113075
 21
-38.374216
 31
0.0
  0
LINE
  5
24d
100
AcDbEntity
  8
silkscreen
 62
1
100
AcDbLine
 10
28.113075
 20
-38.374216
 30
0.0
 11
28.113075
 21
-38.036343
 31
0.0
  0
LINE
  5
24e
100
AcDbEntity
  8
silkscreen
 62
1
100
AcDbLine
 10
28.113075
 20
-38.036343
 30
0.0
 11
28.723094
 21
-38.036343
 31
0.0
  0
LINE
  5
24f
100
AcDbEntity
  8
silkscreen
 62
1
100
AcDbLine
 10
28.723094
 20
-38.036343
 30
0.0
 11
28.723094
 21
-38.374216
 31
0.0
  0
LINE
  5
250
100
AcDbEntity
  8
silkscreen
 62
1
100
AcDbLine
 10
28.723094
 20
-36.875616
 30
0.0
 11
28.113075
 21
-36.875616
 31
0.0
  0
LINE
  5
251
100
AcDbEntity
  8
silkscreen
 62
1
100
AcDbLine
 10
28.113075
 20
-36.875616
 30
0.0
 11
28.113075
 21
-36.537743
 31
0.0
  0
LINE
  5
252
100
AcDbEntity
  8
silkscreen
 62
1
100
AcDbLine
 10
28.113075
 20
-36.537743
 30
0.0
 11
28.723094
 21
-36.537743
 31
0.0
  0
LINE
  5
253
100
AcDbEntity
  8
silkscreen
 62
1
100
AcDbLine
 10
28.723094
 20
-36.537743
 30
0.0
 11
28.723094
 21
-36.875616
 31
0.0
  0
LINE
  5
254
100
AcDbEntity
  8
silkscreen
 62
1
100
AcDbLine
 10
11.980314
 20
-34.458987
 30
0.0
 11
11.980314
 21
-33.848970
 31
0.0
  0
LINE
  5
255
100
AcDbEntity
  8
silkscreen
 62
1
100
AcDbLine
 10
11.980314
 20
-33.848970
 30
0.0
 11
12.318184
 21
-33.848970
 31
0.0
  0
LINE
  5
256
100
AcDbEntity
  8
silkscreen
 62
1
100
AcDbLine
 10
12.318184
 20
-33.848970
 30
0.0
 11
12.318184
 21
-34.458987
 31
0.0
  0
LINE
  5
257
100
AcDbEntity
  8
silkscreen
 62
1
100
AcDbLine
 10
12.318184
 20
-34.458987
 30
0.0
 11
11.980314
 21
-34.458987
 31
0.0
  0
LINE
  5
258
100
AcDbEntity
  8
silkscreen
 62
1
100
AcDbLine
 10
10.481714
 20
-34.458987
 30
0.0
 11
10.481714
 21
-33.848970
 31
0.0
  0
LINE
  5
259
100
AcDbEntity
  8
silkscreen
 62
1
100
AcDbLine
 10
10.481714
 20
-33.848970
 30
0.0
 11
10.819584
 21
-33.848970
 31
0.0
  0
LINE
  5
25a
100
AcDbEntity
  8
silkscreen
 62
1
100
AcDbLine
 10
10.819584
 20
-33.848970
 30
0.0
 11
10.819584
 21
-34.458987
 31
0.0
  0
LINE
  5
25b
100
AcDbEntity
  8
silkscreen
 62
1
100
AcDbLine
 10
10.819584
 20
-34.458987
 30
0.0
 11
10.481714
 21
-34.458987
 31
0.0
  0
LINE
  5
25c
100
AcDbEntity
  8
silkscreen
 62
1
100
AcDbLine
 10
28.091716
 20
-33.848838
 30
0.0
 11
28.091716
 21
-34.458855
 31
0.0
  0
LINE
  5
25d
100
AcDbEntity
  8
silkscreen
 62
1
100
AcDbLine
 10
28.091716
 20
-34.458855
 30
0.0
 11
27.753848
 21
-34.458855
 31
0.0
  0
LINE
  5
25e
100
AcDbEntity
  8
silkscreen
 62
1
100
AcDbLine
 10
27.753848
 20
-34.458855
 30
0.0
 11
27.753848
 21
-33.848838
 31
0.0
  0
LINE
  5
25f
100
AcDbEntity
  8
silkscreen
 62
1
100
AcDbLine
 10
27.753848
 20
-33.848838
 30
0.0
 11
28.091716
 21
-33.848838
 31
0.0
  0
LINE
  5
260
100
AcDbEntity
  8
silkscreen
 62
1
100
AcDbLine
 10
29.590316
 20
-33.848838
 30
0.0
 11
29.590316
 21
-34.458855
 31
0.0
  0
LINE
  5
261
100
AcDbEntity
  8
silkscreen
 62
1
100
AcDbLine
 10
29.590316
 20
-34.458855
 30
0.0
 11
29.252448
 21
-34.458855
 31
0.0
  0
LINE
  5
262
100
AcDbEntity
  8
silkscreen
 62
1
100
AcDbLine
 10
29.252448
 20
-34.458855
 30
0.0
 11
29.252448
 21
-33.848838
 31
0.0
  0
LINE
  5
263
100
AcDbEntity
  8
silkscreen
 62
1
100
AcDbLine
 10
29.252448
 20
-33.848838
 30
0.0
 11
29.590316
 21
-33.848838
 31
0.0
  0
LINE
  5
264
100
AcDbEntity
  8
silkscreen
 62
1
100
AcDbLine
 10
10.989714
 20
-41.570992
 30
0.0
 11
10.989714
 21
-40.960970
 31
0.0
  0
LINE
  5
265
100
AcDbEntity
  8
silkscreen
 62
1
100
AcDbLine
 10
10.989714
 20
-40.960970
 30
0.0
 11
11.327584
 21
-40.960970
 31
0.0
  0
LINE
  5
266
100
AcDbEntity
  8
silkscreen
 62
1
100
AcDbLine
 10
11.327584
 20
-40.960970
 30
0.0
 11
11.327584
 21
-41.570992
 31
0.0
  0
LINE
  5
267
100
AcDbEntity
  8
silkscreen
 62
1
100
AcDbLine
 10
11.327584
 20
-41.570992
 30
0.0
 11
10.989714
 21
-41.570992
 31
0.0
  0
LINE
  5
268
100
AcDbEntity
  8
silkscreen
 62
1
100
AcDbLine
 10
12.488314
 20
-41.570992
 30
0.0
 11
12.488314
 21
-40.960970
 31
0.0
  0
LINE
  5
269
100
AcDbEntity
  8
silkscreen
 62
1
100
AcDbLine
 10
12.488314
 20
-40.960970
 30
0.0
 11
12.826184
 21
-40.960970
 31
0.0
  0
LINE
  5
26a
100
AcDbEntity
  8
silkscreen
 62
1
100
AcDbLine
 10
12.826184
 20
-40.960970
 30
0.0
 11
12.826184
 21
-41.570992
 31
0.0
  0
LINE
  5
26b
100
AcDbEntity
  8
silkscreen
 62
1
100
AcDbLine
 10
12.826184
 20
-41.570992
 30
0.0
 11
12.488314
 21
-41.570992
 31
0.0
  0
LINE
  5
26c
100
AcDbEntity
  8
silkscreen
 62
1
100
AcDbLine
 10
29.231094
 20
-24.912218
 30
0.0
 11
28.621075
 21
-24.912218
 31
0.0
  0
LINE
  5
26d
100
AcDbEntity
  8
silkscreen
 62
1
100
AcDbLine
 10
28.621075
 20
-24.912218
 30
0.0
 11
28.621075
 21
-24.574348
 31
0.0
  0
LINE
  5
26e
100
AcDbEntity
  8
silkscreen
 62
1
100
AcDbLine
 10
28.621075
 20
-24.574348
 30
0.0
 11
29.231094
 21
-24.574348
 31
0.0
  0
LINE
  5
26f
100
AcDbEntity
  8
silkscreen
 62
1
100
AcDbLine
 10
29.231094
 20
-24.574348
 30
0.0
 11
29.231094
 21
-24.912218
 31
0.0
  0
LINE
  5
270
100
AcDbEntity
  8
silkscreen
 62
1
100
AcDbLine
 10
29.231094
 20
-23.413618
 30
0.0
 11
28.621075
 21
-23.413618
 31
0.0
  0
LINE
  5
271
100
AcDbEntity
  8
silkscreen
 62
1
100
AcDbLine
 10
28.621075
 20
-23.413618
 30
0.0
 11
28.621075
 21
-23.075748
 31
0.0
  0
LINE
  5
272
100
AcDbEntity
  8
silkscreen
 62
1
100
AcDbLine
 10
28.621075
 20
-23.075748
 30
0.0
 11
29.231094
 21
-23.075748
 31
0.0
  0
LINE
  5
273
100
AcDbEntity
  8
silkscreen
 62
1
100
AcDbLine
 10
29.231094
 20
-23.075748
 30
0.0
 11
29.231094
 21
-23.413618
 31
0.0
  0
LINE
  5
274
100
AcDbEntity
  8
silkscreen
 62
1
100
AcDbLine
 10
15.899718
 20
-44.516838
 30
0.0
 11
15.899718
 21
-45.126857
 31
0.0
  0
LINE
  5
275
100
AcDbEntity
  8
silkscreen
 62
1
100
AcDbLine
 10
15.899718
 20
-45.126857
 30
0.0
 11
15.561848
 21
-45.126857
 31
0.0
  0
LINE
  5
276
100
AcDbEntity
  8
silkscreen
 62
1
100
AcDbLine
 10
15.561848
 20
-45.126857
 30
0.0
 11
15.561848
 21
-44.516838
 31
0.0
  0
LINE
  5
277
100
AcDbEntity
  8
silkscreen
 62
1
100
AcDbLine
 10
15.561848
 20
-44.516838
 30
0.0
 11
15.899718
 21
-44.516838
 31
0.0
  0
LINE
  5
278
100
AcDbEntity
  8
silkscreen
 62
1
100
AcDbLine
 10
17.398318
 20
-44.516838
 30
0.0
 11
17.398318
 21
-45.126857
 31
0.0
  0
LINE
  5
279
100
AcDbEntity
  8
silkscreen
 62
1
100
AcDbLine
 10
17.398318
 20
-45.126857
 30
0.0
 11
17.060448
 21
-45.126857
 31
0.0
  0
LINE
  5
27a
100
AcDbEntity
  8
silkscreen
 62
1
100
AcDbLine
 10
17.060448
 20
-45.126857
 30
0.0
 11
17.060448
 21
-44.516838
 31
0.0
  0
LINE
  5
27b
100
AcDbEntity
  8
silkscreen
 62
1
100
AcDbLine
 10
17.060448
 20
-44.516838
 30
0.0
 11
17.398318
 21
-44.516838
 31
0.0
  0
LINE
  5
27c
100
AcDbEntity
  8
silkscreen
 62
1
100
AcDbLine
 10
23.664314
 20
-31.664989
 30
0.0
 11
23.664314
 21
-31.054970
 31
0.0
  0
LINE
  5
27d
100
AcDbEntity
  8
silkscreen
 62
1
100
AcDbLine
 10
23.664314
 20
-31.054970
 30
0.0
 11
24.002184
 21
-31.054970
 31
0.0
  0
LINE
  5
27e
100
AcDbEntity
  8
silkscreen
 62
1
100
AcDbLine
 10
24.002184
 20
-31.054970
 30
0.0
 11
24.002184
 21
-31.664989
 31
0.0
  0
LINE
  5
27f
100
AcDbEntity
  8
silkscreen
 62
1
100
AcDbLine
 10
24.002184
 20
-31.664989
 30
0.0
 11
23.664314
 21
-31.664989
 31
0.0
  0
LINE
  5
280
100
AcDbEntity
  8
silkscreen
 62
1
100
AcDbLine
 10
22.165715
 20
-31.664989
 30
0.0
 11
22.165715
 21
-31.054970
 31
0.0
  0
LINE
  5
281
100
AcDbEntity
  8
silkscreen
 62
1
100
AcDbLine
 10
22.165715
 20
-31.054970
 30
0.0
 11
22.503585
 21
-31.054970
 31
0.0
  0
LINE
  5
282
100
AcDbEntity
  8
silkscreen
 62
1
100
AcDbLine
 10
22.503585
 20
-31.054970
 30
0.0
 11
22.503585
 21
-31.664989
 31
0.0
  0
LINE
  5
283
100
AcDbEntity
  8
silkscreen
 62
1
100
AcDbLine
 10
22.503585
 20
-31.664989
 30
0.0
 11
22.165715
 21
-31.664989
 31
0.0
  0
LINE
  5
284
100
AcDbEntity
  8
silkscreen
 62
1
100
AcDbLine
 10
11.451091
 20
-16.517926
 30
0.0
 11
10.841071
 21
-16.517926
 31
0.0
  0
LINE
  5
285
100
AcDbEntity
  8
silkscreen
 62
1
100
AcDbLine
 10
10.841071
 20
-16.517926
 30
0.0
 11
10.841071
 21
-16.181778
 31
0.0
  0
LINE
  5
286
100
AcDbEntity
  8
silkscreen
 62
1
100
AcDbLine
 10
10.841071
 20
-16.181778
 30
0.0
 11
11.451091
 21
-16.181778
 31
0.0
  0
LINE
  5
287
100
AcDbEntity
  8
silkscreen
 62
1
100
AcDbLine
 10
11.451091
 20
-16.181778
 30
0.0
 11
11.451091
 21
-16.517926
 31
0.0
  0
LINE
  5
288
100
AcDbEntity
  8
silkscreen
 62
1
100
AcDbLine
 10
11.451091
 20
-15.018917
 30
0.0
 11
10.841071
 21
-15.018917
 31
0.0
  0
LINE
  5
289
100
AcDbEntity
  8
silkscreen
 62
1
100
AcDbLine
 10
10.841071
 20
-15.018917
 30
0.0
 11
10.841071
 21
-14.681048
 31
0.0
  0
LINE
  5
28a
100
AcDbEntity
  8
silkscreen
 62
1
100
AcDbLine
 10
10.841071
 20
-14.681048
 30
0.0
 11
11.451091
 21
-14.681048
 31
0.0
  0
LINE
  5
28b
100
AcDbEntity
  8
silkscreen
 62
1
100
AcDbLine
 10
11.451091
 20
-14.681048
 30
0.0
 11
11.451091
 21
-15.018917
 31
0.0
  0
LINE
  5
28c
100
AcDbEntity
  8
silkscreen
 62
1
100
AcDbLine
 10
14.499091
 20
-19.324217
 30
0.0
 11
13.889071
 21
-19.324217
 31
0.0
  0
LINE
  5
28d
100
AcDbEntity
  8
silkscreen
 62
1
100
AcDbLine
 10
13.889071
 20
-19.324217
 30
0.0
 11
13.889071
 21
-18.986348
 31
0.0
  0
LINE
  5
28e
100
AcDbEntity
  8
silkscreen
 62
1
100
AcDbLine
 10
13.889071
 20
-18.986348
 30
0.0
 11
14.499091
 21
-18.986348
 31
0.0
  0
LINE
  5
28f
100
AcDbEntity
  8
silkscreen
 62
1
100
AcDbLine
 10
14.499091
 20
-18.986348
 30
0.0
 11
14.499091
 21
-19.324217
 31
0.0
  0
LINE
  5
290
100
AcDbEntity
  8
silkscreen
 62
1
100
AcDbLine
 10
14.499091
 20
-17.825619
 30
0.0
 11
13.889071
 21
-17.825619
 31
0.0
  0
LINE
  5
291
100
AcDbEntity
  8
silkscreen
 62
1
100
AcDbLine
 10
13.889071
 20
-17.825619
 30
0.0
 11
13.889071
 21
-17.487749
 31
0.0
  0
LINE
  5
292
100
AcDbEntity
  8
silkscreen
 62
1
100
AcDbLine
 10
13.889071
 20
-17.487749
 30
0.0
 11
14.499091
 21
-17.487749
 31
0.0
  0
LINE
  5
293
100
AcDbEntity
  8
silkscreen
 62
1
100
AcDbLine
 10
14.499091
 20
-17.487749
 30
0.0
 11
14.499091
 21
-17.825619
 31
0.0
  0
LINE
  5
294
100
AcDbEntity
  8
silkscreen
 62
1
100
AcDbLine
 10
13.229091
 20
-22.118218
 30
0.0
 11
12.619071
 21
-22.118218
 31
0.0
  0
LINE
  5
295
100
AcDbEntity
  8
silkscreen
 62
1
100
AcDbLine
 10
12.619071
 20
-22.118218
 30
0.0
 11
12.619071
 21
-21.780348
 31
0.0
  0
LINE
  5
296
100
AcDbEntity
  8
silkscreen
 62
1
100
AcDbLine
 10
12.619071
 20
-21.780348
 30
0.0
 11
13.229091
 21
-21.780348
 31
0.0
  0
LINE
  5
297
100
AcDbEntity
  8
silkscreen
 62
1
100
AcDbLine
 10
13.229091
 20
-21.780348
 30
0.0
 11
13.229091
 21
-22.118218
 31
0.0
  0
LINE
  5
298
100
AcDbEntity
  8
silkscreen
 62
1
100
AcDbLine
 10
13.229091
 20
-20.619617
 30
0.0
 11
12.619071
 21
-20.619617
 31
0.0
  0
LINE
  5
299
100
AcDbEntity
  8
silkscreen
 62
1
100
AcDbLine
 10
12.619071
 20
-20.619617
 30
0.0
 11
12.619071
 21
-20.281748
 31
0.0
  0
LINE
  5
29a
100
AcDbEntity
  8
silkscreen
 62
1
100
AcDbLine
 10
12.619071
 20
-20.281748
 30
0.0
 11
13.229091
 21
-20.281748
 31
0.0
  0
LINE
  5
29b
100
AcDbEntity
  8
silkscreen
 62
1
100
AcDbLine
 10
13.229091
 20
-20.281748
 30
0.0
 11
13.229091
 21
-20.619617
 31
0.0
  0
LINE
  5
29c
100
AcDbEntity
  8
silkscreen
 62
1
100
AcDbLine
 10
11.451091
 20
-20.619617
 30
0.0
 11
10.841071
 21
-20.619617
 31
0.0
  0
LINE
  5
29d
100
AcDbEntity
  8
silkscreen
 62
1
100
AcDbLine
 10
10.841071
 20
-20.619617
 30
0.0
 11
10.841071
 21
-20.281748
 31
0.0
  0
LINE
  5
29e
100
AcDbEntity
  8
silkscreen
 62
1
100
AcDbLine
 10
10.841071
 20
-20.281748
 30
0.0
 11
11.451091
 21
-20.281748
 31
0.0
  0
LINE
  5
29f
100
AcDbEntity
  8
silkscreen
 62
1
100
AcDbLine
 10
11.451091
 20
-20.281748
 30
0.0
 11
11.451091
 21
-20.619617
 31
0.0
  0
LINE
  5
2a0
100
AcDbEntity
  8
silkscreen
 62
1
100
AcDbLine
 10
11.451091
 20
-22.118218
 30
0.0
 11
10.841071
 21
-22.118218
 31
0.0
  0
LINE
  5
2a1
100
AcDbEntity
  8
silkscreen
 62
1
100
AcDbLine
 10
10.841071
 20
-22.118218
 30
0.0
 11
10.841071
 21
-21.780348
 31
0.0
  0
LINE
  5
2a2
100
AcDbEntity
  8
silkscreen
 62
1
100
AcDbLine
 10
10.841071
 20
-21.780348
 30
0.0
 11
11.451091
 21
-21.780348
 31
0.0
  0
LINE
  5
2a3
100
AcDbEntity
  8
silkscreen
 62
1
100
AcDbLine
 10
11.451091
 20
-21.780348
 30
0.0
 11
11.451091
 21
-22.118218
 31
0.0
  0
LINE
  5
2a4
100
AcDbEntity
  8
silkscreen
 62
1
100
AcDbLine
 10
12.364938
 20
-14.680913
 30
0.0
 11
12.974958
 21
-14.680913
 31
0.0
  0
LINE
  5
2a5
100
AcDbEntity
  8
silkscreen
 62
1
100
AcDbLine
 10
12.974958
 20
-14.680913
 30
0.0
 11
12.974958
 21
-15.018783
 31
0.0
  0
LINE
  5
2a6
100
AcDbEntity
  8
silkscreen
 62
1
100
AcDbLine
 10
12.974958
 20
-15.018783
 30
0.0
 11
12.364938
 21
-15.018783
 31
0.0
  0
LINE
  5
2a7
100
AcDbEntity
  8
silkscreen
 62
1
100
AcDbLine
 10
12.364938
 20
-15.018783
 30
0.0
 11
12.364938
 21
-14.680913
 31
0.0
  0
LINE
  5
2a8
100
AcDbEntity
  8
silkscreen
 62
1
100
AcDbLine
 10
12.364938
 20
-16.181644
 30
0.0
 11
12.974958
 21
-16.181644
 31
0.0
  0
LINE
  5
2a9
100
AcDbEntity
  8
silkscreen
 62
1
100
AcDbLine
 10
12.974958
 20
-16.181644
 30
0.0
 11
12.974958
 21
-16.517791
 31
0.0
  0
LINE
  5
2aa
100
AcDbEntity
  8
silkscreen
 62
1
100
AcDbLine
 10
12.974958
 20
-16.517791
 30
0.0
 11
12.364938
 21
-16.517791
 31
0.0
  0
LINE
  5
2ab
100
AcDbEntity
  8
silkscreen
 62
1
100
AcDbLine
 10
12.364938
 20
-16.517791
 30
0.0
 11
12.364938
 21
-16.181644
 31
0.0
  0
LINE
  5
2ac
100
AcDbEntity
  8
silkscreen
 62
1
100
AcDbLine
 10
13.888937
 20
-16.181644
 30
0.0
 11
14.498957
 21
-16.181644
 31
0.0
  0
LINE
  5
2ad
100
AcDbEntity
  8
silkscreen
 62
1
100
AcDbLine
 10
14.498957
 20
-16.181644
 30
0.0
 11
14.498957
 21
-16.517791
 31
0.0
  0
LINE
  5
2ae
100
AcDbEntity
  8
silkscreen
 62
1
100
AcDbLine
 10
14.498957
 20
-16.517791
 30
0.0
 11
13.888937
 21
-16.517791
 31
0.0
  0
LINE
  5
2af
100
AcDbEntity
  8
silkscreen
 62
1
100
AcDbLine
 10
13.888937
 20
-16.517791
 30
0.0
 11
13.888937
 21
-16.181644
 31
0.0
  0
LINE
  5
2b0
100
AcDbEntity
  8
silkscreen
 62
1
100
AcDbLine
 10
13.888937
 20
-14.680913
 30
0.0
 11
14.498957
 21
-14.680913
 31
0.0
  0
LINE
  5
2b1
100
AcDbEntity
  8
silkscreen
 62
1
100
AcDbLine
 10
14.498957
 20
-14.680913
 30
0.0
 11
14.498957
 21
-15.018783
 31
0.0
  0
LINE
  5
2b2
100
AcDbEntity
  8
silkscreen
 62
1
100
AcDbLine
 10
14.498957
 20
-15.018783
 30
0.0
 11
13.888937
 21
-15.018783
 31
0.0
  0
LINE
  5
2b3
100
AcDbEntity
  8
silkscreen
 62
1
100
AcDbLine
 10
13.888937
 20
-15.018783
 30
0.0
 11
13.888937
 21
-14.680913
 31
0.0
  0
SPLINE
  5
2b4
100
AcDbEntity
  8
silkscreen
 62
1
100
AcDbSpline
 70
8
 71
3
 72
8
 73
4
 74
0
 40
0
 40
0
 40
0
 40
0
 40
1
 40
1
 40
1
 40
1
 10
5.969729
 20
-3.924000
 30
0.0
 10
5.969729
 20
-4.313796
 30
0.0
 10
5.814883
 20
-4.687628
 30
0.0
 10
5.539256
 20
-4.963255
 30
0.0
  0
SPLINE
  5
2b5
100
AcDbEntity
  8
silkscreen
 62
1
100
AcDbSpline
 70
8
 71
3
 72
8
 73
4
 74
0
 40
0
 40
0
 40
0
 40
0
 40
1
 40
1
 40
1
 40
1
 10
5.539256
 20
-4.963255
 30
0.0
 10
5.263628
 20
-5.238883
 30
0.0
 10
4.889797
 20
-5.393729
 30
0.0
 10
4.500000
 20
-5.393729
 30
0.0
  0
SPLINE
  5
2b6
100
AcDbEntity
  8
silkscreen
 62
1
100
AcDbSpline
 70
8
 71
3
 72
8
 73
4
 74
0
 40
0
 40
0
 40
0
 40
0
 40
1
 40
1
 40
1
 40
1
 10
4.500000
 20
-5.393729
 30
0.0
 10
4.110204
 20
-5.393729
 30
0.0
 10
3.736373
 20
-5.238883
 30
0.0
 10
3.460745
 20
-4.963255
 30
0.0
  0
SPLINE
  5
2b7
100
AcDbEntity
  8
silkscreen
 62
1
100
AcDbSpline
 70
8
 71
3
 72
8
 73
4
 74
0
 40
0
 40
0
 40
0
 40
0
 40
1
 40
1
 40
1
 40
1
 10
3.460745
 20
-4.963255
 30
0.0
 10
3.185117
 20
-4.687628
 30
0.0
 10
3.030271
 20
-4.313796
 30
0.0
 10
3.030271
 20
-3.924000
 30
0.0
  0
SPLINE
  5
2b8
100
AcDbEntity
  8
silkscreen
 62
1
100
AcDbSpline
 70
8
 71
3
 72
8
 73
4
 74
0
 40
0
 40
0
 40
0
 40
0
 40
1
 40
1
 40
1
 40
1
 10
3.030271
 20
-3.924000
 30
0.0
 10
3.030271
 20
-3.534203
 30
0.0
 10
3.185117
 20
-3.160372
 30
0.0
 10
3.460745
 20
-2.884745
 30
0.0
  0
SPLINE
  5
2b9
100
AcDbEntity
  8
silkscreen
 62
1
100
AcDbSpline
 70
8
 71
3
 72
8
 73
4
 74
0
 40
0
 40
0
 40
0
 40
0
 40
1
 40
1
 40
1
 40
1
 10
3.460745
 20
-2.884745
 30
0.0
 10
3.736373
 20
-2.609117
 30
0.0
 10
4.110204
 20
-2.454271
 30
0.0
 10
4.500000
 20
-2.454271
 30
0.0
  0
SPLINE
  5
2ba
100
AcDbEntity
  8
silkscreen
 62
1
100
AcDbSpline
 70
8
 71
3
 72
8
 73
4
 74
0
 40
0
 40
0
 40
0
 40
0
 40
1
 40
1
 40
1
 40
1
 10
4.500000
 20
-2.454271
 30
0.0
 10
4.889797
 20
-2.454271
 30
0.0
 10
5.263628
 20
-2.609117
 30
0.0
 10
5.539256
 20
-2.884745
 30
0.0
  0
SPLINE
  5
2bb
100
AcDbEntity
  8
silkscreen
 62
1
100
AcDbSpline
 70
8
 71
3
 72
8
 73
4
 74
0
 40
0
 40
0
 40
0
 40
0
 40
1
 40
1
 40
1
 40
1
 10
5.539256
 20
-2.884745
 30
0.0
 10
5.814883
 20
-3.160372
 30
0.0
 10
5.969729
 20
-3.534203
 30
0.0
 10
5.969729
 20
-3.924000
 30
0.0
  0
LINE
  5
2bc
100
AcDbEntity
  8
silkscreen
 62
1
100
AcDbLine
 10
5.969729
 20
-3.924000
 30
0.0
 11
5.969729
 21
-3.924000
 31
0.0
  0
SPLINE
  5
2bd
100
AcDbEntity
  8
silkscreen
 62
1
100
AcDbSpline
 70
8
 71
3
 72
8
 73
4
 74
0
 40
0
 40
0
 40
0
 40
0
 40
1
 40
1
 40
1
 40
1
 10
36.969729
 20
-3.924000
 30
0.0
 10
36.969729
 20
-4.735708
 30
0.0
 10
36.311710
 20
-5.393728
 30
0.0
 10
35.500002
 20
-5.393729
 30
0.0
  0
SPLINE
  5
2be
100
AcDbEntity
  8
silkscreen
 62
1
100
AcDbSpline
 70
8
 71
3
 72
8
 73
4
 74
0
 40
0
 40
0
 40
0
 40
0
 40
1
 40
1
 40
1
 40
1
 10
35.500002
 20
-5.393729
 30
0.0
 10
35.110205
 20
-5.393729
 30
0.0
 10
34.736373
 20
-5.238883
 30
0.0
 10
34.460745
 20
-4.963256
 30
0.0
  0
SPLINE
  5
2bf
100
AcDbEntity
  8
silkscreen
 62
1
100
AcDbSpline
 70
8
 71
3
 72
8
 73
4
 74
0
 40
0
 40
0
 40
0
 40
0
 40
1
 40
1
 40
1
 40
1
 10
34.460745
 20
-4.963256
 30
0.0
 10
34.185117
 20
-4.687628
 30
0.0
 10
34.030271
 20
-4.313796
 30
0.0
 10
34.030271
 20
-3.924000
 30
0.0
  0
SPLINE
  5
2c0
100
AcDbEntity
  8
silkscreen
 62
1
100
AcDbSpline
 70
8
 71
3
 72
8
 73
4
 74
0
 40
0
 40
0
 40
0
 40
0
 40
1
 40
1
 40
1
 40
1
 10
34.030271
 20
-3.924000
 30
0.0
 10
34.030271
 20
-3.534203
 30
0.0
 10
34.185117
 20
-3.160372
 30
0.0
 10
34.460745
 20
-2.884744
 30
0.0
  0
SPLINE
  5
2c1
100
AcDbEntity
  8
silkscreen
 62
1
100
AcDbSpline
 70
8
 71
3
 72
8
 73
4
 74
0
 40
0
 40
0
 40
0
 40
0
 40
1
 40
1
 40
1
 40
1
 10
34.460745
 20
-2.884744
 30
0.0
 10
34.736373
 20
-2.609116
 30
0.0
 10
35.110205
 20
-2.454271
 30
0.0
 10
35.500002
 20
-2.454271
 30
0.0
  0
SPLINE
  5
2c2
100
AcDbEntity
  8
silkscreen
 62
1
100
AcDbSpline
 70
8
 71
3
 72
8
 73
4
 74
0
 40
0
 40
0
 40
0
 40
0
 40
1
 40
1
 40
1
 40
1
 10
35.500002
 20
-2.454271
 30
0.0
 10
36.311710
 20
-2.454272
 30
0.0
 10
36.969729
 20
-3.112291
 30
0.0
 10
36.969729
 20
-3.924000
 30
0.0
  0
LINE
  5
2c3
100
AcDbEntity
  8
silkscreen
 62
1
100
AcDbLine
 10
36.969729
 20
-3.924000
 30
0.0
 11
36.969729
 21
-3.924000
 31
0.0
  0
SPLINE
  5
2c4
100
AcDbEntity
  8
silkscreen
 62
1
100
AcDbSpline
 70
8
 71
3
 72
8
 73
4
 74
0
 40
0
 40
0
 40
0
 40
0
 40
1
 40
1
 40
1
 40
1
 10
5.969729
 20
-54.924000
 30
0.0
 10
5.969729
 20
-55.735708
 30
0.0
 10
5.311709
 20
-56.393728
 30
0.0
 10
4.500000
 20
-56.393728
 30
0.0
  0
SPLINE
  5
2c5
100
AcDbEntity
  8
silkscreen
 62
1
100
AcDbSpline
 70
8
 71
3
 72
8
 73
4
 74
0
 40
0
 40
0
 40
0
 40
0
 40
1
 40
1
 40
1
 40
1
 10
4.500000
 20
-56.393728
 30
0.0
 10
3.688292
 20
-56.393728
 30
0.0
 10
3.030272
 20
-55.735708
 30
0.0
 10
3.030271
 20
-54.924000
 30
0.0
  0
SPLINE
  5
2c6
100
AcDbEntity
  8
silkscreen
 62
1
100
AcDbSpline
 70
8
 71
3
 72
8
 73
4
 74
0
 40
0
 40
0
 40
0
 40
0
 40
1
 40
1
 40
1
 40
1
 10
3.030271
 20
-54.924000
 30
0.0
 10
3.030271
 20
-54.534203
 30
0.0
 10
3.185117
 20
-54.160372
 30
0.0
 10
3.460744
 20
-53.884744
 30
0.0
  0
SPLINE
  5
2c7
100
AcDbEntity
  8
silkscreen
 62
1
100
AcDbSpline
 70
8
 71
3
 72
8
 73
4
 74
0
 40
0
 40
0
 40
0
 40
0
 40
1
 40
1
 40
1
 40
1
 10
3.460744
 20
-53.884744
 30
0.0
 10
3.736372
 20
-53.609116
 30
0.0
 10
4.110204
 20
-53.454270
 30
0.0
 10
4.500000
 20
-53.454270
 30
0.0
  0
SPLINE
  5
2c8
100
AcDbEntity
  8
silkscreen
 62
1
100
AcDbSpline
 70
8
 71
3
 72
8
 73
4
 74
0
 40
0
 40
0
 40
0
 40
0
 40
1
 40
1
 40
1
 40
1
 10
4.500000
 20
-53.454270
 30
0.0
 10
4.889797
 20
-53.454270
 30
0.0
 10
5.263628
 20
-53.609116
 30
0.0
 10
5.539256
 20
-53.884744
 30
0.0
  0
SPLINE
  5
2c9
100
AcDbEntity
  8
silkscreen
 62
1
100
AcDbSpline
 70
8
 71
3
 72
8
 73
4
 74
0
 40
0
 40
0
 40
0
 40
0
 40
1
 40
1
 40
1
 40
1
 10
5.539256
 20
-53.884744
 30
0.0
 10
5.814884
 20
-54.160372
 30
0.0
 10
5.969730
 20
-54.534203
 30
0.0
 10
5.969729
 20
-54.924000
 30
0.0
  0
LINE
  5
2ca
100
AcDbEntity
  8
silkscreen
 62
1
100
AcDbLine
 10
5.969729
 20
-54.924000
 30
0.0
 11
5.969729
 21
-54.924000
 31
0.0
  0
SPLINE
  5
2cb
100
AcDbEntity
  8
silkscreen
 62
1
100
AcDbSpline
 70
8
 71
3
 72
8
 73
4
 74
0
 40
0
 40
0
 40
0
 40
0
 40
1
 40
1
 40
1
 40
1
 10
36.969729
 20
-54.924000
 30
0.0
 10
36.969729
 20
-55.735708
 30
0.0
 10
36.311709
 20
-56.393727
 30
0.0
 10
35.500002
 20
-56.393728
 30
0.0
  0
SPLINE
  5
2cc
100
AcDbEntity
  8
silkscreen
 62
1
100
AcDbSpline
 70
8
 71
3
 72
8
 73
4
 74
0
 40
0
 40
0
 40
0
 40
0
 40
1
 40
1
 40
1
 40
1
 10
35.500002
 20
-56.393728
 30
0.0
 10
35.110205
 20
-56.393728
 30
0.0
 10
34.736374
 20
-56.238882
 30
0.0
 10
34.460746
 20
-55.963255
 30
0.0
  0
SPLINE
  5
2cd
100
AcDbEntity
  8
silkscreen
 62
1
100
AcDbSpline
 70
8
 71
3
 72
8
 73
4
 74
0
 40
0
 40
0
 40
0
 40
0
 40
1
 40
1
 40
1
 40
1
 10
34.460746
 20
-55.963255
 30
0.0
 10
34.185118
 20
-55.687627
 30
0.0
 10
34.030272
 20
-55.313796
 30
0.0
 10
34.030271
 20
-54.924000
 30
0.0
  0
SPLINE
  5
2ce
100
AcDbEntity
  8
silkscreen
 62
1
100
AcDbSpline
 70
8
 71
3
 72
8
 73
4
 74
0
 40
0
 40
0
 40
0
 40
0
 40
1
 40
1
 40
1
 40
1
 10
34.030271
 20
-54.924000
 30
0.0
 10
34.030271
 20
-54.534203
 30
0.0
 10
34.185117
 20
-54.160371
 30
0.0
 10
34.460745
 20
-53.884743
 30
0.0
  0
SPLINE
  5
2cf
100
AcDbEntity
  8
silkscreen
 62
1
100
AcDbSpline
 70
8
 71
3
 72
8
 73
4
 74
0
 40
0
 40
0
 40
0
 40
0
 40
1
 40
1
 40
1
 40
1
 10
34.460745
 20
-53.884743
 30
0.0
 10
34.736373
 20
-53.609115
 30
0.0
 10
35.110205
 20
-53.454269
 30
0.0
 10
35.500002
 20
-53.454270
 30
0.0
  0
SPLINE
  5
2d0
100
AcDbEntity
  8
silkscreen
 62
1
100
AcDbSpline
 70
8
 71
3
 72
8
 73
4
 74
0
 40
0
 40
0
 40
0
 40
0
 40
1
 40
1
 40
1
 40
1
 10
35.500002
 20
-53.454270
 30
0.0
 10
35.889798
 20
-53.454270
 30
0.0
 10
36.263629
 20
-53.609116
 30
0.0
 10
36.539257
 20
-53.884744
 30
0.0
  0
SPLINE
  5
2d1
100
AcDbEntity
  8
silkscreen
 62
1
100
AcDbSpline
 70
8
 71
3
 72
8
 73
4
 74
0
 40
0
 40
0
 40
0
 40
0
 40
1
 40
1
 40
1
 40
1
 10
36.539257
 20
-53.884744
 30
0.0
 10
36.814884
 20
-54.160372
 30
0.0
 10
36.969730
 20
-54.534203
 30
0.0
 10
36.969729
 20
-54.924000
 30
0.0
  0
LINE
  5
2d2
100
AcDbEntity
  8
silkscreen
 62
1
100
AcDbLine
 10
36.969729
 20
-54.924000
 30
0.0
 11
36.969729
 21
-54.924000
 31
0.0
  0
LINE
  5
2d3
100
AcDbEntity
  8
silkscreen
 62
1
100
AcDbLine
 10
0.063633
 20
0.512367
 30
0.0
 11
39.936368
 21
0.512367
 31
0.0
  0
LINE
  5
2d4
100
AcDbEntity
  8
silkscreen
 62
1
100
AcDbLine
 10
39.936368
 20
0.512367
 30
0.0
 11
39.936368
 21
-59.360366
 31
0.0
  0
LINE
  5
2d5
100
AcDbEntity
  8
silkscreen
 62
1
100
AcDbLine
 10
39.936368
 20
-59.360366
 30
0.0
 11
0.063633
 21
-59.360366
 31
0.0
  0
LINE
  5
2d6
100
AcDbEntity
  8
silkscreen
 62
1
100
AcDbLine
 10
0.063633
 20
-59.360366
 30
0.0
 11
0.063633
 21
0.512367
 31
0.0
  0
ENDSEC
  0
SECTION
  2
OBJECTS
  0
DICTIONARY
  5
C
330
0
100
AcDbDictionary
  3
ACAD_GROUP
350
D
  3
ACAD_MLINESTYLE
350
17
  0
DICTIONARY
  5
D
330
C
100
AcDbDictionary
  0
DICTIONARY
  5
1A
330
C
100
AcDbDictionary
  0
DICTIONARY
  5
17
330
C
100
AcDbDictionary
  3
STANDARD
350
18
  0
DICTIONARY
  5
19
330
C
100
AcDbDictionary
  0
ENDSEC
  0
EOF
